<?xml version="1.0" encoding="utf-8"?>
<!-- Generator: Adobe Illustrator 15.0.0, SVG Export Plug-In . SVG Version: 6.00 Build 0)  -->
<!DOCTYPE svg PUBLIC "-//W3C//DTD SVG 1.1//EN" "http://www.w3.org/Graphics/SVG/1.1/DTD/svg11.dtd">
<svg version="1.1" id="Ebene_1" xmlns="http://www.w3.org/2000/svg" xmlns:xlink="http://www.w3.org/1999/xlink" x="0px" y="0px"
	 width="100px" height="100px" viewBox="0 0 100 100" enable-background="new 0 0 100 100" xml:space="preserve">
<rect fill-rule="evenodd" clip-rule="evenodd" fill="#FF0000" width="100" height="100"/>
<polygon fill="#FFFFF0" points="5,5 95,5 95,95 5,95 5,5 "/>
<g>
	<path fill="#FF0000" d="M68.284,56.295h10.566l12.467,32.349h-9.454l-2.41-6.905H67.311l-2.549,6.905h-8.759L68.284,56.295z
		 M73.567,62.969h-0.093L69.304,75.62h8.11L73.567,62.969z"/>
</g>
<g>
	<path fill="#FF0000" d="M11.194,88.644V10.824h25.214c9.555,0,15.783,0.39,18.686,1.168c4.459,1.167,8.192,3.708,11.2,7.617
		c3.008,3.911,4.512,8.963,4.512,15.155c0,4.777-0.867,8.794-2.601,12.05c-1.734,3.256-3.938,5.813-6.608,7.67
		c-2.673,1.858-5.389,3.088-8.148,3.689c-3.752,0.743-9.184,1.114-16.297,1.114H26.906v29.355H11.194z M26.906,23.989v22.083h8.6
		c6.192,0,10.333-0.407,12.422-1.221c2.087-0.813,3.724-2.087,4.91-3.822c1.185-1.733,1.778-3.75,1.778-6.052
		c0-2.831-0.832-5.166-2.495-7.007c-1.664-1.839-3.769-2.99-6.317-3.45c-1.876-0.354-5.645-0.531-11.307-0.531H26.906z"/>
</g>
</svg>
