<?xml version="1.0" encoding="utf-8"?>
<!-- Generator: Adobe Illustrator 15.0.0, SVG Export Plug-In . SVG Version: 6.00 Build 0)  -->
<!DOCTYPE svg PUBLIC "-//W3C//DTD SVG 1.1//EN" "http://www.w3.org/Graphics/SVG/1.1/DTD/svg11.dtd">
<svg version="1.1" id="Ebene_1" xmlns="http://www.w3.org/2000/svg" xmlns:xlink="http://www.w3.org/1999/xlink" x="0px" y="0px"
	 width="100px" height="100px" viewBox="0 0 100 100" enable-background="new 0 0 100 100" xml:space="preserve">
<rect fill-rule="evenodd" clip-rule="evenodd" fill="#FF0000" width="100" height="100"/>
<polygon fill="#FFFFF0" points="5,5 95,5 95,95 5,95 5,5 "/>
<polygon fill-rule="evenodd" clip-rule="evenodd" fill="#FF0000" points="50,9.939 95.18,40.061 87.05,40.061 87.05,90.061 
	12.955,90.061 12.955,40.061 4.821,40.061 "/>
<path fill="#FFFFF0" d="M32.286,83.435V29.533h17.465c6.618,0,10.932,0.27,12.942,0.809c3.088,0.809,5.675,2.566,7.758,5.274
	c2.084,2.708,3.125,6.209,3.125,10.499c0,3.309-0.601,6.091-1.802,8.346c-1.201,2.256-2.725,4.024-4.575,5.311
	c-1.851,1.287-3.734,2.142-5.646,2.559c-2.598,0.514-6.36,0.771-11.287,0.771h-7.097v20.333H32.286z M43.169,38.651v15.295h5.957
	c4.289,0,7.157-0.282,8.604-0.846s2.582-1.446,3.402-2.647c0.821-1.201,1.23-2.599,1.23-4.192c0-1.961-0.576-3.579-1.728-4.853
	c-1.153-1.275-2.611-2.071-4.376-2.39c-1.299-0.245-3.91-0.368-7.832-0.368H43.169z"/>
</svg>
