<?xml version="1.0" encoding="utf-8"?>
<!-- Generator: Adobe Illustrator 15.0.0, SVG Export Plug-In . SVG Version: 6.00 Build 0)  -->
<!DOCTYPE svg PUBLIC "-//W3C//DTD SVG 1.1//EN" "http://www.w3.org/Graphics/SVG/1.1/DTD/svg11.dtd">
<svg version="1.1" id="Ebene_1" xmlns="http://www.w3.org/2000/svg" xmlns:xlink="http://www.w3.org/1999/xlink" x="0px" y="0px"
	 width="100px" height="100px" viewBox="0 0 100 100" enable-background="new 0 0 100 100" xml:space="preserve">
<rect fill-rule="evenodd" clip-rule="evenodd" fill="#FF0000" width="100" height="100"/>
<polygon fill="#FFFFF0" points="5,5 95,5 95,95 5,95 5,5 "/>
<polygon fill-rule="evenodd" clip-rule="evenodd" fill="#FF0000" stroke="#FF0000" stroke-width="4.1838" stroke-miterlimit="10" points="
	27.408,28.916 50.604,21.084 86.747,21.084 86.747,69.576 27.408,69.576 "/>
<polyline fill-rule="evenodd" clip-rule="evenodd" fill="none" stroke="#FF0000" stroke-width="4.1838" stroke-miterlimit="10" points="
	26.207,62.647 9.939,62.647 9.939,55.724 "/>
<path fill-rule="evenodd" clip-rule="evenodd" fill="#FFFFF0" d="M46.687,44.276c0,0,5.724-4.82,6.627-6.626
	c0.902-1.507,0.604-1.507,1.205-2.708c0.601-1.507,1.205-1.507,2.108-2.41c0.604-0.907,1.204-1.81,0.902-3.015
	c-0.298-1.205-0.601-2.708-0.902-3.313c-0.601-0.903-0.903-1.205-0.601-1.503c0.601,0,0-0.302,0.902,0
	c1.205,0.601,1.806,0.903,2.708,1.806c0.907,0.604,3.016,3.616,4.221,4.821c0.903,1.205,3.914,3.313,5.119,3.914
	c1.205,0.604,5.421,3.313,6.324,3.918c0.604,0.903,3.015,2.708,3.015,2.708l1.503,1.81l-5.421,7.227c0,0-0.903,1.508-1.806,2.713
	c-0.604,1.205-2.107,3.914-2.107,3.914s-0.907-0.303-1.811-1.806c-1.205-1.811-2.41-5.421-3.011-5.724
	c-0.604-0.903-0.604-1.507-1.507-2.108c-0.601-0.302-0.601-0.605-1.206-0.302c-0.902,0.604-0.298,0.604-1.503,1.205
	c-0.903,0.601-3.918,0.601-5.123,0.903s-0.902,0-3.611,1.507c-2.411,1.504-3.313,2.41-4.519,1.504
	c-1.205-0.903-2.108-0.602-2.713-1.807C44.881,50,44.578,50,44.578,48.795s0-1.508,0.303-2.108
	C45.18,46.082,46.687,44.276,46.687,44.276z"/>
<path fill-rule="evenodd" clip-rule="evenodd" fill="#FFFFF0" d="M63.458,70.282c0,4.796,4.796,8.633,10.551,8.633
	c5.754,0,10.55-3.837,10.55-8.633s-4.796-8.635-10.55-8.635C68.254,61.647,63.458,65.486,63.458,70.282z"/>
<path fill-rule="evenodd" clip-rule="evenodd" fill="#FFFFF0" d="M40.45,70.282c0,4.796,4.796,8.633,10.551,8.633
	c5.754,0,10.55-3.837,10.55-8.633s-4.796-8.635-10.55-8.635C45.246,61.647,40.45,65.486,40.45,70.282z"/>
<path fill-rule="evenodd" clip-rule="evenodd" fill="#FF0000" d="M43.026,74.17c0,4.492,3.526,7.951,7.751,7.951
	c4.23,0,7.752-3.459,7.752-7.951c0-4.149-3.521-7.604-7.752-7.604C46.553,66.566,43.026,70.021,43.026,74.17z"/>
<path fill-rule="evenodd" clip-rule="evenodd" fill="#FF0000" d="M66.646,74.17c0,4.492,3.526,7.951,7.751,7.951
	c4.23,0,7.752-3.459,7.752-7.951c0-4.149-3.521-7.604-7.752-7.604C70.172,66.566,66.646,70.021,66.646,74.17z"/>
</svg>
