<?xml version="1.0" encoding="utf-8"?>
<!-- Generator: Adobe Illustrator 15.0.0, SVG Export Plug-In . SVG Version: 6.00 Build 0)  -->
<!DOCTYPE svg PUBLIC "-//W3C//DTD SVG 1.1//EN" "http://www.w3.org/Graphics/SVG/1.1/DTD/svg11.dtd">
<svg version="1.1" id="Ebene_1" xmlns="http://www.w3.org/2000/svg" xmlns:xlink="http://www.w3.org/1999/xlink" x="0px" y="0px"
	 width="100px" height="100px" viewBox="0 0 100 100" enable-background="new 0 0 100 100" xml:space="preserve">
<rect fill-rule="evenodd" clip-rule="evenodd" fill="#FF0000" width="100" height="100"/>
<polygon fill="#FFFFF0" points="5,5 95,5 95,95 5,95 5,5 "/>
<g>
	<path fill="#FF0000" d="M24.199,88.855V10.804h25.289c9.582,0,15.829,0.392,18.739,1.173c4.474,1.17,8.218,3.717,11.234,7.64
		c3.018,3.922,4.525,8.99,4.525,15.199c0,4.792-0.87,8.821-2.609,12.087c-1.738,3.264-3.947,5.829-6.628,7.692
		s-5.402,3.097-8.173,3.699c-3.763,0.746-9.21,1.119-16.343,1.119H39.957v29.442H24.199z M39.957,24.008v22.149h8.626
		c6.21,0,10.362-0.409,12.458-1.226c2.095-0.815,3.734-2.094,4.925-3.832c1.189-1.741,1.783-3.763,1.783-6.071
		c0-2.839-0.835-5.181-2.501-7.027c-1.67-1.845-3.782-2.999-6.337-3.46c-1.881-0.355-5.66-0.533-11.339-0.533H39.957z"/>
</g>
</svg>
