<?xml version="1.0" encoding="utf-8"?>
<!-- Generator: Adobe Illustrator 15.0.0, SVG Export Plug-In . SVG Version: 6.00 Build 0)  -->
<!DOCTYPE svg PUBLIC "-//W3C//DTD SVG 1.1//EN" "http://www.w3.org/Graphics/SVG/1.1/DTD/svg11.dtd">
<svg version="1.1" id="Ebene_1" xmlns="http://www.w3.org/2000/svg" xmlns:xlink="http://www.w3.org/1999/xlink" x="0px" y="0px"
	 width="100px" height="100px" viewBox="0 0 100 100" enable-background="new 0 0 100 100" xml:space="preserve">
<rect fill-rule="evenodd" clip-rule="evenodd" fill="#FF0000" width="100" height="100"/>
<polygon fill="#FFFFF0" points="5,5 95,5 95,95 5,95 5,5 "/>
<rect x="12.952" y="14.911" fill-rule="evenodd" clip-rule="evenodd" fill="#FF0000" width="74.096" height="70.178"/>
<path fill="#FFFFF0" d="M29.354,75.63V24.37h17.465c6.619,0,10.933,0.257,12.942,0.769c3.089,0.77,5.675,2.442,7.758,5.018
	c2.084,2.576,3.126,5.904,3.126,9.983c0,3.147-0.602,5.793-1.802,7.937c-1.201,2.145-2.727,3.83-4.578,5.052
	c-1.851,1.225-3.731,2.034-5.644,2.431c-2.599,0.49-6.361,0.734-11.287,0.734h-7.097V75.63H29.354z M40.238,33.042v14.546h5.956
	c4.29,0,7.157-0.268,8.604-0.804c1.446-0.536,2.58-1.375,3.401-2.518c0.821-1.142,1.232-2.471,1.232-3.986
	c0-1.865-0.576-3.403-1.729-4.616c-1.152-1.212-2.61-1.97-4.376-2.273c-1.3-0.232-3.909-0.35-7.832-0.35H40.238z"/>
</svg>
