<?xml version="1.0" encoding="utf-8"?>
<!-- Generator: Adobe Illustrator 15.0.0, SVG Export Plug-In . SVG Version: 6.00 Build 0)  -->
<!DOCTYPE svg PUBLIC "-//W3C//DTD SVG 1.1//EN" "http://www.w3.org/Graphics/SVG/1.1/DTD/svg11.dtd">
<svg version="1.1" id="Ebene_1" xmlns="http://www.w3.org/2000/svg" xmlns:xlink="http://www.w3.org/1999/xlink" x="0px" y="0px"
	 width="100px" height="100px" viewBox="0 0 100 100" enable-background="new 0 0 100 100" xml:space="preserve">
<rect fill-rule="evenodd" clip-rule="evenodd" fill="#FF0000" width="100" height="100"/>
<rect x="5" y="5" fill-rule="evenodd" clip-rule="evenodd" fill="#FFFFF0" width="90" height="90"/>
<polygon fill-rule="evenodd" clip-rule="evenodd" fill="#FF0000" stroke="#FF0000" points="49.166,47.804 35.185,16.338 
	47.086,13.121 51.717,47.115 49.166,47.804 "/>
<polygon fill-rule="evenodd" clip-rule="evenodd" fill="#FF0000" stroke="#FF0000" points="23.263,24.533 47.271,49.221 
	45.91,50.945 15.62,33.377 23.263,24.533 "/>
<polygon fill-rule="evenodd" clip-rule="evenodd" fill="#FF0000" stroke="#FF0000" points="10.422,47.888 9.786,60.713 
	44.612,56.266 44.896,53.93 10.422,47.888 "/>
<polygon fill-rule="evenodd" clip-rule="evenodd" fill="#FF0000" stroke="#FF0000" points="13.854,74.072 20.866,84.828 
	46.717,60.666 45.722,58.676 13.854,74.072 "/>
<polygon fill-rule="evenodd" clip-rule="evenodd" fill="#FF0000" stroke="#FF0000" points="54.609,47.688 62.478,14.38 
	74.075,18.475 56.651,48.493 54.609,47.688 "/>
<polygon fill-rule="evenodd" clip-rule="evenodd" fill="#FF0000" stroke="#FF0000" points="58.494,50.251 84.033,26.627 
	90.818,36.542 59.914,52.127 58.494,50.251 "/>
</svg>
