<?xml version="1.0" encoding="utf-8"?>
<!-- Generator: Adobe Illustrator 15.0.0, SVG Export Plug-In . SVG Version: 6.00 Build 0)  -->
<!DOCTYPE svg PUBLIC "-//W3C//DTD SVG 1.1//EN" "http://www.w3.org/Graphics/SVG/1.1/DTD/svg11.dtd">
<svg version="1.1" id="Ebene_1" xmlns="http://www.w3.org/2000/svg" xmlns:xlink="http://www.w3.org/1999/xlink" x="0px" y="0px"
	 width="100px" height="100px" viewBox="0 0 100 100" enable-background="new 0 0 100 100" xml:space="preserve">
<rect fill-rule="evenodd" clip-rule="evenodd" fill="#FF0000" width="100" height="100"/>
<polygon fill="#FFFFF0" points="5,5 95,5 95,95 5,95 5,5 "/>
<polygon fill-rule="evenodd" clip-rule="evenodd" fill="#FF0000" points="50.001,91.121 4.818,61.631 12.952,61.631 12.952,12.68 
	87.049,12.68 87.049,61.631 95.182,61.631 "/>
<path fill="#FFFFF0" d="M32.287,72.246V19.474h17.465c6.618,0,10.933,0.265,12.942,0.792c3.089,0.792,5.675,2.514,7.758,5.166
	c2.084,2.652,3.126,6.078,3.126,10.277c0,3.24-0.601,5.964-1.802,8.171c-1.201,2.208-2.728,3.942-4.578,5.202
	s-3.731,2.094-5.644,2.502c-2.599,0.504-6.361,0.756-11.287,0.756H43.17v19.906H32.287z M43.17,28.401v14.975h5.957
	c4.289,0,7.157-0.276,8.604-0.828c1.445-0.552,2.579-1.416,3.4-2.592c0.821-1.175,1.232-2.543,1.232-4.104
	c0-1.919-0.577-3.503-1.729-4.751c-1.153-1.248-2.611-2.028-4.375-2.34c-1.301-0.24-3.911-0.36-7.833-0.36H43.17z"/>
</svg>
