<?xml version="1.0" encoding="utf-8"?>
<!-- Generator: Adobe Illustrator 15.0.0, SVG Export Plug-In . SVG Version: 6.00 Build 0)  -->
<!DOCTYPE svg PUBLIC "-//W3C//DTD SVG 1.1//EN" "http://www.w3.org/Graphics/SVG/1.1/DTD/svg11.dtd">
<svg version="1.1" id="Ebene_1" xmlns="http://www.w3.org/2000/svg" xmlns:xlink="http://www.w3.org/1999/xlink" x="0px" y="0px"
	 width="100px" height="100px" viewBox="0 0 100 100" enable-background="new 0 0 100 100" xml:space="preserve">
<rect fill-rule="evenodd" clip-rule="evenodd" fill="#FF0000" width="100" height="100"/>
<rect x="5" y="5" fill-rule="evenodd" clip-rule="evenodd" fill="#FFFFF0" width="90" height="90"/>
<polygon fill-rule="evenodd" clip-rule="evenodd" fill="#FF0000" stroke="#FF0000" points="41.281,49.075 6.896,47.272 
	9.423,35.205 41.822,46.488 41.281,49.075 "/>
<polygon fill-rule="evenodd" clip-rule="evenodd" fill="#FF0000" stroke="#FF0000" points="8.795,61.613 41.685,51.407 42.604,53.4 
	13.213,72.436 8.795,61.613 "/>
<polygon fill-rule="evenodd" clip-rule="evenodd" fill="#FF0000" stroke="#FF0000" points="23.792,83.646 34.934,90.028 
	46.758,56.97 44.804,55.658 23.792,83.646 "/>
<polygon fill-rule="evenodd" clip-rule="evenodd" fill="#FF0000" stroke="#FF0000" points="48.687,92.459 61.452,91.084 
	51.635,57.089 49.411,57.074 48.687,92.459 "/>
<polygon fill-rule="evenodd" clip-rule="evenodd" fill="#FF0000" stroke="#FF0000" points="73.749,85.563 84.3,75.626 
	56.199,54.447 54.558,55.904 73.749,85.563 "/>
<polygon fill-rule="evenodd" clip-rule="evenodd" fill="#FF0000" stroke="#FF0000" points="90.67,64.364 93.377,51.437 
	57.711,49.365 57.079,52.383 90.67,64.364 "/>
<polygon fill-rule="evenodd" clip-rule="evenodd" fill="#FF0000" stroke="#FF0000" points="43.645,44.171 17.524,22.058 
	26.431,13.576 45.288,42.715 43.645,44.171 "/>
<polygon fill-rule="evenodd" clip-rule="evenodd" fill="#FF0000" stroke="#FF0000" points="46.333,42.059 39.327,7.982 
	51.321,7.304 48.673,41.814 46.333,42.059 "/>
</svg>
