<?xml version="1.0" encoding="utf-8"?>
<!-- Generator: Adobe Illustrator 15.0.0, SVG Export Plug-In . SVG Version: 6.00 Build 0)  -->
<!DOCTYPE svg PUBLIC "-//W3C//DTD SVG 1.1//EN" "http://www.w3.org/Graphics/SVG/1.1/DTD/svg11.dtd">
<svg version="1.1" id="Ebene_1" xmlns="http://www.w3.org/2000/svg" xmlns:xlink="http://www.w3.org/1999/xlink" x="0px" y="0px"
	 width="100px" height="100px" viewBox="0 0 100 100" enable-background="new 0 0 100 100" xml:space="preserve">
<path fill="#0000FF" d="M0,0h100v100H0V0z"/>
<path fill="#FFFFF0" d="M5,5h90v90H5V5z"/>
<path id="path2832" fill="#0000FF" stroke="#0000FF" stroke-width="1.2788" d="M37.253,60.54c9.025,12.632,5.571,7.365,9.833,12.373
	c6.1,7.16,11.2,2.541,13.473,1.473c2.273-1.063,3.795-3.161,1.461-8.255c-2.336-5.094-9.401-11.212-7.252-24.6
	c2.15-13.386,2.103-15.965-3.47-16.019c-5.57-0.054-12.391-0.721-19.795,5.035c-7.407,5.756-1.715,15.6,0.575,20.5
	C33.961,55.076,37.253,60.54,37.253,60.54z"/>
<path id="path2836" fill="#0000FF" stroke="#0000FF" stroke-width="3.4761" d="M56.39,12.819c0.295,3.278-0.837,6.11-2.527,6.333
	c-1.691,0.219-3.304-2.257-3.599-5.532c0-0.005,0-0.011,0-0.016c-0.298-3.274,0.835-6.11,2.525-6.331
	c1.693-0.22,3.305,2.257,3.599,5.532C56.39,12.811,56.39,12.817,56.39,12.819z"/>
<path id="path2838" fill="#0000FF" stroke="#0000FF" stroke-width="3.4761" d="M45.127,13.342c0.578,2.774-0.229,5.424-1.804,5.92
	c-1.576,0.492-3.319-1.355-3.901-4.129c-0.579-2.775,0.228-5.426,1.803-5.92C42.8,8.716,44.548,10.566,45.127,13.342z"/>
<path id="path2840" fill="#0000FF" stroke="#0000FF" stroke-width="3.4761" d="M34.17,16.703c0.99,1.888,0.831,4.214-0.352,5.194
	c-1.185,0.98-2.945,0.241-3.936-1.648c-0.989-1.889-0.832-4.213,0.354-5.194C31.42,14.074,33.18,14.812,34.17,16.703z"/>
<path id="path2842-1" fill="#0000FF" stroke="#0000FF" stroke-width="3.4761" d="M26.065,23.754c0.923,1.73,0.799,3.647-0.277,4.283
	c-1.072,0.635-2.69-0.254-3.61-1.987c-0.919-1.728-0.798-3.646,0.276-4.279C23.527,21.138,25.145,22.025,26.065,23.754
	L26.065,23.754z"/>
<path id="path3645" fill="#0000FF" stroke="#0000FF" stroke-width="1.7125" stroke-linecap="round" d="M12.514,82.844
	c0,0,9.042-5.791,15.138-5.982c6.093-0.195,12.082,4.279,15.139,6.178c3.734,2.314,7.41,4.225,14.152-0.191
	c6.488-4.248,8.063-5.796,12.779-5.988c4.719-0.191,17.691,6.565,17.691,6.565v8.882c0,0-11.796-6.563-17.891-6.563
	c-6.096,0-9.633,7.337-20.25,7.53c-10.614,0.194-10.81-7.726-21.427-7.916c-3.342-0.063-8.264,0.66-15.334,5.985
	C12.293,91.506,12.514,82.844,12.514,82.844L12.514,82.844z"/>
</svg>
