<?xml version="1.0" encoding="utf-8"?>
<!-- Generator: Adobe Illustrator 15.0.0, SVG Export Plug-In . SVG Version: 6.00 Build 0)  -->
<!DOCTYPE svg PUBLIC "-//W3C//DTD SVG 1.1//EN" "http://www.w3.org/Graphics/SVG/1.1/DTD/svg11.dtd">
<svg version="1.1" id="Ebene_1" xmlns="http://www.w3.org/2000/svg" xmlns:xlink="http://www.w3.org/1999/xlink" x="0px" y="0px"
	 width="100px" height="100px" viewBox="0 0 100 100" enable-background="new 0 0 100 100" xml:space="preserve">
<path fill="#0000FF" d="M0,0h100v100H0V0z"/>
<path fill="#FFFFF0" d="M5,5h90v90H5V5z"/>
<path id="path2834" fill="#0000FF" stroke="#0000FF" stroke-width="3.025" d="M22.873,23.28l7.212,6.763l30.431-0.452l3.154-14.199
	l7.438-0.226l10.033,8.001v8.679l-10.479,0.225l-4.851,6.199v23.783h-6.647V48.751H33.467l-5.297,5.298v8.452h-6.425V47.398
	l3.604-3.605v-8.792l-6.646-6.647L22.873,23.28L22.873,23.28z"/>
<path id="path3645" fill="#0000FF" stroke="#0000FF" stroke-width="1.5" stroke-linecap="round" d="M16.993,75.676
	c0,0,7.852-5.121,13.141-5.293c5.291-0.17,10.489,3.786,13.141,5.463c3.244,2.049,6.433,3.731,12.29-0.174
	c5.631-3.754,6.994-5.117,11.09-5.289c4.101-0.174,15.359,5.803,15.359,5.803v7.854c0,0-10.238-5.807-15.527-5.807
	c-5.291,0-8.362,6.484-17.576,6.656c-9.216,0.174-9.387-6.826-18.604-6.998c-2.901-0.053-7.17,0.588-13.311,5.291
	C16.803,83.329,16.993,75.676,16.993,75.676L16.993,75.676z"/>
</svg>
