<?xml version="1.0" encoding="utf-8"?>
<!-- Generator: Adobe Illustrator 15.0.0, SVG Export Plug-In . SVG Version: 6.00 Build 0)  -->
<!DOCTYPE svg PUBLIC "-//W3C//DTD SVG 1.1//EN" "http://www.w3.org/Graphics/SVG/1.1/DTD/svg11.dtd">
<svg version="1.1" id="Ebene_1" xmlns="http://www.w3.org/2000/svg" xmlns:xlink="http://www.w3.org/1999/xlink" x="0px" y="0px"
	 width="100px" height="100px" viewBox="0 0 100 100" enable-background="new 0 0 100 100" xml:space="preserve">
<rect fill="#0000FF" width="100" height="100"/>
<polygon fill="#FFFFF0" points="5,5 95,5 95,95 5,95 "/>
<g>
	<path fill="#0000FF" d="M49.839,50.161l9.567-28.703L49.839,2.323l-9.568,19.135L49.839,50.161"/>
</g>
<g transform="rotate(33,50,50)">
	<path fill="#0000FF" d="M49.953,50.223l9.568-28.703L49.953,2.385L40.386,21.52L49.953,50.223"/>
</g>
<g transform="rotate(66,50,50)">
	<path fill="#0000FF" d="M50.082,50.213L59.65,21.51L50.082,2.374l-9.568,19.137L50.082,50.213"/>
</g>
<g transform="rotate(90,50,50)">
	<path fill="#0000FF" d="M50.161,50.161l9.567-28.703L50.161,2.322l-9.567,19.136L50.161,50.161"/>
</g>
<g transform="rotate(123,50,50)">
	<path fill="#0000FF" d="M50.223,50.047l9.569-28.704L50.223,2.207l-9.568,19.137L50.223,50.047"/>
</g>
<g transform="rotate(156,50,50)">
	<path fill="#0000FF" d="M50.213,49.918l9.568-28.703L50.213,2.078l-9.568,19.137L50.213,49.918"/>
</g>
<g transform="rotate(180,50,50)">
	<path fill="#0000FF" d="M50.161,49.839l9.568-28.703L50.161,2l-9.567,19.136L50.161,49.839"/>
</g>
<g transform="rotate(213,50,50)">
	<path fill="#0000FF" d="M50.047,49.777l9.568-28.703L50.048,1.938L40.48,21.074L50.047,49.777"/>
</g>
<g transform="rotate(246,50,50)">
	<path fill="#0000FF" d="M49.918,49.787l9.568-28.703L49.918,1.948L40.35,21.084L49.918,49.787"/>
</g>
<g transform="rotate(270,50,50)">
	<path fill="#0000FF" d="M49.839,49.839l9.567-28.704L49.839,2l-9.567,19.135L49.839,49.839"/>
</g>
<g transform="rotate(303,50,50)">
	<path fill="#0000FF" d="M49.777,49.953l9.568-28.703L49.777,2.114L40.209,21.25L49.777,49.953"/>
</g>
<g transform="rotate(336,50,50)">
	<path fill="#0000FF" d="M49.787,50.082l9.568-28.703L49.787,2.243l-9.568,19.136L49.787,50.082"/>
</g>
<circle fill="#FFFFF0" cx="49.839" cy="50.161" r="19.135"/>
</svg>
