<?xml version="1.0" encoding="utf-8"?>
<!-- Generator: Adobe Illustrator 15.0.0, SVG Export Plug-In . SVG Version: 6.00 Build 0)  -->
<!DOCTYPE svg PUBLIC "-//W3C//DTD SVG 1.1//EN" "http://www.w3.org/Graphics/SVG/1.1/DTD/svg11.dtd">
<svg version="1.1" id="Ebene_1" xmlns="http://www.w3.org/2000/svg" xmlns:xlink="http://www.w3.org/1999/xlink" x="0px" y="0px"
	 width="100px" height="100px" viewBox="0 0 100 100" enable-background="new 0 0 100 100" xml:space="preserve">
<rect fill="#0000FF" width="100" height="100"/>
<polygon fill="#FFFFF0" points="5,5 95,5 95,95 5,95 "/>
<g>
	<path fill="#0000FF" d="M49.555,50.445l9.511-28.532L49.555,2.891l-9.511,19.022L49.555,50.445"/>
</g>
<g transform="rotate(33,50,50)">
	<path fill="#0000FF" d="M49.869,50.616l9.512-28.533L49.869,3.062l-9.513,19.023L49.869,50.616"/>
</g>
<g transform="rotate(66,50,50)">
	<path fill="#0000FF" d="M50.226,50.588l9.512-28.534L50.226,3.033l-9.511,19.022L50.226,50.588"/>
</g>
<g transform="rotate(90,50,50)">
	<path fill="#0000FF" d="M50.445,50.445l9.511-28.533l-9.511-19.02l-9.51,19.021L50.445,50.445"/>
</g>
<g transform="rotate(123,50,50)">
	<path fill="#0000FF" d="M50.616,50.131l9.512-28.533L50.617,2.576l-9.511,19.022L50.616,50.131"/>
</g>
<g transform="rotate(156,50,50)">
	<path fill="#0000FF" d="M50.588,49.774L60.1,21.242L50.588,2.22l-9.512,19.022L50.588,49.774"/>
</g>
<g transform="rotate(180,50,50)">
	<path fill="#0000FF" d="M50.445,49.555l9.511-28.534L50.445,2l-9.511,19.021L50.445,49.555"/>
</g>
<g transform="rotate(213,50,50)">
	<path fill="#0000FF" d="M50.131,49.384l9.511-28.533L50.131,1.829l-9.512,19.02L50.131,49.384"/>
</g>
<g transform="rotate(246,50,50)">
	<path fill="#0000FF" d="M49.774,49.412l9.511-28.533l-9.51-19.021L40.263,20.88L49.774,49.412"/>
</g>
<g transform="rotate(270,50,50)">
	<path fill="#0000FF" d="M49.555,49.555l9.51-28.533L49.555,2l-9.511,19.022L49.555,49.555"/>
</g>
<g transform="rotate(303,50,50)">
	<path fill="#0000FF" d="M49.384,49.869l9.51-28.533L49.383,2.315l-9.51,19.021L49.384,49.869"/>
</g>
<g transform="rotate(336,50,50)">
	<path fill="#0000FF" d="M49.412,50.226l9.511-28.532L49.411,2.671L39.9,21.693L49.412,50.226"/>
</g>
<circle fill="#FFFFF0" cx="49.555" cy="50.446" r="19.022"/>
<text transform="matrix(1 0 0 1 36.0893 59.957)" fill="#0000FF" font-family="'Arial-BoldMT'" font-size="28.5327">W</text>
</svg>
