<?xml version="1.0" encoding="utf-8"?>
<!-- Generator: Adobe Illustrator 15.0.0, SVG Export Plug-In . SVG Version: 6.00 Build 0)  -->
<!DOCTYPE svg PUBLIC "-//W3C//DTD SVG 1.1//EN" "http://www.w3.org/Graphics/SVG/1.1/DTD/svg11.dtd">
<svg version="1.1" id="Ebene_1" xmlns="http://www.w3.org/2000/svg" xmlns:xlink="http://www.w3.org/1999/xlink" x="0px" y="0px"
	 width="100px" height="100px" viewBox="0 0 100 100" enable-background="new 0 0 100 100" xml:space="preserve">
<rect fill="#0000FF" width="100" height="100"/>
<rect x="5" y="5" fill="#FFFFF0" width="90" height="90"/>
<path id="path2856-2" fill="#0000FF" stroke="#0000FF" stroke-width="4.9999" stroke-linecap="round" stroke-linejoin="round" d="
	M55.805,21.582c0,3.814-3.094,6.907-6.908,6.907c-3.817,0-6.909-3.092-6.909-6.907l0,0c0-3.814,3.092-6.907,6.909-6.907
	C52.712,14.675,55.805,17.768,55.805,21.582z"/>
<path id="path2860-4" fill="#0000FF" stroke="#0000FF" stroke-width="2.4" d="M27.379,74.98V43.101c0,0,0.264-3.453,1.857-5.049
	c1.596-1.593,3.188-3.189,6.909-3.189c3.718,0,28.158,0,28.158,0s2.393-0.267,4.518,1.596c2.125,1.858,2.393,5.578,2.393,5.578
	v33.74L27.379,74.98L27.379,74.98z"/>
<path id="path3634-5" fill="none" stroke="#FFFFF0" stroke-width="3.5999" stroke-linecap="round" d="M34.02,46.023v27.361"/>
<path id="path3636-5" fill="none" stroke="#FFFFF0" stroke-width="3.5999" stroke-linecap="round" d="M64.57,45.758v27.098"/>
<path id="path3610" fill="#0000FF" stroke="#0000FF" stroke-width="1.993" d="M3.124,74.589c0,0-0.923-1.428,7.229-3.639
	c8.151-2.21,11.288-2.21,18.183,0.317c6.896,2.521,13.17,4.104,24.456,0.943c11.285-3.154,19.436-3.787,29.785,0.947
	c10.345,4.732,15.092,3.585,15.092,3.585l-0.701,11.593c0,0-6.242,0.295-13.136-1.6c-6.897-1.895-15.052-6.313-26.335-3.155
	c-11.288,3.155-7.84,2.843-15.363,3.155c-7.526,0.314-15.365-5.053-21.947-5.053c-6.584,0-8.464,1.264-11.916,2.211
	c-3.448,0.947-6.075,1.984-6.075,1.984l0.048-12.495L3.124,74.589z"/>
</svg>
