<?xml version="1.0" encoding="utf-8"?>
<!-- Generator: Adobe Illustrator 15.0.0, SVG Export Plug-In . SVG Version: 6.00 Build 0)  -->
<!DOCTYPE svg PUBLIC "-//W3C//DTD SVG 1.1//EN" "http://www.w3.org/Graphics/SVG/1.1/DTD/svg11.dtd">
<svg version="1.1" id="Ebene_1" xmlns="http://www.w3.org/2000/svg" xmlns:xlink="http://www.w3.org/1999/xlink" x="0px" y="0px"
	 width="100px" height="100px" viewBox="0 0 100 100" enable-background="new 0 0 100 100" xml:space="preserve">
<path fill="#0000FF" d="M0,0h100v100H0V0z"/>
<path fill="#FFFFF0" d="M5,5h90v90H5V5z"/>
<path id="path3626" fill="none" stroke="#0000FF" stroke-width="7.4999" stroke-linecap="round" stroke-linejoin="round" d="
	M10.001,29.999L50,10.001l39.998,19.998"/>
<path id="path3610" fill="#0000FF" stroke="#0000FF" stroke-width="1.62" d="M10.272,79.256c0,0,0.766-1.023,7.417-2.814
	c6.649-1.789,9.208-1.789,14.833,0.257c5.627,2.049,10.74,3.327,19.949,0.77c9.204-2.558,15.854-3.069,24.293,0.767
	c8.439,3.838,13.045,2.813,13.045,2.813l-0.256,9.461c0,0-6.139,0.259-11.767-1.276c-5.625-1.532-12.274-5.115-21.479-2.56
	c-9.208,2.56-6.395,2.306-12.533,2.56c-6.137,0.256-12.531-4.09-17.902-4.09c-5.369,0-6.904,1.021-9.718,1.787
	c-2.812,0.771-6.138,2.045-6.138,2.045L10.272,79.256L10.272,79.256z"/>
<path id="path2830" fill="#0000FF" stroke="#0000FF" stroke-width="1.6" d="M19.812,69.152c0,0,2.023-3.791,7.072-6.568
	c5.053-2.777,7.58-3.285,7.58-3.285l-2.527-16.417L53.66,30.757c0,0,3.285-0.758,4.798,2.02c1.517,2.778,0.508,5.81,0.508,5.81
	L44.06,47.175c0,0-0.25,3.282,4.043,8.586c4.293,5.308,5.303,7.072,6.314,12.63c1.013,5.56,0.254,3.03,0.254,3.03
	s-5.306,2.272-10.357,2.272c-5.051,0-8.084-1.516-15.66-3.789c-7.576-2.272-8.842-0.758-8.842-0.758V69.152L19.812,69.152z"/>
<path id="path3608" fill="#0000FF" stroke="#0000FF" stroke-width="2" stroke-linecap="round" stroke-linejoin="round" d="
	M75.383,61.068c0,4.742-3.845,8.588-8.588,8.588c-4.742,0-8.588-3.846-8.588-8.588c0-4.743,3.846-8.588,8.588-8.588
	C71.538,52.48,75.383,56.325,75.383,61.068z"/>
</svg>
