<?xml version="1.0" encoding="utf-8"?>
<!-- Generator: Adobe Illustrator 15.0.0, SVG Export Plug-In . SVG Version: 6.00 Build 0)  -->
<!DOCTYPE svg PUBLIC "-//W3C//DTD SVG 1.1//EN" "http://www.w3.org/Graphics/SVG/1.1/DTD/svg11.dtd">
<svg version="1.1" id="Ebene_1" xmlns="http://www.w3.org/2000/svg" xmlns:xlink="http://www.w3.org/1999/xlink" x="0px" y="0px"
	 width="100px" height="100px" viewBox="0 0 100 100" enable-background="new 0 0 100 100" xml:space="preserve">
<path fill="#0000FF" d="M0,0h100v100H0V0z"/>
<path fill="#FFFFF0" d="M5,5h90v90H5V5z"/>
<path id="path2830" fill="#0000FF" stroke="#0000FF" stroke-width="2.4976" d="M32.653,14.058h35.912l13.969,17.873L73.643,54.18
	v28.271l-15.959,4.195l0.184-34.274l7.896-4.696l2.801-33.982"/>
<path id="path3604" fill="#0000FF" stroke="#0000FF" stroke-width="2.5" d="M29.387,43.619l-10.884,5.986v33.918l38.075,3.263
	l0.197-17.955l-0.026-5.183l-29.176-2.071L29.387,43.619L29.387,43.619z"/>
<path id="path3606" fill="none" stroke="#0000FF" stroke-width="2.5772" stroke-linecap="round" stroke-linejoin="round" d="
	M32.871,14.392l-9.61,9.244l43.506,0.719"/>
<path id="path3610" fill="none" stroke="#0000FF" stroke-width="2.5" d="M29.387,43.255l1.814-18.862"/>
<path id="path3612" fill="none" stroke="#0000FF" stroke-width="2.5" stroke-linecap="round" d="M26.849,61.032l32.297,2.208"/>
<path id="path2842" fill="#0000FF" d="M24.041,22.751l8.869-8.475l34.88-0.196l0.396,10.051L24.041,22.751z"/>
</svg>
