<?xml version="1.0" encoding="utf-8"?>
<!-- Generator: Adobe Illustrator 15.0.0, SVG Export Plug-In . SVG Version: 6.00 Build 0)  -->
<!DOCTYPE svg PUBLIC "-//W3C//DTD SVG 1.1//EN" "http://www.w3.org/Graphics/SVG/1.1/DTD/svg11.dtd">
<svg version="1.1" id="Ebene_1" xmlns="http://www.w3.org/2000/svg" xmlns:xlink="http://www.w3.org/1999/xlink" x="0px" y="0px"
	 width="100px" height="100px" viewBox="0 0 100 100" enable-background="new 0 0 100 100" xml:space="preserve">
<rect fill-rule="evenodd" clip-rule="evenodd" fill="#FF0000" width="100" height="100"/>
<rect x="5" y="5" fill-rule="evenodd" clip-rule="evenodd" fill="#FFFFF0" width="90" height="90"/>
<path fill-rule="evenodd" clip-rule="evenodd" fill="#FF0000" d="M23.863,9.152L12.071,24.39c-2.67,6.86-3.114,13.46-0.296,19.615
	L25.235,63.62c-3.894,2.149-7.787,4.894-11.644,8.898c-4.189,4.745-2.781,10.011,4.524,6.858c2.447-3.41,5.303-5.932,8.491-7.525
	l11.272-0.149c4.485,4.524,8.193,10.827,8.787,16.463c0.964,3.521,5.896,3.634,6.673,0c0.595-5.636,4.302-11.938,8.788-16.463
	l11.233,0.149c3.227,1.594,6.044,4.115,8.529,7.525c7.267,3.152,8.715-2.113,4.523-6.858c-3.893-4.005-7.787-6.749-11.678-8.898
	l13.458-19.615c2.856-6.154,2.411-12.754-0.26-19.615L76.142,9.152h-0.964v11.79c3.152,4.709,4.116,9.233,2.854,13.608
	c-1.668-1.78-4.375-2.298-5.857-5.005c-2.041-3.894-5.08-7.898-8.714-10.087l-0.148,9.53c2.263,2.558,4.004,6.005,5.414,10.084
	v7.008c-1.966,4.93-5.414,8.564-10.307,10.938h-8.307H49.93h-8.344c-4.893-2.374-8.342-6.008-10.307-10.938v-7.008
	c1.408-4.079,3.152-7.527,5.414-10.084l-0.148-9.53c-3.635,2.188-6.676,6.193-8.752,10.087c-1.444,2.707-4.152,3.225-5.858,5.005
	c-1.223-4.375-0.259-8.899,2.894-13.608V9.152H23.863z"/>
</svg>
