<?xml version="1.0" encoding="utf-8"?>
<!-- Generator: Adobe Illustrator 15.0.0, SVG Export Plug-In . SVG Version: 6.00 Build 0)  -->
<!DOCTYPE svg PUBLIC "-//W3C//DTD SVG 1.1//EN" "http://www.w3.org/Graphics/SVG/1.1/DTD/svg11.dtd">
<svg version="1.1" id="Ebene_1" xmlns="http://www.w3.org/2000/svg" xmlns:xlink="http://www.w3.org/1999/xlink" x="0px" y="0px"
	 width="100px" height="100px" viewBox="0 0 100 100" enable-background="new 0 0 100 100" xml:space="preserve">
<rect fill="#FF0000" width="100" height="100"/>
<polygon fill="#FFFFF0" points="5,5 95,5 95,95 5,95 "/>
<rect x="5" y="5" fill="#FF0000" width="90" height="90"/>
<path fill="#FFFFF0" d="M5,5h18c4.8,8.4,7.8,17.4,9,27c-10.8,2.4-19.8-0.6-27-9V5"/>
<path fill="#FFFFF0" d="M5,95V77c7.8-7.2,16.8-10.2,27-9c2.4,9.6-0.6,18.6-9,27H5"/>
<path fill="#FFFFF0" d="M95,95V77c-7.8-7.2-16.8-10.2-27-9c-1.2,9.6,1.8,18.6,9,27H95"/>
<path fill="#FFFFF0" d="M95,5H77c-4.801,8.4-7.8,17.4-9,27c10.8,2.4,19.8-0.6,27-9V5"/>
<path fill="none" stroke="#FFFFF0" stroke-width="6" d="M33,6c4.8,14.4,7.8,26.4,9,36c-10.8,2.4-22.8-0.6-36-9"/>
<path fill="none" stroke="#FFFFF0" stroke-width="6" d="M6,67c13.8-7.2,25.8-10.2,36-9c2.4,9.6-0.6,21.6-9,36"/>
<path fill="none" stroke="#FFFFF0" stroke-width="6" d="M94,67c-13.801-7.2-25.8-10.2-36-9c-1.2,9.6,1.8,21.6,9,36"/>
<path fill="none" stroke="#FFFFF0" stroke-width="6" d="M67,6c-4.801,14.4-7.8,26.4-9,36c10.8,2.4,22.801-0.6,36-9"/>
</svg>
