<?xml version="1.0" encoding="utf-8"?>
<!-- Generator: Adobe Illustrator 15.0.0, SVG Export Plug-In . SVG Version: 6.00 Build 0)  -->
<!DOCTYPE svg PUBLIC "-//W3C//DTD SVG 1.1//EN" "http://www.w3.org/Graphics/SVG/1.1/DTD/svg11.dtd">
<svg version="1.1" id="Ebene_1" xmlns="http://www.w3.org/2000/svg" xmlns:xlink="http://www.w3.org/1999/xlink" x="0px" y="0px"
	 width="100px" height="100px" viewBox="0 0 100 100" enable-background="new 0 0 100 100" xml:space="preserve">
<path fill="#FF0000" d="M0,0h100v100H0V0z"/>
<path fill="#FFFFF0" d="M5,5h90v90H5V5z"/>
<path id="path2832" fill="#FF0000" stroke="#FF0000" stroke-width="0.5143" d="M27.505,77.648c5.967-8.568,1.072-9.181-0.766-10.404
	c-1.836-1.223-9.181-6.121-10.098-13.617c-0.918-7.499,0.917-14.689,7.039-20.351c6.121-5.661,7.497-5.355,10.71-7.19
	c3.214-1.838,4.743-4.286,2.908-7.039s-5.661-0.917-5.661-0.917l-1.378-1.99c0,0,2.448-1.835,5.51-1.684
	c3.059,0.154,2.447-0.612,3.671-2.448c1.224-1.835,2.908-1.99,5.049-1.378c2.145,0.615,4.743,1.684,4.743,5.509
	c0,3.826-1.224,10.559-4.437,15.302c-3.212,4.743-8.416,10.709-4.285,13.311c4.131,2.602,7.497,1.378,12.701-4.286
	c5.199-5.661,10.623-8.745,19.037-7.981c8.417,0.766,12.477,3.087,14.506,12.573c1.986,9.282-1.107,17.29-1.107,17.29l-3.85-1.877
	c0,0-0.533-6.172-3.281-11.166c-2.803-4.534-8.129-4.189-12.043,1.102c-4.113,6.243-6.617,12.174-12.957,17.448
	c-4.437,3.215-3.673,7.039-3.673,8.875s1.378,9.641,1.378,9.641h7.346v1.99c0,0-0.307-0.461-5.969,0.306
	c-5.661,0.765-8.874,2.601-8.874,2.601l-5.049-4.438h8.415c0,0,0.612-4.438-1.53-8.721c-2.142-4.285-2.296-4.743-5.509-5.051
	c-3.213-0.305-5.661,1.379-7.036,2.754c-1.378,1.379-6.427,8.264-6.427,8.264h5.355v1.07c0,0-3.059-0.149-7.039,0.613
	c-3.977,0.766-5.815,1.834-5.815,1.834l-6.265-3.615h9.172L27.505,77.648L27.505,77.648z"/>
</svg>
