<?xml version="1.0" encoding="utf-8"?>
<!-- Generator: Adobe Illustrator 15.0.0, SVG Export Plug-In . SVG Version: 6.00 Build 0)  -->
<!DOCTYPE svg PUBLIC "-//W3C//DTD SVG 1.1//EN" "http://www.w3.org/Graphics/SVG/1.1/DTD/svg11.dtd">
<svg version="1.1" id="Ebene_1" xmlns="http://www.w3.org/2000/svg" xmlns:xlink="http://www.w3.org/1999/xlink" x="0px" y="0px"
	 width="100px" height="100px" viewBox="0 0 100 100" enable-background="new 0 0 100 100" xml:space="preserve">
<path fill="#FF0000" d="M0,0h100v100H0V0z"/>
<path fill="#FFFFF0" d="M5,5h90v90H5V5z"/>
<path id="path2858" fill="#FF0000" stroke="#FF0000" stroke-width="1.5" d="M84.58,36.151L51.541,12.077L24.909,40.505h6.402v12.806
	h48.404V36.407L84.58,36.151L84.58,36.151z"/>
<path id="path2862" fill="#FFFFFF" stroke="#FF0000" stroke-width="0.9299" d="M56.15,31.033h8.963v7.681H56.15V31.033z"/>
<path id="path2868" fill="#FF0000" stroke="#FF0000" stroke-width="1.5" d="M55.129,52.801v35.088H40.79V53.822"/>
<path id="path2872" fill="#FF0000" stroke="#FF0000" stroke-width="1.5" d="M79.456,53.057v34.574H74.34v-34.32"/>
<path id="path2876" fill="#FF0000" stroke="#FF0000" stroke-width="1.5" d="M31.055,53.311L12.87,88.141h4.608l18.698-35.597"/>
<polygon fill="#FFFFF0" stroke="#FF0000" stroke-width="0.926" points="36.176,38.714 49.496,38.714 49.499,20.304 36.107,34.089 
	"/>
</svg>
