<?xml version="1.0" encoding="utf-8"?>
<!-- Generator: Adobe Illustrator 15.0.0, SVG Export Plug-In . SVG Version: 6.00 Build 0)  -->
<!DOCTYPE svg PUBLIC "-//W3C//DTD SVG 1.1//EN" "http://www.w3.org/Graphics/SVG/1.1/DTD/svg11.dtd">
<svg version="1.1" id="Ebene_1" xmlns="http://www.w3.org/2000/svg" xmlns:xlink="http://www.w3.org/1999/xlink" x="0px" y="0px"
	 width="100px" height="100px" viewBox="0 0 100 100" enable-background="new 0 0 100 100" xml:space="preserve">
<rect fill-rule="evenodd" clip-rule="evenodd" fill="#FF0000" width="100" height="100"/>
<rect x="5" y="5" fill-rule="evenodd" clip-rule="evenodd" fill="#FFFFF0" width="90" height="90"/>
<path id="path2830" fill="#FF0000" stroke="#FF0000" d="M30.093,92.484l-5.7-43.541h-3.875c0,0-5.575-0.788-5.865-5.118
	c-0.455-6.838,0.62-13.576,5.865-20.188C25.76,17.029,31.914,11.1,41.034,9.05c9.117-2.053,19.149-0.912,25.761,2.734
	c6.607,3.649,14.59,9.63,17.324,20.29c2.279,8.891,1.271,6.386,1.365,12.766c0.061,3.88-5.017,4.104-5.017,4.104h-4.784
	l-5.472,43.541H30.093L30.093,92.484z"/>
<path id="path3604" fill="#FFFFF0" stroke="#FFFFF0" d="M21.384,41.737c0,0,0.391-7.846,3.334-12.948
	c2.941-5.101,9.415-11.181,15.693-13.143c6.278-1.962,18.243-2.354,24.716,2.552c6.475,4.903,10.79,9.61,12.162,14.516
	c1.376,4.903,1.376,8.827,1.376,8.827l-57.282,0.193L21.384,41.737L21.384,41.737z"/>
<path id="path3610" fill="#FFFFF0" stroke="#FFFFF0" d="M29.679,58.459c0,0,0.389-0.52,3.751-1.426
	c3.362-0.904,4.655-0.904,7.499,0.13c2.847,1.036,5.432,1.685,10.086,0.39c4.658-1.293,8.021-1.553,12.287,0.387
	c4.27,1.94,6.596,1.424,6.596,1.424l-0.129,4.783c0,0-3.104,0.131-5.947-0.646c-2.846-0.776-6.206-2.588-10.864-1.295
	c-4.655,1.295-3.232,1.165-6.336,1.295c-3.104,0.129-6.336-2.069-9.054-2.069c-2.714,0-3.492,0.52-4.914,0.903
	c-1.422,0.39-3.103,1.036-3.103,1.036l0.129-4.917L29.679,58.459L29.679,58.459z"/>
<path id="path3610-2" fill="#FFFFF0" stroke="#FFFFF0" d="M29.858,68.859c0,0,0.389-0.519,3.751-1.422
	c3.362-0.904,4.655-0.904,7.499,0.129c2.847,1.033,5.432,1.682,10.087,0.389c4.656-1.292,8.02-1.551,12.285,0.389
	c4.271,1.938,6.597,1.422,6.597,1.422l-0.13,4.785c0,0-3.104,0.129-5.947-0.646c-2.846-0.772-6.207-2.584-10.863-1.293
	c-4.655,1.293-3.233,1.164-6.336,1.293c-3.104,0.131-6.336-2.068-9.054-2.068c-2.715,0-3.492,0.52-4.914,0.906
	c-1.422,0.39-3.103,1.033-3.103,1.033L29.858,68.859L29.858,68.859z"/>
</svg>
