<?xml version="1.0" encoding="utf-8"?>
<!-- Generator: Adobe Illustrator 15.0.0, SVG Export Plug-In . SVG Version: 6.00 Build 0)  -->
<!DOCTYPE svg PUBLIC "-//W3C//DTD SVG 1.1//EN" "http://www.w3.org/Graphics/SVG/1.1/DTD/svg11.dtd">
<svg version="1.1" id="Ebene_1" xmlns="http://www.w3.org/2000/svg" xmlns:xlink="http://www.w3.org/1999/xlink" x="0px" y="0px"
	 width="100px" height="100px" viewBox="0 0 100 100" enable-background="new 0 0 100 100" xml:space="preserve">
<path fill="#FF0000" d="M0,0h100v100H0V0z"/>
<path fill="#FFFFF0" d="M5,5h90v90H5V5z"/>
<path id="path2830" fill="none" stroke="#FF0000" stroke-width="0.948" d="M7.538,47.627H92.9"/>
<path id="path2832" fill="none" stroke="#FF0000" stroke-width="0.948" d="M92.773,47.542c0,0-12.012-2.147-25.951-10.938
	C52.883,27.809,49.879,22.23,49.879,22.23"/>
<path id="path2832-1" fill="none" stroke="#FF0000" stroke-width="0.948" d="M7.411,47.627c0,0,12.011-2.144,25.951-10.938
	c13.94-8.792,16.947-14.37,16.947-14.37"/>
<path id="path2858" fill="#FF0000" stroke="#FF0000" stroke-width="0.948" d="M33.566,47.536v27.399H7.844V47.536"/>
<polygon fill="#FFFFF0" stroke="#FFFFF0" stroke-width="0.9638" points="12.884,69.893 13.014,69.893 28.396,69.893 28.396,57.227 
	12.884,57.227 "/>
<path fill="#FFFFF0" stroke="#FFFFF0" stroke-width="0.9638" d="M20.632,50.245c-4.109,0.006-7.438,3.001-7.794,6.808
	c5.201,0,10.407,0,15.61,0C28.092,53.244,24.747,50.243,20.632,50.245z"/>
<path id="path2858-4" fill="#FF0000" stroke="#FF0000" stroke-width="0.948" d="M92.471,47.853v27.403H66.748V47.853"/>
<path id="path2914" fill="none" stroke="#FF0000" stroke-width="0.948" d="M33.585,53.751c0,0,0.474-2.952,1.954-4.128
	c1.317-1.05,2.797-1.835,5.54-2.018"/>
<path id="path2914-4" fill="none" stroke="#FF0000" stroke-width="0.948" d="M66.813,53.639c0,0-0.477-2.953-1.953-4.128
	c-1.319-1.05-2.799-1.835-5.543-2.017"/>
<path id="path2942" fill="none" stroke="#FF0000" stroke-width="0.948" d="M36.137,47.368c0,0,4.153-2.076,8.469-8.789
	c4.313-6.711,5.592-15.66,5.592-15.66"/>
<path id="path2942-8" fill="none" stroke="#FF0000" stroke-width="0.948" d="M64.26,47.608c0,0-4.156-2.076-8.47-8.789
	c-4.31-6.711-5.589-15.66-5.589-15.66"/>
<polygon fill="#FFFFF0" stroke="#FFFFF0" stroke-width="0.9638" points="72.15,69.893 72.279,69.893 87.661,69.893 87.661,57.227 
	72.15,57.227 "/>
<path fill="#FFFFF0" stroke="#FFFFF0" stroke-width="0.9638" d="M79.895,50.245c-4.104,0.006-7.438,3.001-7.793,6.808
	c5.203,0,10.406,0,15.609,0C87.359,53.244,84.014,50.243,79.895,50.245z"/>
<path fill="#FF0000" stroke="#FF0000" stroke-width="0.948" d="M40.12,47.834c0,0-1.568,0.129-2.877,0.912
	c-1.191,0.714-1.96,1.571-2.614,2.482c-0.625,0.881-0.783,2.226-0.783,2.226l-0.132-5.357l-25.617-0.13c0,0,4.964-1.306,8.494-2.748
	c3.53-1.438,10.718-3.66,18.694-9.147c7.976-5.49,11.374-8.761,13.072-10.982c1.894-2.475,1.83-1.828,1.83-1.828
	s-0.394,1.436-0.786,3.66c-0.391,2.224-0.917,3.79-2.224,6.535c-1.305,2.746-5.095,8.628-8.626,11.761
	c-0.986,0.876-1.579,1.825-1.7,2.221C36.481,48.63,40.12,47.834,40.12,47.834z"/>
<path fill="#FF0000" stroke="#FF0000" stroke-width="0.948" d="M60.377,47.702c0,0,1.573,0.132,2.881,0.915
	c1.189,0.713,1.959,1.571,2.611,2.482c0.629,0.879,0.788,2.221,0.788,2.221l0.127-5.356l25.62-0.129c0,0-4.967-1.31-8.497-2.748
	s-10.722-3.66-18.69-9.15c-7.974-5.488-11.371-8.76-13.074-10.981c-1.895-2.475-1.828-1.83-1.828-1.83s0.391,1.438,0.783,3.663
	c0.396,2.222,0.918,3.79,2.225,6.535c1.308,2.748,5.097,8.629,8.63,11.763c0.979,0.876,1.575,1.825,1.696,2.221
	C64.016,48.501,60.377,47.702,60.377,47.702z"/>
</svg>
