<?xml version="1.0" encoding="utf-8"?>
<!-- Generator: Adobe Illustrator 15.0.0, SVG Export Plug-In . SVG Version: 6.00 Build 0)  -->
<!DOCTYPE svg PUBLIC "-//W3C//DTD SVG 1.1//EN" "http://www.w3.org/Graphics/SVG/1.1/DTD/svg11.dtd">
<svg version="1.1" id="Ebene_1" xmlns="http://www.w3.org/2000/svg" xmlns:xlink="http://www.w3.org/1999/xlink" x="0px" y="0px"
	 width="100px" height="100px" viewBox="0 0 100 100" enable-background="new 0 0 100 100" xml:space="preserve">
<rect fill-rule="evenodd" clip-rule="evenodd" fill="#FF0000" width="100" height="100"/>
<rect x="5" y="5" fill-rule="evenodd" clip-rule="evenodd" fill="#FFFFF0" width="90" height="90"/>
<polygon fill-rule="evenodd" clip-rule="evenodd" fill="#FF0000" points="14.58,89.963 84.24,89.569 84.24,41.142 95.477,41.142 
	49.804,10.037 4.524,39.96 14.761,39.96 "/>
<g id="Ebene_2">
	<path id="path2830" fill="#FFFFF0" stroke="#FFFFF0" stroke-width="0.7509" d="M34.981,85.705l-4.279-32.693h-2.91
		c0,0-4.187-0.592-4.404-3.843c-0.342-5.134,0.464-10.195,4.404-15.159c3.936-4.963,8.557-9.414,15.403-10.954
		c6.847-1.542,14.38-0.685,19.343,2.053c4.963,2.74,10.957,7.231,13.011,15.235c1.711,6.677,0.955,4.795,1.024,9.586
		c0.044,2.914-3.766,3.082-3.766,3.082h-3.594l-4.109,32.693H34.981L34.981,85.705z"/>
	<path id="path3604" fill="#FF0000" stroke="#FF0000" stroke-width="0.7509" d="M28.494,47.599c0,0,0.293-5.891,2.504-9.721
		c2.208-3.831,7.07-8.396,11.783-9.87c4.715-1.473,13.698-1.767,18.56,1.917c4.859,3.681,8.101,7.216,9.132,10.9
		c1.034,3.68,1.034,6.628,1.034,6.628l-43.013,0.145V47.599z"/>
</g>
</svg>
