<?xml version="1.0" encoding="utf-8"?>
<!-- Generator: Adobe Illustrator 15.0.0, SVG Export Plug-In . SVG Version: 6.00 Build 0)  -->
<!DOCTYPE svg PUBLIC "-//W3C//DTD SVG 1.1//EN" "http://www.w3.org/Graphics/SVG/1.1/DTD/svg11.dtd">
<svg version="1.1" id="Ebene_1" xmlns="http://www.w3.org/2000/svg" xmlns:xlink="http://www.w3.org/1999/xlink" x="0px" y="0px"
	 width="100px" height="100px" viewBox="0 0 100 100" enable-background="new 0 0 100 100" xml:space="preserve">
<path fill="#FF0000" d="M0,0h100v100H0V0z"/>
<path fill="#FFFFF0" d="M5,5h90v90H5V5z"/>
<path id="path2832" fill="#FF0000" stroke="#FF0000" stroke-width="1.493" d="M40.026,71.904
	c10.456,14.959,6.453,8.727,11.392,14.653c7.063,8.48,12.975,3.012,15.607,1.748c2.636-1.263,4.397-3.744,1.69-9.776
	c-2.704-6.034-10.896-13.281-8.399-29.134c2.494-15.854,2.433-18.908-4.023-18.971c-6.451-0.06-14.353-0.853-22.933,5.964
	c-8.577,6.815-1.986,18.475,0.671,24.278C36.211,65.438,40.026,71.904,40.026,71.904z"/>
<path id="path2836" fill="#FF0000" stroke="#FF0000" stroke-width="3.5139" d="M62.185,15.821c0.407,3.884-1.151,7.248-3.479,7.51
	c-2.331,0.259-4.546-2.677-4.957-6.562c0-0.005,0-0.015,0-0.02c-0.408-3.885,1.15-7.248,3.481-7.507
	c2.328-0.263,4.546,2.674,4.953,6.562C62.185,15.81,62.185,15.815,62.185,15.821z"/>
<path id="path2838" fill="#FE0000" stroke="#FF0000" stroke-width="3.5139" d="M48.292,16.834c0.704,3.106-0.276,6.072-2.186,6.627
	c-1.909,0.552-4.027-1.518-4.731-4.624c-0.701-3.107,0.279-6.076,2.188-6.63C45.475,11.657,47.592,13.725,48.292,16.834z"/>
<path id="path2840" fill="#FF0000" stroke="#FF0000" stroke-width="3.5139" d="M35.922,20.327c1.351,2.256,1.136,5.032-0.482,6.202
	c-1.62,1.171-4.03,0.29-5.383-1.968c-1.354-2.254-1.138-5.032,0.482-6.202S34.568,18.069,35.922,20.327z"/>
<path id="path2842-1" fill="#FF0000" stroke="#FF0000" stroke-width="3.5139" d="M26.603,28.778c1.37,1.681,1.635,3.782,0.594,4.69
	c-1.043,0.911-2.998,0.285-4.367-1.396c-1.37-1.684-1.638-3.782-0.595-4.692C23.277,26.471,25.233,27.097,26.603,28.778
	L26.603,28.778z"/>
</svg>
