<?xml version="1.0" encoding="utf-8"?>
<!-- Generator: Adobe Illustrator 15.0.0, SVG Export Plug-In . SVG Version: 6.00 Build 0)  -->
<!DOCTYPE svg PUBLIC "-//W3C//DTD SVG 1.1//EN" "http://www.w3.org/Graphics/SVG/1.1/DTD/svg11.dtd">
<svg version="1.1" id="Ebene_1" xmlns="http://www.w3.org/2000/svg" xmlns:xlink="http://www.w3.org/1999/xlink" x="0px" y="0px"
	 width="100px" height="100px" viewBox="0 0 100 100" enable-background="new 0 0 100 100" xml:space="preserve">
<rect fill-rule="evenodd" clip-rule="evenodd" fill="#FF0000" width="100" height="100"/>
<rect x="5" y="5" fill-rule="evenodd" clip-rule="evenodd" fill="#FFFFF0" width="90" height="90"/>
<path id="path2830" fill="#FF0000" stroke="#FFFFF0" stroke-width="1" d="M30.093,92.484l-5.699-43.54h-3.875
	c0,0-5.575-0.788-5.865-5.118c-0.455-6.838,0.62-13.576,5.865-20.188c5.242-6.609,11.396-12.538,20.516-14.588
	c9.117-2.053,19.149-0.912,25.761,2.734c6.609,3.649,14.591,9.63,17.325,20.29c2.279,8.891,1.272,6.386,1.366,12.766
	c0.059,3.88-5.016,4.104-5.016,4.104h-4.787l-5.471,43.54H30.093L30.093,92.484z"/>
<path id="path3604" fill="#FFFFF0" stroke="#FFFFF0" stroke-width="1" d="M21.384,41.737c0,0,0.392-7.846,3.335-12.948
	c2.94-5.102,9.415-11.181,15.693-13.144s18.242-2.354,24.716,2.552c6.474,4.903,10.79,9.61,12.162,14.516
	c1.376,4.903,1.376,8.827,1.376,8.827l-57.282,0.193V41.737z"/>
</svg>
