<?xml version="1.0" encoding="utf-8"?>
<!-- Generator: Adobe Illustrator 15.0.0, SVG Export Plug-In . SVG Version: 6.00 Build 0)  -->
<!DOCTYPE svg PUBLIC "-//W3C//DTD SVG 1.1//EN" "http://www.w3.org/Graphics/SVG/1.1/DTD/svg11.dtd">
<svg version="1.1" id="Ebene_1" xmlns="http://www.w3.org/2000/svg" xmlns:xlink="http://www.w3.org/1999/xlink" x="0px" y="0px"
	 width="100px" height="100px" viewBox="0 0 100 100" enable-background="new 0 0 100 100" xml:space="preserve">
<rect fill-rule="evenodd" clip-rule="evenodd" fill="#FF0000" width="100" height="100"/>
<polygon fill="#FFFFF0" points="5,5 95,5 95,95 5,95 5,5 "/>
<path fill-rule="evenodd" clip-rule="evenodd" fill="#FF0000" stroke="#FF0000" stroke-width="0.9036" stroke-miterlimit="10" d="
	M85.543,84.79l-12.351,8.132l-6.324-6.927l4.519-7.531L51.508,62.5l-34.94,24.098l-9.339-7.229l30.724-28.014l-9.939-9.035
	c0,0-3.014-2.713-3.916-5.423c-0.603-2.409-0.603-6.024,1.506-9.94c5.12-2.408,8.736-1.505,10.542-0.603
	c2.711,1.508,4.519,3.014,4.519,3.014L50,39.607L77.411,7.078l7.831,9.337l-24.7,36.146l17.771,18.374l7.832-4.519l6.626,6.326
	L85.543,84.79z"/>
</svg>
