<?xml version="1.0" encoding="utf-8"?>
<!-- Generator: Adobe Illustrator 15.0.0, SVG Export Plug-In . SVG Version: 6.00 Build 0)  -->
<!DOCTYPE svg PUBLIC "-//W3C//DTD SVG 1.1//EN" "http://www.w3.org/Graphics/SVG/1.1/DTD/svg11.dtd">
<svg version="1.1" id="Ebene_1" xmlns="http://www.w3.org/2000/svg" xmlns:xlink="http://www.w3.org/1999/xlink" x="0px" y="0px"
	 width="100px" height="100px" viewBox="0 0 100 100" enable-background="new 0 0 100 100" xml:space="preserve">
<rect fill-rule="evenodd" clip-rule="evenodd" fill="#FF0000" width="100" height="100"/>
<polygon fill="#FFFFF0" points="5,5 95,5 95,95 5,95 5,5 "/>
<path fill-rule="evenodd" clip-rule="evenodd" fill="#FF0000" stroke="#FF0000" stroke-width="0.9036" stroke-miterlimit="10" d="
	M73.103,71.837l-7.229,13.554l-4.218-3.613l2.107-14.458L41.775,48.342L26.715,89.006l-7.229-6.929l7.229-47.59l-10.543-9.94
	c0,0-3.011-2.71-4.216-5.119c-1.505-2.712-0.903-3.916-0.903-5.121c-0.302-1.508,0.3-2.711,0.3-2.711s1.205-0.603,2.711-0.603
	c1.204,0.3,2.409-0.302,5.121,0.903c2.71,1.505,5.121,4.218,5.121,4.218l10.239,10.54l47.29-8.734l7.229,7.229L48.704,41.113
	L68.281,62.5l14.158-2.41l3.916,4.216L73.103,71.837z"/>
</svg>
