<?xml version="1.0" encoding="utf-8"?>
<!-- Generator: Adobe Illustrator 15.0.0, SVG Export Plug-In . SVG Version: 6.00 Build 0)  -->
<!DOCTYPE svg PUBLIC "-//W3C//DTD SVG 1.1//EN" "http://www.w3.org/Graphics/SVG/1.1/DTD/svg11.dtd">
<svg version="1.1" id="Ebene_1" xmlns="http://www.w3.org/2000/svg" xmlns:xlink="http://www.w3.org/1999/xlink" x="0px" y="0px"
	 width="100px" height="100px" viewBox="0 0 100 100" enable-background="new 0 0 100 100" xml:space="preserve">
<rect fill="#FF0000" width="100" height="100"/>
<rect x="5" y="5" fill="#FFFFF0" width="90" height="90"/>
<path fill="#FF0000" d="M25.637,10.135c0,0-3.6,1.026-6.417,4.279c-2.817,3.252-5.791,7.017-6.886,11.467
	c-1.096,4.45-1.565,7.702-1.096,12.324c0.469,4.621,2.034,8.728,3.913,11.124s2.902,3.861,6.574,4.792
	c3.116,0.791,5.947,0.684,8.139-1.369c2.191-2.054,3.914-4.152,3.6-6.184c-0.313-2.031-1.096-3.4-2.192-4.77
	c0,0-1.239-1.081-1.565-3.252c-0.228-1.52-0.313-4.279,1.722-4.279s5.634,0.856,7.826,3.252s2.817,3.594,2.348,7.018
	c-0.117,0.856-0.363,3.073-0.282,3.586c0.242,1.541,1.378,0.18,1.378,0.18l1.105-4.252c0,0,0.773-3.333-0.479-6.017
	c-0.878-1.882-3.13-3.252-3.13-3.252s-2.191-1.541-3.287-3.252s-1.409-2.566-0.939-3.765c0.469-1.198,0.782-1.541,1.565-1.541
	s1.072-0.004,2.504,0.685c1.508,0.726,2.991-0.214,3.792-2.097s0.748-4.065,0.748-4.065s0-5.333-2.817-8.215
	c-1.376-1.408-5.772-2.948-6.982-3.178C30.935,8.626,25.637,10.135,25.637,10.135z"/>
<path fill="#FF0000" d="M74.362,10.135c0,0,3.601,1.026,6.417,4.279c2.817,3.252,5.792,7.017,6.887,11.467
	c1.096,4.45,1.565,7.702,1.096,12.324c-0.469,4.621-2.034,8.728-3.912,11.124c-1.879,2.396-2.902,3.861-6.575,4.792
	c-3.114,0.791-5.947,0.684-8.138-1.369c-2.191-2.054-3.913-4.152-3.601-6.184c0.313-2.031,1.096-3.4,2.192-4.77
	c0,0,1.239-1.081,1.564-3.252c0.228-1.52,0.313-4.279-1.722-4.279c-2.035,0-5.635,0.856-7.827,3.252
	c-2.189,2.396-2.815,3.594-2.348,7.018c0.118,0.856,0.364,3.073,0.282,3.586c-0.241,1.541-1.377,0.18-1.377,0.18l-1.105-4.252
	c0,0-0.772-3.333,0.479-6.017c0.879-1.882,3.131-3.252,3.131-3.252s2.191-1.541,3.286-3.252c1.097-1.712,1.409-2.566,0.94-3.765
	c-0.47-1.198-0.782-1.541-1.565-1.541c-0.782,0-1.072-0.004-2.505,0.685c-1.508,0.726-2.99-0.214-3.791-2.097
	s-0.747-4.065-0.747-4.065s0-5.333,2.817-8.215c1.377-1.408,5.771-2.948,6.982-3.178C69.063,8.626,74.362,10.135,74.362,10.135z"/>
<rect x="26.261" y="81.75" fill="#FF0000" width="59.25" height="4.5"/>
<polygon fill="#FF0000" points="26.261,92.125 12.188,84 26.261,75.875 "/>
<polygon fill="#FF0000" points="74.869,59.625 88.942,67.75 74.869,75.875 "/>
<rect x="18.09" y="65.5" fill="#FF0000" width="59.251" height="4.5"/>
</svg>
