<?xml version="1.0" encoding="utf-8"?>
<!-- Generator: Adobe Illustrator 15.0.0, SVG Export Plug-In . SVG Version: 6.00 Build 0)  -->
<!DOCTYPE svg PUBLIC "-//W3C//DTD SVG 1.1//EN" "http://www.w3.org/Graphics/SVG/1.1/DTD/svg11.dtd">
<svg version="1.1" id="Ebene_1" xmlns="http://www.w3.org/2000/svg" xmlns:xlink="http://www.w3.org/1999/xlink" x="0px" y="0px"
	 width="100px" height="100px" viewBox="0 0 100 100" enable-background="new 0 0 100 100" xml:space="preserve">
<rect fill-rule="evenodd" clip-rule="evenodd" fill="#FF0000" width="100" height="100"/>
<rect x="5" y="5" fill-rule="evenodd" clip-rule="evenodd" fill="#FFFFF0" width="90" height="90"/>
<path fill="#FF0000" d="M32.075,14.195c0,0-16.157,0.157-19.764-0.627s-5.557-2.039-5.557-2.039s0.851,3.137,1.635,6.745
	s4.993,5.525,6.431,7.215c0.674,0.792,0.941,2.196,0.941,2.196l6.118-0.157v10.196l-7.216,0.471v8.156h7.373
	c0,0-0.784,8.785-1.569,15.058S14.35,88.075,14.35,88.075h10.509c0,0,4.235-19.764,5.176-27.136s1.255-14.431,1.255-14.431H50v-32.3
	L32.075,14.195z M45.25,38.195H30.506V27.842H45.25V38.195z"/>
<path fill="#FF0000" d="M50,14.208v32.3H68.71c0,0,0.313,7.059,1.255,14.431s5.176,27.136,5.176,27.136h10.51
	c0,0-5.332-20.393-6.117-26.666s-1.568-15.058-1.568-15.058h7.372v-8.156l-7.216-0.471V27.528l6.117,0.157
	c0,0,0.268-1.403,0.941-2.196c1.438-1.69,5.646-3.607,6.432-7.215c0.784-3.608,1.635-6.745,1.635-6.745s-1.949,1.255-5.557,2.039
	s-19.764,0.627-19.764,0.627L50,14.208z M54.75,27.842h14.744v10.353H54.75V27.842z"/>
</svg>
