<?xml version="1.0" encoding="utf-8"?>
<!-- Generator: Adobe Illustrator 15.0.0, SVG Export Plug-In . SVG Version: 6.00 Build 0)  -->
<!DOCTYPE svg PUBLIC "-//W3C//DTD SVG 1.1//EN" "http://www.w3.org/Graphics/SVG/1.1/DTD/svg11.dtd">
<svg version="1.1" id="Ebene_1" xmlns="http://www.w3.org/2000/svg" xmlns:xlink="http://www.w3.org/1999/xlink" x="0px" y="0px"
	 width="100px" height="100px" viewBox="0 0 100 100" enable-background="new 0 0 100 100" xml:space="preserve">
<rect fill-rule="evenodd" clip-rule="evenodd" fill="#FF0000" width="100" height="100"/>
<rect x="5" y="5" fill-rule="evenodd" clip-rule="evenodd" fill="#FFFFF0" width="90" height="90"/>
<path fill="#FF0000" d="M88.545,42.466c0,0,0.034-1.707-1.444-4.045c-1.978-3.127-4.913-3.467-7.225-3.467s-6.258,0.033-6.258,0.033
	l-0.387-5.811c0,0,2.374-0.504,2.374-1.948s-0.819-7.247-4.47-11.67c-3.229-3.911-5.418-6.029-11.485-4.584s-8.379,2.6-12.136,0.867
	c-3.756-1.734-11.269-2.311-14.736-2.601c-3.467-0.289-5.778,1.156-7.223,1.734c-1.445,0.578-4.933,4.092-6.245,5.789
	c-1.361,1.76-4.735,7.502-4.735,7.502c-1.713,4.759-2.889,6.934-3.178,14.736c-0.29,7.801,0.289,9.825,2.022,15.891
	c1.734,6.067,4.334,9.823,4.334,11.848c0,2.021,0.578,6.935,1.156,11.557c0.578,4.623,2.477,7.89,4.623,9.824
	c1.71,1.541,2.022,2.311,5.779,2.601c3.756,0.288,33.229-0.29,33.229-0.29s1.818-0.045,3.467-0.866
	c1.656-0.824,2.699-3.123,3.246-5.931c0.461-2.363,0.321-7.158,3.688-7.071c4.91,0.126,6.068,1.444,9.824-1.444
	c3.756-2.89,5.49-6.937,5.778-11.27C88.834,59.513,88.545,42.466,88.545,42.466z M64.464,74.384
	c-0.393,5.046-0.545,8.167-2.763,8.749c-8.175,2.148-23.876,2.032-32.277,0.468c-2.837-0.527-3.488-4.151-3.796-11.979
	c-0.325-8.282,0.154-33.155,0.154-33.155s2.596,0.561,3.991,4.298c1.412,3.782,1.63,10.753,2.456,12.74
	c1.24,2.983,5.209,9.114,8.136,9.209c3.678,0.121,6.14-10.437,7.368-14.121c1.428-4.283,5.68-16.271,5.68-16.271l11.206,0.153
	C64.618,34.475,65.238,64.438,64.464,74.384z"/>
<path fill="#FFFFF0" d="M73.23,41.996c0,0,0.112,25.306-0.259,27.281s3.963,1.234,5.197,1.234s3.073-3.087,3.073-4.197
	s0.494-20.122,0.494-20.122s0.012-2.839-0.358-3.703C80.986,41.575,73.23,41.996,73.23,41.996z"/>
</svg>
