<?xml version="1.0" encoding="utf-8"?>
<!-- Generator: Adobe Illustrator 15.0.0, SVG Export Plug-In . SVG Version: 6.00 Build 0)  -->
<!DOCTYPE svg PUBLIC "-//W3C//DTD SVG 1.1//EN" "http://www.w3.org/Graphics/SVG/1.1/DTD/svg11.dtd">
<svg version="1.1" id="Ebene_1" xmlns="http://www.w3.org/2000/svg" xmlns:xlink="http://www.w3.org/1999/xlink" x="0px" y="0px"
	 width="100px" height="100px" viewBox="0 0 100 100" enable-background="new 0 0 100 100" xml:space="preserve">
<rect fill-rule="evenodd" clip-rule="evenodd" fill="#FF0000" width="100" height="100"/>
<rect x="5" y="5" fill-rule="evenodd" clip-rule="evenodd" fill="#FFFFF0" width="90" height="90"/>
<path fill="#FF0000" d="M50,89.699c14.084,0,26.292-1.178,27.231-4.117c0.939-3.528-15.964-4.703-18.78-4.703
	c-1.878-1.178-2.816-2.941-3.756-4.706c-2.817-5.881-1.879-9.999-0.938-15.881c1.878-3.527,2.816-7.645,9.389-11.763
	C82.863,37.942,78.17,27.356,76.291,13.241c0-1.177-9.39-2.94-26.292-2.94c-16.9,0-26.291,1.764-26.291,2.94
	c-1.877,14.115-6.573,24.701,13.145,35.288c6.575,4.118,7.512,8.235,8.452,11.763c1.878,5.882,2.817,10,0,15.881
	c-0.939,1.765-2.818,3.528-3.756,4.706c-2.817,0-19.718,1.175-18.781,4.703C23.708,88.521,35.915,89.699,50,89.699L50,89.699z"/>
</svg>
