<?xml version="1.0" encoding="utf-8"?>
<!-- Generator: Adobe Illustrator 15.0.0, SVG Export Plug-In . SVG Version: 6.00 Build 0)  -->
<!DOCTYPE svg PUBLIC "-//W3C//DTD SVG 1.1//EN" "http://www.w3.org/Graphics/SVG/1.1/DTD/svg11.dtd">
<svg version="1.1" id="Ebene_1" xmlns="http://www.w3.org/2000/svg" xmlns:xlink="http://www.w3.org/1999/xlink" x="0px" y="0px"
	 width="100px" height="100px" viewBox="0 0 100 100" enable-background="new 0 0 100 100" xml:space="preserve">
<rect fill-rule="evenodd" clip-rule="evenodd" fill="#FF0000" width="100" height="100"/>
<polygon fill="#FFFFF0" points="5,5 95,5 95,95 5,95 5,5 "/>
<rect x="14.458" y="13.553" fill-rule="evenodd" clip-rule="evenodd" fill="#FF0000" stroke="#E2001A" stroke-width="0.9036" stroke-miterlimit="10" width="71.086" height="30.422"/>
<path fill="#FF0000" d="M73.193,78.013L73.193,78.013v12.048l20.18-17.47L73.193,55.12v12.048l0,0V78.013z M73.193,78.013
	 M73.193,84.036 M83.434,81.326 M83.434,63.854 M73.193,61.145 M73.193,67.168 M73.193,72.591"/>
<path fill="#FF0000" d="M26.808,67.168L26.808,67.168V55.12L6.626,72.591l20.181,17.47V78.013l0,0V67.168z M26.808,67.168
	 M26.808,61.145 M16.565,63.854 M16.565,81.326 M26.808,84.036 M26.808,78.013 M26.808,72.591"/>
<rect x="26.206" y="66.266" fill-rule="evenodd" clip-rule="evenodd" fill="#FF0000" width="51.204" height="12.649"/>
</svg>
