<?xml version="1.0" encoding="utf-8"?>
<!-- Generator: Adobe Illustrator 15.0.0, SVG Export Plug-In . SVG Version: 6.00 Build 0)  -->
<!DOCTYPE svg PUBLIC "-//W3C//DTD SVG 1.1//EN" "http://www.w3.org/Graphics/SVG/1.1/DTD/svg11.dtd">
<svg version="1.1" id="Ebene_1" xmlns="http://www.w3.org/2000/svg" xmlns:xlink="http://www.w3.org/1999/xlink" x="0px" y="0px"
	 width="100px" height="100px" viewBox="0 0 100 100" enable-background="new 0 0 100 100" xml:space="preserve">
<rect fill-rule="evenodd" clip-rule="evenodd" fill="#FF0000" width="100" height="100"/>
<rect x="5" y="5" fill-rule="evenodd" clip-rule="evenodd" fill="#FFFFF0" width="90" height="90"/>
<path fill="#FF0000" d="M20.227,45.96c0,0-6.35-1.27-8.572-4.763c-2.222-3.492-2.857-8.488-2.54-11.705
	c0.317-3.216,1.588-6.074,3.492-8.613c1.905-2.54,4.763-3.81,7.62-4.444c2.857-0.635,3.492-2.222,9.524,0s12.064,5.714,17.779,6.667
	c5.715,0.952,13.97,0.635,19.684,0.635s8.89-1.27,12.699,0.317s6.985,2.666,8.572,6.571s2.222,4.541,2.222,8.35
	c0,3.81,1.589,7.861-3.174,9.963c-4.763,2.102-4.763-0.756-3.493,4.006s3.176,9.524,3.176,13.651s-1.906,9.842-5.081,12.699
	c-3.174,2.857-5.715,2.54-10.477,2.54s-6.03-0.317-8.254-2.857c-2.223-2.54-4.445-6.032-3.81-11.429
	c0.635-5.397,0.636-11.112,2.54-14.604s2.539-4.521-4.445-4.006c-6.985,0.514-7.62,2.102-13.334,1.467
	c-5.714-0.636-6.984-0.635-5.397,3.492c1.587,4.126,1.957,6.017,2.298,10.105c0.344,4.112,0.827,4.596,0.218,9.688
	c-0.586,4.898-0.928,6.578-4.104,8.155c-3.175,1.577-5.08,2.529-10.477,2.847c-5.397,0.317-8.572-3.811-10.477-6.032
	c-1.905-2.223-2.857-9.207-2.222-13.017s2.539-10.159,3.175-11.746C18.005,52.31,20.227,45.96,20.227,45.96z"/>
</svg>
