<?xml version="1.0" encoding="utf-8"?>
<!-- Generator: Adobe Illustrator 15.0.0, SVG Export Plug-In . SVG Version: 6.00 Build 0)  -->
<!DOCTYPE svg PUBLIC "-//W3C//DTD SVG 1.1//EN" "http://www.w3.org/Graphics/SVG/1.1/DTD/svg11.dtd">
<svg version="1.1" id="Layer_1" xmlns="http://www.w3.org/2000/svg" xmlns:xlink="http://www.w3.org/1999/xlink" x="0px" y="0px"
	 width="100px" height="100px" viewBox="0 0 100 100" enable-background="new 0 0 100 100" xml:space="preserve">
<rect fill-rule="evenodd" clip-rule="evenodd" fill="#FF0000" width="100" height="100"/>
<polygon fill="#FFFFF0" points="5,5 95,5 95,95 5,95 5,5 "/>
<path fill-rule="evenodd" clip-rule="evenodd" fill="none" stroke="#FF0000" stroke-width="8.0197" stroke-miterlimit="10" d="
	M3.078,71.907c0,0,11.652-11.968,27.104-22.511C48.366,36.988,97.298,5,97.298,5"/>
<path fill-rule="evenodd" clip-rule="evenodd" fill="none" stroke="#FF0000" stroke-width="8.0197" stroke-miterlimit="10" d="
	M4.505,97.59c0,0,15.915-18.071,34.533-30.12c18.319-12.048,58.86-39.254,58.86-39.254"/>
<path fill-rule="evenodd" clip-rule="evenodd" fill="none" stroke="#FF0000" stroke-width="5.0121" stroke-miterlimit="10" d="
	M10.211,66.868c0,0,11.109-5.422,18.618-7.532c7.207-1.806,17.417-3.914,22.223-4.216c5.104-0.301,46.246-2.108,46.246-2.108"/>
<path fill-rule="evenodd" clip-rule="evenodd" fill="none" stroke="#FF0000" stroke-width="5.0121" stroke-miterlimit="10" d="
	M13.515,86.145c0,0,10.209-6.626,17.416-8.435c7.208-2.107,17.718-3.916,22.522-4.518c5.105-0.301,44.445-2.108,44.445-2.108"/>
<line fill-rule="evenodd" clip-rule="evenodd" fill="none" stroke="#FF0000" stroke-width="4.0105" stroke-miterlimit="10" x1="85.887" y1="15.059" x2="95.196" y2="31.325"/>
<line fill-rule="evenodd" clip-rule="evenodd" fill="none" stroke="#FF0000" stroke-width="4.0105" stroke-miterlimit="10" x1="72.073" y1="25.301" x2="81.382" y2="41.567"/>
<line fill-rule="evenodd" clip-rule="evenodd" fill="none" stroke="#FF0000" stroke-width="4.0105" stroke-miterlimit="10" x1="58.259" y1="35.241" x2="67.267" y2="50.903"/>
<line fill-rule="evenodd" clip-rule="evenodd" fill="none" stroke="#FF0000" stroke-width="4.0105" stroke-miterlimit="10" x1="13.813" y1="64.76" x2="23.123" y2="81.023"/>
<line fill-rule="evenodd" clip-rule="evenodd" fill="none" stroke="#FF0000" stroke-width="4.0105" stroke-miterlimit="10" x1="3.078" y1="73.041" x2="12.387" y2="89.005"/>
<line fill-rule="evenodd" clip-rule="evenodd" fill="none" stroke="#FF0000" stroke-width="4.0105" stroke-miterlimit="10" x1="66.666" y1="56.626" x2="66.666" y2="72.591"/>
<line fill-rule="evenodd" clip-rule="evenodd" fill="none" stroke="#FF0000" stroke-width="4.0105" stroke-miterlimit="10" x1="81.982" y1="55.723" x2="81.982" y2="71.386"/>
<polygon fill-rule="evenodd" clip-rule="evenodd" fill="#FF0000" stroke="#FF0000" stroke-width="0.9023" stroke-miterlimit="10" points="
	10.511,24.398 36.336,7.83 45.346,21.685 19.521,38.554 "/>
</svg>
