<?xml version="1.0" encoding="utf-8"?>
<!-- Generator: Adobe Illustrator 15.0.0, SVG Export Plug-In . SVG Version: 6.00 Build 0)  -->
<!DOCTYPE svg PUBLIC "-//W3C//DTD SVG 1.1//EN" "http://www.w3.org/Graphics/SVG/1.1/DTD/svg11.dtd">
<svg version="1.1" id="Ebene_1" xmlns="http://www.w3.org/2000/svg" xmlns:xlink="http://www.w3.org/1999/xlink" x="0px" y="0px"
	 width="100px" height="100px" viewBox="0 0 100 100" enable-background="new 0 0 100 100" xml:space="preserve">
<rect fill-rule="evenodd" clip-rule="evenodd" fill="#FF0000" width="100" height="100"/>
<rect x="5" y="5" fill-rule="evenodd" clip-rule="evenodd" fill="#FFFFF0" width="90" height="90"/>
<polygon fill-rule="evenodd" clip-rule="evenodd" fill="#FF0000" points="42.731,7.465 43.649,36.856 41.786,37.737 39.435,39.049 
	37.083,41.241 35.678,42.979 34.246,45.626 33.327,48.248 32.841,51.299 32.841,53.918 33.786,57.449 35.678,61.381 38.947,64.455 
	42.244,66.648 45.082,67.531 48.352,68.412 52.107,68.412 55.864,67.531 59.621,65.766 61.971,64.027 63.863,61.834 65.729,59.641 
	67.16,56.113 67.619,52.609 67.16,48.701 65.729,45.173 63.863,41.669 61.025,39.476 57.27,37.283 56.322,36.856 55.864,7.465 "/>
<polygon fill-rule="evenodd" clip-rule="evenodd" fill="#FF0000" points="30.976,16.236 38.947,32.016 37.083,33.352 35.678,34.209 
	33.786,35.973 20.625,22.815 22.977,21.051 25.787,18.858 29.083,17.119 30.976,16.236 "/>
<polygon fill-rule="evenodd" clip-rule="evenodd" fill="#FF0000" points="12.627,32.469 29.543,40.787 28.625,42.551 27.678,44.316 
	26.733,47.366 7.925,43.863 8.385,42.551 8.871,39.93 9.816,37.737 10.736,35.545 12.627,32.469 "/>
<polygon fill-rule="evenodd" clip-rule="evenodd" fill="#FF0000" points="7.465,56.566 26.273,54.373 26.733,56.113 27.192,57.877 
	27.678,60.07 28.138,61.381 10.736,68.842 9.816,66.219 8.871,64.027 8.385,61.381 7.465,58.758 7.465,56.566 "/>
<polygon fill-rule="evenodd" clip-rule="evenodd" fill="#FF0000" points="18.274,78.924 31.895,66.648 33.327,67.959 35.192,69.725 
	37.083,71.035 27.678,86.383 25.328,85.072 22.031,82.428 19.68,80.688 18.274,78.924 "/>
<polygon fill-rule="evenodd" clip-rule="evenodd" fill="#FF0000" points="41.786,91.652 45.082,74.109 46.487,74.109 48.838,74.537 
	51.189,74.537 52.107,74.537 54.461,92.082 52.107,92.535 48.838,92.535 45.082,92.082 42.731,91.652 41.786,91.652 "/>
<polygon fill-rule="evenodd" clip-rule="evenodd" fill="#FF0000" points="69.025,88.148 60.566,72.346 62.916,71.463 64.809,69.725 
	66.674,68.412 79.834,81.57 77.482,83.311 75.133,85.072 72.322,86.383 69.969,87.695 69.025,88.148 "/>
<polygon fill-rule="evenodd" clip-rule="evenodd" fill="#FF0000" points="71.861,62.264 73.268,59.641 73.727,57.877 74.213,55.684 
	92.535,58.758 92.076,60.951 91.59,63.145 90.67,66.648 89.238,68.842 88.318,70.605 71.861,62.264 "/>
<polygon fill-rule="evenodd" clip-rule="evenodd" fill="#FF0000" points="92.535,45.626 92.535,44.316 91.59,42.124 91.129,39.93 
	90.184,37.737 89.725,36.401 88.779,34.662 71.861,42.124 72.781,43.433 73.268,45.626 74.213,47.82 92.535,45.626 "/>
<polygon fill-rule="evenodd" clip-rule="evenodd" fill="#FF0000" points="69.969,16.665 60.566,32.016 62.457,32.898 64.322,33.78 
	66.674,35.545 79.834,23.697 77.969,21.934 76.078,20.193 73.727,18.858 71.861,17.547 69.969,16.665 "/>
</svg>
