<?xml version="1.0" encoding="utf-8"?>
<!-- Generator: Adobe Illustrator 15.0.0, SVG Export Plug-In . SVG Version: 6.00 Build 0)  -->
<!DOCTYPE svg PUBLIC "-//W3C//DTD SVG 1.1//EN" "http://www.w3.org/Graphics/SVG/1.1/DTD/svg11.dtd">
<svg version="1.1" id="Ebene_1" xmlns="http://www.w3.org/2000/svg" xmlns:xlink="http://www.w3.org/1999/xlink" x="0px" y="0px"
	 width="100px" height="100px" viewBox="0 0 100 100" enable-background="new 0 0 100 100" xml:space="preserve">
<rect fill-rule="evenodd" clip-rule="evenodd" fill="#FF0000" width="100" height="100"/>
<path fill-rule="evenodd" clip-rule="evenodd" fill="#FFFFF0" d="M50.001,95C74.669,95,95,74.669,95,49.999
	C95,25.332,74.669,5,50.001,5C25.331,5,5,25.332,5,49.999C5,74.669,25.331,95,50.001,95z"/>
<path fill="#FF0000" d="M52.44,74.128h-8.403l-3.524-11.115h-7.86v-8.131h5.421L32.652,37.26V25.875h4.336L52.44,74.128
	L52.44,74.128z M54.879,58.403l7.592-1.083c1.083,6.234,3.794,9.488,8.674,9.488c2.439,0,4.338-0.814,5.963-1.898
	c1.357-1.355,1.897-2.983,1.897-4.88c0-1.084-0.27-1.897-0.54-2.71c-0.542-0.813-1.357-1.355-2.441-1.898
	c-0.813-0.54-3.252-1.355-7.046-2.439c-3.524-1.085-5.965-2.168-7.592-3.252c-1.627-1.085-2.711-2.713-3.796-4.88
	c-0.813-1.898-1.355-4.067-1.355-6.236c0-2.71,0.543-5.151,1.897-7.048c1.085-2.168,2.712-3.795,4.881-4.879
	c2.167-1.084,4.607-1.627,7.861-1.627c4.608,0,8.404,1.357,10.843,3.796c2.712,2.439,4.066,6.234,4.337,10.843l-8.131,0.542
	c-0.272-2.712-1.085-4.609-2.169-5.421c-1.355-1.084-2.982-1.627-5.151-1.627c-2.168,0-3.795,0.27-4.88,1.354
	c-1.354,0.815-1.896,1.899-1.896,3.254c0,1.354,0.542,2.439,1.627,3.524c1.084,0.813,3.524,1.897,7.318,2.981
	c4.066,1.084,7.049,2.167,8.676,3.524c1.897,1.355,3.252,2.709,4.336,4.879c0.813,1.897,1.355,4.337,1.355,7.318
	c0,4.338-1.355,7.862-4.066,10.573c-2.44,2.981-6.507,4.336-11.928,4.336C61.386,74.939,55.965,69.519,54.879,58.403z
	 M32.652,63.013h-7.864l-3.252,11.115h-8.675l15.451-48.253h4.34V37.26l0,0l-5.424,17.622h5.424V63.013z"/>
</svg>
