<?xml version="1.0" encoding="utf-8"?>
<!-- Generator: Adobe Illustrator 15.0.0, SVG Export Plug-In . SVG Version: 6.00 Build 0)  -->
<!DOCTYPE svg PUBLIC "-//W3C//DTD SVG 1.1//EN" "http://www.w3.org/Graphics/SVG/1.1/DTD/svg11.dtd">
<svg version="1.1" id="Ebene_1" xmlns="http://www.w3.org/2000/svg" xmlns:xlink="http://www.w3.org/1999/xlink" x="0px" y="0px"
	 width="100px" height="100px" viewBox="0 0 100 100" enable-background="new 0 0 100 100" xml:space="preserve">
<path fill="#FF0000" d="M0,0h100v100H0V0z"/>
<path fill="#FFFFF0" d="M5,5h90v90H5V5z"/>
<path id="path3618" fill="#FF0000" d="M39.152,97.801c0,0,5.241-8.47,7.624-13.912c2.382-5.443-1.266-6.769,6.2-13.623
	c7.462-6.854,10.438-3.195,12.98-11.724c2.746-9.217,7.197-20.922,14.819-24.552c7.625-3.629,3.033-17.193,8.704-23.847
	c5.672-6.653,9.028-8.261,9.028-8.261l0,0v95.917H39.152V97.801z"/>
<path id="path3628" fill="none" stroke="#FF0000" stroke-width="4" d="M85.346,1.883L38.08,53.51c0,0-0.929,1.651-0.297,6.488
	c0.628,4.834,1.62,3.846-1.111,6.788c0,0-0.75,1.017-0.962,3.541"/>
<path id="path3630_2_" fill="#FF0000" d="M34.481,22.668l-2.797,4.694l18.422,0.953l-9.812-15.371l-2.785,4.674"/>
<path id="path2844" fill="none" stroke="#FF0000" stroke-width="6" stroke-linecap="round" stroke-linejoin="round" d="
	M23.044,62.957l10.076,0.449v10.582"/>
<path id="path3619" fill="none" stroke="#FF0000" stroke-width="6" stroke-linecap="round" stroke-linejoin="round" d="
	M18.619,67.009l6.391,7.431l0.49,15.758"/>
<path id="path3621" fill="none" stroke="#FF0000" stroke-width="10" stroke-linecap="round" d="M15.425,59.029l5.406-9.904"/>
<path id="path3623" fill="none" stroke="#FF0000" stroke-width="6" stroke-linecap="round" d="M22.063,47.649l18.432,2.023"/>
<path id="path3625" fill="#FF0000" stroke="#FF0000" stroke-width="4" stroke-linecap="round" stroke-linejoin="round" d="
	M29.19,38.77c0,1.74-1.543,3.15-3.443,3.15c-1.9,0-3.44-1.41-3.44-3.15c0-1.741,1.54-3.154,3.44-3.154
	C27.647,35.616,29.19,37.029,29.19,38.77L29.19,38.77z"/>
<line fill="none" stroke="#FF0000" stroke-width="6" x1="39.678" y1="22.254" x2="21.314" y2="9.736"/>
</svg>
