<?xml version="1.0" encoding="utf-8"?>
<!-- Generator: Adobe Illustrator 15.0.0, SVG Export Plug-In . SVG Version: 6.00 Build 0)  -->
<!DOCTYPE svg PUBLIC "-//W3C//DTD SVG 1.1//EN" "http://www.w3.org/Graphics/SVG/1.1/DTD/svg11.dtd">
<svg version="1.1" id="Ebene_1" xmlns="http://www.w3.org/2000/svg" xmlns:xlink="http://www.w3.org/1999/xlink" x="0px" y="0px"
	 width="100px" height="100px" viewBox="0 0 100 100" enable-background="new 0 0 100 100" xml:space="preserve">
<path fill="#FF0000" d="M0,0h100v100H0V0z"/>
<path fill="#FFFFF0" d="M5,5h90v90H5V5z"/>
<path id="path2830" fill="#FF0000" stroke="#FF0000" stroke-width="1.0625" d="M43.798,37.363H15.424L11.15,56.988
	c0,0,0,0,0.196,2.335c0.193,2.331,3.498,13.021,7.19,18.069c3.69,5.056,10.688,11.08,22.542,12.051
	c11.854,0.973,17.878-3.887,22.934-7.579c5.051-3.692,8.355-12.05,9.326-14.188c0.973-2.139,2.332-5.636-0.582-8.358
	C69.84,56.6,66.344,55.631,60.9,51.936c-5.438-3.692-8.16-4.858-12.63-10.105C43.798,36.586,44.383,37.556,43.798,37.363z"/>
<path id="path2832" fill="none" stroke="#FFFFF0" stroke-width="3" stroke-linecap="round" d="M65.852,58.557
	c0,0,4.438,3.728,3.623,6.289c-1.293,4.062-5.613,5.856-10.598,7.149c-5.033,1.308-12.984,2.884-24.984,0.481
	c-12-2.399-16.186-8.604-16.186-8.604s-2.918-4.218-2.365-6.8"/>
<path id="path2844" fill="#FF0000" stroke="#FF0000" stroke-width="0.6495" d="M92.324,20.226c-7.342-5.633-1.736-2.095-6.643-5.405
	c-8.009-5.399-9.218-4.17-13.552-2.982c-4.646,1.273-4.827,5.573-7.071,15.445c-2.918,6.507-4.345,8.125-4.345,8.125l-0.834,2.288
	l0.673,2.918c0,0,1.12,1.794,2.915,2.467c1.798,0.672,3.591,0,6.955-2.916c3.365-2.918,6.509-5.385,6.509-5.385
	s2.401,4.528,5.692,9.988C89.916,44.804,92.195,43.738,92.324,20.226L92.324,20.226z"/>
<path id="path3644" fill="#FF0000" stroke="#FF0000" stroke-width="1.1224" d="M71.861,7.559c0,0,4.576-0.242,4.816,7.229
	l-0.24-0.243l-5.299,1.444L71.861,7.559L71.861,7.559L71.861,7.559z"/>
<path id="path2858" fill="#FF0000" d="M82.957,44.92h9.786V20.03L82.957,44.92z"/>
</svg>
