<?xml version="1.0" encoding="utf-8"?>
<!-- Generator: Adobe Illustrator 15.0.0, SVG Export Plug-In . SVG Version: 6.00 Build 0)  -->
<!DOCTYPE svg PUBLIC "-//W3C//DTD SVG 1.1//EN" "http://www.w3.org/Graphics/SVG/1.1/DTD/svg11.dtd">
<svg version="1.1" id="Ebene_1" xmlns="http://www.w3.org/2000/svg" xmlns:xlink="http://www.w3.org/1999/xlink" x="0px" y="0px"
	 width="100px" height="100px" viewBox="0 0 100 100" enable-background="new 0 0 100 100" xml:space="preserve">
<rect fill="#FF0000" width="100" height="100"/>
<polygon fill="#FFFFF0" points="5,5 95,5 95,95 5,95 "/>
<line fill="none" stroke="#FF0000" stroke-width="4" x1="62" y1="65" x2="60" y2="80"/>
<line fill="none" stroke="#FF0000" stroke-width="4" x1="78" y1="65" x2="80" y2="80"/>
<path fill="none" stroke="#FF0000" stroke-width="6" stroke-linecap="round" d="M50,80h30c6.666,1.334,10-2,10-10"/>
<line fill="none" stroke="#FF0000" stroke-width="4" stroke-linecap="round" x1="70" y1="30" x2="70" y2="40"/>
<path fill="#FF0000" d="M70,30l20,5c6-3.333,6-6.667,0-10L70,30z"/>
<path fill="#FF0000" d="M70,30l-20-5c-6.667,3.333-6.667,6.667,0,10L70,30z"/>
<path fill="#FF0000" d="M50,50H10l40,10V50z"/>
<ellipse fill="#FF0000" cx="70" cy="55" rx="23" ry="15"/>
<path fill="#FFFFF0" d="M70,45v20c6.025,2.531,13.146,0.105,15.908-5.418c2.762-5.521,0.115-12.051-5.91-14.582
	C76.824,43.667,73.174,43.667,70,45"/>
<line fill="none" stroke="#FF0000" stroke-width="6" stroke-linecap="round" x1="10" y1="40" x2="10" y2="60"/>
</svg>
