<?xml version="1.0" encoding="utf-8"?>
<!-- Generator: Adobe Illustrator 15.0.0, SVG Export Plug-In . SVG Version: 6.00 Build 0)  -->
<!DOCTYPE svg PUBLIC "-//W3C//DTD SVG 1.1//EN" "http://www.w3.org/Graphics/SVG/1.1/DTD/svg11.dtd">
<svg version="1.1" id="Ebene_1" xmlns="http://www.w3.org/2000/svg" xmlns:xlink="http://www.w3.org/1999/xlink" x="0px" y="0px"
	 width="100px" height="100px" viewBox="0 0 100 100" enable-background="new 0 0 100 100" xml:space="preserve">
<rect fill-rule="evenodd" clip-rule="evenodd" fill="#FF0000" width="100" height="100"/>
<rect x="5" y="5" fill-rule="evenodd" clip-rule="evenodd" fill="#FFFFF0" width="90" height="90"/>
<polygon fill="#FF0000" points="42.955,95.235 32.091,78.238 11.918,78.021 24.74,61.893 19.168,42.342 37.957,49.372 
	54.685,37.506 53.475,57.979 69.385,70.197 49.85,75.818 "/>
<polygon fill="#FF0000" points="51.893,21.013 41.941,26.238 40.604,37.397 32.56,29.547 21.532,31.724 26.512,21.647 
	21.035,11.833 32.157,13.455 39.799,5.213 41.693,16.292 "/>
<polygon fill="#FF0000" points="91.702,39.861 81.751,45.086 80.413,56.245 72.369,48.395 61.342,50.572 66.321,40.496 
	60.845,30.681 71.967,32.303 79.608,24.061 81.503,35.14 "/>
</svg>
