<?xml version="1.0" encoding="utf-8"?>
<!-- Generator: Adobe Illustrator 15.0.0, SVG Export Plug-In . SVG Version: 6.00 Build 0)  -->
<!DOCTYPE svg PUBLIC "-//W3C//DTD SVG 1.1//EN" "http://www.w3.org/Graphics/SVG/1.1/DTD/svg11.dtd">
<svg version="1.1" id="Ebene_1" xmlns="http://www.w3.org/2000/svg" xmlns:xlink="http://www.w3.org/1999/xlink" x="0px" y="0px"
	 width="100px" height="100px" viewBox="0 0 100 100" enable-background="new 0 0 100 100" xml:space="preserve">
<path fill="#FF0000" d="M0,0h100v100H0V0z"/>
<path fill="#FFFFF0" d="M5,5h90v90H5V5z"/>
<path id="path2844" fill="#FF0000" stroke="#FF0000" stroke-width="0.6836" d="M90.602,21.608c-7.729-5.928-1.828-2.202-6.99-5.687
	c-8.432-5.683-9.701-4.387-14.262-3.139c-4.895,1.339-5.082,5.867-7.445,16.255c-3.069,6.85-4.568,8.549-4.568,8.549l-0.879,2.409
	l0.708,3.07c0,0,1.181,1.888,3.069,2.596s3.777,0,7.318-3.067c3.543-3.069,6.848-5.669,6.848-5.669s10.267,11.151,10.25,11.479
	C91.741,48.834,90.461,46.354,90.602,21.608L90.602,21.608z"/>
<path id="path2854" fill="#FF0000" stroke="#FF0000" stroke-width="0.6302" d="M3.052,54.107l87.921-0.57l-0.131,6.286L3.051,60.204
	L3.052,54.107L3.052,54.107z"/>
<path id="path3640" fill="none" stroke="#FF0000" stroke-width="4.0516" stroke-linecap="round" d="M67.521,47.35
	c0,0-0.742,33.638-14.125,33.904C40.409,81.52,39.432,66.285,37.369,56.1"/>
<path id="path3644" fill="#FF0000" stroke="#FF0000" stroke-width="1.1812" d="M69.064,8.28c0,0,4.815-0.254,5.069,7.605
	l-0.254-0.253l-5.577,1.521L69.064,8.28L69.064,8.28L69.064,8.28z"/>
<path id="path3646" fill="#FF0000" stroke="#FF0000" stroke-width="1.579" d="M31.301,60.451v37.897h-7.286V60.244L31.301,60.451
	L31.301,60.451z"/>
<path id="path2858" fill="#FF0000" d="M74.854,49.132h8.896v-22.63L74.854,49.132z"/>
<path id="path2852" fill="#FF0000" d="M79.479,49.105h11.414V32.53L79.479,49.105z"/>
</svg>
