<?xml version="1.0" encoding="utf-8"?>
<!-- Generator: Adobe Illustrator 15.0.0, SVG Export Plug-In . SVG Version: 6.00 Build 0)  -->
<!DOCTYPE svg PUBLIC "-//W3C//DTD SVG 1.1//EN" "http://www.w3.org/Graphics/SVG/1.1/DTD/svg11.dtd">
<svg version="1.1" id="Ebene_1" xmlns="http://www.w3.org/2000/svg" xmlns:xlink="http://www.w3.org/1999/xlink" x="0px" y="0px"
	 width="100px" height="100px" viewBox="0 0 100 100" enable-background="new 0 0 100 100" xml:space="preserve">
<rect fill-rule="evenodd" clip-rule="evenodd" fill="#FF0000" width="100" height="100"/>
<rect x="5" y="5" fill-rule="evenodd" clip-rule="evenodd" fill="#FFFFF0" width="90" height="90"/>
<path fill-rule="evenodd" clip-rule="evenodd" fill="#FF0000" d="M79.326,77.89V37.954c0.06-0.185,0.099-0.386,0.099-0.617
	c0-6.3-3.347-11.418-6.103-14.371c-2.756-2.953-12.435-7.078-21.852-6.89c-6.695,0.134-15.749,3.937-19.293,6.299
	c-3.324,2.215-7.26,8.598-7.739,14.568l-0.099,0l-0.049,40.16H11.298v9.056l31.498,0.394V37.047c0,0,0.594-9.16,10.446-9.16
	c12.009,0,13.78,3.74,13.78,9.252v49.215H88.48V77.89H79.326z"/>
</svg>
