<?xml version="1.0" encoding="utf-8"?>
<!-- Generator: Adobe Illustrator 15.0.0, SVG Export Plug-In . SVG Version: 6.00 Build 0)  -->
<!DOCTYPE svg PUBLIC "-//W3C//DTD SVG 1.1//EN" "http://www.w3.org/Graphics/SVG/1.1/DTD/svg11.dtd">
<svg version="1.1" id="Ebene_1" xmlns="http://www.w3.org/2000/svg" xmlns:xlink="http://www.w3.org/1999/xlink" x="0px" y="0px"
	 width="100px" height="100px" viewBox="0 0 100 100" enable-background="new 0 0 100 100" xml:space="preserve">
<rect fill-rule="evenodd" clip-rule="evenodd" fill="#0000FF" width="100" height="100"/>
<path fill-rule="evenodd" clip-rule="evenodd" fill="none" stroke="#FFFFF0" stroke-width="7.6619" stroke-linecap="round" stroke-miterlimit="3.8637" d="
	M79.136,21.704c9.157,7.075,15.303,17.502,15.303,29.134c0,21.31-19.896,38.584-44.438,38.584
	c-24.542,0-44.438-17.274-44.438-38.584c0-19.479,16.625-35.585,38.226-38.209"/>
<path fill-rule="evenodd" clip-rule="evenodd" fill="none" stroke="#FFFFF0" stroke-width="4.9216" stroke-linecap="round" stroke-miterlimit="3.8637" d="
	M23.309,66.011c1.22-1.037,2.911-2.492,3.679-2.897c0.987-0.521,1.783-0.868,3.14-0.868c1.39,0,3.588,1.04,4.396,1.907
	c0.808,0.871,2.009,1.535,2.96,2.258c1.256,0.954,3.318,0.867,4.395,0.348s2.691-1.734,3.588-2.605
	c0.896-0.867,1.615-1.56,2.87-1.907c1.257-0.348,3.14-0.695,4.576,0.348c1.436,1.043,2.691,1.91,3.586,2.95
	c0.896,1.04,2.691,1.734,3.946,1.734c1.256,0,2.781-0.172,3.587-1.215c0.81-1.039,2.246-2.427,3.141-3.122
	c0.898-0.695,4.307-2.777,7.715,0.867c0.439,0.471,1.019,1.169,1.806,1.772"/>
<path fill-rule="evenodd" clip-rule="evenodd" fill="none" stroke="#FFFFF0" stroke-width="4.9216" stroke-linecap="round" stroke-miterlimit="3.8637" d="
	M23.309,36.546c1.22-1.035,2.911-2.492,3.679-2.898c0.987-0.52,1.783-0.867,3.14-0.867c1.39,0,3.588,1.042,4.396,1.91
	c0.808,0.867,2.009,1.532,2.96,2.254c1.256,0.957,3.318,0.869,4.395,0.348c1.076-0.52,2.691-1.735,3.588-2.602
	c0.896-0.868,1.615-1.563,2.87-1.91c1.257-0.348,3.14-0.694,4.576,0.348c1.436,1.041,2.691,1.91,3.586,2.95
	c0.896,1.043,2.691,1.736,3.946,1.736c1.256,0,2.781-0.174,3.587-1.215c0.81-1.042,2.246-2.43,3.141-3.124
	c0.898-0.695,4.307-2.778,7.715,0.867c0.439,0.471,1.019,1.172,1.806,1.772"/>
<path fill-rule="evenodd" clip-rule="evenodd" fill="none" stroke="#FFFFF0" stroke-width="4.9216" stroke-linecap="round" stroke-miterlimit="3.8637" d="
	M23.309,51.724c1.22-1.035,2.911-2.491,3.679-2.896c0.987-0.521,1.783-0.868,3.14-0.868c1.39,0,3.588,1.04,4.396,1.909
	c0.808,0.867,2.009,1.532,2.96,2.257c1.256,0.953,3.318,0.867,4.395,0.347s2.691-1.736,3.588-2.604
	c0.896-0.869,1.615-1.563,2.87-1.909c1.257-0.347,3.14-0.695,4.576,0.346c1.436,1.041,2.691,1.909,3.586,2.951
	c0.896,1.04,2.691,1.735,3.946,1.735c1.256,0,2.781-0.173,3.587-1.215c0.81-1.042,2.246-2.431,3.141-3.124
	c0.898-0.694,4.307-2.778,7.715,0.867c0.439,0.471,1.019,1.17,1.806,1.771"/>
</svg>
