<?xml version="1.0" encoding="utf-8"?>
<!-- Generator: Adobe Illustrator 15.0.0, SVG Export Plug-In . SVG Version: 6.00 Build 0)  -->
<!DOCTYPE svg PUBLIC "-//W3C//DTD SVG 1.1//EN" "http://www.w3.org/Graphics/SVG/1.1/DTD/svg11.dtd">
<svg version="1.1" id="Ebene_1" xmlns="http://www.w3.org/2000/svg" xmlns:xlink="http://www.w3.org/1999/xlink" x="0px" y="0px"
	 width="100px" height="100px" viewBox="0 0 100 100" enable-background="new 0 0 100 100" xml:space="preserve">
<rect fill-rule="evenodd" clip-rule="evenodd" fill="#FF0000" width="100" height="100"/>
<rect x="5" y="5" fill-rule="evenodd" clip-rule="evenodd" fill="#FFFFF0" width="90" height="90"/>
<path fill="#FF0000" d="M73.536,80.643c-0.169-1.855,0.6-2.205-0.675-3.879c-1.9-2.495-4.216-1.686-5.902-5.059
	s-3.541-6.745-4.047-11.13s-1.012-10.118,0-14.334s1.348-6.409,4.384-8.601s5.228-2.866,7.589-2.698s7.774,0.647,9.274,1.686
	c2.192,1.518,4.369,6.12,5.396,8.432c1.35,3.036,0.506,12.648,0,15.515s-2.023,5.734-3.541,8.095s-2.883,6.646-4.216,6.913
	c-1.687,0.338-1.855,3.542-1.855,3.542l0.338,2.698h4.722v5.059H65.947l-0.01-4.891l6.755-0.337L73.536,80.643z"/>
<path fill="#FF0000" d="M45.48,45.735v5.228h-4.722v4.891h14.503v-4.385l-4.818,0.169v-5.902c0,0-0.748,0,0.77-1.518
	c1.519-1.518,3.435-0.338,4.784-4.216c1.348-3.878,2.805-15.346,0.275-27.487c-0.479-2.299-4.408-5.396-5.83-6.071
	c-1.422-0.674-4.963,0-6.818,0.675s-3.542,1.518-4.385,3.878s-1.011,3.879-1.686,4.891s-2.699,3.541-2.53,5.733
	s0.169,3.71,1.181,5.228s1.411,2.475,1.749,5.396s0.506,5.565,0.506,8.094s1.18,3.542,2.529,4.553S45.48,45.735,45.48,45.735z"/>
<path fill="#FF0000" d="M21.259,77.102h-4.891v4.553h15.514v-4.553h-5.228c0,0-0.675-2.868,0-3.542s3.542-1.518,4.553-2.866
	s1.998-2.975,2.023-4.661s1.829-6.3,0.843-8.492s-2.024-5.229-3.204-5.734s-7.42-2.32-11.13-0.802s-3.374,1.648-4.384,3.332
	c-1.242,2.069-1.349,4.191-1.518,6.564s0.843,4.903,1.18,7.264s1.518,2.192,2.867,3.035s2.699,1.012,2.867,1.518
	s0.674,2.36,0.674,2.36L21.259,77.102z"/>
</svg>
