<?xml version="1.0" encoding="utf-8"?>
<!-- Generator: Adobe Illustrator 15.0.0, SVG Export Plug-In . SVG Version: 6.00 Build 0)  -->
<!DOCTYPE svg PUBLIC "-//W3C//DTD SVG 1.1//EN" "http://www.w3.org/Graphics/SVG/1.1/DTD/svg11.dtd">
<svg version="1.1" id="Ebene_1" xmlns="http://www.w3.org/2000/svg" xmlns:xlink="http://www.w3.org/1999/xlink" x="0px" y="0px"
	 width="100px" height="100px" viewBox="0 0 100 100" enable-background="new 0 0 100 100" xml:space="preserve">
<rect fill-rule="evenodd" clip-rule="evenodd" fill="#FF0000" width="100" height="100"/>
<polygon fill="#FFFFF0" points="5,5 95,5 95,95 5,95 5,5 "/>
<path fill-rule="evenodd" clip-rule="evenodd" fill="none" stroke="#FF0000" stroke-width="6.2501" stroke-miterlimit="3.8637" d="
	M67.333,57.933c6.57,3.285,10.981,8.127,10.981,13.528c0,9.893-14.278,17.915-31.892,17.915s-31.892-8.022-31.892-17.915
	c0-9.043,11.93-16.524,27.433-17.742"/>
<path fill-rule="evenodd" clip-rule="evenodd" fill="#FF0000" d="M30.899,73.479c0,0,30.149-3.872,32.244-45.804
	c0.277-5.512-13.227,1.104-13.778,10.199c-0.551,9.094-2.204-0.552-2.204-0.552s-0.553-6.89,3.307-12.676
	c3.86-5.789-10.748,2.756-11.851,11.298c-1.103,8.545-9.414-18.74,20.946-18.74c1.929,0,0.932-2.79-9.922-4.96
	C46.886,11.69,61.771,9.08,66.453,16.1c0.551,0.828,18.183,0.535,22.873,9.923c0.554,1.101-6.386-3.121-16.536-4.134
	c-2.756-0.277,12.679,7.958,12.679,17.638c0,1.103-17.432-18.877-18.465-12.678c-0.273,1.653-3.568,35.87-14.331,46.63
	C52.119,74.032,30.899,73.479,30.899,73.479z"/>
<path fill-rule="evenodd" clip-rule="evenodd" fill="none" stroke="#FF0000" stroke-width="1.2498" stroke-miterlimit="3.8637" d="
	M30.899,73.479c0,0,30.149-3.872,32.244-45.804c0.277-5.512-13.227,1.104-13.778,10.199c-0.551,9.094-2.204-0.552-2.204-0.552
	s-0.553-6.89,3.307-12.676c3.86-5.789-10.748,2.756-11.851,11.298c-1.103,8.545-9.414-18.74,20.946-18.74
	c1.929,0,0.932-2.79-9.922-4.96C46.886,11.69,61.771,9.08,66.453,16.1c0.551,0.828,18.183,0.535,22.873,9.923
	c0.554,1.101-6.386-3.121-16.536-4.134c-2.756-0.277,12.679,7.958,12.679,17.638c0,1.103-17.432-18.877-18.465-12.678
	c-0.273,1.653-3.568,35.87-14.331,46.63C52.119,74.032,30.899,73.479,30.899,73.479z"/>
</svg>
