<?xml version="1.0" encoding="utf-8"?>
<!-- Generator: Adobe Illustrator 15.0.0, SVG Export Plug-In . SVG Version: 6.00 Build 0)  -->
<!DOCTYPE svg PUBLIC "-//W3C//DTD SVG 1.1//EN" "http://www.w3.org/Graphics/SVG/1.1/DTD/svg11.dtd">
<svg version="1.1" id="Ebene_1" xmlns="http://www.w3.org/2000/svg" xmlns:xlink="http://www.w3.org/1999/xlink" x="0px" y="0px"
	 width="100px" height="100px" viewBox="0 0 100 100" enable-background="new 0 0 100 100" xml:space="preserve">
<rect fill-rule="evenodd" clip-rule="evenodd" fill="#0000FF" width="100" height="100"/>
<polygon fill="#FFFFF0" points="5.006,4.791 95.509,4.791 95.509,94.992 5.006,94.992 5.006,4.791 "/>
<path fill-rule="evenodd" clip-rule="evenodd" fill="#0000FF" d="M49.296,84.906c-9.416,0-20.51-4.651-26.375-14.906H74.34
	C74.34,70,63.224,84.906,49.296,84.906z"/>
<path fill-rule="evenodd" clip-rule="evenodd" fill="none" stroke="#0000FF" stroke-width="6.2501" stroke-miterlimit="3.8637" d="
	M49.296,84.906c-9.416,0-20.51-4.651-26.375-14.906H74.34C74.34,70,63.224,84.906,49.296,84.906z"/>
<polyline fill-rule="evenodd" clip-rule="evenodd" fill="none" stroke="#0000FF" stroke-width="5.3572" stroke-miterlimit="3.8637" points="
	43.059,67.253 42.959,32.836 56.069,32.836 "/>
<line fill-rule="evenodd" clip-rule="evenodd" fill="none" stroke="#0000FF" stroke-width="5.3572" stroke-miterlimit="3.8637" x1="53.491" y1="67.253" x2="53.491" y2="30.234"/>
<path fill-rule="evenodd" clip-rule="evenodd" fill="none" stroke="#0000FF" stroke-width="4.4642" stroke-miterlimit="3.8637" d="
	M32.836,26.773c8.486-9.188,20.76-10.416,30.104,0.283"/>
<path fill-rule="evenodd" clip-rule="evenodd" fill="none" stroke="#0000FF" stroke-width="4.4642" stroke-miterlimit="3.8637" d="
	M25.059,24.162c10.743-18.234,34.468-18.234,46.338,0"/>
</svg>
