<?xml version="1.0" encoding="utf-8"?>
<!-- Generator: Adobe Illustrator 15.0.0, SVG Export Plug-In . SVG Version: 6.00 Build 0)  -->
<!DOCTYPE svg PUBLIC "-//W3C//DTD SVG 1.1//EN" "http://www.w3.org/Graphics/SVG/1.1/DTD/svg11.dtd">
<svg version="1.1" id="Ebene_3" xmlns="http://www.w3.org/2000/svg" xmlns:xlink="http://www.w3.org/1999/xlink" x="0px" y="0px"
	 width="100px" height="100px" viewBox="0 0 100 100" enable-background="new 0 0 100 100" xml:space="preserve">
<rect fill-rule="evenodd" clip-rule="evenodd" fill="#FF0000" width="100" height="100"/>
<rect x="5" y="5" fill-rule="evenodd" clip-rule="evenodd" fill="#FFFFF0" width="90" height="90"/>
<path fill="#FF0000" d="M53.839,49.723c-13.522,3.51-24.137-3.89-27.214-15.744c-3.006-11.58,2.161-23.094,15.134-26.924
	c-3.115-0.152-6.346,0.16-9.58,1C16.988,11.997,7.476,25.99,10.933,39.307c3.457,13.316,18.574,20.917,33.765,16.974
	c6.006-1.559,11.118-4.693,14.897-8.731C57.805,48.453,55.881,49.192,53.839,49.723z"/>
<polygon fill="#FF0000" points="33.769,94.434 24.472,87.669 13.619,91.457 17.193,80.566 10.21,71.448 21.715,71.48 28.254,62.057 
	31.791,72.969 42.815,76.262 33.495,82.973 "/>
<line fill="none" stroke="#FF0000" stroke-width="5" x1="54.744" y1="75.756" x2="78.17" y2="80.515"/>
<line fill="none" stroke="#FF0000" stroke-width="4.8104" x1="70.865" y1="50.898" x2="66.457" y2="77.387"/>
<path fill="#FF0000" d="M61.092,21.324c2.929,17.935,9.151,35.514,9.151,35.514l21.072-30.642L61.092,21.324z"/>
<polygon fill="#FFFFF0" points="71.234,46.586 68.031,31.802 82.938,31.186 "/>
</svg>
