<?xml version="1.0" encoding="utf-8"?>
<!-- Generator: Adobe Illustrator 15.0.0, SVG Export Plug-In . SVG Version: 6.00 Build 0)  -->
<!DOCTYPE svg PUBLIC "-//W3C//DTD SVG 1.1//EN" "http://www.w3.org/Graphics/SVG/1.1/DTD/svg11.dtd">
<svg version="1.1" id="Ebene_1" xmlns="http://www.w3.org/2000/svg" xmlns:xlink="http://www.w3.org/1999/xlink" x="0px" y="0px"
	 width="100px" height="100px" viewBox="0 0 100 100" enable-background="new 0 0 100 100" xml:space="preserve">
<polygon fill="#FF0000" points="0,0 100,0 100,100 0,100 0,0 "/>
<polygon fill="#FFFFF0" points="5,5 95,5 95,95 5,95 5,5 "/>
<path fill-rule="evenodd" clip-rule="evenodd" fill="#FF0000" d="M40.306,25.378c3.114-0.703,6.38-1.097,9.752-1.097
	c3.4,0,6.696,0.381,9.909,1.095l21.779-14.195l0.003,27.531c4.075,5.195,6.502,11.51,6.502,18.235
	c0,18.04-17.099,32.665-38.193,32.665S11.864,74.987,11.864,56.947c0-6.728,2.376-12.979,6.453-18.176l0.026-27.722l21.825,14.338
	L40.306,25.378z"/>
<circle fill-rule="evenodd" clip-rule="evenodd" fill="#FFFFF0" cx="67.694" cy="49.322" r="12.501"/>
<circle fill-rule="evenodd" clip-rule="evenodd" fill="#FF0000" cx="67.7" cy="49.377" r="6.607"/>
<circle fill-rule="evenodd" clip-rule="evenodd" fill="#FFFFF0" cx="31.95" cy="49.354" r="12.5"/>
<circle fill-rule="evenodd" clip-rule="evenodd" fill="#FF0000" cx="31.964" cy="49.337" r="6.607"/>
<path fill-rule="evenodd" clip-rule="evenodd" fill="#FFFFF0" d="M36.267,68.821c14.42-11.809,27.999,0.004,27.999,0.004
	L49.933,88.512L36.267,68.821z"/>
</svg>
