<?xml version="1.0" encoding="utf-8"?>
<!-- Generator: Adobe Illustrator 15.0.0, SVG Export Plug-In . SVG Version: 6.00 Build 0)  -->
<!DOCTYPE svg PUBLIC "-//W3C//DTD SVG 1.1//EN" "http://www.w3.org/Graphics/SVG/1.1/DTD/svg11.dtd">
<svg version="1.1" id="Ebene_1" xmlns="http://www.w3.org/2000/svg" xmlns:xlink="http://www.w3.org/1999/xlink" x="0px" y="0px"
	 width="100px" height="100px" viewBox="0 0 100 100" enable-background="new 0 0 100 100" xml:space="preserve">
<rect x="-0.001" fill-rule="evenodd" clip-rule="evenodd" fill="#FF0000" width="100.002" height="100"/>
<polygon fill="#FFFFF0" points="5.005,4.792 95.51,4.792 95.51,94.992 5.005,94.992 5.005,4.792 "/>
<path fill="#FF0000" d="M83.655,13.482c-1.95,0.353-7.72,0-10.838-0.352c-3.118-0.353-7.407,0-8.888,0s-2.961,0.976-4.756,2.068
	c-1.792,1.092-4.053,3.976-4.988,5.847c-0.938,1.871-1.717,5.067-1.717,5.067s-1.055-2.428-1.713-3.742
	c-0.496-0.989-0.978-2.796-1.463-3.499c-0.484-0.701-2.223-3.357-3.626-3.123c-1.403,0.234-4.253,1.862-4.331,2.72
	c-0.079,0.857,2.028,4.258,2.417,5.038c0.391,0.779,2.609,5.201,2.922,6.448c0.254,1.007,0.931,5.532,0.863,6.584
	c-1.986-0.203-3.674-2.3-6.438-3.045c-5.025-1.351-6.406-0.728-10.438,0.888c-3.784,1.517-4.834,2.399-8.702,6.846
	c-3.865,4.445-4.638,8.962-4.446,15.852c0.207,7.406,2.033,14.843,3.867,18.171c3.31,6,5.414,8.701,8.12,10.897
	c2.707,2.193,11.6-0.28,16.047-1.342c4.443-1.063,3.092-0.084,4.059-0.275c0.967-0.193,1.546,0.771,3.285,1.355
	c1.74,0.579,5.565-0.736,10.245-2.516c7.387-2.804,11.446-13.542,12.787-20.242c1.006-5.03,1.871-8.88,1.677-15.26
	c-0.194-6.38-4.96-9.371-7.695-10.894c-2.403-1.339-3.286-2.127-7.348-2.513c-4.059-0.389-8.12,4.428-8.12,4.428v-3.655
	l-0.104-3.265l-0.459-3.128c0,0,2.883,0,5.846,0.935c2.964,0.936,8.498,0.936,11.307,0.779c2.807-0.155,7.563-1.558,9.433-3.273
	c1.871-1.716,3.118-5.769,3.899-9.277C85.136,14.497,85.602,13.13,83.655,13.482z"/>
</svg>
