<?xml version="1.0" encoding="utf-8"?>
<!-- Generator: Adobe Illustrator 15.0.0, SVG Export Plug-In . SVG Version: 6.00 Build 0)  -->
<!DOCTYPE svg PUBLIC "-//W3C//DTD SVG 1.1//EN" "http://www.w3.org/Graphics/SVG/1.1/DTD/svg11.dtd">
<svg version="1.1" id="Ebene_1" xmlns="http://www.w3.org/2000/svg" xmlns:xlink="http://www.w3.org/1999/xlink" x="0px" y="0px"
	 width="100px" height="100px" viewBox="0 0 100 100" enable-background="new 0 0 100 100" xml:space="preserve">
<rect fill-rule="evenodd" clip-rule="evenodd" fill="#FF0000" width="100" height="100"/>
<polygon fill="#FFFFF0" points="5,5 95,5 95,95 5,95 5,5 "/>
<path fill-rule="evenodd" clip-rule="evenodd" fill="#FF0000" d="M6.366,97.539c0,0,43.072-5.533,46.066-65.437
	c0.395-7.875-18.898,1.575-19.687,14.568c-0.787,12.992-3.149-0.788-3.149-0.788s-0.788-9.843,4.725-18.111
	s-15.355,3.937-16.931,16.143C15.816,56.118,3.942,17.141,47.314,17.141c2.756,0,1.332-3.985-14.175-7.087
	c-3.937-0.787,17.332-4.516,24.018,5.512c0.788,1.181,25.975,0.765,32.68,14.174c0.788,1.575-9.129-4.456-23.623-5.906
	c-3.938-0.394,18.111,11.369,18.111,25.199c0,1.575-24.903-26.967-26.38-18.111c-0.394,2.362-5.101,51.241-20.475,66.618
	C36.684,98.327,6.366,97.539,6.366,97.539z"/>
<path fill-rule="evenodd" clip-rule="evenodd" fill="none" stroke="#FF0000" stroke-width="1.7856" stroke-miterlimit="3.8637" d="
	M6.366,97.539c0,0,43.072-5.533,46.066-65.437c0.395-7.875-18.898,1.575-19.687,14.568c-0.787,12.992-3.149-0.788-3.149-0.788
	s-0.788-9.843,4.725-18.111s-15.355,3.937-16.931,16.143C15.816,56.118,3.942,17.141,47.314,17.141
	c2.756,0,1.332-3.985-14.175-7.087c-3.937-0.787,17.332-4.516,24.018,5.512c0.788,1.181,25.975,0.765,32.68,14.174
	c0.788,1.575-9.129-4.456-23.623-5.906c-3.938-0.394,18.111,11.369,18.111,25.199c0,1.575-24.903-26.967-26.38-18.111
	c-0.394,2.362-5.101,51.241-20.475,66.618C36.684,98.327,6.366,97.539,6.366,97.539z"/>
</svg>
