<?xml version="1.0" encoding="utf-8"?>
<!-- Generator: Adobe Illustrator 15.0.0, SVG Export Plug-In . SVG Version: 6.00 Build 0)  -->
<!DOCTYPE svg PUBLIC "-//W3C//DTD SVG 1.1//EN" "http://www.w3.org/Graphics/SVG/1.1/DTD/svg11.dtd">
<svg version="1.1" id="Ebene_1" xmlns="http://www.w3.org/2000/svg" xmlns:xlink="http://www.w3.org/1999/xlink" x="0px" y="0px"
	 width="100px" height="100px" viewBox="0 0 100 100" enable-background="new 0 0 100 100" xml:space="preserve">
<polygon fill="#FF0000" points="0,0 100,0 100,100 0,100 0,0 "/>
<path fill="#FFFFF0" d="M95,5H5v44.88h26c-4.997,4.033-18.764,22.024-12.879,39.421c3.167,9.363,4.655-5.29,18.99,2.606
	c26.156,14.406,15.62-25.276,8.46-42.028H95V5z"/>
<polygon fill-rule="evenodd" clip-rule="evenodd" fill="#FF0000" points="70.067,50.179 70.08,41.317 51.768,41.317 60.969,30.797 
	65.712,19.23 72.101,3.473 77.788,18.727 82.922,31.2 92.563,41 75.291,41 75.291,50.179 "/>
</svg>
