<?xml version="1.0" encoding="utf-8"?>
<!-- Generator: Adobe Illustrator 15.0.0, SVG Export Plug-In . SVG Version: 6.00 Build 0)  -->
<!DOCTYPE svg PUBLIC "-//W3C//DTD SVG 1.1//EN" "http://www.w3.org/Graphics/SVG/1.1/DTD/svg11.dtd">
<svg version="1.1" id="Ebene_1" xmlns="http://www.w3.org/2000/svg" xmlns:xlink="http://www.w3.org/1999/xlink" x="0px" y="0px"
	 width="100px" height="100px" viewBox="0 0 100 100" enable-background="new 0 0 100 100" xml:space="preserve">
<rect fill-rule="evenodd" clip-rule="evenodd" fill="#FF0000" width="100" height="100"/>
<polygon fill="#FFFFF0" points="5,5 95,5 95,95 5,95 5,5 "/>
<path fill-rule="evenodd" clip-rule="evenodd" fill="#FF0000" d="M32.317,63.396c-6.573-5.905-7.038-13.488-7.501-14.418
	c-1.038-2.087,10.398-6.313,18.082-15.043C61.615,12.673,10.541,3.368,7.069,29.209c-1.772,13.19,14.196,17.164,14.196,17.164
	l-2.286,16.192L32.317,63.396z"/>
<path fill-rule="evenodd" clip-rule="evenodd" fill="none" stroke="#FF0000" stroke-width="2.0159" stroke-miterlimit="3.8637" d="
	M32.317,63.396c-6.573-5.905-7.038-13.488-7.501-14.418c-1.038-2.087,10.398-6.313,18.082-15.043
	C61.615,12.673,10.541,3.368,7.069,29.209c-1.772,13.19,14.196,17.164,14.196,17.164l-2.286,16.192L32.317,63.396z"/>
<path fill-rule="evenodd" clip-rule="evenodd" fill="#FF0000" d="M38.294,61.95C36.229,61.799,6.141,59.115,5,66.832
	c-0.564,3.821-2.651,29.462,4.052,29.484c2.68,0.009,44.839,0.683,37.011-1.522c-4.331-4.947-12.206-4.187-16.143-7.61
	c-5.414-3.996-3.006-14.147,12.196-13.865c10.158,0.187,23.042,2.651,30.13,2.068c7.229-0.595,16.376-3.499,21.391-10.826
	c3.604-5.276,3.943-2.414,3.593-6.178c-0.228-2.45-0.966-3.354-3.525-1.261c-3.673,4.421-8.834,6.635-16.974,8.193
	c-7.604,2.039-14.353,0.038-16.192-0.279L38.294,61.95z"/>
<path fill-rule="evenodd" clip-rule="evenodd" fill="none" stroke="#FF0000" stroke-width="2" stroke-miterlimit="3.8637" d="
	M38.294,62.159c-2.065-0.156-33.181-2.608-34.322,5.377c-0.564,3.953-2.007,27.819,5.08,30.182
	c2.869,0.956,44.886,2.362,37.011-1.575c-4.331-5.118-12.206-4.331-16.143-7.874c-5.414-4.135-3.006-14.639,12.196-14.347
	c10.158,0.193,23.042,2.744,30.13,2.141c7.229-0.615,16.376-3.62,21.391-11.202c3.604-5.46,5.34-2.621,4.989-6.516
	c-0.228-2.534-2.362-3.347-4.922-1.181c-3.673,4.574-8.834,6.865-16.974,8.478c-7.604,2.109-14.353,0.04-16.192-0.289L38.294,62.159
	z"/>
<path fill-rule="evenodd" clip-rule="evenodd" fill="#FF0000" d="M60.889,65.848c-2.251-0.028-0.535-6.54-0.787-8.859
	c-0.15-1.424,11.16-3.368,12.341-13.604c3.458-29.957-25.986-18.309-22.246,2.165c1.444,7.902,7.204,10.655,7.204,10.655
	l-0.522,10.628L60.889,65.848z"/>
<path fill-rule="evenodd" clip-rule="evenodd" fill="none" stroke="#FF0000" stroke-width="2.0159" stroke-miterlimit="3.8637" d="
	M60.889,65.848c-2.251-0.028-0.535-6.54-0.787-8.859c-0.15-1.424,11.16-3.368,12.341-13.604
	c3.458-29.957-25.986-18.309-22.246,2.165c1.444,7.902,7.204,10.655,7.204,10.655l-0.522,10.628L60.889,65.848z"/>
<path fill-rule="evenodd" clip-rule="evenodd" fill="#FF0000" d="M83.474,67.339c1.328,0.641,1.055-11.046,1.35-12.334
	c0.213-0.933,5.66-3.024,6.802-7.649c1.867-7.59-2.987-11.438-8.761-8.071c-4.264,2.484-7.204,8.765-5.795,11.475
	c1.52,2.919,6.108,4.571,6.108,4.571s-1.365,12.587-3.857,13.583C78.186,69.366,83.474,67.339,83.474,67.339z"/>
<path fill-rule="evenodd" clip-rule="evenodd" fill="none" stroke="#FF0000" stroke-width="0.8256" stroke-miterlimit="3.8637" d="
	M83.474,67.339c1.328,0.641,1.055-11.046,1.35-12.334c0.213-0.933,5.66-3.024,6.802-7.649c1.867-7.59-2.987-11.438-8.761-8.071
	c-4.264,2.484-7.204,8.765-5.795,11.475c1.52,2.919,6.108,4.571,6.108,4.571s-1.365,12.587-3.857,13.583
	C78.186,69.366,83.474,67.339,83.474,67.339z"/>
</svg>
