<?xml version="1.0" encoding="utf-8"?>
<!-- Generator: Adobe Illustrator 15.0.0, SVG Export Plug-In . SVG Version: 6.00 Build 0)  -->
<!DOCTYPE svg PUBLIC "-//W3C//DTD SVG 1.1//EN" "http://www.w3.org/Graphics/SVG/1.1/DTD/svg11.dtd">
<svg version="1.1" id="Ebene_1" xmlns="http://www.w3.org/2000/svg" xmlns:xlink="http://www.w3.org/1999/xlink" x="0px" y="0px"
	 width="100px" height="100px" viewBox="0 0 100 100" enable-background="new 0 0 100 100" xml:space="preserve">
<rect fill-rule="evenodd" clip-rule="evenodd" fill="#FF0000" width="100" height="100"/>
<rect x="5" y="5" fill-rule="evenodd" clip-rule="evenodd" fill="#FFFFF0" width="90" height="90"/>
<path fill-rule="evenodd" clip-rule="evenodd" fill="#FF0000" d="M31.229,9.106c3.101,0,7.516,3.638,5.365,5.892
	c-12.417,13.034-17.13,19.731-15.979,35.24c1.182,15.943,12.762,29.107,28.622,29.107c15.742,0,29.816-11.549,29.816-27.423
	c0-13.019-9.223-27.313-22.13-27.313c-3.729,0-21.015,5.512-18.896,20.578c1.056,7.5,4.531,15.155,12.046,15.155
	c4.231,0,15.186-7.131,11.33-13.712c-1.073-1.832-1.701-3.849-3.814-3.849c-1.522,0-2.896,0.332-3.583,1.684
	c-0.771,1.473-0.275,8.447-2.551,8.936c-10.6,2.282-4.305-13.626-3.409-14.95c2.653-3.848,6.319-4.81,10.972-4.81
	c2.532,0,12.13,1.087,13.12,15.876c1.217,18.218-22.661,21.167-22.661,21.167c-1.225,1.144-23.195-3.297-22.184-28.145
	c0.655-16.03,17.135-28.212,26.237-28.625c21.014-0.947,39.574,19.438,36.973,39.812c-3.663,28.695-24.68,37.875-43.531,36.202
	C27.194,88.173,9.345,73.855,8.298,53.784C6.301,15.454,26.278,9.106,31.229,9.106z"/>
</svg>
