<?xml version="1.0" encoding="utf-8"?>
<!-- Generator: Adobe Illustrator 15.0.0, SVG Export Plug-In . SVG Version: 6.00 Build 0)  -->
<!DOCTYPE svg PUBLIC "-//W3C//DTD SVG 1.1//EN" "http://www.w3.org/Graphics/SVG/1.1/DTD/svg11.dtd">
<svg version="1.1" id="Layer_1" xmlns="http://www.w3.org/2000/svg" xmlns:xlink="http://www.w3.org/1999/xlink" x="0px" y="0px"
	 width="100px" height="100px" viewBox="0 0 100 100" enable-background="new 0 0 100 100" xml:space="preserve">
<rect fill-rule="evenodd" clip-rule="evenodd" fill="#FF0000" width="100" height="100"/>
<polygon fill="#FFFFF0" points="5,5 95,5 95,95 5,95 5,5 "/>
<path fill-rule="evenodd" clip-rule="evenodd" fill="#FF0000" stroke="#FF0000" stroke-width="0.9375" stroke-miterlimit="10" d="
	M18.438,32.188h36.873c0,0,6.563,0,9.064,0c2.187,0,3.438,0,5.624,0.939c2.188,0.625,2.813,1.25,3.438,2.187
	s7.812,13.436,7.812,13.436l-62.811-0.312V32.188z"/>
<path fill-rule="evenodd" clip-rule="evenodd" fill="#FF0000" d="M17.188,53.126c23.437,0,50.625,0,74.062,0
	c-4.999,5-9.062,9.998-14.375,15c-20.313,0-39.998,0-59.687,0C17.188,63.124,17.188,57.813,17.188,53.126z"/>
<polygon fill-rule="evenodd" clip-rule="evenodd" fill="#FFFFF0" points="70.311,35 76.249,46.251 62.186,46.251 57.5,35 "/>
<rect x="41.249" y="35.625" fill-rule="evenodd" clip-rule="evenodd" fill="#FFFFF0" stroke="#FFFFF0" stroke-width="0.9375" stroke-miterlimit="10" width="14.062" height="10.313"/>
<rect x="21.875" y="35.625" fill-rule="evenodd" clip-rule="evenodd" fill="#FFFFF0" stroke="#FFFFF0" stroke-width="0.9375" stroke-miterlimit="10" width="14.687" height="10.313"/>
<rect x="2.187" y="53.126" fill-rule="evenodd" clip-rule="evenodd" fill="#FF0000" width="9.125" height="30.313"/>
<path fill-rule="evenodd" clip-rule="evenodd" fill="#FF0000" stroke="#FF0000" stroke-width="4" stroke-miterlimit="10" d="
	M97.806,84.754c-5.266,0-9.913-6.315-15.181-6.315c-5.888,0-11.153,6.315-17.04,6.315c-4.957,0-9.296-6.315-14.253-6.315
	c-5.887,0-10.531,6.315-16.111,6.315c-5.265,0-9.912-6.315-15.181-6.315c-5.888,0-11.464,6.315-17.04,6.315v12.935l94.497-0.602
	L97.806,84.754z"/>
</svg>
