<?xml version="1.0" encoding="utf-8"?>
<!-- Generator: Adobe Illustrator 15.0.0, SVG Export Plug-In . SVG Version: 6.00 Build 0)  -->
<!DOCTYPE svg PUBLIC "-//W3C//DTD SVG 1.1//EN" "http://www.w3.org/Graphics/SVG/1.1/DTD/svg11.dtd">
<svg version="1.1" id="Layer_1" xmlns="http://www.w3.org/2000/svg" xmlns:xlink="http://www.w3.org/1999/xlink" x="0px" y="0px"
	 width="100px" height="100px" viewBox="0 0 100 100" enable-background="new 0 0 100 100" xml:space="preserve">
<rect fill-rule="evenodd" clip-rule="evenodd" fill="#FF0000" width="100" height="100"/>
<polygon fill="#FFFFF0" points="5,5 95,5 95,95 5,95 5,5 "/>
<g display="none">
	<polygon display="inline" fill-rule="evenodd" clip-rule="evenodd" points="81.756,57.297 57.298,57.297 56.68,56.475 
		56.063,55.447 55.035,54.419 53.598,53.186 52.774,52.57 51.748,51.953 50.309,51.542 49.28,51.131 47.225,50.926 46.403,50.926 
		44.965,51.131 43.731,51.542 41.881,52.158 40.032,53.392 38.182,55.035 37.564,56.064 36.948,57.297 36.332,57.297 35.921,56.475 
		35.099,55.447 34.276,54.008 33.043,53.392 31.604,52.364 30.166,51.542 27.493,50.926 25.645,50.926 24,51.131 22.355,51.542 
		20.505,52.364 18.654,53.803 17.422,55.035 16.805,56.064 15.983,57.297 13.312,57.297 13.312,31.81 8.378,31.81 8.378,30.166 
		41.677,30.166 41.677,37.976 81.756,37.976 81.756,57.092 81.756,57.297 	"/>
	<polygon display="inline" fill="none" stroke="#000000" stroke-width="0" stroke-linecap="square" stroke-miterlimit="10" points="
		81.756,57.297 57.298,57.297 56.68,56.475 56.063,55.447 55.035,54.419 53.598,53.186 52.774,52.57 51.748,51.953 50.309,51.542 
		49.28,51.131 47.225,50.926 46.403,50.926 44.965,51.131 43.731,51.542 41.881,52.158 40.032,53.392 38.182,55.035 37.564,56.064 
		36.948,57.297 36.332,57.297 35.921,56.475 35.099,55.447 34.276,54.008 33.043,53.392 31.604,52.364 30.166,51.542 27.493,50.926 
		25.645,50.926 24,51.131 22.355,51.542 20.505,52.364 18.654,53.803 17.422,55.035 16.805,56.064 15.983,57.297 13.312,57.297 
		13.312,31.81 8.378,31.81 8.378,30.166 41.677,30.166 41.677,37.976 81.756,37.976 81.756,57.092 81.756,57.297 	"/>
	<polygon display="inline" fill-rule="evenodd" clip-rule="evenodd" points="83.4,51.336 85.25,51.336 85.25,43.32 83.4,43.32 
		83.4,51.336 	"/>
	<polygon display="inline" fill="none" stroke="#000000" stroke-width="0" stroke-linecap="square" stroke-miterlimit="10" points="
		83.4,51.336 85.25,51.336 85.25,43.32 83.4,43.32 83.4,51.336 	"/>
	<polygon display="inline" fill-rule="evenodd" clip-rule="evenodd" points="79.084,36.949 73.945,36.949 73.945,27.083 
		79.084,27.083 79.084,36.949 	"/>
	<polygon display="inline" fill="none" stroke="#000000" stroke-width="0" stroke-linecap="square" stroke-miterlimit="10" points="
		79.084,36.949 73.945,36.949 73.945,27.083 79.084,27.083 79.084,36.949 	"/>
	<polygon display="inline" fill-rule="evenodd" clip-rule="evenodd" fill="#FFFFFF" points="39.825,42.704 28.521,42.704 
		28.521,32.015 39.825,32.015 39.825,42.704 	"/>
	<polygon display="inline" fill-rule="evenodd" clip-rule="evenodd" fill="#FFFFFF" points="26.671,32.015 15.571,32.015 
		15.571,42.704 26.671,42.704 26.671,32.015 	"/>
	<path display="inline" fill-rule="evenodd" clip-rule="evenodd" d="M57.298,62.436c0,5.549-4.523,10.277-10.278,10.277
		c-5.55,0-10.071-4.729-10.071-10.277S41.47,52.158,47.02,52.158C52.774,52.158,57.298,56.887,57.298,62.436L57.298,62.436z"/>
	<path display="inline" fill="none" stroke="#000000" stroke-width="0" stroke-linecap="square" stroke-miterlimit="10" d="
		M57.298,62.436c0,5.549-4.523,10.277-10.278,10.277c-5.55,0-10.071-4.729-10.071-10.277S41.47,52.158,47.02,52.158
		C52.774,52.158,57.298,56.887,57.298,62.436L57.298,62.436z"/>
	<path display="inline" fill-rule="evenodd" clip-rule="evenodd" fill="#FFFFFF" d="M55.446,62.641c0,4.521-3.698,8.223-8.222,8.223
		c-4.727,0-8.427-3.701-8.427-8.223c0-4.727,3.7-8.427,8.427-8.427C51.748,54.214,55.446,57.914,55.446,62.641L55.446,62.641z"/>
	<path display="inline" fill="none" stroke="#000000" stroke-width="0" stroke-linecap="square" stroke-miterlimit="10" d="
		M55.446,62.641c0,4.521-3.698,8.223-8.222,8.223c-4.727,0-8.427-3.701-8.427-8.223c0-4.727,3.7-8.427,8.427-8.427
		C51.748,54.214,55.446,57.914,55.446,62.641L55.446,62.641z"/>
	<path display="inline" fill-rule="evenodd" clip-rule="evenodd" d="M36.537,62.436c0,5.549-4.521,10.277-10.277,10.277
		c-5.549,0-10.071-4.729-10.071-10.277s4.522-10.277,10.071-10.277C32.016,52.158,36.537,56.887,36.537,62.436L36.537,62.436z"/>
	<path display="inline" fill="none" stroke="#000000" stroke-width="0" stroke-linecap="square" stroke-miterlimit="10" d="
		M36.537,62.436c0,5.549-4.521,10.277-10.277,10.277c-5.549,0-10.071-4.729-10.071-10.277s4.522-10.277,10.071-10.277
		C32.016,52.158,36.537,56.887,36.537,62.436L36.537,62.436z"/>
	<path display="inline" fill-rule="evenodd" clip-rule="evenodd" fill="#FFFFFF" d="M34.688,62.641c0,4.521-3.7,8.223-8.428,8.223
		c-4.521,0-8.222-3.701-8.222-8.223c0-4.727,3.7-8.427,8.222-8.427C30.987,54.214,34.688,57.914,34.688,62.641L34.688,62.641z"/>
	<path display="inline" fill="none" stroke="#000000" stroke-width="0" stroke-linecap="square" stroke-miterlimit="10" d="
		M34.688,62.641c0,4.521-3.7,8.223-8.428,8.223c-4.521,0-8.222-3.701-8.222-8.223c0-4.727,3.7-8.427,8.222-8.427
		C30.987,54.214,34.688,57.914,34.688,62.641L34.688,62.641z"/>
	<path display="inline" fill-rule="evenodd" clip-rule="evenodd" d="M66.341,68.396c0,2.467-1.851,4.521-4.111,4.521
		c-2.466,0-4.316-2.055-4.316-4.521c0-2.262,1.851-4.316,4.316-4.316C64.49,64.08,66.341,66.135,66.341,68.396L66.341,68.396z"/>
	<path display="inline" fill-rule="evenodd" clip-rule="evenodd" fill="#FFFFFF" d="M64.901,68.396c0,1.645-1.232,2.877-2.672,2.877
		c-1.644,0-2.877-1.232-2.877-2.877c0-1.439,1.233-2.672,2.877-2.672C63.669,65.725,64.901,66.957,64.901,68.396L64.901,68.396z"/>
	<path display="inline" fill-rule="evenodd" clip-rule="evenodd" d="M75.385,68.396c0,2.467-1.851,4.521-4.317,4.521
		c-2.26,0-4.11-2.055-4.11-4.521c0-2.262,1.851-4.316,4.11-4.316C73.534,64.08,75.385,66.135,75.385,68.396L75.385,68.396z"/>
	<path display="inline" fill-rule="evenodd" clip-rule="evenodd" fill="#FFFFFF" d="M73.945,68.396c0,1.645-1.233,2.877-2.671,2.877
		c-1.645,0-2.878-1.232-2.878-2.877c0-1.439,1.233-2.672,2.878-2.672C72.712,65.725,73.945,66.957,73.945,68.396L73.945,68.396z"/>
	<polygon display="inline" fill-rule="evenodd" clip-rule="evenodd" points="57.502,36.949 49.28,36.949 49.28,36.743 49.28,36.332 
		49.486,35.921 49.691,35.51 49.897,35.099 50.309,34.688 50.72,34.276 51.336,33.865 51.953,33.66 52.569,33.454 52.98,33.454 
		53.803,33.454 54.213,33.454 54.624,33.66 55.035,33.66 55.446,33.865 55.857,34.071 56.269,34.482 56.68,34.688 56.887,35.099 
		57.091,35.51 57.298,35.921 57.502,36.332 57.502,36.743 57.502,36.949 	"/>
	<polygon display="inline" fill="none" stroke="#000000" stroke-width="0" stroke-linecap="square" stroke-miterlimit="10" points="
		57.502,36.949 49.28,36.949 49.28,36.743 49.28,36.332 49.486,35.921 49.691,35.51 49.897,35.099 50.309,34.688 50.72,34.276 
		51.336,33.865 51.953,33.66 52.569,33.454 52.98,33.454 53.803,33.454 54.213,33.454 54.624,33.66 55.035,33.66 55.446,33.865 
		55.857,34.071 56.269,34.482 56.68,34.688 56.887,35.099 57.091,35.51 57.298,35.921 57.502,36.332 57.502,36.743 57.502,36.949 	
		"/>
	<polygon display="inline" fill-rule="evenodd" clip-rule="evenodd" points="15.571,58.531 15.367,59.147 15.161,60.38 
		14.956,61.613 14.956,62.641 14.956,63.463 14.956,63.668 14.956,63.668 13.312,63.668 13.312,58.531 15.367,58.531 15.571,58.531 
			"/>
	<polygon display="inline" fill="none" stroke="#000000" stroke-width="0" stroke-linecap="square" stroke-miterlimit="10" points="
		15.571,58.531 15.367,59.147 15.161,60.38 14.956,61.613 14.956,62.641 14.956,63.463 14.956,63.668 14.956,63.668 13.312,63.668 
		13.312,58.531 15.367,58.531 15.571,58.531 	"/>
	<polygon display="inline" fill-rule="evenodd" clip-rule="evenodd" points="57.708,58.735 81.756,58.735 91.622,71.479 
		78.673,71.479 74.974,63.668 73.945,63.668 73.329,63.463 72.919,63.258 72.508,63.053 72.096,63.053 71.685,63.053 70.657,63.053 
		70.04,63.053 69.63,63.053 69.219,63.258 68.602,63.463 68.19,63.668 64.901,63.668 64.49,63.668 64.08,63.463 63.669,63.053 
		62.846,63.053 62.436,63.053 61.613,63.053 60.791,63.053 60.175,63.258 59.764,63.463 59.353,63.668 58.324,63.668 58.324,62.436 
		58.324,61.408 58.324,60.38 57.913,59.559 57.708,58.941 57.708,58.735 	"/>
	<polygon display="inline" fill="none" stroke="#000000" stroke-width="0" stroke-linecap="square" stroke-miterlimit="10" points="
		57.708,58.735 81.756,58.735 91.622,71.479 78.673,71.479 74.974,63.668 73.945,63.668 73.329,63.463 72.919,63.258 72.508,63.053 
		72.096,63.053 71.685,63.053 70.657,63.053 70.04,63.053 69.63,63.053 69.219,63.258 68.602,63.463 68.19,63.668 64.901,63.668 
		64.49,63.668 64.08,63.463 63.669,63.053 62.846,63.053 62.436,63.053 61.613,63.053 60.791,63.053 60.175,63.258 59.764,63.463 
		59.353,63.668 58.324,63.668 58.324,62.436 58.324,61.408 58.324,60.38 57.913,59.559 57.708,58.941 57.708,58.735 	"/>
</g>
<polygon fill="#FF0000" points="41.842,20.833 41.677,37.976 81.756,37.976 81.756,57.297 91.622,71.479 78.673,71.479 
	74.974,63.668 58.324,63.668 13.312,63.668 13.312,33.937 8.378,33.923 8.378,20.833 "/>
<rect x="70.334" y="20.833" fill="#FF0000" width="8.75" height="13.167"/>
<path fill="#FF0000" d="M61.039,33.454c0-3.774-2.633-6.834-5.88-6.834s-5.879,3.06-5.879,6.834"/>
<circle fill="#FFFFF0" cx="45.333" cy="66.166" r="10.167"/>
<circle fill="#FFFFF0" cx="25" cy="66.166" r="10.167"/>
<circle fill="#FFFFF0" cx="64.834" cy="67.832" r="7.5"/>
<circle fill="#FF0000" cx="25" cy="66.166" r="6"/>
<circle fill="#FF0000" cx="45.332" cy="66.166" r="6"/>
<circle fill="#FF0000" cx="64.834" cy="67.832" r="4.5"/>
</svg>
