<?xml version="1.0" encoding="utf-8"?>
<!-- Generator: Adobe Illustrator 15.0.0, SVG Export Plug-In . SVG Version: 6.00 Build 0)  -->
<!DOCTYPE svg PUBLIC "-//W3C//DTD SVG 1.1//EN" "http://www.w3.org/Graphics/SVG/1.1/DTD/svg11.dtd">
<svg version="1.1" id="Ebene_1" xmlns="http://www.w3.org/2000/svg" xmlns:xlink="http://www.w3.org/1999/xlink" x="0px" y="0px"
	 width="100px" height="100px" viewBox="0 0 100 100" enable-background="new 0 0 100 100" xml:space="preserve">
<rect fill-rule="evenodd" clip-rule="evenodd" fill="#FF0000" width="100" height="100"/>
<path fill="#FFFFF0" d="M62.729,12.12h22.967V56.5c0,4.401-0.687,8.558-2.058,12.465c-1.374,3.911-3.524,7.331-6.453,10.258
	c-2.932,2.929-6.007,4.984-9.224,6.169c-4.472,1.66-9.84,2.488-16.106,2.488c-3.626,0-7.581-0.253-11.866-0.761
	c-4.285-0.509-7.866-1.516-10.746-3.021c-2.878-1.505-5.513-3.648-7.901-6.422c-2.388-2.776-4.021-5.638-4.903-8.583
	c-1.422-4.739-2.135-8.938-2.135-12.593V12.12h22.969v45.438c0,4.063,1.126,7.234,3.379,9.52c2.252,2.285,5.376,3.427,9.375,3.427
	c3.963,0,7.07-1.125,9.323-3.376s3.38-5.442,3.38-9.57V12.12z"/>
</svg>
