<?xml version="1.0" encoding="utf-8"?>
<!-- Generator: Adobe Illustrator 15.0.0, SVG Export Plug-In . SVG Version: 6.00 Build 0)  -->
<!DOCTYPE svg PUBLIC "-//W3C//DTD SVG 1.1//EN" "http://www.w3.org/Graphics/SVG/1.1/DTD/svg11.dtd">
<svg version="1.1" id="Layer_1" xmlns="http://www.w3.org/2000/svg" xmlns:xlink="http://www.w3.org/1999/xlink" x="0px" y="0px"
	 width="100px" height="100px" viewBox="0 0 100 100" enable-background="new 0 0 100 100" xml:space="preserve">
<rect fill-rule="evenodd" clip-rule="evenodd" fill="#FF0000" width="100" height="100"/>
<polygon fill="#FFFFF0" points="5,5 95,5 95,95 5,95 5,5 "/>
<path fill-rule="evenodd" clip-rule="evenodd" fill="#FF0000" d="M80.623,78.749v7.189c0,5.624-9.373,5.624-9.373,0v-7.189H80.623
	L80.623,78.749z M29.062,78.749v7.189c0,5.936-9.688,5.936-9.688,0v-7.189H29.062L29.062,78.749z M85,31.875v10.938v26.25
	c0,1.876-0.939,7.188-2.188,7.188H17.188c-1.251,0-2.188-5.313-2.188-7.188v-26.25V31.875C15,2.188,85,2.188,85,31.875z"/>
<path fill-rule="evenodd" clip-rule="evenodd" fill="#FFFFF0" d="M77.186,58.125c3.126,0,5.938,2.187,5.938,4.999
	c0,2.814-2.813,5.313-5.938,5.313c-3.438,0-5.936-2.498-5.936-5.313C71.25,60.312,73.748,58.125,77.186,58.125L77.186,58.125z"/>
<path fill-rule="evenodd" clip-rule="evenodd" fill="#FFFFF0" d="M22.812,58.125c3.438,0,5.938,2.501,5.938,5.313
	c0,2.812-2.501,4.998-5.938,4.998c-3.126,0-5.938-2.187-5.938-4.998C16.873,60.626,19.686,58.125,22.812,58.125L22.812,58.125z"/>
<path fill-rule="evenodd" clip-rule="evenodd" fill="#FFFFF0" d="M75.549,20.624c3.614,0,6.025,5.627,6.325,10.938v11.251H51.751
	V20.624H75.549L75.549,20.624z"/>
<path fill-rule="evenodd" clip-rule="evenodd" fill="#FFFFF0" d="M24.5,20.624c-3.645,0-6.071,5.627-6.376,10.938v11.251h30.358
	V20.624H24.5z"/>
</svg>
