<?xml version="1.0" encoding="utf-8"?>
<!-- Generator: Adobe Illustrator 15.0.0, SVG Export Plug-In . SVG Version: 6.00 Build 0)  -->
<!DOCTYPE svg PUBLIC "-//W3C//DTD SVG 1.1//EN" "http://www.w3.org/Graphics/SVG/1.1/DTD/svg11.dtd">
<svg version="1.1" id="Layer_1" xmlns="http://www.w3.org/2000/svg" xmlns:xlink="http://www.w3.org/1999/xlink" x="0px" y="0px"
	 width="100px" height="100px" viewBox="0 0 100 100" enable-background="new 0 0 100 100" xml:space="preserve">
<rect fill-rule="evenodd" clip-rule="evenodd" fill="#FF0000" width="100" height="100"/>
<polygon fill="#FFFFF0" points="5,5 95,5 95,95 5,95 5,5 "/>
<path fill-rule="evenodd" clip-rule="evenodd" fill="#FF0000" d="M58.437,46.251c3.438,0,6.563-2.812,6.563-6.25
	c0-3.751-3.126-6.563-6.563-6.563s-6.563,2.812-6.563,6.563C51.873,43.439,54.999,46.251,58.437,46.251z"/>
<path fill-rule="evenodd" clip-rule="evenodd" fill="#FF0000" d="M64.062,68.438l11.563,0.313c1.562,0,3.126,1.248,3.126,3.124
	v15.937c0,1.876-1.251,3.127-3.126,3.127c-1.876,0-3.123-1.563-3.123-3.127V74.688h-15.94c-1.25,0.313-4.063-0.626-4.063-2.813
	l0.314-3.438l-0.314-15.312c0-3.438,2.813-5.313,5.938-5.313c2.813,0,5.625,1.875,5.625,5.313V68.438z"/>
<path fill-rule="evenodd" clip-rule="evenodd" fill="#FF0000" d="M52.498,83.438c-4.685-0.312-9.373-5.625-9.373-9.063V31.563
	L13.124,41.875V36.25l67.499-23.125v5.938L48.436,29.689v42.5c0,3.123,1.251,5.624,5.313,5.624h14.375v5.625H52.498z"/>
<path fill-rule="evenodd" clip-rule="evenodd" fill="#FF0000" d="M51.873,20.625c3.751,0,6.563-3.124,6.563-6.561
	c0-3.751-2.813-6.563-6.563-6.563c-3.438,0-6.25,2.813-6.25,6.563C45.623,17.501,48.436,20.625,51.873,20.625z"/>
<path fill-rule="evenodd" clip-rule="evenodd" fill="#FF0000" d="M37.498,25.938c3.438,0,6.563-2.813,6.563-6.562
	c0-3.438-3.126-6.563-6.563-6.563c-3.749,0-6.562,3.126-6.562,6.563C30.937,23.125,33.749,25.938,37.498,25.938z"/>
</svg>
