<?xml version="1.0" encoding="utf-8"?>
<!-- Generator: Adobe Illustrator 15.0.0, SVG Export Plug-In . SVG Version: 6.00 Build 0)  -->
<!DOCTYPE svg PUBLIC "-//W3C//DTD SVG 1.1//EN" "http://www.w3.org/Graphics/SVG/1.1/DTD/svg11.dtd">
<svg version="1.1" id="Ebene_1" xmlns="http://www.w3.org/2000/svg" xmlns:xlink="http://www.w3.org/1999/xlink" x="0px" y="0px"
	 width="100px" height="100px" viewBox="0 0 100 100" enable-background="new 0 0 100 100" xml:space="preserve">
<rect fill-rule="evenodd" clip-rule="evenodd" fill="#FF0000" width="100" height="100"/>
<rect x="5" y="5" fill-rule="evenodd" clip-rule="evenodd" fill="#FFFFF0" width="90" height="90"/>
<polygon fill-rule="evenodd" clip-rule="evenodd" fill="#FF0000" points="82.986,87.982 16.978,87.982 16.978,39.987 50,11.98 
	82.986,39.987 "/>
<path fill-rule="evenodd" clip-rule="evenodd" fill="#FFFFF0" d="M45.682,21.858c0,0,1.61,5.294,1.751,7.749
	c0.104,1.802,0.038,2.645-1.296,5.778c-1.947,4.575-4.756,6.546-6.485,9.845c-1.73,3.299-2.37,5.321-2.803,8.354
	c-0.432,3.034-0.111,6.434,0.465,8.6c0.577,2.168,7.238,10.755,8.102,12.633c0.865,1.877,8.981,11.423,8.981,11.423
	s-2.642-3.19-2.496-6.947c0.143-3.754,1.007-5.487,2.595-8.23c1.583-2.745,6.507-8.409,7.804-12.597
	c1.297-4.189,1.278-6.973,0.55-11.968c-0.728-4.99-3.6-7.79-8.067-13.134C50.315,28.019,45.682,21.858,45.682,21.858z"/>
</svg>
