<?xml version="1.0" encoding="utf-8"?>
<!-- Generator: Adobe Illustrator 15.0.0, SVG Export Plug-In . SVG Version: 6.00 Build 0)  -->
<!DOCTYPE svg PUBLIC "-//W3C//DTD SVG 1.1//EN" "http://www.w3.org/Graphics/SVG/1.1/DTD/svg11.dtd">
<svg version="1.1" id="Ebene_1" xmlns="http://www.w3.org/2000/svg" xmlns:xlink="http://www.w3.org/1999/xlink" x="0px" y="0px"
	 width="100px" height="100px" viewBox="0 0 100 100" enable-background="new 0 0 100 100" xml:space="preserve">
<rect fill-rule="evenodd" clip-rule="evenodd" fill="#FF0000" width="100" height="100"/>
<polygon fill-rule="evenodd" clip-rule="evenodd" fill="#FFFFF0" points="50.001,9.94 95.182,40.059 87.049,40.059 87.049,90.061 
	12.952,90.061 12.952,40.059 4.818,40.059 "/>
<path fill-rule="evenodd" clip-rule="evenodd" fill="#FF0000" stroke="#FF0000" stroke-width="0.9036" stroke-miterlimit="10" d="
	M33.132,78.615c8.735,0,15.964-7.229,15.964-15.966c0-8.734-7.229-15.661-15.964-15.661c-8.734,0-15.963,6.927-15.963,15.661
	C17.169,71.386,24.397,78.615,33.132,78.615z"/>
<path fill-rule="evenodd" clip-rule="evenodd" fill="#FFFFF0" d="M33.132,73.794c6.327,0,11.146-4.818,11.146-11.145
	c0-6.023-4.818-11.144-11.146-11.144c-6.324,0-11.145,5.12-11.145,11.144C21.987,68.976,26.808,73.794,33.132,73.794z"/>
<path fill-rule="evenodd" clip-rule="evenodd" fill="#FF0000" stroke="#FF0000" stroke-width="0.9036" stroke-miterlimit="10" d="
	M67.772,78.615c8.734,0,15.963-7.229,15.963-15.966c0-8.734-7.229-15.661-15.963-15.661c-8.737,0-15.966,6.927-15.966,15.661
	C51.807,71.386,59.035,78.615,67.772,78.615z"/>
<path fill-rule="evenodd" clip-rule="evenodd" fill="#FFFFF0" d="M67.772,73.794c6.324,0,11.445-4.818,11.445-11.145
	c0-6.023-5.121-11.144-11.445-11.144c-6.026,0-11.146,5.12-11.146,11.144C56.627,68.976,61.746,73.794,67.772,73.794z"/>
<line fill-rule="evenodd" clip-rule="evenodd" fill="none" stroke="#FF0000" stroke-width="5" stroke-miterlimit="10" x1="35.24" y1="37.048" x2="63.555" y2="39.156"/>
<line fill-rule="evenodd" clip-rule="evenodd" fill="none" stroke="#FF0000" stroke-width="5" stroke-miterlimit="10" x1="33.435" y1="62.649" x2="46.688" y2="38.253"/>
<line fill-rule="evenodd" clip-rule="evenodd" fill="none" stroke="#FF0000" stroke-width="5" stroke-miterlimit="10" x1="69.578" y1="63.252" x2="46.688" y2="63.252"/>
</svg>
