<?xml version="1.0" encoding="utf-8"?>
<!-- Generator: Adobe Illustrator 15.0.0, SVG Export Plug-In . SVG Version: 6.00 Build 0)  -->
<!DOCTYPE svg PUBLIC "-//W3C//DTD SVG 1.1//EN" "http://www.w3.org/Graphics/SVG/1.1/DTD/svg11.dtd">
<svg version="1.1" id="Ebene_1" xmlns="http://www.w3.org/2000/svg" xmlns:xlink="http://www.w3.org/1999/xlink" x="0px" y="0px"
	 width="100px" height="100px" viewBox="0 0 100 100" enable-background="new 0 0 100 100" xml:space="preserve">
<rect fill-rule="evenodd" clip-rule="evenodd" fill="#FF0000" width="100" height="100"/>
<g id="Ebene_2">
	<rect x="5" y="5" fill-rule="evenodd" clip-rule="evenodd" fill="#FFFFF0" width="90" height="90"/>
	<rect x="49.641" y="49.91" fill-rule="evenodd" clip-rule="evenodd" fill="#FFFFF0" width="0.718" height="0.18"/>
</g>
<path fill-rule="evenodd" clip-rule="evenodd" fill="#FF0000" d="M74.193,12c0,0,12.85,37.659,15.361,42.899
	c2.883,6.015,8.435,15,8.435,15v3.3H85.941v9.6h-7.229v-6.899l-14.458,2.4c0,0,5.121-14.101,5.722-16.8
	c1.205-3.9,3.615-15.001,3.916-24C74.193,28.5,74.193,12,74.193,12z"/>
<path fill-rule="evenodd" clip-rule="evenodd" fill="#FF0000" d="M16.566,72.899c0-4.501,0-8.999,0-13.2c-2.108,0-4.216,0-6.024,0
	c0-2.1,0-4.199,0-6c16.266,0,32.832,0,49.096,0c0,1.801,0,3.9,0,6c-2.408,0-4.216,0-6.324,0c0,4.201,0,8.699,0,13.2
	c-2.108,0-3.916,0-5.724,0c0-4.501,0-8.999,0-13.2c-8.435,0-16.867,0-24.698,0c0,4.201,0,8.699,0,13.2
	C20.482,72.899,18.674,72.899,16.566,72.899z"/>
</svg>
