<?xml version="1.0" encoding="utf-8"?>
<!-- Generator: Adobe Illustrator 15.0.0, SVG Export Plug-In . SVG Version: 6.00 Build 0)  -->
<!DOCTYPE svg PUBLIC "-//W3C//DTD SVG 1.1//EN" "http://www.w3.org/Graphics/SVG/1.1/DTD/svg11.dtd">
<svg version="1.1" id="Ebene_1" xmlns="http://www.w3.org/2000/svg" xmlns:xlink="http://www.w3.org/1999/xlink" x="0px" y="0px"
	 width="100px" height="100px" viewBox="0 0 100 100" enable-background="new 0 0 100 100" xml:space="preserve">
<rect fill-rule="evenodd" clip-rule="evenodd" fill="#FF0000" width="100" height="100"/>
<path fill-rule="evenodd" clip-rule="evenodd" fill="#FFFFF0" d="M50,91c22.598,0,41-18.401,41-41S72.598,9,50,9
	C27.401,9,9,27.402,9,50S27.401,91,50,91z"/>
<path fill-rule="evenodd" clip-rule="evenodd" fill="#FF0000" d="M50,85.875c19.773,0,35.875-16.102,35.875-35.875
	c0-19.774-16.102-35.875-35.875-35.875c-19.774,0-35.875,16.101-35.875,35.875C14.125,69.773,30.226,85.875,50,85.875z"/>
<g>
	<path fill="#FFFFF0" d="M30.149,74.632V25.368h10.027v19.39h19.646v-19.39h10.027v49.264H59.823v-21.54H40.177v21.54H30.149z"/>
</g>
</svg>
