<?xml version="1.0" encoding="utf-8"?>
<!-- Generator: Adobe Illustrator 15.0.0, SVG Export Plug-In . SVG Version: 6.00 Build 0)  -->
<!DOCTYPE svg PUBLIC "-//W3C//DTD SVG 1.1//EN" "http://www.w3.org/Graphics/SVG/1.1/DTD/svg11.dtd">
<svg version="1.1" id="Ebene_1" xmlns="http://www.w3.org/2000/svg" xmlns:xlink="http://www.w3.org/1999/xlink" x="0px" y="0px"
	 width="100px" height="100px" viewBox="0 0 100 100" enable-background="new 0 0 100 100" xml:space="preserve">
<rect fill-rule="evenodd" clip-rule="evenodd" fill="#FF0000" width="100" height="100"/>
<polygon fill="#FFFFF0" points="5,5 95,5 95,95 5,95 5,5 "/>
<path fill-rule="evenodd" clip-rule="evenodd" fill="#FF0000" stroke="#FF0000" stroke-width="0.9375" stroke-miterlimit="10" d="
	M28.126,76.251c10.938,0,20-9.064,20-20.002c0-10.938-9.063-20-20-20c-11.251,0-20.313,9.062-20.313,20
	C7.813,67.187,16.875,76.251,28.126,76.251z"/>
<path fill-rule="evenodd" clip-rule="evenodd" fill="#FFFFF0" d="M28.126,70.312c7.812,0,14.062-6.249,14.062-14.063
	c0-7.5-6.25-14.062-14.062-14.062c-7.813,0-14.375,6.561-14.375,14.062C13.751,64.063,20.313,70.312,28.126,70.312z"/>
<path fill-rule="evenodd" clip-rule="evenodd" fill="#FF0000" stroke="#FF0000" stroke-width="0.9375" stroke-miterlimit="10" d="
	M71.876,76.251c11.249,0,20.312-9.064,20.312-20.002c0-10.938-9.063-20-20.312-20c-10.938,0-20.001,9.062-20.001,20
	C51.875,67.187,60.938,76.251,71.876,76.251z"/>
<path fill-rule="evenodd" clip-rule="evenodd" fill="#FFFFF0" d="M71.876,70.312c7.813,0,14.375-6.249,14.375-14.063
	c0-7.5-6.563-14.062-14.375-14.062c-7.813,0-14.063,6.561-14.063,14.062C57.813,64.063,64.063,70.312,71.876,70.312z"/>
<line fill-rule="evenodd" clip-rule="evenodd" fill="none" stroke="#FF0000" stroke-width="6.25" stroke-miterlimit="10" x1="30.625" y1="23.75" x2="66.563" y2="26.562"/>
<line fill-rule="evenodd" clip-rule="evenodd" fill="none" stroke="#FF0000" stroke-width="6.25" stroke-miterlimit="10" x1="28.438" y1="56.249" x2="45.313" y2="25.312"/>
<line fill-rule="evenodd" clip-rule="evenodd" fill="none" stroke="#FF0000" stroke-width="6.25" stroke-miterlimit="10" x1="74.375" y1="56.874" x2="45" y2="56.874"/>
</svg>
