<?xml version="1.0" encoding="utf-8"?>
<!-- Generator: Adobe Illustrator 15.0.0, SVG Export Plug-In . SVG Version: 6.00 Build 0)  -->
<!DOCTYPE svg PUBLIC "-//W3C//DTD SVG 1.1//EN" "http://www.w3.org/Graphics/SVG/1.1/DTD/svg11.dtd">
<svg version="1.1" id="Ebene_1" xmlns="http://www.w3.org/2000/svg" xmlns:xlink="http://www.w3.org/1999/xlink" x="0px" y="0px"
	 width="100px" height="100px" viewBox="0 0 100 100" enable-background="new 0 0 100 100" xml:space="preserve">
<rect fill-rule="evenodd" clip-rule="evenodd" fill="#FF0000" width="100" height="100"/>
<polygon fill="#FFFFF0" points="5,5 95,5 95,95 5,95 5,5 "/>
<g>
	<path fill-rule="evenodd" clip-rule="evenodd" fill="#FF0000" d="M49.999,85.57C36.406,70.231,22.909,60.416,16.136,44.29
		c-5.159-11.288-1.612-24.834,9.03-29.026C32.262,12.683,45.163,10.867,50,26.347c4.839-15.158,17.738-13.341,24.833-10.761
		c10.644,4.192,14.191,17.416,9.031,29.026C77.091,60.416,64.024,69.554,49.999,85.57L49.999,85.57z"/>
</g>
<polygon fill="#FFFFF0" points="63.137,19.045 35.318,50 53.318,50 44.591,74.863 70.192,40.61 50.954,41.955 "/>
</svg>
