<?xml version="1.0" encoding="utf-8"?>
<!-- Generator: Adobe Illustrator 15.0.0, SVG Export Plug-In . SVG Version: 6.00 Build 0)  -->
<!DOCTYPE svg PUBLIC "-//W3C//DTD SVG 1.1//EN" "http://www.w3.org/Graphics/SVG/1.1/DTD/svg11.dtd">
<svg version="1.1" id="Ebene_1" xmlns="http://www.w3.org/2000/svg" xmlns:xlink="http://www.w3.org/1999/xlink" x="0px" y="0px"
	 width="100px" height="100px" viewBox="0 0 100 100" enable-background="new 0 0 100 100" xml:space="preserve">
<rect fill-rule="evenodd" clip-rule="evenodd" fill="#FF0000" width="100" height="100"/>
<rect x="5" y="5" fill-rule="evenodd" clip-rule="evenodd" fill="#FFFFF0" width="90" height="90"/>
<polygon fill-rule="evenodd" clip-rule="evenodd" fill="#FF0000" points="65.986,43.938 75.819,43.938 75.819,33.758 85.812,33.758 
	85.812,23.741 75.819,23.741 75.819,13.562 65.986,13.562 65.986,23.741 56.152,23.741 56.152,33.758 65.986,33.758 65.986,43.938 
	"/>
<path fill-rule="evenodd" clip-rule="evenodd" fill="#FF0000" d="M60.719,83.776c-1.385,2.371-6.367,3.274-15.956,3.135
	C23.648,74.943,11.407,51.497,12.486,20.069c5.009-5.085,9.938-8.945,14.919-9.848l5.104,23.467
	c-2.318,1.571-5.063,2.129-7.726,1.462c0.075,10.094,8.377,29.835,15.646,31.544c2.158,0.88,3.889,0.747,5.488-1.116L60.719,83.776z
	"/>
<path fill-rule="evenodd" clip-rule="evenodd" fill="#FF0000" d="M31.876,10.301l8.79,1.069l3.349,16.462
	c-0.161,2.45-0.747,3.889-2.267,4.527l-4.262,1.196L31.876,10.301z"/>
<path fill-rule="evenodd" clip-rule="evenodd" fill="#FF0000" d="M49.226,62.938c1.092-1.652,2.903-3.009,4.636-3.141l15.387,16.761
	c1.064,2.53-2.853,5.966-5.009,5.085L49.226,62.938z"/>
</svg>
