<?xml version="1.0" encoding="utf-8"?>
<!-- Generator: Adobe Illustrator 15.0.0, SVG Export Plug-In . SVG Version: 6.00 Build 0)  -->
<!DOCTYPE svg PUBLIC "-//W3C//DTD SVG 1.1//EN" "http://www.w3.org/Graphics/SVG/1.1/DTD/svg11.dtd">
<svg version="1.1" id="Ebene_1" xmlns="http://www.w3.org/2000/svg" xmlns:xlink="http://www.w3.org/1999/xlink" x="0px" y="0px"
	 width="100px" height="100px" viewBox="0 0 100 100" enable-background="new 0 0 100 100" xml:space="preserve">
<rect fill-rule="evenodd" clip-rule="evenodd" fill="#FF0000" width="100" height="100"/>
<polygon fill="#FFFFF0" points="5,5 95,5 95,95 5,95 5,5 "/>
<path fill-rule="evenodd" clip-rule="evenodd" fill="#FF0000" stroke="#FF0000" stroke-width="0.9375" stroke-miterlimit="10" d="
	M28.125,90.313c10.938,0,19.999-9.063,19.999-20.314C48.124,59.063,39.063,50,28.125,50C16.873,50,7.812,59.063,7.812,69.999
	C7.812,81.251,16.873,90.313,28.125,90.313z"/>
<path fill-rule="evenodd" clip-rule="evenodd" fill="#FFFFF0" d="M28.125,84.374c7.812,0,14.061-6.561,14.061-14.375
	c0-7.812-6.249-14.061-14.061-14.061c-7.814,0-14.375,6.249-14.375,14.061C13.75,77.813,20.311,84.374,28.125,84.374z"/>
<path fill-rule="evenodd" clip-rule="evenodd" fill="#FF0000" stroke="#FF0000" stroke-width="0.9375" stroke-miterlimit="10" d="
	M71.875,90.313c11.249,0,20.311-9.063,20.311-20.314C92.186,59.063,83.124,50,71.875,50c-10.938,0-20.002,9.063-20.002,19.999
	C51.873,81.251,60.938,90.313,71.875,90.313z"/>
<path fill-rule="evenodd" clip-rule="evenodd" fill="#FFFFF0" d="M71.875,84.374c7.812,0,14.375-6.561,14.375-14.375
	c0-7.812-6.563-14.061-14.375-14.061c-7.813,0-14.063,6.249-14.063,14.061C57.812,77.813,64.062,84.374,71.875,84.374z"/>
<line fill-rule="evenodd" clip-rule="evenodd" fill="none" stroke="#FF0000" stroke-width="6.25" stroke-miterlimit="10" x1="30.623" y1="37.5" x2="66.562" y2="40.313"/>
<line fill-rule="evenodd" clip-rule="evenodd" fill="none" stroke="#FF0000" stroke-width="6.25" stroke-miterlimit="10" x1="28.437" y1="69.999" x2="45.312" y2="39.063"/>
<line fill-rule="evenodd" clip-rule="evenodd" fill="none" stroke="#FF0000" stroke-width="6.25" stroke-miterlimit="10" x1="74.373" y1="70.624" x2="44.998" y2="70.624"/>
<path fill="none" stroke="#FF0000" stroke-width="3" stroke-miterlimit="10" d="M97.817,40.867
	c-4.304,8.7-12.194,3.323-10.456-5.474c0.406-2.051,1.342-5.683,1.397-7.627c0.153-5.492-1.159-9.846-9.165-8.252"/>
<path fill-rule="evenodd" clip-rule="evenodd" fill="#FF0000" d="M63.157,8.251c-0.499,0-0.988,0.021-1.478,0.042v21.775
	c0.489,0.021,0.979,0.042,1.478,0.042c10.615,0,19.221-4.894,19.221-10.93C82.378,13.145,73.772,8.251,63.157,8.251z"/>
<rect x="51.65" y="12.001" fill-rule="evenodd" clip-rule="evenodd" fill="#FF0000" width="12.321" height="3.696"/>
<rect x="51.65" y="21.816" fill-rule="evenodd" clip-rule="evenodd" fill="#FF0000" width="12.321" height="3.696"/>
</svg>
