<?xml version="1.0" encoding="utf-8"?>
<!-- Generator: Adobe Illustrator 15.0.0, SVG Export Plug-In . SVG Version: 6.00 Build 0)  -->
<!DOCTYPE svg PUBLIC "-//W3C//DTD SVG 1.1//EN" "http://www.w3.org/Graphics/SVG/1.1/DTD/svg11.dtd">
<svg version="1.1" id="Ebene_1" xmlns="http://www.w3.org/2000/svg" xmlns:xlink="http://www.w3.org/1999/xlink" x="0px" y="0px"
	 width="100px" height="100px" viewBox="0 0 100 100" enable-background="new 0 0 100 100" xml:space="preserve">
<rect fill-rule="evenodd" clip-rule="evenodd" fill="#FF0000" width="100" height="100"/>
<rect x="5" y="5" fill-rule="evenodd" clip-rule="evenodd" fill="#FFFFF0" width="90" height="90"/>
<path fill="#FF0000" d="M90.297,31.889l-28.578,2.307L50.3,13.366L38.54,34.078l-28.536-2.601l16.817,18.404L9.703,68.112
	l28.577-2.308l11.418,20.829l11.76-20.71l28.537,2.599L73.178,50.119L90.297,31.889z M50,66.96c-12.041,0-21.803-7.593-21.803-16.96
	c0-9.367,9.762-16.96,21.803-16.96c12.042,0,21.803,7.594,21.803,16.96C71.803,59.367,62.042,66.96,50,66.96z"/>
<ellipse fill="#FFFFF0" cx="50" cy="50" rx="21.803" ry="16.96"/>
</svg>
