<?xml version="1.0" encoding="utf-8"?>
<!-- Generator: Adobe Illustrator 15.0.0, SVG Export Plug-In . SVG Version: 6.00 Build 0)  -->
<!DOCTYPE svg PUBLIC "-//W3C//DTD SVG 1.1//EN" "http://www.w3.org/Graphics/SVG/1.1/DTD/svg11.dtd">
<svg version="1.1" id="Ebene_1" xmlns="http://www.w3.org/2000/svg" xmlns:xlink="http://www.w3.org/1999/xlink" x="0px" y="0px"
	 width="100px" height="100px" viewBox="0 0 100 100" enable-background="new 0 0 100 100" xml:space="preserve">
<rect fill-rule="evenodd" clip-rule="evenodd" fill="#FF0000" width="100" height="100"/>
<polygon fill="#FFFFF0" points="5,5 95,5 95,95 5,95 5,5 "/>
<path fill-rule="evenodd" clip-rule="evenodd" fill="#FF0000" d="M88.486,61.402L15.451,62.19c0,0-4.331-5.906-4.725-8.269
	c-0.394-2.362-0.394-8.071,2.362-10.434c2.756-2.362,6.89-4.134,11.812-5.119c4.921-0.984,11.812-2.953,14.174-3.937
	s8.071-2.56,10.434-4.331c2.362-1.772,3.74-5.906,4.134-8.662c0.395-2.756-0.196-11.615,1.182-12.206
	c1.378-0.59,4.527-0.59,6.3-0.394c1.771,0.197,25.001,5.512,25.001,5.512S85.533,36.992,85.73,38.96
	c0.197,1.968,1.182,8.268,1.969,10.04s1.575,4.724,1.575,6.693S88.486,61.402,88.486,61.402z"/>
<circle fill="#FFFFF0" stroke="#FF0000" stroke-width="8.0358" stroke-miterlimit="3.8637" cx="21.553" cy="79.711" r="7.678"/>
<circle fill="#FFFFF0" stroke="#FF0000" stroke-width="8.0358" stroke-miterlimit="3.8637" cx="50.124" cy="79.711" r="7.677"/>
<circle fill="#FFFFF0" stroke="#FF0000" stroke-width="8.0358" stroke-miterlimit="3.8637" cx="78.696" cy="79.711" r="7.677"/>
<g>
	<g>
		<path fill="#FFFFF0" d="M45.027,31.592c3.602,1.531,7.204,3.061,10.806,4.592c1.505,0.64,3.2,0.466,4.104-1.076
			c0.746-1.274,0.43-3.464-1.077-4.104c-3.602-1.531-7.203-3.061-10.805-4.592c-1.505-0.64-3.201-0.466-4.104,1.076
			C43.204,28.762,43.521,30.952,45.027,31.592L45.027,31.592z"/>
	</g>
</g>
<g>
	<g>
		<path fill="#FFFFF0" d="M42.542,28.271c0.336,2.898,0.672,5.797,1.008,8.695c0.188,1.624,1.222,3,3,3c1.493,0,3.189-1.372,3-3
			c-0.336-2.898-0.672-5.797-1.008-8.695c-0.188-1.624-1.222-3-3-3C44.05,25.271,42.354,26.643,42.542,28.271L42.542,28.271z"/>
	</g>
</g>
</svg>
