<?xml version="1.0" encoding="utf-8"?>
<!-- Generator: Adobe Illustrator 15.0.0, SVG Export Plug-In . SVG Version: 6.00 Build 0)  -->
<!DOCTYPE svg PUBLIC "-//W3C//DTD SVG 1.1//EN" "http://www.w3.org/Graphics/SVG/1.1/DTD/svg11.dtd">
<svg version="1.1" id="Ebene_1" xmlns="http://www.w3.org/2000/svg" xmlns:xlink="http://www.w3.org/1999/xlink" x="0px" y="0px"
	 width="100px" height="100px" viewBox="0 0 100 100" enable-background="new 0 0 100 100" xml:space="preserve">
<rect fill-rule="evenodd" clip-rule="evenodd" fill="#FF0000" width="100" height="100"/>
<rect x="5" y="5" fill-rule="evenodd" clip-rule="evenodd" fill="#FFFFF0" width="90" height="90"/>
<path fill-rule="evenodd" clip-rule="evenodd" fill="#FF0000" d="M85.808,63.189l-70.357,0.788c0,0-2.289-7.044-0.591-10.253
	c1.772-3.347,5.119-6.333,10.041-7.317c4.921-0.984,11.812-2.953,14.174-3.939c2.362-0.984,8.071-2.559,10.434-4.331
	c2.362-1.772,3.74-12.156,4.134-14.913c0.395-2.756-0.196-11.615,1.182-12.206c1.378-0.59,4.527-0.59,6.3-0.394
	c1.771,0.197,21.43,5.512,21.43,5.512s-1.359,22.88-0.394,24.608c2.193,3.923,4.753,8.27,5.54,10.041
	c0.787,1.772,0.394,4.316,0.394,6.284C88.093,59.04,85.808,63.189,85.808,63.189z"/>
<circle fill="#FFFFF0" stroke="#FF0000" stroke-width="7.1428" stroke-miterlimit="3.8637" cx="26.822" cy="77.121" r="6.696"/>
<circle fill="#FFFFF0" stroke="#FF0000" stroke-width="7.1428" stroke-miterlimit="3.8637" cx="75.929" cy="77.121" r="6.695"/>
<line fill-rule="evenodd" clip-rule="evenodd" fill="none" stroke="#E1001A" stroke-width="6.2501" stroke-miterlimit="3.8637" x1="42.437" y1="72.897" x2="61.335" y2="72.897"/>
<circle fill="#FFFFF0" cx="58.933" cy="18.314" r="3.125"/>
<circle fill="#FFFFF0" cx="58.039" cy="27.242" r="3.124"/>
<circle fill="#FFFFF0" cx="56.253" cy="36.172" r="3.125"/>
</svg>
