<?xml version="1.0" encoding="utf-8"?>
<!-- Generator: Adobe Illustrator 15.0.0, SVG Export Plug-In . SVG Version: 6.00 Build 0)  -->
<!DOCTYPE svg PUBLIC "-//W3C//DTD SVG 1.1//EN" "http://www.w3.org/Graphics/SVG/1.1/DTD/svg11.dtd">
<svg version="1.1" id="Ebene_1" xmlns="http://www.w3.org/2000/svg" xmlns:xlink="http://www.w3.org/1999/xlink" x="0px" y="0px"
	 width="100px" height="100px" viewBox="0 0 100 100" enable-background="new 0 0 100 100" xml:space="preserve">
<rect fill-rule="evenodd" clip-rule="evenodd" fill="#FF0000" width="100" height="100"/>
<rect x="5" y="5" fill-rule="evenodd" clip-rule="evenodd" fill="#FFFFF0" width="90" height="90"/>
<circle fill="none" stroke="#FF0000" stroke-width="5.3571" stroke-miterlimit="3.8637" cx="50.255" cy="49.998" r="35.632"/>
<path fill-rule="evenodd" clip-rule="evenodd" fill="none" stroke="#FF0000" stroke-width="4.4642" stroke-miterlimit="3.8637" d="
	M37.656,17.516c0,5.906,8.36,51.609,29.769,62.225"/>
<path fill-rule="evenodd" clip-rule="evenodd" fill="none" stroke="#FF0000" stroke-width="5.3571" stroke-miterlimit="3.8637" d="
	M48.483,56.297c9.253-0.787,25.592-8.858,33.467-20.67"/>
<path fill-rule="evenodd" clip-rule="evenodd" fill="none" stroke="#FF0000" stroke-width="5.3571" stroke-miterlimit="3.8637" d="
	M47.512,52.086c8.951-9.752,13.965-24.728,15.146-35.751"/>
<path fill-rule="evenodd" clip-rule="evenodd" fill="none" stroke="#FF0000" stroke-width="5.3571" stroke-miterlimit="3.8637" d="
	M46.33,53.086c0,0-20.092-6.252-30.526-10.189"/>
<path fill-rule="evenodd" clip-rule="evenodd" fill="none" stroke="#FF0000" stroke-width="5.3571" stroke-miterlimit="3.8637" d="
	M48.483,57.177c-4.922,3.149-12.599,7.782-29.727,8.767"/>
<path fill-rule="evenodd" clip-rule="evenodd" fill="none" stroke="#FF0000" stroke-width="5.3571" stroke-miterlimit="3.8637" d="
	M50.439,61.6c-1.771,2.953-6.09,10.446-8.846,22.258"/>
<path fill-rule="evenodd" clip-rule="evenodd" fill="none" stroke="#FF0000" stroke-width="5.3571" stroke-miterlimit="3.8637" d="
	M51.043,60.234c6.693,1.574,24.607,3.937,33.467,0.984"/>
</svg>
