<?xml version="1.0" encoding="utf-8"?>
<!-- Generator: Adobe Illustrator 15.0.0, SVG Export Plug-In . SVG Version: 6.00 Build 0)  -->
<!DOCTYPE svg PUBLIC "-//W3C//DTD SVG 1.1//EN" "http://www.w3.org/Graphics/SVG/1.1/DTD/svg11.dtd">
<svg version="1.1" id="Ebene_1" xmlns="http://www.w3.org/2000/svg" xmlns:xlink="http://www.w3.org/1999/xlink" x="0px" y="0px"
	 width="100px" height="100px" viewBox="0 0 100 100" enable-background="new 0 0 100 100" xml:space="preserve">
<rect fill-rule="evenodd" clip-rule="evenodd" fill="#FF0000" width="100" height="100"/>
<polygon fill="#FFFFF0" points="5,5 95,5 95,95 5,95 5,5 "/>
<path fill-rule="evenodd" clip-rule="evenodd" fill="#FF0000" d="M82.978,77.293c0,0,0.268-0.972,0.532-3.623
	c0.265-2.646,0.655-6.035,0.132-9.194c-0.664-4.042-2.802-10.313-4.663-15.189c-1.86-4.877-9.169-12.541-11.166-14.771
	c-1.996-2.23-12.235-6.827-15.296-8.221c-3.062-1.394-15.033-3.624-19.954-3.902c-4.922-0.28-13.169,1.672-13.169,1.672
	s-2.264,5.434-1.996,10.451c0.268,5.017-0.132,11.287,4.521,18.813c4.657,7.523,11.843,14.072,17.958,17.696
	c6.121,3.623,15.564,6.967,20.886,7.386c5.321,0.418,16.364,0.694,21.286-0.558L82.978,77.293z M12.611,19.885
	c0,0-3.063,12.959,2.525,32.05C18.096,62.046,31.63,73.67,37.483,77.573c5.854,3.903,18.629,7.213,21.286,7.662
	c4.922,0.837,17.025-0.418,20.219-1.532c3.189-1.113,7.446,0,7.981-2.227c0.529-2.233-1.331-26.238-7.185-38.321
	c-4.657-9.615-10.644-14.771-13.301-17.279c-6.586-6.207-22.083-10.032-24.743-10.172c-4.251-0.222-9.312-1.253-20.751,1.115
	C15.039,18.051,12.611,19.885,12.611,19.885z"/>
<line fill-rule="evenodd" clip-rule="evenodd" fill="none" stroke="#FF0000" stroke-width="4.3565" stroke-miterlimit="3.8637" x1="47.899" y1="29.862" x2="40.545" y2="40.507"/>
<line fill-rule="evenodd" clip-rule="evenodd" fill="none" stroke="#FF0000" stroke-width="4.3565" stroke-miterlimit="3.8637" x1="55.346" y1="33.902" x2="47.063" y2="44.409"/>
<line fill-rule="evenodd" clip-rule="evenodd" fill="none" stroke="#FF0000" stroke-width="4.3565" stroke-miterlimit="3.8637" x1="62.092" y1="39.252" x2="52.784" y2="49.705"/>
<line fill-rule="evenodd" clip-rule="evenodd" fill="none" stroke="#FF0000" stroke-width="4.3565" stroke-miterlimit="3.8637" x1="68.745" y1="44.828" x2="59.166" y2="54.86"/>
<path fill-rule="evenodd" clip-rule="evenodd" fill="#FF0000" d="M72.87,63.082c-2.132-3.623-8.247-9.339-9.979-11.427
	c-1.729-2.09-8.247-7.386-11.308-9.058s-13.746-9.16-18.354-11.147c-2.208-0.952-15.696-8.082-15.696-8.082
	s7.847,1.673,13.301,3.483c5.453,1.812,15.964,5.714,19.554,8.361c3.593,2.648,12.371,9.057,14.101,10.869
	c1.731,1.812,8.114,9.896,9.311,12.264c1.196,2.369,9.047,17.835,9.578,19.508C83.377,77.853,74.995,66.706,72.87,63.082z"/>
<line fill-rule="evenodd" clip-rule="evenodd" fill="none" stroke="#FF0000" stroke-width="4.3565" stroke-miterlimit="3.8637" x1="74.617" y1="50.984" x2="64.149" y2="60.123"/>
</svg>
