<?xml version="1.0" encoding="utf-8"?>
<!-- Generator: Adobe Illustrator 15.0.0, SVG Export Plug-In . SVG Version: 6.00 Build 0)  -->
<!DOCTYPE svg PUBLIC "-//W3C//DTD SVG 1.1//EN" "http://www.w3.org/Graphics/SVG/1.1/DTD/svg11.dtd">
<svg version="1.1" id="Ebene_1" xmlns="http://www.w3.org/2000/svg" xmlns:xlink="http://www.w3.org/1999/xlink" x="0px" y="0px"
	 width="100px" height="100px" viewBox="0 0 100 100" enable-background="new 0 0 100 100" xml:space="preserve">
<rect fill-rule="evenodd" clip-rule="evenodd" fill="#FF0000" width="100" height="100"/>
<polygon fill="#FFFFF0" points="4.508,4.791 95.01,4.791 95.01,94.992 4.508,94.992 4.508,4.791 "/>
<path fill="none" stroke="#FF0000" stroke-width="4.4643" stroke-miterlimit="3.8637" d="M2.133,35.358h42.366
	c10.439,0,18.898,5.077,18.898,14.645c0,9.566-8.459,14.645-18.898,14.645H3.048"/>
<path fill="none" stroke="#FF0000" stroke-width="5.3572" stroke-miterlimit="3.8637" d="M1.82,26.014l48.797-0.263
	c14.614,0,24.673,10.858,24.673,24.252c0,13.396-10.059,24.254-24.673,24.254H3.214"/>
<path fill="none" stroke="#FF0000" stroke-width="6.2502" stroke-miterlimit="3.8637" d="M1.625,14.885l49.878-0.265
	c20.459,0,34.544,16.63,34.544,35.383c0,18.754-14.085,35.386-34.544,35.386H2.82"/>
</svg>
