<?xml version="1.0" encoding="utf-8"?>
<!-- Generator: Adobe Illustrator 15.0.0, SVG Export Plug-In . SVG Version: 6.00 Build 0)  -->
<!DOCTYPE svg PUBLIC "-//W3C//DTD SVG 1.1//EN" "http://www.w3.org/Graphics/SVG/1.1/DTD/svg11.dtd">
<svg version="1.1" id="Ebene_1" xmlns="http://www.w3.org/2000/svg" xmlns:xlink="http://www.w3.org/1999/xlink" x="0px" y="0px"
	 width="100px" height="100px" viewBox="0 0 100 100" enable-background="new 0 0 100 100" xml:space="preserve">
<rect fill-rule="evenodd" clip-rule="evenodd" fill="#FF0000" width="100" height="100"/>
<rect x="5" y="5" fill-rule="evenodd" clip-rule="evenodd" fill="#FFFFF0" width="90" height="90"/>
<path fill="#FF0000" d="M76.006,18.365c0.233-3.382,3.142-5.933,6.494-5.694c3.355,0.236,5.884,3.17,5.65,6.555
	c-0.233,3.381-3.143,5.932-6.495,5.693C78.3,24.681,75.771,21.747,76.006,18.365z"/>
<path fill-rule="evenodd" clip-rule="evenodd" fill="#FF0000" d="M80.616,52.167l-12.271-5.416c0,0,8.271-10.52,9.435-18.822
	c0.526-3.747,8.424-1.369,8.589,1.161C86.922,37.631,80.616,52.167,80.616,52.167z"/>
<ellipse fill="#FFFFF0" stroke="#FF0000" stroke-width="4.3669" stroke-miterlimit="3.8637" cx="62.481" cy="73.098" rx="12.175" ry="12.281"/>
<path fill-rule="evenodd" clip-rule="evenodd" fill="none" stroke="#FF0000" stroke-width="5.2404" stroke-linecap="round" stroke-miterlimit="3.8637" d="
	M21.587,17.272c7.345,1.91,9.437,7.176,9.437,7.176s4.753,8.302,8.971,11.396c1.768,1.296,7.286,3.249,10.354,3.481"/>
<path fill-rule="evenodd" clip-rule="evenodd" fill="none" stroke="#FF0000" stroke-width="5.2404" stroke-linecap="round" stroke-miterlimit="3.8637" d="
	M13.92,42.421c0,0,11.503,11.218,14.955,13.539c3.446,4.379,1.754,21.958,3.835,24.756c1.15,1.548,4.602,4.256,4.602,4.256"/>
<line fill-rule="evenodd" clip-rule="evenodd" fill="none" stroke="#FF0000" stroke-width="5.2404" stroke-miterlimit="3.8637" x1="22.5" y1="53.356" x2="2.938" y2="77.438"/>
<polyline fill-rule="evenodd" clip-rule="evenodd" fill="none" stroke="#FF0000" stroke-width="6.9871" stroke-linecap="round" stroke-miterlimit="3.8637" points="
	76.041,56.733 59.908,49.979 40.735,50.441 "/>
<polyline fill-rule="evenodd" clip-rule="evenodd" fill="none" stroke="#FF0000" stroke-width="6.1139" stroke-linecap="round" stroke-miterlimit="3.8637" points="
	80.451,29.849 68.946,34.077 57.607,34.893 "/>
<path fill-rule="evenodd" clip-rule="evenodd" fill="none" stroke="#FF0000" stroke-width="5.2404" stroke-linecap="round" stroke-miterlimit="3.8637" d="
	M5.363,16.588c4.218-1.161,11.625-0.472,11.625-0.472s8.819,0.387,12.119,8.849c2.708,6.941,1.03,14.016-1.383,18.616"/>
</svg>
