<?xml version="1.0" encoding="utf-8"?>
<!-- Generator: Adobe Illustrator 15.0.0, SVG Export Plug-In . SVG Version: 6.00 Build 0)  -->
<!DOCTYPE svg PUBLIC "-//W3C//DTD SVG 1.1//EN" "http://www.w3.org/Graphics/SVG/1.1/DTD/svg11.dtd">
<svg version="1.1" id="Ebene_1" xmlns="http://www.w3.org/2000/svg" xmlns:xlink="http://www.w3.org/1999/xlink" x="0px" y="0px"
	 width="100px" height="100px" viewBox="0 0 100 100" enable-background="new 0 0 100 100" xml:space="preserve">
<rect fill="#FF0000" width="100" height="100"/>
<path fill="#FFFFF0" d="M50,10l45,30h-8v50H13V40H5L50,10z"/>
<g enable-background="new    ">
	<path fill="#FF0000" d="M23.336,81.887v-9.069h10.469c-6.414-6.708-9.621-13.93-9.621-21.665c0-6.757,2.297-12.448,6.893-17.075
		c4.595-4.627,10.899-6.94,18.911-6.94c7.937,0,14.216,2.301,18.836,6.903c4.62,4.603,6.931,10.307,6.931,17.112
		c0,7.735-3.207,14.957-9.621,21.665H76.64v9.069H51.904v-8.666c4.153-1.542,7.293-4.039,9.419-7.491
		c2.125-3.451,3.188-7.429,3.188-11.934c0-4.626-1.223-8.678-3.668-12.154c-2.445-3.476-6.063-5.214-10.856-5.214
		c-4.768,0-8.38,1.726-10.838,5.178s-3.686,7.516-3.686,12.191c0,4.529,1.063,8.514,3.188,11.952
		c2.125,3.439,5.265,5.931,9.418,7.473v8.666H23.336z"/>
</g>
</svg>
