<?xml version="1.0" encoding="utf-8"?>
<!-- Generator: Adobe Illustrator 15.0.0, SVG Export Plug-In . SVG Version: 6.00 Build 0)  -->
<!DOCTYPE svg PUBLIC "-//W3C//DTD SVG 1.1//EN" "http://www.w3.org/Graphics/SVG/1.1/DTD/svg11.dtd">
<svg version="1.1" id="Ebene_1" xmlns="http://www.w3.org/2000/svg" xmlns:xlink="http://www.w3.org/1999/xlink" x="0px" y="0px"
	 width="100px" height="100px" viewBox="0 0 100 100" enable-background="new 0 0 100 100" xml:space="preserve">
<rect fill="#FF0000" width="100" height="100"/>
<path fill="#FFFFF0" d="M50,10l45,30h-8v50H13V40H5L50,10z"/>
<polyline fill="none" stroke="#FF0000" stroke-width="6" stroke-linecap="round" points="62.474,51.734 52.207,62.313 
	52.207,82.276 47.908,82.276 "/>
<polyline fill="none" stroke="#FF0000" stroke-width="6" stroke-linecap="round" points="69.224,49.464 65.034,62.313 
	65.034,82.276 60.734,82.276 "/>
<polyline fill="none" stroke="#FF0000" stroke-width="6" stroke-linecap="round" points="38.877,52.902 46.204,48.295 
	54.938,34.167 "/>
<path fill="#FF0000" d="M52.027,35.557l8.607,18.013l10.666-5.097L62.693,30.46C56.593,26.001,53.037,27.7,52.027,35.557"/>
<path fill="none" stroke="#FF0000" stroke-width="4" d="M34.811,84.614V55.896c1.433-3.992,3.224-3.992,5.373,0"/>
<ellipse transform="matrix(-0.4311 -0.9023 0.9023 -0.4311 41.1233 77.2827)" fill="#FF0000" cx="44.925" cy="25.677" rx="6.987" ry="7.523"/>
</svg>
