<?xml version="1.0" encoding="utf-8"?>
<!-- Generator: Adobe Illustrator 15.0.0, SVG Export Plug-In . SVG Version: 6.00 Build 0)  -->
<!DOCTYPE svg PUBLIC "-//W3C//DTD SVG 1.1//EN" "http://www.w3.org/Graphics/SVG/1.1/DTD/svg11.dtd">
<svg version="1.1" id="Ebene_1" xmlns="http://www.w3.org/2000/svg" xmlns:xlink="http://www.w3.org/1999/xlink" x="0px" y="0px"
	 width="100px" height="100px" viewBox="0 0 100 100" enable-background="new 0 0 100 100" xml:space="preserve">
<rect fill-rule="evenodd" clip-rule="evenodd" fill="#FF0000" width="100" height="100"/>
<polygon fill="#FFFFF0" points="5,5 95,5 95,95 5,95 5,5 "/>
<path fill="#FFFFF0" d="M12.843,76.069c0-4.189,3.397-7.586,7.589-7.586c4.192,0,7.59,3.396,7.59,7.586
	c0,4.195-3.397,7.591-7.59,7.591C16.24,83.66,12.843,80.265,12.843,76.069z"/>
<path fill="none" stroke="#FF0000" stroke-width="6.2501" stroke-miterlimit="3.8637" d="M12.843,76.069
	c0-4.189,3.397-7.586,7.589-7.586c4.192,0,7.59,3.396,7.59,7.586c0,4.195-3.397,7.591-7.59,7.591
	C16.24,83.66,12.843,80.265,12.843,76.069z"/>
<circle fill="#FF0000" cx="61.81" cy="21.505" r="7.087"/>
<polyline fill-rule="evenodd" clip-rule="evenodd" fill="none" stroke="#FF0000" stroke-width="8.0357" stroke-miterlimit="3.8637" points="
	30.618,64.676 53.317,49.06 67.626,59.114 67.174,35.05 "/>
<line fill-rule="evenodd" clip-rule="evenodd" fill="none" stroke="#FF0000" stroke-width="5.3571" stroke-miterlimit="3.8637" x1="38.054" y1="37.441" x2="48.259" y2="46.708"/>
<line fill-rule="evenodd" clip-rule="evenodd" fill="none" stroke="#FF0000" stroke-width="5.3571" stroke-miterlimit="3.8637" x1="34.489" y1="76.146" x2="64.449" y2="76.146"/>
<path fill-rule="evenodd" clip-rule="evenodd" fill="#FF0000" d="M52.409,54.125l7.506,13.627l12.021-0.904
	c0,0,9.499-27.015,1.36-32.251c-3.643-2.346-7.503-2.396-11.114,0c-5.536,3.674,0.452,17.031,0.452,17.031L52.409,54.125z"/>
<path fill="#FFFFF0" d="M72.665,76.069c0-4.189,3.398-7.586,7.588-7.586s7.592,3.396,7.592,7.586c0,4.195-3.402,7.591-7.592,7.591
	S72.665,80.265,72.665,76.069z"/>
<path fill="none" stroke="#FF0000" stroke-width="6.2501" stroke-miterlimit="3.8637" d="M72.665,76.069
	c0-4.189,3.398-7.586,7.588-7.586s7.592,3.396,7.592,7.586c0,4.195-3.402,7.591-7.592,7.591S72.665,80.265,72.665,76.069z"/>
</svg>
