<?xml version="1.0" encoding="utf-8"?>
<!-- Generator: Adobe Illustrator 15.0.0, SVG Export Plug-In . SVG Version: 6.00 Build 0)  -->
<!DOCTYPE svg PUBLIC "-//W3C//DTD SVG 1.1//EN" "http://www.w3.org/Graphics/SVG/1.1/DTD/svg11.dtd">
<svg version="1.1" id="Ebene_1" xmlns="http://www.w3.org/2000/svg" xmlns:xlink="http://www.w3.org/1999/xlink" x="0px" y="0px"
	 width="100px" height="100px" viewBox="0 0 100 100" enable-background="new 0 0 100 100" xml:space="preserve">
<rect fill-rule="evenodd" clip-rule="evenodd" fill="#0000FF" width="100" height="100"/>
<polygon fill="#FFFFF0" points="4.508,4.792 95.011,4.792 95.011,94.992 4.508,94.992 4.508,4.792 "/>
<path fill-rule="evenodd" clip-rule="evenodd" fill="#0000FF" d="M30.698,29.49c0.705,0,4.915,0.746,4.206,1.68
	c1.022,0.409-1.536,3.881-3.377,4.456c-7.067,2.209-9.746,9.601-9.746,12.932c0,7.435,6.334,13.242,13.773,13.242h7.59
	c1.324,0,1.942-1.502,1.942-2.827V48.381c0-0.927-1.077-0.757-1.945-1.007c0,0-5.133,0.405-5.118-1.465c0-2.339-0.308-3.685,0-6.002
	c0.179-1.303,1.534-2.141,2.827-1.942c31.185,4.818,36.808-0.177,43.431,0c0.838,0.021,1.765,0.398,1.765,1.236v5.826
	c0,1.038-1.127,1.543-2.119,1.588l-4.735,0.219c-1.309,0.06-1.619,1.283-1.619,2.607v10.946c0,0.86,0.511,1.132,1.352,1.224
	c1.829,0.173,3.045,0.068,4.89,0.151c1.317,0.059,1.151,0.589,1.702,0.919v6.534c0,1.014-2.313,0.962-2.313,0.962
	s-49.151,0.206-52.77-0.08c-10.57-0.839-17.125-10.506-17.125-21.099C13.308,38.804,20.504,29.49,30.698,29.49z"/>
<path fill-rule="evenodd" clip-rule="evenodd" fill="none" stroke="#0000FF" stroke-width="3.0618" stroke-miterlimit="3.8637" d="
	M30.698,29.49c0.705,0,4.915,0.746,4.206,1.68c1.022,0.409-1.536,3.881-3.377,4.456c-7.067,2.209-9.746,9.601-9.746,12.932
	c0,7.435,6.334,13.242,13.773,13.242h7.59c1.324,0,1.942-1.502,1.942-2.827V48.381c0-0.927-1.077-0.757-1.945-1.007
	c0,0-5.133,0.405-5.118-1.465c0-2.339-0.308-3.685,0-6.002c0.179-1.303,1.534-2.141,2.827-1.942c31.185,4.818,36.808-0.177,43.431,0
	c0.838,0.021,1.765,0.398,1.765,1.236v5.826c0,1.038-1.127,1.543-2.119,1.588l-4.735,0.219c-1.309,0.06-1.619,1.283-1.619,2.607
	v10.946c0,0.86,0.511,1.132,1.352,1.224c1.829,0.173,3.045,0.068,4.89,0.151c1.317,0.059,1.151,0.589,1.702,0.919v6.534
	c0,1.014-2.313,0.962-2.313,0.962s-49.151,0.206-52.77-0.08c-10.57-0.839-17.125-10.506-17.125-21.099
	C13.308,38.804,20.504,29.49,30.698,29.49z"/>
<path fill-rule="evenodd" clip-rule="evenodd" fill="#FFFFF0" d="M54.753,47.104h13.23c0.841,0,1.869,0.782,1.891,1.621
	c0.154,4.303,0.089,5.523,0.024,9.825c-0.135,1.258-0.825,2.79-2.084,2.79H54.75c-1.149,0-1.786-1.236-1.765-2.383
	c0.052-2.741-0.043-7.392-0.028-8.354C52.994,48.589,52.997,47.104,54.753,47.104z"/>
</svg>
