<?xml version="1.0" encoding="utf-8"?>
<!-- Generator: Adobe Illustrator 15.0.0, SVG Export Plug-In . SVG Version: 6.00 Build 0)  -->
<!DOCTYPE svg PUBLIC "-//W3C//DTD SVG 1.1//EN" "http://www.w3.org/Graphics/SVG/1.1/DTD/svg11.dtd">
<svg version="1.1" id="Ebene_1" xmlns="http://www.w3.org/2000/svg" xmlns:xlink="http://www.w3.org/1999/xlink" x="0px" y="0px"
	 width="100px" height="100px" viewBox="0 0 100 100" enable-background="new 0 0 100 100" xml:space="preserve">
<rect fill-rule="evenodd" clip-rule="evenodd" fill="#FF0000" width="100" height="100"/>
<polygon fill="#FFFFF0" points="4.508,4.792 95.011,4.792 95.011,94.992 4.508,94.992 4.508,4.792 "/>
<path fill="#FF0000" d="M11.17,72.421c0-7.832,6.433-14.174,14.371-14.174s14.373,6.342,14.373,14.174
	c0,7.825-6.436,14.174-14.373,14.174S11.17,80.246,11.17,72.421z"/>
<path fill-rule="evenodd" clip-rule="evenodd" fill="#FF0000" d="M62.188,87.736c0,0-11.729-20.406-0.572-42.723
	c0.572-1.14,5.696-6.017,2.282-17.088c-3.421-11.074,1.442-14.991,5.998-14.991h-1.024c4.559,0,9.422,3.917,6.001,14.991
	c-3.417,11.072,1.711,15.949,2.279,17.088c11.157,22.316-0.568,42.723-0.568,42.723H62.188z"/>
<path fill-rule="evenodd" clip-rule="evenodd" fill="#FFFFF0" stroke="#FF0000" stroke-width="3.1498" stroke-miterlimit="3.8637" d="
	M57.422,88.379c0,0-18-15.161-15.146-39.949c0.145-1.266,3.294-7.602-3.705-16.839c-6.999-9.236-3.77-14.579,0.512-16.137
	l-0.961,0.349c4.28-1.558,10.189,0.458,10.765,12.033c0.575,11.575,7.063,14.403,7.988,15.28
	C74.992,60.271,70.95,83.457,70.95,83.457L57.422,88.379z"/>
</svg>
