<?xml version="1.0" encoding="utf-8"?>
<!-- Generator: Adobe Illustrator 15.0.0, SVG Export Plug-In . SVG Version: 6.00 Build 0)  -->
<!DOCTYPE svg PUBLIC "-//W3C//DTD SVG 1.1//EN" "http://www.w3.org/Graphics/SVG/1.1/DTD/svg11.dtd">
<svg version="1.1" id="Ebene_1" xmlns="http://www.w3.org/2000/svg" xmlns:xlink="http://www.w3.org/1999/xlink" x="0px" y="0px"
	 width="100px" height="100px" viewBox="0 0 100 100" enable-background="new 0 0 100 100" xml:space="preserve">
<rect fill-rule="evenodd" clip-rule="evenodd" fill="#FF0000" width="100" height="100"/>
<rect x="5" y="5" fill-rule="evenodd" clip-rule="evenodd" fill="#FFFFF0" width="90" height="90"/>
<rect x="27.661" y="48.793" fill="none" stroke="#FF0000" stroke-width="4" width="61.789" height="27.723"/>
<line fill="none" stroke="#FF0000" stroke-width="4" x1="43.651" y1="49.196" x2="43.506" y2="76.328"/>
<line fill="none" stroke="#FF0000" stroke-width="4" x1="20.48" y1="40.723" x2="20.335" y2="67.855"/>
<line fill="none" stroke="#FF0000" stroke-width="4" x1="13.049" y1="33.498" x2="12.903" y2="60.631"/>
<path fill="none" stroke="#FF0000" stroke-width="7" d="M58.808,76.625l0.146-27.134c0.115-12.72,0.551-20.801-5.496-26.918
	c-9.488-9.601-8.584,12.085-8.584,12.085"/>
<line fill="none" stroke="#FF0000" stroke-width="4" x1="74.254" y1="49.196" x2="74.109" y2="76.33"/>
<line fill="none" stroke="#FF0000" stroke-width="4" x1="27.476" y1="63.125" x2="88.973" y2="63.273"/>
<polyline fill="none" stroke="#FF0000" stroke-width="5" points="30.646,49.603 16.885,35.598 72.993,35.598 89.449,48.793 "/>
<line fill="none" stroke="#FF0000" stroke-width="4" x1="12.489" y1="59.146" x2="26.969" y2="76.676"/>
<line fill="none" stroke="#FF0000" stroke-width="4" x1="12.907" y1="46.472" x2="27.386" y2="64.002"/>
</svg>
