<?xml version="1.0" encoding="utf-8"?>
<!-- Generator: Adobe Illustrator 15.0.0, SVG Export Plug-In . SVG Version: 6.00 Build 0)  -->
<!DOCTYPE svg PUBLIC "-//W3C//DTD SVG 1.1//EN" "http://www.w3.org/Graphics/SVG/1.1/DTD/svg11.dtd">
<svg version="1.1" id="Ebene_1" xmlns="http://www.w3.org/2000/svg" xmlns:xlink="http://www.w3.org/1999/xlink" x="0px" y="0px"
	 width="100px" height="100px" viewBox="0 0 100 100" enable-background="new 0 0 100 100" xml:space="preserve">
<rect fill-rule="evenodd" clip-rule="evenodd" fill="#0000FF" width="100" height="100"/>
<circle fill="#FFFFF0" cx="29.591" cy="14.768" r="7.948"/>
<path fill-rule="evenodd" clip-rule="evenodd" fill="#FFFFF0" d="M30.366,27.927c3.005-5.303,11.313-7.425,13.082-5.657
	c1.362,1.364,11.356,22.425,10.428,23.158c-4.596,3.625-10.606,0.087-15.026-3.801C37.392,40.341,30.19,28.234,30.366,27.927z"/>
<path fill-rule="evenodd" clip-rule="evenodd" fill="none" stroke="#FFFFF0" stroke-width="5.9062" stroke-linecap="round" stroke-miterlimit="3.8637" d="
	M25.902,29.151c0,0,0.548,8.779-0.381,9.345c-0.714,0.438-14.559-14.24-14.559-14.24"/>
<line fill-rule="evenodd" clip-rule="evenodd" fill="none" stroke="#FFFFF0" stroke-width="8.4156" stroke-linecap="round" stroke-miterlimit="3.8637" x1="53.31" y1="51.655" x2="62.541" y2="68.585"/>
<path fill-rule="evenodd" clip-rule="evenodd" fill="none" stroke="#FFFFF0" stroke-width="7.4805" stroke-linecap="round" stroke-miterlimit="3.8637" d="
	M41.923,50.572c0,0-11.904-3.101-12.763-2.43c-0.979,0.769,9.105,15.469,9.105,15.469"/>
<path fill-rule="evenodd" clip-rule="evenodd" fill="#FFFFF0" d="M67.499,72.288c-1.242,1.15-2.066,2.492-4.54,2.388
	c-0.975-0.04-0.794,18.382,1.96,19.803c3.195,1.648,10.72-5.979,15.681-7.303C81.332,86.979,68.025,71.796,67.499,72.288z"/>
<path fill-rule="evenodd" clip-rule="evenodd" fill="#FFFFF0" d="M42.67,66.696c0,0-2.202,2.332-5.035,2.402
	c-0.16,0.003-1.609,11.898-0.046,15.008c0.76,1.52,1.587,5.457,3.272,5.706c1.867,0.279,10.532-4.885,11.547-7.293
	C52.814,81.557,42.67,66.696,42.67,66.696z"/>
<path fill-rule="evenodd" clip-rule="evenodd" fill="none" stroke="#FFFFF0" stroke-width="3.7404" stroke-miterlimit="3.8637" d="
	M38.413,10.048c1.427-0.911,3.441-1.321,4.813-0.931c2.424,0.694,8.376,5.054,1.88,11.157"/>
<rect x="70.03" y="8.172" fill="none" width="21.172" height="40.949"/>
<text transform="matrix(1 0 0 1 70.0303 46.1904)" fill="#FFFFF0" font-family="'ArialMT'" font-size="37.7976">€</text>
<path fill-rule="evenodd" clip-rule="evenodd" fill="none" stroke="#FFFFF0" stroke-width="5.9062" stroke-linecap="round" stroke-miterlimit="3.8637" d="
	M65.7,38.496c-0.625-0.558-14.559-14.24-14.559-14.24"/>
</svg>
