<?xml version="1.0" encoding="utf-8"?>
<!-- Generator: Adobe Illustrator 15.0.0, SVG Export Plug-In . SVG Version: 6.00 Build 0)  -->
<!DOCTYPE svg PUBLIC "-//W3C//DTD SVG 1.1//EN" "http://www.w3.org/Graphics/SVG/1.1/DTD/svg11.dtd">
<svg version="1.1" id="Ebene_1" xmlns="http://www.w3.org/2000/svg" xmlns:xlink="http://www.w3.org/1999/xlink" x="0px" y="0px"
	 width="100px" height="100px" viewBox="0 0 100 100" enable-background="new 0 0 100 100" xml:space="preserve">
<rect fill-rule="evenodd" clip-rule="evenodd" fill="#FF0000" width="100" height="100"/>
<polygon fill="#FFFFF0" points="5,5 95,5 95,95 5,95 5,5 "/>
<path fill-rule="evenodd" clip-rule="evenodd" fill="#FF0000" d="M48.272,87.002c-12.176-0.697-25.299-8.462-30.788-18.355
	c-3.181-5.731-4.814-18.891,7.872-49.635c1.149-2.793,3.544-4.563,6.894-4.563c3.771,0,8.38,2.49,7.291,5.704
	c-5.258,15.534-21.858,51.71,9.756,52.209c23.2,0.364,28.892-23.858,9.165-52.912c-1.966-2.892,3.731-6.409,7.683-5.352
	c2.643,0.705,4.303,1.598,5.716,3.686C85.813,38.432,85.84,59.918,84.61,63.579C77.986,83.253,54.496,87.363,48.272,87.002z"/>
<path fill="#FFFFF0" d="M31.018,74.659c-0.845,0.874-2.606,0.538-3.939-0.746c-1.337-1.285-1.731-3.037-0.887-3.912
	c0.841-0.874,2.605-0.541,3.938,0.743C31.464,72.032,31.861,73.784,31.018,74.659z"/>
<ellipse transform="matrix(0.9661 0.258 -0.258 0.9661 21.645 -8.2516)" fill="#FFFFF0" cx="42.262" cy="78.344" rx="3.355" ry="2.2"/>
<path fill="#FFFFF0" d="M58.964,78.045c0.272,1.184-0.97,2.483-2.773,2.902c-1.805,0.415-3.493-0.202-3.766-1.389
	c-0.274-1.181,0.97-2.483,2.774-2.899C57.004,76.24,58.691,76.861,58.964,78.045z"/>
<ellipse transform="matrix(0.7769 -0.6297 0.6297 0.7769 -31.539 59.3424)" fill="#FFFFF0" cx="67.963" cy="74.173" rx="3.356" ry="2.199"/>
</svg>
