<?xml version="1.0" encoding="utf-8"?>
<!-- Generator: Adobe Illustrator 15.0.0, SVG Export Plug-In . SVG Version: 6.00 Build 0)  -->
<!DOCTYPE svg PUBLIC "-//W3C//DTD SVG 1.1//EN" "http://www.w3.org/Graphics/SVG/1.1/DTD/svg11.dtd">
<svg version="1.1" id="Ebene_1" xmlns="http://www.w3.org/2000/svg" xmlns:xlink="http://www.w3.org/1999/xlink" x="0px" y="0px"
	 width="100px" height="100px" viewBox="0 0 100 100" enable-background="new 0 0 100 100" xml:space="preserve">
<rect fill-rule="evenodd" clip-rule="evenodd" fill="#FF0000" width="100" height="100"/>
<rect x="5" y="5" fill-rule="evenodd" clip-rule="evenodd" fill="#FFFFF0" width="90" height="90"/>
<path fill-rule="evenodd" clip-rule="evenodd" fill="#FF0000" d="M33.368,56.955c-0.11-0.025-0.255-0.05-0.428-0.08
	c-2.098-0.372-6.908-1.196-10.735-0.133c-2.759,0.767-6.911,3.935-7.868,6.063c-0.959,2.125-2.98,7.124-1.064,10.738
	c1.913,3.614,2.977,6.382,8.188,7.761c5.211,1.384,9.093-0.511,12.015-2.23c1.809-1.064,3.587-2.126,4.679-3.405
	c1.276-1.488,3.189-4.358,3.298-5.315c0.104-0.956,0.532-5.955-0.32-7.229c-0.849-1.279-2.445-3.617-3.722-4.257
	C36.134,58.231,34.86,57.274,33.368,56.955z"/>
<path fill-rule="evenodd" clip-rule="evenodd" fill="none" stroke="#FF0000" stroke-width="1.0253" stroke-miterlimit="3.8637" d="
	M33.368,56.955c-0.11-0.025-0.255-0.05-0.428-0.08c-2.098-0.372-6.908-1.196-10.735-0.133c-2.759,0.767-6.911,3.935-7.868,6.063
	c-0.959,2.125-2.98,7.124-1.064,10.738c1.913,3.614,2.977,6.382,8.188,7.761c5.211,1.384,9.093-0.511,12.015-2.23
	c1.809-1.064,3.587-2.126,4.679-3.405c1.276-1.488,3.189-4.358,3.298-5.315c0.104-0.956,0.532-5.955-0.32-7.229
	c-0.849-1.279-2.445-3.617-3.722-4.257C36.134,58.231,34.86,57.274,33.368,56.955z"/>
<line fill-rule="evenodd" clip-rule="evenodd" fill="none" stroke="#FF0000" stroke-width="2.94" stroke-miterlimit="3.8637" x1="46.45" y1="45.142" x2="32.731" y2="57.798"/>
<line fill-rule="evenodd" clip-rule="evenodd" fill="none" stroke="#FF0000" stroke-width="2.94" stroke-miterlimit="3.8637" x1="56.337" y1="51.532" x2="39.963" y2="61.421"/>
<line fill-rule="evenodd" clip-rule="evenodd" fill="none" stroke="#FF0000" stroke-width="2.94" stroke-miterlimit="3.8637" x1="40.089" y1="69.609" x2="59.655" y2="65.992"/>
<path fill-rule="evenodd" clip-rule="evenodd" fill="none" stroke="#FF0000" stroke-width="2.94" stroke-miterlimit="3.8637" d="
	M40.388,50.149c0,0,5.955,4.468,7.231,6.701c1.273,2.232,2.657,7.761,2.55,11.165"/>
<path fill-rule="evenodd" clip-rule="evenodd" fill="#FF0000" d="M45.599,44.833c-0.957-0.637,4.254-6.167,4.57-6.698
	c0.32-0.534,6.063-11.166,6.275-11.804c0.212-0.639,1.944-5.829,4.786-8.202c2.021-1.688,7.761-2.219,7.976,1.608
	c0.296,5.309-0.372,6.876-0.107,7.338c0.849,1.489,3.402-0.212,4.571-0.212s3.51,1.063,3.937,1.489
	c0.425,0.425,1.486,2.978,1.486,3.827c0,0.852-0.213,3.297,0.747,3.297c0.957,0,3.978,1.217,4.676,1.807
	c1.384,1.17,1.916,4.68,1.809,5.529c-0.107,0.852-1.169,1.596-1.489,2.233c-0.319,0.64,0.216,2.447,1.064,2.872
	c0.853,0.426,2.766,2.127,2.658,3.403s-0.529,4.467-1.276,4.891c-0.745,0.425-1.594,1.169-2.126,1.81
	c-0.532,0.637-0.852,2.232-0.212,2.872c0.637,0.634,2.125,2.338,1.913,3.611c-0.212,1.28-1.276,3.086-2.233,3.617
	c-0.956,0.532-5.318,0.957-6.699,0.532c-1.385-0.427-6.484-1.7-7.656-1.7c-1.169,0-10.634,0-11.482,0.212
	c-0.853,0.212-0.957,0.212-0.957,0.212s0.317-7.02-0.64-9.462c-0.957-2.448-4.466-7.445-5.318-8.189
	C51.021,48.979,46.555,45.471,45.599,44.833z"/>
<path fill-rule="evenodd" clip-rule="evenodd" fill="none" stroke="#FF0000" stroke-width="1.0253" stroke-miterlimit="3.8637" d="
	M45.599,44.833c-0.957-0.637,4.254-6.167,4.57-6.698c0.32-0.534,6.063-11.166,6.275-11.804c0.212-0.639,1.944-5.829,4.786-8.202
	c2.021-1.688,7.761-2.219,7.976,1.608c0.296,5.309-0.372,6.876-0.107,7.338c0.849,1.489,3.402-0.212,4.571-0.212
	s3.51,1.063,3.937,1.489c0.425,0.425,1.486,2.978,1.486,3.827c0,0.852-0.213,3.297,0.747,3.297c0.957,0,3.978,1.217,4.676,1.807
	c1.384,1.17,1.916,4.68,1.809,5.529c-0.107,0.852-1.169,1.596-1.489,2.233c-0.319,0.64,0.216,2.447,1.064,2.872
	c0.853,0.426,2.766,2.127,2.658,3.403s-0.529,4.467-1.276,4.891c-0.745,0.425-1.594,1.169-2.126,1.81
	c-0.532,0.637-0.852,2.232-0.212,2.872c0.637,0.634,2.125,2.338,1.913,3.611c-0.212,1.28-1.276,3.086-2.233,3.617
	c-0.956,0.532-5.318,0.957-6.699,0.532c-1.385-0.427-6.484-1.7-7.656-1.7c-1.169,0-10.634,0-11.482,0.212
	c-0.853,0.212-0.957,0.212-0.957,0.212s0.317-7.02-0.64-9.462c-0.957-2.448-4.466-7.445-5.318-8.189
	C51.021,48.979,46.555,45.471,45.599,44.833z"/>
</svg>
