<?xml version="1.0" encoding="utf-8"?>
<!-- Generator: Adobe Illustrator 15.0.0, SVG Export Plug-In . SVG Version: 6.00 Build 0)  -->
<!DOCTYPE svg PUBLIC "-//W3C//DTD SVG 1.1//EN" "http://www.w3.org/Graphics/SVG/1.1/DTD/svg11.dtd">
<svg version="1.1" id="Ebene_1" xmlns="http://www.w3.org/2000/svg" xmlns:xlink="http://www.w3.org/1999/xlink" x="0px" y="0px"
	 width="100px" height="100px" viewBox="0 0 100 100" enable-background="new 0 0 100 100" xml:space="preserve">
<rect fill-rule="evenodd" clip-rule="evenodd" fill="#0000FF" width="100" height="100"/>
<polygon fill="#FFFFF0" points="5,5 95,5 95,95 5,95 5,5 "/>
<path fill="#0000FF" d="M91.684,65.958c0,0-10.33,11.821-20.479,22.855H13.373c0,0-1.106-4.818-2.632-15.599
	c0,0,23.569-1.348,49.64-2.959c-1.595-0.795,0.488-3.504-1.253-4.186c-22.123-0.988-47.52-0.595-47.52-0.595
	c9.544-20.433,31.17-43.529,52.001-57.666c0,0,0.193,58.939,0.044,62.105c0.068,0.119,1.367-0.561,17.023-2.318L91.684,65.958z"/>
</svg>
