<?xml version="1.0" encoding="utf-8"?>
<!-- Generator: Adobe Illustrator 15.0.0, SVG Export Plug-In . SVG Version: 6.00 Build 0)  -->
<!DOCTYPE svg PUBLIC "-//W3C//DTD SVG 1.1//EN" "http://www.w3.org/Graphics/SVG/1.1/DTD/svg11.dtd">
<svg version="1.1" id="Ebene_1" xmlns="http://www.w3.org/2000/svg" xmlns:xlink="http://www.w3.org/1999/xlink" x="0px" y="0px"
	 width="100px" height="100px" viewBox="0 0 100 100" enable-background="new 0 0 100 100" xml:space="preserve">
<rect fill-rule="evenodd" clip-rule="evenodd" fill="#FF0000" width="100" height="100"/>
<polygon fill="#FFFCF0" points="5,5 95,5 95,95 5,95 5,5 "/>
<path fill-rule="evenodd" clip-rule="evenodd" fill="#FF0000" d="M49.114,1.753L41.19,18.201c0,0,3.898,16.024-4.331,22.521
	c-8.229,6.497-12.15,15.157-16.047,19.921C16.913,65.407,8.403,91.76,7.97,95.656c-0.434,3.897-5.938,1.867-5.938,1.867L0.489,2.541
	L49.114,1.753z"/>
<circle fill="#FF0000" cx="66.383" cy="29.668" r="7.127"/>
<path fill-rule="evenodd" clip-rule="evenodd" fill="#FF0000" d="M53.5,35.237c-0.781,0.389-11.482,15.975-10.022,16.255
	c4.642,0.897,6.041,4.287,7.407,7.406c0.641,1.465,14.308-15.866,14.308-15.866S61.547,31.212,53.5,35.237z"/>
<polyline fill-rule="evenodd" clip-rule="evenodd" fill="none" stroke="#FF0000" stroke-width="7.071" stroke-linecap="round" stroke-miterlimit="3.8637" points="
	36.87,80.763 25.792,62.375 42.293,57.453 "/>
<polyline fill-rule="evenodd" clip-rule="evenodd" fill="none" stroke="#FF0000" stroke-width="7.071" stroke-linecap="round" stroke-miterlimit="3.8637" points="
	45.898,64.177 46.872,73.359 63.688,79.984 "/>
<line fill-rule="evenodd" clip-rule="evenodd" fill="none" stroke="#FF0000" stroke-width="6.1872" stroke-linecap="round" stroke-miterlimit="3.8637" x1="56.776" y1="42.176" x2="43.002" y2="14.188"/>
</svg>
