<?xml version="1.0" encoding="utf-8"?>
<!-- Generator: Adobe Illustrator 15.0.0, SVG Export Plug-In . SVG Version: 6.00 Build 0)  -->
<!DOCTYPE svg PUBLIC "-//W3C//DTD SVG 1.1//EN" "http://www.w3.org/Graphics/SVG/1.1/DTD/svg11.dtd">
<svg version="1.1" id="Ebene_1" xmlns="http://www.w3.org/2000/svg" xmlns:xlink="http://www.w3.org/1999/xlink" x="0px" y="0px"
	 width="100px" height="100px" viewBox="0 0 100 100" enable-background="new 0 0 100 100" xml:space="preserve">
<rect fill-rule="evenodd" clip-rule="evenodd" fill="#0000FF" width="100" height="100"/>
<polygon fill="#FFFFF0" points="5,5 95,5 95,95 5,95 5,5 "/>
<path fill-rule="evenodd" clip-rule="evenodd" fill="#0000FF" d="M37.558,9.056h-6.3l-0.354,17.806c0,0-8.542,4.017-10.276,13.693
	c-1.662,9.303-0.788,16.142,0.394,20.866c2.436,9.738,9.056,16.536,13.387,18.899c4.331,2.362,21.873,5.297,28.348-1.182
	c0.394-0.394,13.387,12.206,13.387,12.206V57.09l-13.78,11.812c0,0-9.056,6.3-15.749-1.574c-6.693-7.875,2.015-7.18,2.015-20.962
	c0-13.781-5.619-14.953-10.96-19.859C37.09,25.974,37.558,9.056,37.558,9.056z"/>
<path fill-rule="evenodd" clip-rule="evenodd" fill="none" stroke="#0000FF" stroke-width="0.893" stroke-miterlimit="3.8637" d="
	M37.558,9.056h-6.3l-0.354,17.806c0,0-8.542,4.017-10.276,13.693c-1.662,9.303-0.788,16.142,0.394,20.866
	c2.436,9.738,9.056,16.536,13.387,18.899c4.331,2.362,21.873,5.297,28.348-1.182c0.394-0.394,13.387,12.206,13.387,12.206V57.09
	l-13.78,11.812c0,0-9.056,6.3-15.749-1.574c-6.693-7.875,2.015-7.18,2.015-20.962c0-13.781-5.619-14.953-10.96-19.859
	C37.09,25.974,37.558,9.056,37.558,9.056z"/>
<rect x="63.756" y="9.51" fill="none" width="21.172" height="40.948"/>
<text transform="matrix(1 0 0 1 63.7559 47.5293)" fill="#0000FF" font-family="'ArialMT'" font-size="37.7982">€</text>
</svg>
