<?xml version="1.0" encoding="utf-8"?>
<!-- Generator: Adobe Illustrator 15.0.0, SVG Export Plug-In . SVG Version: 6.00 Build 0)  -->
<!DOCTYPE svg PUBLIC "-//W3C//DTD SVG 1.1//EN" "http://www.w3.org/Graphics/SVG/1.1/DTD/svg11.dtd">
<svg version="1.1" id="Ebene_1" xmlns="http://www.w3.org/2000/svg" xmlns:xlink="http://www.w3.org/1999/xlink" x="0px" y="0px"
	 width="100px" height="100px" viewBox="0 0 100 100" enable-background="new 0 0 100 100" xml:space="preserve">
<rect fill-rule="evenodd" clip-rule="evenodd" fill="#FF0000" width="100" height="100"/>
<polygon fill="#FFFFF0" points="5,5 95,5 95,95 5,95 5,5 "/>
<path fill-rule="evenodd" clip-rule="evenodd" fill="#FF0000" d="M42.073,57.11c-0.241-14.242,7.643-30.471,17.605-36.247
	c9.966-5.776,18.239,1.087,18.48,15.33c0.244,14.244-7.641,30.474-17.604,36.25C50.59,78.217,42.313,71.354,42.073,57.11z
	 M36.113,35.683C43.284,16.109,60.04,4.673,73.54,10.137c13.497,5.464,18.629,25.76,11.455,45.333
	c-3.58,9.78-8.974,16.303-16.32,22.149c-5.765,4.586-7.485,6.451-10.77,10.251c-3.571,4.127-5.02,7.459-6.153,9.517H35.011
	c1.662-5.601,1.752-8.081,2.169-14.325c0.423-6.367-1.622-12.289-2.466-15.172C32.021,58.66,31.943,47.063,36.113,35.683z"/>
<circle fill-rule="evenodd" clip-rule="evenodd" fill="#FF0000" cx="21.429" cy="27.153" r="7.592"/>
</svg>
