<?xml version="1.0" encoding="utf-8"?>
<!-- Generator: Adobe Illustrator 15.0.0, SVG Export Plug-In . SVG Version: 6.00 Build 0)  -->
<!DOCTYPE svg PUBLIC "-//W3C//DTD SVG 1.1//EN" "http://www.w3.org/Graphics/SVG/1.1/DTD/svg11.dtd">
<svg version="1.1" id="Ebene_1" xmlns="http://www.w3.org/2000/svg" xmlns:xlink="http://www.w3.org/1999/xlink" x="0px" y="0px"
	 width="100px" height="100px" viewBox="0 0 100 100" enable-background="new 0 0 100 100" xml:space="preserve">
<rect x="-0.001" fill-rule="evenodd" clip-rule="evenodd" fill="#0000FF" width="100.002" height="100"/>
<circle fill="#FFFFF0" cx="36.732" cy="14.768" r="7.948"/>
<path fill-rule="evenodd" clip-rule="evenodd" fill="#FFFFF0" d="M37.508,27.927c3.006-5.303,11.313-7.425,13.081-5.657
	c1.365,1.364,11.356,22.425,10.431,23.158c-4.599,3.624-10.609,0.087-15.026-3.801C44.532,40.341,37.334,28.234,37.508,27.927z"/>
<path fill-rule="evenodd" clip-rule="evenodd" fill="none" stroke="#FFFFF0" stroke-width="5.9062" stroke-linecap="round" stroke-miterlimit="3.8637" d="
	M33.045,29.151c0,0,0.549,8.779-0.382,9.345c-0.715,0.438-14.557-14.24-14.557-14.24"/>
<line fill-rule="evenodd" clip-rule="evenodd" fill="none" stroke="#FFFFF0" stroke-width="8.4156" stroke-linecap="round" stroke-miterlimit="3.8637" x1="60.45" y1="51.656" x2="69.685" y2="68.585"/>
<path fill-rule="evenodd" clip-rule="evenodd" fill="none" stroke="#FFFFF0" stroke-width="7.4805" stroke-linecap="round" stroke-miterlimit="3.8637" d="
	M49.064,50.572c0,0-11.904-3.101-12.761-2.43c-0.979,0.769,9.104,15.469,9.104,15.469"/>
<path fill-rule="evenodd" clip-rule="evenodd" fill="#FFFFF0" d="M74.643,72.288c-1.242,1.15-2.067,2.492-4.54,2.388
	c-0.979-0.04-0.794,18.382,1.956,19.803c3.199,1.648,10.723-5.979,15.682-7.303C88.476,86.979,75.169,71.796,74.643,72.288z"/>
<path fill-rule="evenodd" clip-rule="evenodd" fill="#FFFFF0" d="M49.813,66.696c0,0-2.204,2.332-5.037,2.402
	c-0.161,0.003-1.607,11.898-0.048,15.008c0.763,1.52,1.588,5.457,3.274,5.706c1.866,0.276,10.534-4.885,11.549-7.293
	C59.958,81.557,49.813,66.696,49.813,66.696z"/>
<path fill-rule="evenodd" clip-rule="evenodd" fill="none" stroke="#FFFFF0" stroke-width="3.7404" stroke-miterlimit="3.8637" d="
	M45.553,10.048c1.428-0.911,3.444-1.321,4.814-0.931c2.424,0.694,8.379,5.054,1.883,11.157"/>
<path fill-rule="evenodd" clip-rule="evenodd" fill="none" stroke="#FFFFF0" stroke-width="5.9062" stroke-linecap="round" stroke-miterlimit="3.8637" d="
	M72.843,38.496c-0.624-0.558-14.559-14.24-14.559-14.24"/>
</svg>
