<?xml version="1.0" encoding="utf-8"?>
<!-- Generator: Adobe Illustrator 15.0.0, SVG Export Plug-In . SVG Version: 6.00 Build 0)  -->
<!DOCTYPE svg PUBLIC "-//W3C//DTD SVG 1.1//EN" "http://www.w3.org/Graphics/SVG/1.1/DTD/svg11.dtd">
<svg version="1.1" id="Ebene_1" xmlns="http://www.w3.org/2000/svg" xmlns:xlink="http://www.w3.org/1999/xlink" x="0px" y="0px"
	 width="100px" height="100px" viewBox="0 0 100 100" enable-background="new 0 0 100 100" xml:space="preserve">
<rect fill-rule="evenodd" clip-rule="evenodd" fill="#0000FF" width="100" height="100"/>
<polygon fill="#FFFFF0" points="5,5 95,5 95,95 5,95 5,5 "/>
<path fill="#0000FF" d="M24.218,14.466c0-3.082,2.501-5.58,5.58-5.58c3.082,0,5.583,2.498,5.583,5.58s-2.501,5.58-5.583,5.58
	C26.719,20.046,24.218,17.548,24.218,14.466z"/>
<path fill-rule="evenodd" clip-rule="evenodd" fill="#0000FF" d="M33.262,43.154l9.478-2.573l-0.984-10.328l25.789,3.451
	l1.182-4.436c0,0-41.207-7.207-42.563-5.997c-1.704,1.52,0.313,4.421,1.298,7.571S33.262,43.154,33.262,43.154z"/>
<path fill-rule="evenodd" clip-rule="evenodd" fill="#0000FF" d="M44.588,81.424l6.813-0.59l0.196-20.277l-5.315-15.355
	c0,0-2.756-3.15-5.709-1.969s-7.01,4.331-5.436,7.087c1.575,2.756,8.072,11.812,8.072,11.812L44.588,81.424z"/>
<path fill-rule="evenodd" clip-rule="evenodd" fill="none" stroke="#0000FF" stroke-width="5.3573" stroke-miterlimit="3.8637" d="
	M25.747,81.474l41.403-4.802c0,0,10.963-2.455,12.932-10.92"/>
<line fill-rule="evenodd" clip-rule="evenodd" fill="none" stroke="#0000FF" stroke-width="2.6786" stroke-miterlimit="3.8637" x1="67.286" y1="30.907" x2="96.423" y2="30.907"/>
<path fill="#0000FF" d="M63.336,30.914c0-1.793,1.452-3.247,3.249-3.247c1.79,0,3.248,1.453,3.248,3.247
	c0,1.795-1.458,3.248-3.248,3.248C64.788,34.162,63.336,32.708,63.336,30.914z"/>
<path fill-rule="evenodd" clip-rule="evenodd" fill="#0000FF" d="M1.569,86.712c1.396,1.145,2.279,2.627,4.534,2.627
	c2.664,0,4.918-1.889,6.355-2.83c1.434-0.944,5.74-0.944,7.789,0.188c2.048,1.132,2.663,3.396,5.739,3.396v6.792H1.489L1.569,86.712
	z"/>
<path fill-rule="evenodd" clip-rule="evenodd" fill="none" stroke="#0000FF" stroke-width="3.4859" stroke-miterlimit="3.8637" d="
	M1.569,86.712c1.396,1.145,2.279,2.627,4.534,2.627c2.664,0,4.918-1.889,6.355-2.83c1.434-0.944,5.74-0.944,7.789,0.188
	c2.048,1.132,2.663,3.396,5.739,3.396v6.792H1.489L1.569,86.712z"/>
<path fill-rule="evenodd" clip-rule="evenodd" fill="#0000FF" d="M97.801,97.447H19.549c0,0-3.731-10.655,0.387-10.557
	c1.938,0.046,1.665,2.066,4.328,2.441c2.664,0.379,4.919-0.188,6.765-1.132c1.843-0.94,1.843-1.319,4.51-2.264
	c2.667-0.941,5.331,0,7.173,1.132c1.849,1.132,3.282,2.076,5.537,2.076s5.328-1.51,6.765-3.018c1.434-1.51,6.768-1.132,8.609,0.376
	c1.846,1.51,2.87,2.829,5.946,2.829s5.534-2.264,7.38-3.017c1.842-0.754,5.945-0.754,7.788,0.378
	c1.846,1.132,2.87,3.205,5.537,3.205c2.664,0,4.919-1.886,6.353-2.83c0.329-0.215,0.803-0.381,1.371-0.492L97.801,97.447z"/>
<path fill-rule="evenodd" clip-rule="evenodd" fill="none" stroke="#0000FF" stroke-width="3.4859" stroke-miterlimit="3.8637" d="
	M97.801,97.447H19.549c0,0-3.731-10.655,0.387-10.557c1.938,0.046,1.665,2.066,4.328,2.441c2.664,0.379,4.919-0.188,6.765-1.132
	c1.843-0.94,1.843-1.319,4.51-2.264c2.667-0.941,5.331,0,7.173,1.132c1.849,1.132,3.282,2.076,5.537,2.076s5.328-1.51,6.765-3.018
	c1.434-1.51,6.768-1.132,8.609,0.376c1.846,1.51,2.87,2.829,5.946,2.829s5.534-2.264,7.38-3.017
	c1.842-0.754,5.945-0.754,7.788,0.378c1.846,1.132,2.87,3.205,5.537,3.205c2.664,0,4.919-1.886,6.353-2.83
	c0.329-0.215,0.803-0.381,1.371-0.492L97.801,97.447z"/>
</svg>
