<?xml version="1.0" encoding="utf-8"?>
<!-- Generator: Adobe Illustrator 15.0.0, SVG Export Plug-In . SVG Version: 6.00 Build 0)  -->
<!DOCTYPE svg PUBLIC "-//W3C//DTD SVG 1.1//EN" "http://www.w3.org/Graphics/SVG/1.1/DTD/svg11.dtd">
<svg version="1.1" id="Ebene_1" xmlns="http://www.w3.org/2000/svg" xmlns:xlink="http://www.w3.org/1999/xlink" x="0px" y="0px"
	 width="100px" height="100px" viewBox="0 0 100 100" enable-background="new 0 0 100 100" xml:space="preserve">
<rect fill-rule="evenodd" clip-rule="evenodd" fill="#FF0000" width="100" height="100"/>
<polygon fill-rule="evenodd" clip-rule="evenodd" fill="#FFFFF0" points="15.778,88.652 85.438,88.259 85.438,39.831 96.675,39.831 
	51.003,8.727 5.723,38.649 15.959,38.649 "/>
<circle fill="none" stroke="#FF0000" stroke-width="3.2805" stroke-miterlimit="3.8637" cx="50.705" cy="55.149" r="27.139"/>
<line fill-rule="evenodd" clip-rule="evenodd" fill="none" stroke="#FF0000" stroke-width="3.2805" stroke-miterlimit="3.8637" x1="43.537" y1="29.169" x2="40.354" y2="40.457"/>
<line fill-rule="evenodd" clip-rule="evenodd" fill="none" stroke="#FF0000" stroke-width="3.2805" stroke-miterlimit="3.8637" x1="27.619" y1="42.193" x2="37.459" y2="43.93"/>
<line fill-rule="evenodd" clip-rule="evenodd" fill="none" stroke="#FF0000" stroke-width="3.2805" stroke-miterlimit="3.8637" x1="44.694" y1="42.482" x2="59.455" y2="39.299"/>
<line fill-rule="evenodd" clip-rule="evenodd" fill="none" stroke="#FF0000" stroke-width="3.2805" stroke-miterlimit="3.8637" x1="55.401" y1="60.425" x2="62.347" y2="43.639"/>
<line fill-rule="evenodd" clip-rule="evenodd" fill="none" stroke="#FF0000" stroke-width="3.2805" stroke-miterlimit="3.8637" x1="57.429" y1="64.189" x2="71.612" y2="64.189"/>
<line fill-rule="evenodd" clip-rule="evenodd" fill="none" stroke="#FF0000" stroke-width="3.2805" stroke-miterlimit="3.8637" x1="53.956" y1="82.132" x2="53.956" y2="65.925"/>
<line fill-rule="evenodd" clip-rule="evenodd" fill="none" stroke="#FF0000" stroke-width="3.2805" stroke-miterlimit="3.8637" x1="33.986" y1="70.268" x2="51.932" y2="63.611"/>
<line fill-rule="evenodd" clip-rule="evenodd" fill="none" stroke="#FF0000" stroke-width="3.2805" stroke-miterlimit="3.8637" x1="29.934" y1="66.214" x2="38.906" y2="47.402"/>
<line fill-rule="evenodd" clip-rule="evenodd" fill="none" stroke="#FF0000" stroke-width="3.2805" stroke-miterlimit="3.8637" x1="74.503" y1="57.822" x2="65.533" y2="42.193"/>
<path fill-rule="evenodd" clip-rule="evenodd" fill="#FF0000" d="M34.854,76.057l-2.314-1.738l-2.605-2.315l-3.473-4.341
	l-1.659-4.979c0,0,2.381-1.462,5.106-0.449c1.397,0.52,3.872,2.906,4.656,3.691c1.671,1.67,2.784,3.562,3.596,7.732
	c0.314,1.612-0.904,2.651-1.146,4.347L34.854,76.057z"/>
<path fill-rule="evenodd" clip-rule="evenodd" fill="#FF0000" d="M61.926,32.141l-4.208,3.685c0,0-1.156,1.447,0,4.051
	c1.159,2.605,5.5,5.211,5.5,5.211l6.078-2.895l0.578-4.92l-4.051-4.92L61.926,32.141z"/>
<polygon fill-rule="evenodd" clip-rule="evenodd" fill="#FF0000" points="77.69,53.479 73.636,56.666 71.033,61.003 71.033,65.635 
	72.479,72.003 75.663,66.503 77.108,61.003 "/>
<line fill-rule="evenodd" clip-rule="evenodd" fill="none" stroke="#FF0000" stroke-width="3.2805" stroke-miterlimit="3.8637" x1="41.511" y1="49.139" x2="53.088" y2="61.584"/>
<polygon fill-rule="evenodd" clip-rule="evenodd" fill="#FF0000" points="52.51,56.084 49.325,57.533 48.746,63.9 53.377,69.4 
	58.877,68.818 62.347,63.9 57.14,55.795 "/>
<polygon fill-rule="evenodd" clip-rule="evenodd" fill="#FF0000" points="42.09,37.852 34.564,42.193 35.723,50.877 43.826,51.455 
	46.721,44.239 "/>
<line fill-rule="evenodd" clip-rule="evenodd" fill="none" stroke="#FF0000" stroke-width="3.2805" stroke-miterlimit="3.8637" x1="61.691" y1="36.616" x2="50.193" y2="28.011"/>
</svg>
