<?xml version="1.0" encoding="utf-8"?>
<!-- Generator: Adobe Illustrator 15.0.0, SVG Export Plug-In . SVG Version: 6.00 Build 0)  -->
<!DOCTYPE svg PUBLIC "-//W3C//DTD SVG 1.1//EN" "http://www.w3.org/Graphics/SVG/1.1/DTD/svg11.dtd">
<svg version="1.1" id="Layer_1" xmlns="http://www.w3.org/2000/svg" xmlns:xlink="http://www.w3.org/1999/xlink" x="0px" y="0px"
	 width="100px" height="100px" viewBox="0 0 100 100" enable-background="new 0 0 100 100" xml:space="preserve">
<rect fill-rule="evenodd" clip-rule="evenodd" fill="#FF0000" width="100" height="100"/>
<polygon fill="#FFFFF0" points="5,5 95,5 95,95 5,95 5,5 "/>
<path fill-rule="evenodd" clip-rule="evenodd" fill="#FF0000" d="M75.11,7.49c3.994,0,7.625,3.27,7.625,7.631
	c0,3.997-3.631,7.267-7.625,7.267c-3.995,0-7.627-3.27-7.627-7.267C67.483,10.76,71.115,7.49,75.11,7.49L75.11,7.49z"/>
<path fill-rule="evenodd" clip-rule="evenodd" fill="#FF0000" d="M59.497,27.477h22.512v25.439c0,1.452,0.727,2.541,2.179,2.907
	h7.988v5.087H59.133v-5.087h6.173c1.452-0.366,2.542-1.455,2.905-2.907V35.108c-0.728-1.817-1.816-2.542-2.905-2.542h-5.809V27.477z
	"/>
<path fill-rule="evenodd" clip-rule="evenodd" fill="#1200FF" d="M19.575,83.184v5.499c0,4.539-8.865,4.539-8.865,0v-5.499H19.575
	L19.575,83.184z"/>
<path fill-rule="evenodd" clip-rule="evenodd" fill="#FF0000" d="M19.575,83.053v5.499c0,4.539-8.865,4.539-8.865,0v-5.499H19.575
	L19.575,83.053z"/>
<path fill-rule="evenodd" clip-rule="evenodd" fill="#FF0000" d="M52.854,83.184v5.499c0,4.539-8.865,4.539-8.865,0v-5.499H52.854
	L52.854,83.184z"/>
<path fill-rule="evenodd" clip-rule="evenodd" fill="#FF0000" d="M56.007,47.332v8.365v20.077c0,1.436-0.648,5.499-1.51,5.499H9.2
	c-0.862,0-1.51-4.063-1.51-5.499V55.697v-8.365C7.69,32.886,56.007,33.148,56.007,47.332z"/>
<path fill-rule="evenodd" clip-rule="evenodd" fill="#FFFFF0" d="M46.985,64.928c3.091,0,5.869,2.16,5.869,4.941
	c0,2.78-2.778,5.25-5.869,5.25c-3.396,0-5.866-2.47-5.866-5.25C41.119,67.088,43.589,64.928,46.985,64.928L46.985,64.928z"/>
<path fill-rule="evenodd" clip-rule="evenodd" fill="#FFFFF0" d="M16.576,66.154c3.091,0,5.869,2.16,5.869,4.941
	c0,2.78-2.778,5.25-5.869,5.25c-3.396,0-5.866-2.47-5.866-5.25C10.71,68.314,13.18,66.154,16.576,66.154L16.576,66.154z"/>
<rect x="11.051" y="47.187" fill-rule="evenodd" clip-rule="evenodd" fill="#FFFFF0" width="19.418" height="12.788"/>
<rect x="33.784" y="47.187" fill-rule="evenodd" clip-rule="evenodd" fill="#FFFFF0" width="19.418" height="12.788"/>
</svg>
