<?xml version="1.0" encoding="utf-8"?>
<!-- Generator: Adobe Illustrator 15.0.0, SVG Export Plug-In . SVG Version: 6.00 Build 0)  -->
<!DOCTYPE svg PUBLIC "-//W3C//DTD SVG 1.1//EN" "http://www.w3.org/Graphics/SVG/1.1/DTD/svg11.dtd">
<svg version="1.1" id="Ebene_1" xmlns="http://www.w3.org/2000/svg" xmlns:xlink="http://www.w3.org/1999/xlink" x="0px" y="0px"
	 width="100px" height="100px" viewBox="0 0 100 100" enable-background="new 0 0 100 100" xml:space="preserve">
<g id="Ebene_2">
	<rect fill="#FF0000" width="100" height="100"/>
</g>
<rect x="5" y="5" fill="#FFFFF0" width="90" height="90"/>
<path fill="#FF0000" stroke="#FF0000" d="M61.769,15.589c0,0,1.154-3.461,3.654-4.23S68.5,9.798,71,10.194s3.077-0.565,5.385,1.165
	s5,4.23,5,4.23L86,16.551l4.423,1.154v4.423l-1.73,1.346l-0.962,1.923l-3.077,0.77l-6.923,1.539c0,0-0.962,0.385-1.635,2.5
	s-1.058,8.654-1.058,8.654L71.192,55.59l-3.27,16.539l3.654,1.73l0.769,2.5v0.77h-8.269l-0.385-22.693l-9.424,2.885l-6.73,2.691
	l-2.115,4.217l-1.731,5.207l2.5,4.615l6.923,1.154l0.192,3.076h-7.5l-7.885-4.615v-8.551c0,0-2.5-0.486-5.961-3.949
	C28.5,57.705,27.73,50.205,27.73,50.205l-1.539-1.538c0,0-2.885-0.692-3.846-4s-1.539-3.885,0-7.346s0.769-3.654,4.039-4.808
	s4.23-0.385,4.808-0.192s2.884,1.923,1.154,1.923s-3.077,0.192-4.23,1.154s-1.731,2.693-1.539,3.654s1.731,2.692,1.731,2.692
	l2.115,1.346l2.308-1.346l4.423-3.077c0,0,2.115-1.731,6.73-2.885s10.204-2.308,12.025-3.654s4.321-3.077,4.129-5.769
	S61.769,15.589,61.769,15.589z"/>
<path fill="#FF0000" d="M32.458,80.259c0,2.304-1.791,4.17-4,4.17H13.951c-2.209,0-4-1.866-4-4.17l0,0c0-2.304,1.791-4.17,4-4.17
	h14.507C30.667,76.089,32.458,77.955,32.458,80.259L32.458,80.259z"/>
<path fill="#FF0000" d="M28.458,73.334c0,1.521-1.034,2.755-2.31,2.755h-9.505c-1.275,0-2.31-1.234-2.31-2.755l0,0
	c0-1.521,1.034-2.756,2.31-2.756h9.505C27.424,70.578,28.458,71.813,28.458,73.334L28.458,73.334z"/>
<path fill="#FF0000" d="M24.815,68.528c0,1.758-1.193,3.181-2.666,3.181h-1.508c-1.472,0-2.666-1.423-2.666-3.181l0,0
	c0-1.757,0.566-3.085,1.925-4.17c0,0,2.701-2.537,3.436-1.836c0.472,0.449-0.544,2.11-0.474,2.826
	C23.083,67.597,24.815,66.771,24.815,68.528L24.815,68.528z"/>
</svg>
