<?xml version="1.0" encoding="utf-8"?>
<!-- Generator: Adobe Illustrator 15.0.0, SVG Export Plug-In . SVG Version: 6.00 Build 0)  -->
<!DOCTYPE svg PUBLIC "-//W3C//DTD SVG 1.1//EN" "http://www.w3.org/Graphics/SVG/1.1/DTD/svg11.dtd">
<svg version="1.1" id="Ebene_1" xmlns="http://www.w3.org/2000/svg" xmlns:xlink="http://www.w3.org/1999/xlink" x="0px" y="0px"
	 width="100px" height="100px" viewBox="0 0 100 100" enable-background="new 0 0 100 100" xml:space="preserve">
<rect fill-rule="evenodd" clip-rule="evenodd" fill="#0000FF" width="100" height="100"/>
<polygon fill-rule="evenodd" clip-rule="evenodd" fill="#FFFFF0" points="17.975,88.652 85.817,88.259 85.817,39.831 96.762,39.831 
	52.28,8.727 8.182,38.649 18.151,38.649 "/>
<path fill-rule="evenodd" clip-rule="evenodd" fill="#0000FF" d="M73.4,61.79c0,0-0.782,0.864-1.933,1.062
	c-16.294,2.796-41.743,0.529-42.646,0c-0.901-0.532-3.349-2.648-2.447-5.823c0.901-3.174,3.607-6.216,6.055-6.481
	c2.447-0.264,10.051-0.926,11.339-1.587c1.288-0.662,5.41-3.042,6.57-4.497c1.159-1.455,4.509-5.689,4.895-7.144
	c0.387-1.455,1.031-6.747,1.031-7.276c0-0.529,17.265,1.72,17.522,3.176c0.257,1.455-0.516,8.466-0.387,9.789
	s0.129,4.629,1.288,6.481s1.675,4.365,1.675,6.088C76.363,57.293,73.4,61.79,73.4,61.79z"/>
<path fill-rule="evenodd" clip-rule="evenodd" fill="#0000FF" d="M26.187,68.143c3.592-0.336,5.41,0.387,8.115,1.049
	c2.705,0.661,10.18,2.805,16.105,2.805c6.702,0,15.719-1.673,17.522-2.012c1.201-0.228,6.633-1.491,8.373-1.181
	c2.616,0.467,2.58,3.146,2.128,4.45c-1.076,3.11-2.963,3.571-6.121,4.688c-4.67,1.646-13.721,2.39-22.031,2.381
	c-9.146-0.013-16.878-1.852-18.037-2.116c-1.16-0.265-7.538-2.525-9.146-5.436C22.349,71.424,23.353,68.406,26.187,68.143z"/>
</svg>
