<?xml version="1.0" encoding="utf-8"?>
<!-- Generator: Adobe Illustrator 15.0.0, SVG Export Plug-In . SVG Version: 6.00 Build 0)  -->
<!DOCTYPE svg PUBLIC "-//W3C//DTD SVG 1.1//EN" "http://www.w3.org/Graphics/SVG/1.1/DTD/svg11.dtd">
<svg version="1.1" id="Ebene_1" xmlns="http://www.w3.org/2000/svg" xmlns:xlink="http://www.w3.org/1999/xlink" x="0px" y="0px"
	 width="100px" height="100px" viewBox="0 0 100 100" enable-background="new 0 0 100 100" xml:space="preserve">
<rect fill="#0000FF" width="100" height="100"/>
<polygon fill="#FFFFF0" points="5,5 95,5 95,95 5,95 "/>
<path fill="#0000FF" d="M24.698,22.926c0-3.658,2.982-6.624,6.661-6.624c3.683,0,6.663,2.966,6.663,6.624
	c0,3.66-2.98,6.625-6.663,6.625C27.681,29.551,24.698,26.586,24.698,22.926z"/>
<path fill="#0000FF" d="M59.428,22.662c0-3.513,2.86-6.36,6.396-6.36c3.531,0,6.395,2.847,6.395,6.36
	c0,3.512-2.863,6.358-6.395,6.358C62.288,29.02,59.428,26.174,59.428,22.662z"/>
<path fill-rule="evenodd" clip-rule="evenodd" fill="#0000FF" d="M2.032,49.445l8.097,0.067l9.062-18.548
	c0,0,2.486-1.944,4.797-1.589c2.31,0.353,14.034,8.302,14.034,8.302l6.041-9.363c0,0,0.356-2.648,3.734-1.413
	c3.374,1.237,1.242,3.356,1.242,3.356l-6.576,12.188c0,0-1.774,3.179-4.971,1.59c-3.199-1.59-6.398-3.18-6.398-3.18l-4.62,8.479
	h18.121l8.887-17.665c0,0,2.31-3.709,6.573-1.588c4.263,2.119,12.968,7.242,12.968,7.242l5.331-9.01c0,0,1.6-2.826,3.909-1.413
	c2.308,1.413,2.308,0.884,1.064,3.534c-1.242,2.648-6.573,11.834-6.573,11.834s-2.307,2.555-4.974,1.143
	c-2.667-1.413-5.863-2.731-5.863-2.731l-4.974,8.655c0,0,8.988,0.46,9.575,0.364c2.538-0.413,4.055-0.815,6.358-1.714
	c1.126-0.44,1.655-1.122,4.141-2.359c2.488-1.235,5.995-1.342,7.32,2.702c1.378,4.208,0.689,6.753,0,9.493
	c-0.658,2.621-2.067,6.753-5.512,9.003c-1.096,0.716-80.626-0.009-80.626-0.009L2.032,49.445z"/>
<path fill-rule="evenodd" clip-rule="evenodd" fill="#0000FF" d="M1.755,73.008c0,0,2.421,1.938,4.729,2.293
	c2.31,0.355,4.265-0.177,5.864-1.058c1.599-0.884,1.599-1.235,3.908-2.122c2.311-0.881,4.62,0,6.218,1.061
	c1.6,1.062,2.844,1.942,4.799,1.942c1.953,0,4.62-1.413,5.863-2.826c1.242-1.413,5.862-1.058,7.459,0.354
	c1.603,1.413,2.488,2.648,5.155,2.648c2.664,0,4.795-2.119,6.395-2.825c1.6-0.707,5.152-0.707,6.752,0.354
	c1.597,1.059,2.488,3.003,4.799,3.003c2.307,0,4.263-1.768,5.506-2.651c1.246-0.884,4.974-0.884,6.752,0.178
	c1.777,1.062,3.481,4.079,7.697,3.573l-0.169,6.239L2.399,82.898L1.755,73.008z"/>
<line fill-rule="evenodd" clip-rule="evenodd" fill="none" stroke="#FFFFF0" stroke-width="2.2258" stroke-miterlimit="3.8637" x1="9.545" y1="48.277" x2="68.352" y2="48.423"/>
</svg>
