<?xml version="1.0" encoding="utf-8"?>
<!-- Generator: Adobe Illustrator 15.0.0, SVG Export Plug-In . SVG Version: 6.00 Build 0)  -->
<!DOCTYPE svg PUBLIC "-//W3C//DTD SVG 1.1//EN" "http://www.w3.org/Graphics/SVG/1.1/DTD/svg11.dtd">
<svg version="1.1" id="Ebene_1" xmlns="http://www.w3.org/2000/svg" xmlns:xlink="http://www.w3.org/1999/xlink" x="0px" y="0px"
	 width="100px" height="100px" viewBox="0 0 100 100" enable-background="new 0 0 100 100" xml:space="preserve">
<rect fill-rule="evenodd" clip-rule="evenodd" fill="#FF0000" width="100" height="100"/>
<circle fill="#FFFFF0" cx="72.322" cy="11.399" r="5.108"/>
<circle fill="#FFFFF0" cx="76.825" cy="29.569" r="5.107"/>
<circle fill="#FFFFF0" cx="85.837" cy="23.261" r="5.108"/>
<circle fill="#FFFFF0" cx="83.283" cy="12.149" r="5.106"/>
<circle fill="#FFFFF0" cx="68.417" cy="22.171" r="5.109"/>
<ellipse fill="#FFFFF0" cx="76.909" cy="19.655" rx="6.982" ry="7.133"/>
<path fill="#FF0000" d="M73.185,19.799c0-2.03,1.707-3.677,3.812-3.677c2.109,0,3.816,1.647,3.816,3.677
	c0,2.032-1.707,3.677-3.816,3.677C74.892,23.477,73.185,21.831,73.185,19.799z"/>
<circle fill="#FFFFF0" cx="22.089" cy="26.691" r="7.143"/>
<path fill-rule="evenodd" clip-rule="evenodd" fill="none" stroke="#FFFFF0" stroke-width="5.3152" stroke-linecap="round" stroke-miterlimit="3.8637" d="
	M83.295,55.997L30.559,87.644c-5.636,2.282-8.892,1.63-13.673,1.169"/>
<polyline fill-rule="evenodd" clip-rule="evenodd" fill="none" stroke="#FFFFF0" stroke-width="7.0867" stroke-linecap="round" stroke-miterlimit="3.8637" points="
	35.351,24.849 32.616,42.82 15.037,54.539 "/>
<polyline fill-rule="evenodd" clip-rule="evenodd" fill="none" stroke="#FFFFF0" stroke-width="8.8584" stroke-linecap="round" stroke-miterlimit="3.8637" points="
	64.262,37.351 43.163,51.023 54.492,70.556 "/>
<polygon fill-rule="evenodd" clip-rule="evenodd" fill="#FFFFF0" points="36.313,21.514 65.824,33.443 51.967,44.383 35.169,38.132 
	"/>
</svg>
