<?xml version="1.0" encoding="utf-8"?>
<!-- Generator: Adobe Illustrator 15.0.0, SVG Export Plug-In . SVG Version: 6.00 Build 0)  -->
<!DOCTYPE svg PUBLIC "-//W3C//DTD SVG 1.1//EN" "http://www.w3.org/Graphics/SVG/1.1/DTD/svg11.dtd">
<svg version="1.1" id="Ebene_1" xmlns="http://www.w3.org/2000/svg" xmlns:xlink="http://www.w3.org/1999/xlink" x="0px" y="0px"
	 width="100px" height="100px" viewBox="0 0 100 100" enable-background="new 0 0 100 100" xml:space="preserve">
<rect fill="#FF0000" width="100" height="100"/>
<path fill="#FFFFF0" d="M22,25l20,9l6-14l-6-10H30L22,25z"/>
<path fill="#FFFFF0" d="M45,10l13,23l-6,3l23,4l7-20l-7,2l-5-12H45z"/>
<path fill="#FFFFF0" d="M82,38l-16,9l14,23l10-10L82,38z"/>
<path fill="#FFFFF0" d="M90,60L80,70H60v-5L49,80l11,15v-5h20L90,60z"/>
<path fill="#FFFFF0" d="M42,70H12l8,20h22V70z"/>
<path fill="#FFFFF0" d="M10,60l2,10h8l10-18l8,3l-3-20l-25,5l6,4L10,60z"/>
</svg>
