<?xml version="1.0" encoding="utf-8"?>
<!-- Generator: Adobe Illustrator 15.0.0, SVG Export Plug-In . SVG Version: 6.00 Build 0)  -->
<!DOCTYPE svg PUBLIC "-//W3C//DTD SVG 1.1//EN" "http://www.w3.org/Graphics/SVG/1.1/DTD/svg11.dtd">
<svg version="1.1" id="Ebene_1" xmlns="http://www.w3.org/2000/svg" xmlns:xlink="http://www.w3.org/1999/xlink" x="0px" y="0px"
	 width="100px" height="100px" viewBox="0 0 100 100" enable-background="new 0 0 100 100" xml:space="preserve">
<rect fill-rule="evenodd" clip-rule="evenodd" fill="#FF0000" width="100" height="100"/>
<rect x="5" y="5" fill-rule="evenodd" clip-rule="evenodd" fill="#FFFDF1" width="90" height="90"/>
<path fill-rule="evenodd" clip-rule="evenodd" fill="#FF0000" d="M29.952,67.874h13.605l7.358,17.825l13.19-4.305l-1.611-4.934
	l-8.641,2.96l-6.966-16.522L29.952,62.92V67.874L29.952,67.874z M29.952,57.461l11.167-0.021v-4.977H29.952V57.461L29.952,57.461z
	 M29.952,90.381V85.53c0.915-0.168,1.851-0.44,2.808-0.839c4.767-1.47,6.944-6.319,8.076-9.763l2.851,6.822
	c-2.176,4.284-4.353,5.417-9.033,7.35C33.086,89.729,31.519,90.17,29.952,90.381z M22.486,47.951
	c3.025-0.126,5.268-2.331,5.746-4.703c0.283-1.512-0.087-3.905-2.133-5.543c-1.175-1.302-4.919-2.309-7.792,0.084
	c-1.611,1.239-2.678,3.947-1.807,6.151l3.918,23.934h9.534V62.92h-5.028l-0.805-5.438l5.833-0.021v-4.997h-6.726L22.486,47.951
	L22.486,47.951z M29.952,85.53v4.851c-3.135,0.441-6.313,0.041-9.534-1.28c-4.593-1.869-7.815-4.955-9.795-9.448
	c-0.762-1.721-1.088-3.779-1.154-5.815v-1.553c0.087-2.709,0.566-5.166,1.045-6.362c0.914-2.268,1.567-3.779,3.461-5.396
	l1.263,7.285c-1.241,1.154,0.631-1.806-0.457,0.63s-1.045,6.025,0.414,9.343c1.458,3.296,3.788,5.521,7.162,6.907
	C24.923,85.74,27.427,86.014,29.952,85.53z"/>
<path fill-rule="evenodd" clip-rule="evenodd" fill="#FF0000" d="M80.354,66.736c2.027,0.214,4.757-2.369,8.888-8.166
	c2.121-17.89-6.524-35.517-25.798-48.683c-5.243,0.761-9.719,2.013-12.447,4.596L62.79,27.85c1.959-0.696,3.498-2.093,4.271-3.979
	c6.005,4.481,14.164,18.123,11.992,23.222c-0.423,1.677-1.263,2.654-3.08,2.792L80.354,66.736z"/>
<path fill-rule="evenodd" clip-rule="evenodd" fill="#FF0000" d="M49.08,17.193l-3.224,5.728l8.375,9.238
	c1.537,0.98,2.656,1.263,3.705,0.634l2.588-2.023L49.08,17.193z"/>
<path fill-rule="evenodd" clip-rule="evenodd" fill="#FF0000" d="M72.94,50.704c-1.469-0.073-3.075,0.415-3.916,1.393l3.264,16.569
	c1.046,1.749,4.821,0.916,5.243-0.761L72.94,50.704z"/>
</svg>
