<?xml version="1.0" encoding="utf-8"?>
<!-- Generator: Adobe Illustrator 15.0.0, SVG Export Plug-In . SVG Version: 6.00 Build 0)  -->
<!DOCTYPE svg PUBLIC "-//W3C//DTD SVG 1.1//EN" "http://www.w3.org/Graphics/SVG/1.1/DTD/svg11.dtd">
<svg version="1.1" id="Ebene_1" xmlns="http://www.w3.org/2000/svg" xmlns:xlink="http://www.w3.org/1999/xlink" x="0px" y="0px"
	 width="100px" height="100px" viewBox="0 0 100 100" enable-background="new 0 0 100 100" xml:space="preserve">
<rect fill-rule="evenodd" clip-rule="evenodd" fill="#FF0000" width="100" height="100"/>
<rect x="5" y="5" fill-rule="evenodd" clip-rule="evenodd" fill="#FFFFF0" width="90" height="90"/>
<path fill="#FF0000" d="M40.853,15.177c0.225-3.143,2.933-5.515,6.043-5.301c3.115,0.215,5.458,2.935,5.233,6.078
	c-0.225,3.14-2.93,5.512-6.043,5.297C42.974,21.04,40.631,18.317,40.853,15.177z"/>
<path fill-rule="evenodd" clip-rule="evenodd" fill="none" stroke="#FF0000" stroke-width="5.2403" stroke-miterlimit="3.8637" d="
	M13.615,38.501c0,0,10.104-21.399,10.521-21.387c13.043,0.39,14.182,27.93,20.131,29.668c0.423,0.124,13.198,2.07,21.664-0.535"/>
<path fill-rule="evenodd" clip-rule="evenodd" fill="none" stroke="#FF0000" stroke-width="5.2403" stroke-linecap="round" stroke-miterlimit="3.8637" d="
	M26.722,51.257c0,0-6.51,4.059-7.801,8.864c-1.184,4.394,7.86,24.134,7.86,24.134"/>
<polyline fill-rule="evenodd" clip-rule="evenodd" fill="none" stroke="#FF0000" stroke-width="6.3825" stroke-linecap="round" stroke-miterlimit="3.8637" points="
	55.027,22.254 43.378,35.642 27.698,35.548 "/>
<polyline fill-rule="evenodd" clip-rule="evenodd" fill="none" stroke="#FF0000" stroke-width="6.987" stroke-linecap="round" stroke-miterlimit="3.8637" points="
	67.447,44.107 50.766,55.409 60.779,71.381 "/>
<path fill-rule="evenodd" clip-rule="evenodd" fill="#FF0000" d="M50.811,31.151c0.968-7.295,2.929-13.222,5.367-11.992
	c1.887,0.949,12.552,18.326,11.312,18.586c-6.674,1.393-4.254,3.726-9.041,4.336C56.381,42.345,50.754,31.575,50.811,31.151z"/>
<path fill-rule="evenodd" clip-rule="evenodd" fill="none" stroke="#FF0000" stroke-width="5.2403" stroke-linecap="round" stroke-miterlimit="3.8637" d="
	M27.42,51.267c0,0,5.129,4.865,3.834,9.67c-1.183,4.395,8.571,23.318,8.571,23.318"/>
<path fill-rule="evenodd" clip-rule="evenodd" fill="none" stroke="#FF0000" stroke-width="5.2403" stroke-linecap="round" stroke-miterlimit="3.8637" d="
	M76.117,45.851c0,0,7.598,0.218,10.737,5.803c3.385,6.02-9.971,32.493-9.971,32.493"/>
</svg>
