<?xml version="1.0" encoding="utf-8"?>
<!-- Generator: Adobe Illustrator 15.0.0, SVG Export Plug-In . SVG Version: 6.00 Build 0)  -->
<!DOCTYPE svg PUBLIC "-//W3C//DTD SVG 1.1//EN" "http://www.w3.org/Graphics/SVG/1.1/DTD/svg11.dtd">
<svg version="1.1" id="Ebene_1" xmlns="http://www.w3.org/2000/svg" xmlns:xlink="http://www.w3.org/1999/xlink" x="0px" y="0px"
	 width="100px" height="100px" viewBox="0 0 100 100" enable-background="new 0 0 100 100" xml:space="preserve">
<rect fill-rule="evenodd" clip-rule="evenodd" fill="#0000FF" width="100" height="100"/>
<rect x="5" y="5" fill-rule="evenodd" clip-rule="evenodd" fill="#FFFFF0" width="90" height="90"/>
<circle fill-rule="evenodd" clip-rule="evenodd" fill="#0000FF" cx="48.317" cy="18.685" r="8.662"/>
<path fill-rule="evenodd" clip-rule="evenodd" fill="#0000FF" d="M56.192,52.938h20.079c0,0-3.937-10.235-6.299-14.172
	c-2.362-3.938-2.362-8.269-12.206-7.875c-9.843,0.394-42.128,0-42.128,0s-1.771,0.197-1.771,3.74s1.771,4.921,7.284,4.921
	c5.512,0,28.349,0,28.349,0L56.192,52.938z"/>
<polygon fill-rule="evenodd" clip-rule="evenodd" fill="#0000FF" points="6.097,56.891 93.808,56.678 76.927,78.529 11.609,78.545 
	"/>
<polygon fill-rule="evenodd" clip-rule="evenodd" fill="#0000FF" points="69.578,92.9 76.469,87.191 66.626,76.758 62.098,74.593 
	22.922,37.19 20.166,37.978 59.145,76.562 60.522,82.073 "/>
<rect x="70.407" y="6.206" fill="none" width="21.169" height="40.946"/>
<text transform="matrix(1 0 0 1 70.4063 44.2246)" fill="#0000FF" font-family="'ArialMT'" font-size="37.7976">€</text>
</svg>
