<?xml version="1.0" encoding="utf-8"?>
<!-- Generator: Adobe Illustrator 15.0.0, SVG Export Plug-In . SVG Version: 6.00 Build 0)  -->
<!DOCTYPE svg PUBLIC "-//W3C//DTD SVG 1.1//EN" "http://www.w3.org/Graphics/SVG/1.1/DTD/svg11.dtd">
<svg version="1.1" id="Ebene_1" xmlns="http://www.w3.org/2000/svg" xmlns:xlink="http://www.w3.org/1999/xlink" x="0px" y="0px"
	 width="100px" height="100px" viewBox="0 0 100 100" enable-background="new 0 0 100 100" xml:space="preserve">
<rect fill-rule="evenodd" clip-rule="evenodd" fill="#FF0000" width="100" height="100"/>
<polygon fill="#FFFFF0" points="5,5 95,5 95,95 5,95 5,5 "/>
<circle fill="#FF001A" cx="44.004" cy="17.435" r="5.736"/>
<polygon fill="#FF001A" points="34.635,27.526 51.415,27.526 51.415,61.021 34.635,61.021 34.635,27.526 "/>
<polyline fill-rule="evenodd" clip-rule="evenodd" fill="none" stroke="#FF0000" stroke-width="5.6832" stroke-linecap="round" stroke-miterlimit="3.8637" points="
	40.672,30.145 27.645,30.145 19.145,20.504 "/>
<polyline fill-rule="evenodd" clip-rule="evenodd" fill="none" stroke="#FF0000" stroke-width="6.2501" stroke-linecap="round" stroke-miterlimit="3.8637" points="
	38.466,58.462 37.756,70.661 26.478,84.444 "/>
<polyline fill-rule="evenodd" clip-rule="evenodd" fill="none" stroke="#FF0000" stroke-width="6.2501" stroke-linecap="round" stroke-miterlimit="3.8637" points="
	47.128,56.315 47.435,74.42 47.435,86.952 "/>
<path fill="#FF001A" d="M52.845,19.22c0-3.168,2.572-5.736,5.74-5.736s5.733,2.568,5.733,5.736s-2.565,5.735-5.733,5.735
	S52.845,22.388,52.845,19.22z"/>
<polyline fill-rule="evenodd" clip-rule="evenodd" fill="none" stroke="#FF0000" stroke-width="6.2501" stroke-linecap="round" stroke-miterlimit="3.8637" points="
	50.999,62.308 56.844,72.332 69.644,84.444 "/>
<path fill-rule="evenodd" clip-rule="evenodd" fill="#FF0000" stroke="#FF0000" stroke-width="0.893" stroke-miterlimit="3.8637" d="
	M59.628,45.47c0,0,14.602,19.126,14.307,19.233c-14.82,5.411-18.887,3.661-26.826,0.944c-0.197-0.067,4.567-20.164,4.567-20.164
	L59.628,45.47z"/>
<polyline fill-rule="evenodd" clip-rule="evenodd" fill="none" stroke="#FF0000" stroke-width="5.6832" stroke-linecap="round" stroke-miterlimit="3.8637" points="
	70.2,36.411 59.046,36.598 50.452,30.979 "/>
</svg>
