<?xml version="1.0" encoding="utf-8"?>
<!-- Generator: Adobe Illustrator 15.0.0, SVG Export Plug-In . SVG Version: 6.00 Build 0)  -->
<!DOCTYPE svg PUBLIC "-//W3C//DTD SVG 1.1//EN" "http://www.w3.org/Graphics/SVG/1.1/DTD/svg11.dtd">
<svg version="1.1" id="Ebene_1" xmlns="http://www.w3.org/2000/svg" xmlns:xlink="http://www.w3.org/1999/xlink" x="0px" y="0px"
	 width="100px" height="100px" viewBox="0 0 100 100" enable-background="new 0 0 100 100" xml:space="preserve">
<rect fill-rule="evenodd" clip-rule="evenodd" fill="#FF0000" width="100" height="100"/>
<rect x="5" y="5" fill-rule="evenodd" clip-rule="evenodd" fill="#FFFFF0" width="90" height="90"/>
<path fill="#FF0000" d="M44.519,24.58c0-3.172,2.568-5.737,5.736-5.737c3.169,0,5.734,2.565,5.734,5.737
	c0,3.165-2.565,5.733-5.734,5.733C47.087,30.313,44.519,27.745,44.519,24.58z"/>
<path fill-rule="evenodd" clip-rule="evenodd" fill="#FF0000" d="M43.642,36.021c3.347-5.905,11.418-2.559,13.387-0.59
	c1.52,1.516,9.973,20.165,8.859,20.867c-2.145,1.35-9.056,3.74-13.978-0.591C50.283,54.277,43.448,36.363,43.642,36.021z"/>
<polyline fill-rule="evenodd" clip-rule="evenodd" fill="none" stroke="#FF0000" stroke-width="5.6831" stroke-linecap="round" stroke-miterlimit="3.8637" points="
	47.693,38.123 36.161,37.203 20.019,26.628 "/>
<polyline fill-rule="evenodd" clip-rule="evenodd" fill="none" stroke="#FF0000" stroke-width="6.2501" stroke-linecap="round" stroke-miterlimit="3.8637" points="
	53.646,62.927 43.248,73.818 30.993,88.124 "/>
<polyline fill-rule="evenodd" clip-rule="evenodd" fill="none" stroke="#FF0000" stroke-width="6.2501" stroke-linecap="round" stroke-miterlimit="3.8637" points="
	64.38,62.533 59.262,72.376 72.384,87.205 "/>
<circle fill="#FF0000" cx="81.439" cy="48.544" r="4.331"/>
<line fill-rule="evenodd" clip-rule="evenodd" fill="none" stroke="#FF0000" stroke-width="5.6831" stroke-linecap="round" stroke-miterlimit="3.8637" x1="46.792" y1="11.218" x2="19.821" y2="32.479"/>
</svg>
