<?xml version="1.0" encoding="utf-8"?>
<!-- Generator: Adobe Illustrator 15.0.0, SVG Export Plug-In . SVG Version: 6.00 Build 0)  -->
<!DOCTYPE svg PUBLIC "-//W3C//DTD SVG 1.1//EN" "http://www.w3.org/Graphics/SVG/1.1/DTD/svg11.dtd">
<svg version="1.1" id="Ebene_1" xmlns="http://www.w3.org/2000/svg" xmlns:xlink="http://www.w3.org/1999/xlink" x="0px" y="0px"
	 width="100px" height="100px" viewBox="0 0 100 100" enable-background="new 0 0 100 100" xml:space="preserve">
<polygon fill="#FF0000" points="0,0 100,0 100,100 0,100 0,0 "/>
<line fill-rule="evenodd" clip-rule="evenodd" fill="none" stroke="#FFFFF0" stroke-width="5.8428" stroke-linecap="round" stroke-miterlimit="3.8637" x1="41.351" y1="34.435" x2="34.725" y2="48.596"/>
<line fill-rule="evenodd" clip-rule="evenodd" fill="none" stroke="#FFFFF0" stroke-width="5.8428" stroke-linecap="round" stroke-miterlimit="3.8637" x1="50.969" y1="34.951" x2="62.233" y2="56.345"/>
<path fill-rule="evenodd" clip-rule="evenodd" fill="none" stroke="#FFFFF0" stroke-width="5.3934" stroke-linecap="round" stroke-miterlimit="3.8637" d="
	M6.394,21.533c32.365-12.329,68.837-10.37,86.264-8.767"/>
<line fill-rule="evenodd" clip-rule="evenodd" fill="none" stroke="#FFFFF0" stroke-width="5.3934" stroke-miterlimit="3.8637" x1="5.623" y1="21.437" x2="44.538" y2="26.942"/>
<path fill="#FFFFF0" d="M11.947,56.912c0.265-4.923,4.072-8.581,8.513-8.173c4.437,0.405,7.82,4.722,7.559,9.646
	c-0.262,4.917-4.073,8.578-8.51,8.173C15.068,66.15,11.685,61.83,11.947,56.912z"/>
<path fill="#FFFFF0" d="M9.924,82.003c0.223-3.313,2.944-5.813,6.068-5.588c3.131,0.224,5.485,3.091,5.263,6.403
	c-0.227,3.313-2.948,5.814-6.075,5.588C12.052,88.181,9.698,85.313,9.924,82.003z"/>
<polyline fill-rule="evenodd" clip-rule="evenodd" fill="none" stroke="#FFFFF0" stroke-width="8.1726" stroke-linecap="round" stroke-miterlimit="3.8637" points="
	33.678,64.424 38.497,83.456 28.075,82.392 "/>
<polyline fill-rule="evenodd" clip-rule="evenodd" fill="none" stroke="#FFFFF0" stroke-width="8.9466" stroke-linecap="round" stroke-miterlimit="3.8637" points="
	57.021,68.527 71.353,72.859 86.879,71.271 "/>
<path fill-rule="evenodd" clip-rule="evenodd" fill="#FFFFF0" d="M44.099,72.121c-5.237-8.302-8.624-17.369-5.813-18.861
	c2.17-1.148,16.228,5.241,15.518,6.876c-3.808,8.792-0.981,8.413-4.034,14.333C48.454,77.023,44.399,72.605,44.099,72.121z"/>
<path fill-rule="evenodd" clip-rule="evenodd" fill="none" stroke="#FFFFF0" stroke-width="5.3934" stroke-linecap="round" stroke-miterlimit="3.8637" d="
	M44.538,26.817c25.036,0.478,32.691,0.02,49.839,3.69"/>
</svg>
