<?xml version="1.0" encoding="utf-8"?>
<!-- Generator: Adobe Illustrator 15.0.0, SVG Export Plug-In . SVG Version: 6.00 Build 0)  -->
<!DOCTYPE svg PUBLIC "-//W3C//DTD SVG 1.1//EN" "http://www.w3.org/Graphics/SVG/1.1/DTD/svg11.dtd">
<svg version="1.1" id="Ebene_1" xmlns="http://www.w3.org/2000/svg" xmlns:xlink="http://www.w3.org/1999/xlink" x="0px" y="0px"
	 width="100px" height="100px" viewBox="0 0 100 100" enable-background="new 0 0 100 100" xml:space="preserve">
<rect fill-rule="evenodd" clip-rule="evenodd" fill="#0000FF" width="100" height="100"/>
<rect x="5" y="5" fill-rule="evenodd" clip-rule="evenodd" fill="#FFFFF0" width="90" height="90"/>
<path fill-rule="evenodd" clip-rule="evenodd" fill="#0000FF" d="M53.596,56.315c1.129,3.008-21.496,0.535-21.496,0.535
	s7.673-12.827,9.919-16.567c2.242-3.741,2.242-7.856,11.593-7.481c3.986,0.158,8.745,3.629,15.832,9.142
	c2.165,0.788,4.146-9.449,5.878-12.334c1.193-1.99,5.958-1.267,5.423,2.459c-0.658,4.561-5.18,17.083-7.21,17.452
	c-4.878,0.889-14.918-2.851-14.918-2.851S51.979,51.999,53.596,56.315z"/>
<circle fill-rule="evenodd" clip-rule="evenodd" fill="#0000FF" cx="56.037" cy="20.358" r="8.229"/>
<path fill-rule="evenodd" clip-rule="evenodd" fill="#0000FF" d="M9.375,58.063c2.389-9.031,8.229-10.285,15.521-0.372
	c2.984,4.057,47.859,2.229,50.684-0.188c10.47-8.976,13.626-4.183,15.521,0.936c3.146,8.508-4.355,21.883-14.589,21.883
	c-0.372,0-52.91,0-53.659,0C13.393,80.32,6.573,68.656,9.375,58.063z"/>
<polygon fill-rule="evenodd" clip-rule="evenodd" fill="#0000FF" points="55.46,93.965 48.914,88.542 59.542,65.481 62.147,63.424 
	74.549,34.438 78.016,35.188 65.802,65.294 65.34,70.529 "/>
</svg>
