<?xml version="1.0" encoding="utf-8"?>
<!-- Generator: Adobe Illustrator 15.0.0, SVG Export Plug-In . SVG Version: 6.00 Build 0)  -->
<!DOCTYPE svg PUBLIC "-//W3C//DTD SVG 1.1//EN" "http://www.w3.org/Graphics/SVG/1.1/DTD/svg11.dtd">
<svg version="1.1" id="Ebene_1" xmlns="http://www.w3.org/2000/svg" xmlns:xlink="http://www.w3.org/1999/xlink" x="0px" y="0px"
	 width="100px" height="100px" viewBox="0 0 100 100" enable-background="new 0 0 100 100" xml:space="preserve">
<rect fill-rule="evenodd" clip-rule="evenodd" fill="#0000FF" width="100" height="100"/>
<polygon fill="#FFFFF0" points="5,5 95,5 95,95 5,95 5,5 "/>
<circle fill="#0000FF" cx="38.811" cy="18.007" r="7.596"/>
<path fill-rule="evenodd" clip-rule="evenodd" fill="#0000FF" d="M62.442,77.081L51.043,55.813l-9.957-12.488
	c0,0-3.039-6.246-2.193-9.622c0.843-3.376,7.1-7.427,9.97-6.583c2.866,0.844,28.523,25.653,28.523,25.653l-4.817,4.897L59.064,45.18
	l-1.012,3.208l7.09,15.528l5.232,18.059L62.442,77.081z"/>
<path fill-rule="evenodd" clip-rule="evenodd" fill="#0000FF" d="M81.356,87.613c0,0-50.605-33.999-53.467-36.546
	c-2.082-1.858-3.992-3.319-5.702-5.623c-1.628-2.19-2.067-4.904-2.067-6.301c0-2.87-4.393-2.956-5.38-1.487
	c-0.954,1.422-0.456,6.819,1.246,9.855c2.756,4.921,6.69,7.231,8.505,8.963c3.713,3.547,52.301,34.694,52.301,34.694L81.356,87.613z
	"/>
</svg>
