<?xml version="1.0" encoding="utf-8"?>
<!-- Generator: Adobe Illustrator 15.0.0, SVG Export Plug-In . SVG Version: 6.00 Build 0)  -->
<!DOCTYPE svg PUBLIC "-//W3C//DTD SVG 1.1//EN" "http://www.w3.org/Graphics/SVG/1.1/DTD/svg11.dtd">
<svg version="1.1" id="Ebene_1" xmlns="http://www.w3.org/2000/svg" xmlns:xlink="http://www.w3.org/1999/xlink" x="0px" y="0px"
	 width="100px" height="100px" viewBox="0 0 100 100" enable-background="new 0 0 100 100" xml:space="preserve">
<rect fill-rule="evenodd" clip-rule="evenodd" fill="#FF0000" width="100" height="100"/>
<path fill-rule="evenodd" clip-rule="evenodd" fill="#FFFFF0" d="M33.476,66.171h31.083c0,0,1.402-6.238,2.802-7.761
	c7.696-8.363,18.93-19.325,18.367-31.928c-0.271-6.089-5.411-12.61-13.122-17.616c-7.223-5.634-33.162-8.253-47.097-1.895
	C17.93,10.625,12.31,18.554,11.03,26.347C8.893,39.381,21.477,51.564,30.243,58.14C33.559,60.628,33.476,66.171,33.476,66.171z"/>
<line fill-rule="evenodd" clip-rule="evenodd" fill="none" stroke="#FFFFF0" stroke-width="2.8348" stroke-miterlimit="3.8637" x1="39.237" y1="62.326" x2="39.237" y2="83.587"/>
<line fill-rule="evenodd" clip-rule="evenodd" fill="none" stroke="#FFFFF0" stroke-width="2.8348" stroke-miterlimit="3.8637" x1="58.612" y1="62.326" x2="58.612" y2="83.587"/>
<polygon fill="#FFFFF0" points="32.824,75.436 64.451,75.436 64.451,95.155 32.824,95.155 32.824,75.436 "/>
<polygon fill-rule="evenodd" clip-rule="evenodd" fill="#FF0000" points="32.396,56.101 65.272,56.101 72.359,48.62 24.128,48.62 
	"/>
</svg>
