<?xml version="1.0" encoding="utf-8"?>
<!-- Generator: Adobe Illustrator 15.0.0, SVG Export Plug-In . SVG Version: 6.00 Build 0)  -->
<!DOCTYPE svg PUBLIC "-//W3C//DTD SVG 1.1//EN" "http://www.w3.org/Graphics/SVG/1.1/DTD/svg11.dtd">
<svg version="1.1" id="Ebene_1" xmlns="http://www.w3.org/2000/svg" xmlns:xlink="http://www.w3.org/1999/xlink" x="0px" y="0px"
	 width="100px" height="100px" viewBox="0 0 100 100" enable-background="new 0 0 100 100" xml:space="preserve">
<rect fill="#FF0000" width="100" height="100"/>
<rect x="5" y="5" fill="#FFFFF0" width="90" height="90"/>
<path fill="none" stroke="#FF0000" stroke-width="6.1138" stroke-miterlimit="3.8637" d="M12.388,67.857
	c0-7.507,6.036-13.594,13.48-13.594c7.441,0,13.478,6.087,13.478,13.594c0,7.513-6.036,13.6-13.478,13.6
	C18.424,81.457,12.388,75.37,12.388,67.857z"/>
<path fill="none" stroke="#FF0000" stroke-width="5.2403" stroke-miterlimit="3.8637" d="M64.386,71.762
	c0-5.572,4.481-10.088,10.006-10.088c5.519,0,10,4.516,10,10.088c0,5.573-4.481,10.088-10,10.088
	C68.867,81.85,64.386,77.335,64.386,71.762z"/>
<path fill-rule="evenodd" clip-rule="evenodd" fill="#FF0000" d="M12.381,45.814c0.491-0.831,6.207-5.225,15.452-5.225
	c0.327,0,0.162-20.704,0.162-20.704l2.96-2.983l29.926,0.058l3.277,3.254v30.989l5.429-0.333v-9.782h11.671v4.808H78.46v6.467h4.931
	c0,0,0.768-2.892,3.122-3.647c1.81-0.581,3.289,0,3.289,0v5.141l-2.462,2.487h-7.562v4.808h-8.718v-5.969h-5.41l-9.874,12.106
	h-8.219c0,0-1.972-9.12-5.752-13.433c-2.601-2.962-7.07-5.229-9.371-5.969c-3.502-1.127-8.771-1.006-11.261-0.251
	c-4.355,1.327-8.793,4.561-8.793,4.561V45.814z"/>
<polygon fill="#FFFFF0" points="48.414,25.476 58.64,25.476 58.64,45.718 48.414,45.718 48.414,25.476 "/>
<polygon fill="none" stroke="#FF0000" stroke-width="3.0811" stroke-miterlimit="3.8637" points="48.414,25.476 58.64,25.476 
	58.64,45.718 48.414,45.718 48.414,25.476 "/>
</svg>
