<?xml version="1.0" encoding="utf-8"?>
<!-- Generator: Adobe Illustrator 15.0.0, SVG Export Plug-In . SVG Version: 6.00 Build 0)  -->
<!DOCTYPE svg PUBLIC "-//W3C//DTD SVG 1.1//EN" "http://www.w3.org/Graphics/SVG/1.1/DTD/svg11.dtd">
<svg version="1.1" id="Ebene_1" xmlns="http://www.w3.org/2000/svg" xmlns:xlink="http://www.w3.org/1999/xlink" x="0px" y="0px"
	 width="100px" height="100px" viewBox="0 0 100 100" enable-background="new 0 0 100 100" xml:space="preserve">
<rect fill-rule="evenodd" clip-rule="evenodd" fill="#FF0000" width="100" height="100"/>
<polygon fill="#FFFFF0" points="5,5 95,5 95,95 5,95 5,5 "/>
<circle fill="#FF0000" cx="22.203" cy="32.088" r="10.828"/>
<path fill="none" stroke="#FF0000" stroke-width="6.2503" stroke-miterlimit="3.8637" d="M78.737,51.159
	c-11.4,12.243-27.601,15.682-36.177,7.69v-0.003c-8.579-7.995-6.287-24.396,5.119-36.637l0,0
	C59.087,9.971,75.28,6.527,83.856,14.521l0.006,0.002C92.438,22.518,90.144,38.92,78.737,51.159L78.737,51.159L78.737,51.159z"/>
<polygon fill-rule="evenodd" clip-rule="evenodd" fill="#FF0000" stroke="#FF0000" points="8.041,85.516 31.641,62.285 
	35.787,51.472 49.75,64.061 38.543,67.616 14.341,91.814 "/>
<line fill-rule="evenodd" clip-rule="evenodd" fill="none" stroke="#FF0000" stroke-width="3.5716" stroke-miterlimit="3.8637" x1="56.626" y1="17.824" x2="83.795" y2="44.991"/>
<line fill-rule="evenodd" clip-rule="evenodd" fill="none" stroke="#FF0000" stroke-width="3.5716" stroke-miterlimit="3.8637" x1="44.028" y1="28.454" x2="73.558" y2="57.982"/>
<line fill-rule="evenodd" clip-rule="evenodd" fill="none" stroke="#FF0000" stroke-width="3.5716" stroke-miterlimit="3.8637" x1="78.282" y1="13.099" x2="39.303" y2="52.078"/>
<line fill-rule="evenodd" clip-rule="evenodd" fill="none" stroke="#FF0000" stroke-width="3.5716" stroke-miterlimit="3.8637" x1="88.913" y1="19.792" x2="47.178" y2="61.525"/>
</svg>
