<?xml version="1.0" encoding="utf-8"?>
<!-- Generator: Adobe Illustrator 15.0.0, SVG Export Plug-In . SVG Version: 6.00 Build 0)  -->
<!DOCTYPE svg PUBLIC "-//W3C//DTD SVG 1.1//EN" "http://www.w3.org/Graphics/SVG/1.1/DTD/svg11.dtd">
<svg version="1.1" id="Ebene_1" xmlns="http://www.w3.org/2000/svg" xmlns:xlink="http://www.w3.org/1999/xlink" x="0px" y="0px"
	 width="100px" height="100px" viewBox="0 0 100 100" enable-background="new 0 0 100 100" xml:space="preserve">
<polygon fill="#FF0000" points="0,0 100,0 100,100 0,100 0,0 "/>
<path fill="none" stroke="#FFFFF0" stroke-width="7" d="M52.06,86.04c0-12.456,19.875-33.56,31.679-32.379"/>
<path fill="none" stroke="#FFFFF0" stroke-width="7" d="M68.562,88.568c0-9.276,9.016-18.236,17.875-18.213"/>
<path fill="#FFFFF0" stroke="#FFFFFF" d="M80.926,87.931c0,0,1.558-3.193,2.726-4.283s2.337-1.712,2.882-1.946
	s1.246-0.391,1.713-0.234s1.947,3.037,2.414,4.906s0.492,3.481,0.362,4.41s0.027,1.041-0.362,1.274s-0.7,0.312-3.504,0.078
	s-4.205-0.544-5.14-1.09s-1.324-1.012-1.324-1.479c0,0-0.049-0.281-0.007-0.66S80.926,87.931,80.926,87.931z"/>
<path fill="#FFFFF0" stroke="#FFFFF0" d="M13.431,55.557c0,0,0.32,0.25,0.651,0.279c0.331,0.031,0.967,0.141,1.824,0.004
	c0.857-0.133,1.549-0.328,2.186-0.436c0.636-0.109,1.105-0.385,1.521-0.301c0.415,0.084,1.656,0.725,2.125,1.141
	c0.469,0.414,3.087,3.602,3.087,3.602s1.158,1.135,1.711,1.246c0.552,0.113,1.021,0.361,1.797,0.004
	c0.774-0.357,2.353-1.623,2.88-2.064c0.526-0.441,0.998-0.938,1.136-1.295c0.14-0.361,0.196-0.83,0.197-1.162
	c0.001-0.33-0.466-1.494-0.853-1.854c-0.385-0.361-3.311-2.607-3.311-2.607s-0.633-0.719-0.826-1.025
	c-0.192-0.302-0.439-0.857-0.273-1.216c0.167-0.358,0.557-1.546,1.194-2.125c0.638-0.58,2.936-2.675,4.101-3.722
	c1.164-1.048,3.018-2.01,3.849-2.505c0.83-0.496,1.633-0.825,2.02-0.796c0.387,0.028,0.967,0.03,1.327,0.252
	c0.358,0.221,3.254,2.773,3.254,2.773l7.06,6.319c0,0,1.876,1.856,2.509,1.942c0.637,0.084,1.023,0.084,1.023,0.084
	s0.58,0.002,0.857-0.053c0.275-0.053,0.996-0.301,1.41-0.604c0.416-0.303,2.412-2.094,2.412-2.094s2.27-1.929,2.438-2.232
	c0.166-0.304,0.332-0.608,0.418-1.05c0.084-0.443,0.057-0.499,0.002-1.105c-0.055-0.609-0.33-1.135-0.854-1.772
	s-3.664-4.1-3.664-4.1l-6.425-6.403c0,0-1.516-1.523-1.597-1.911c-0.083-0.388-0.385-0.912-0.024-1.465
	c0.361-0.553,2.165-2.648,2.937-3.392c0.775-0.745,1.748-1.876,2.193-2.594c0.443-0.716,0.691-1.104,0.832-1.573
	c0.139-0.469,0.25-1.27,0.225-1.934s-0.217-1.909-0.52-2.296c-0.301-0.387-1.311-1.359-1.311-1.359l0.135,0.176
	c0,0-0.969-1.012-1.355-1.315s-1.631-0.498-2.295-0.525s-1.465,0.083-1.935,0.221s-0.857,0.387-1.576,0.829s-1.852,1.41-2.599,2.184
	s-2.847,2.571-3.4,2.93s-1.078,0.055-1.465-0.028s-1.908-1.603-1.908-1.603l-6.385-6.44c0,0-3.455-3.151-4.091-3.676
	s-1.161-0.802-1.769-0.857s-0.664-0.083-1.106,0s-0.746,0.249-1.05,0.415s-2.239,2.433-2.239,2.433s-1.797,1.99-2.101,2.405
	s-0.553,1.133-0.608,1.41s-0.055,0.857-0.055,0.857s0,0.387,0.083,1.023s1.935,2.515,1.935,2.515l6.302,7.077
	c0,0,2.543,2.902,2.764,3.262s0.221,0.94,0.249,1.327s-0.304,1.188-0.802,2.018s-1.465,2.681-2.515,3.842s-3.151,3.455-3.732,4.091
	s-1.769,1.023-2.128,1.188s-0.912-0.083-1.216-0.276s-1.022-0.829-1.022-0.829s-2.239-2.93-2.599-3.317s-1.52-0.857-1.852-0.857
	s-0.802,0.055-1.161,0.193s-0.857,0.608-1.299,1.133s-1.713,2.101-2.073,2.875s-0.111,1.244,0,1.797s1.244,1.714,1.244,1.714
	s3.179,2.626,3.593,3.096s1.05,1.713,1.133,2.128s-0.193,0.884-0.304,1.52s-0.304,1.327-0.442,2.184s-0.028,1.493,0,1.824
	s0.278,0.651,0.278,0.651"/>
</svg>
