<?xml version="1.0" encoding="utf-8"?>
<!-- Generator: Adobe Illustrator 15.0.0, SVG Export Plug-In . SVG Version: 6.00 Build 0)  -->
<!DOCTYPE svg PUBLIC "-//W3C//DTD SVG 1.1//EN" "http://www.w3.org/Graphics/SVG/1.1/DTD/svg11.dtd">
<svg version="1.1" id="Ebene_3" xmlns="http://www.w3.org/2000/svg" xmlns:xlink="http://www.w3.org/1999/xlink" x="0px" y="0px"
	 width="100px" height="100px" viewBox="0 0 100 100" enable-background="new 0 0 100 100" xml:space="preserve">
<rect fill-rule="evenodd" clip-rule="evenodd" fill="#FF0000" width="100" height="100"/>
<rect x="5" y="5" fill-rule="evenodd" clip-rule="evenodd" fill="#FFFFF0" width="90" height="90"/>
<path fill="#FF0000" stroke="#FF0000" stroke-width="4" stroke-miterlimit="10" d="M32.072,90.93h35.855l-9.205-60.918H40.955
	L32.072,90.93L32.072,90.93z M49.842,90.93 M63.484,60.47 M49.842,30.011 M36.513,60.47"/>
<path fill="#FFFFF0" d="M37.751,70.907h24.498l-3.098-24.012h-18.41L37.751,70.907L37.751,70.907z M49.915,70.907 M61.2,58.9
	 M49.915,46.896 M38.889,58.9"/>
<rect x="31.406" y="20.655" fill="#FF0000" width="37.188" height="11.91"/>
<path fill="#FF0000" d="M58.691,14.676c0-4.8-3.892-8.691-8.691-8.691s-8.691,3.891-8.691,8.691v9.014h17.383V14.676z"/>
</svg>
