<?xml version="1.0" encoding="utf-8"?>
<!-- Generator: Adobe Illustrator 15.0.0, SVG Export Plug-In . SVG Version: 6.00 Build 0)  -->
<!DOCTYPE svg PUBLIC "-//W3C//DTD SVG 1.1//EN" "http://www.w3.org/Graphics/SVG/1.1/DTD/svg11.dtd">
<svg version="1.1" id="Ebene_1" xmlns="http://www.w3.org/2000/svg" xmlns:xlink="http://www.w3.org/1999/xlink" x="0px" y="0px"
	 width="100px" height="100px" viewBox="0 0 100 100" enable-background="new 0 0 100 100" xml:space="preserve">
<rect fill-rule="evenodd" clip-rule="evenodd" fill="#FF0000" width="100" height="100"/>
<rect x="5" y="5" fill-rule="evenodd" clip-rule="evenodd" fill="#FFFFF0" width="90" height="90"/>
<g>
	<path fill-rule="evenodd" clip-rule="evenodd" fill="#FF0000" d="M54.278,89.068h-20.32v-5.354l-21.925-6.957l4.813-13.914
		l20.32,6.422c2.14-4.281,4.813-8.563,8.556-12.309L28.075,41.437L39.84,30.198l16.577,16.055c3.743-2.676,6.951-5.887,11.764-7.492
		l-8.556-22.478l13.903-5.352l9.091,22.478l5.348-1.07V54.28C71.39,56.957,54.278,71.406,54.278,89.068L54.278,89.068z"/>
	<path fill-rule="evenodd" clip-rule="evenodd" fill="#FF0000" d="M64.438,89.068h23.529V65.52
		C73.528,67.66,68.181,74.617,64.438,89.068L64.438,89.068z"/>
</g>
</svg>
