<?xml version="1.0" encoding="utf-8"?>
<!-- Generator: Adobe Illustrator 15.0.0, SVG Export Plug-In . SVG Version: 6.00 Build 0)  -->
<!DOCTYPE svg PUBLIC "-//W3C//DTD SVG 1.1//EN" "http://www.w3.org/Graphics/SVG/1.1/DTD/svg11.dtd">
<svg version="1.1" id="Ebene_3" xmlns="http://www.w3.org/2000/svg" xmlns:xlink="http://www.w3.org/1999/xlink" x="0px" y="0px"
	 width="100px" height="100px" viewBox="0 0 100 100" enable-background="new 0 0 100 100" xml:space="preserve">
<rect fill-rule="evenodd" clip-rule="evenodd" fill="#FF0000" width="100" height="100"/>
<rect x="5" y="5" fill-rule="evenodd" clip-rule="evenodd" fill="#FFFFF0" width="90" height="90"/>
<path fill="none" stroke="#FF0000" stroke-width="13.9972" d="M81.411,83.005V41.141c0-11.127-11.112-20.146-24.817-20.146h-13.22
	c-13.707,0-24.818,9.019-24.818,20.146v41.692"/>
<g>
	<g>
		<line fill="none" stroke="#FFFFF0" stroke-width="8.165" x1="81.411" y1="83.005" x2="81.411" y2="76.005"/>
		<path fill="none" stroke="#FFFFF0" stroke-width="8.165" stroke-dasharray="13.9616,13.9616" d="M81.411,62.043V41.141
			c0-11.127-11.112-20.146-24.817-20.146h-13.22c-13.707,0-24.818,9.019-24.818,20.146v27.712"/>
		<line fill="none" stroke="#FFFFF0" stroke-width="8.165" x1="18.556" y1="75.833" x2="18.556" y2="82.833"/>
	</g>
</g>
<line fill="none" stroke="#FF0000" stroke-width="3.5155" x1="11.405" y1="83.005" x2="88.595" y2="83.005"/>
<rect x="12.75" y="74.75" fill="#FF0000" width="11.25" height="8.5"/>
<rect x="75.75" y="74.75" fill="#FF0000" width="11.25" height="8.5"/>
</svg>
