<?xml version="1.0" encoding="utf-8"?>
<!-- Generator: Adobe Illustrator 15.0.0, SVG Export Plug-In . SVG Version: 6.00 Build 0)  -->
<!DOCTYPE svg PUBLIC "-//W3C//DTD SVG 1.1//EN" "http://www.w3.org/Graphics/SVG/1.1/DTD/svg11.dtd">
<svg version="1.1" id="Ebene_1" xmlns="http://www.w3.org/2000/svg" xmlns:xlink="http://www.w3.org/1999/xlink" x="0px" y="0px"
	 width="100px" height="100px" viewBox="0 0 100 100" enable-background="new 0 0 100 100" xml:space="preserve">
<rect y="-0.101" fill-rule="evenodd" clip-rule="evenodd" fill="#FF0000" width="100" height="100"/>
<rect x="5.636" y="4.899" fill-rule="evenodd" clip-rule="evenodd" fill="#FFFFF0" width="90" height="90"/>
<circle fill="#FFFFF0" cx="50.635" cy="38.123" r="4.13"/>
<polygon fill="#FF0000" points="71.333,85.799 28.667,85.799 28.667,23.132 50.636,11.798 71.333,23.132 "/>
<path fill="#FFFFF0" d="M45.941,41.625h-9.158V29.28c0,0,0.643-2.918,4.579-2.918s4.579,2.918,4.579,2.918V41.625z"/>
<path fill="#FFFFF0" d="M63.055,41.625h-9.158V29.28c0,0,0.643-2.918,4.58-2.918c3.936,0,4.578,2.918,4.578,2.918V41.625z"/>
<path fill="#FFFFF0" d="M46.022,61.914h-9.158V49.57c0,0,0.643-2.918,4.579-2.918s4.579,2.918,4.579,2.918V61.914z"/>
<path fill="#FFFFF0" d="M63.136,61.914h-9.158V49.57c0,0,0.643-2.918,4.58-2.918c3.936,0,4.578,2.918,4.578,2.918V61.914z"/>
</svg>
