<?xml version="1.0" encoding="utf-8"?>
<!-- Generator: Adobe Illustrator 15.0.0, SVG Export Plug-In . SVG Version: 6.00 Build 0)  -->
<!DOCTYPE svg PUBLIC "-//W3C//DTD SVG 1.1//EN" "http://www.w3.org/Graphics/SVG/1.1/DTD/svg11.dtd">
<svg version="1.1" id="Ebene_3" xmlns="http://www.w3.org/2000/svg" xmlns:xlink="http://www.w3.org/1999/xlink" x="0px" y="0px"
	 width="100px" height="100px" viewBox="0 0 100 100" enable-background="new 0 0 100 100" xml:space="preserve">
<rect fill-rule="evenodd" clip-rule="evenodd" fill="#FF0000" width="100" height="100"/>
<rect x="5" y="5" fill-rule="evenodd" clip-rule="evenodd" fill="#FFFFF0" width="90" height="90"/>
<polyline fill="none" stroke="#FF0000" stroke-width="8" points="49.292,61.184 49.292,33.594 77.881,26.996 "/>
<line fill="none" stroke="#FF0000" stroke-width="8" x1="62.286" y1="43.89" x2="73.375" y2="40.927"/>
<line fill="none" stroke="#FF0000" stroke-width="8" x1="37.896" y1="44.09" x2="25.9" y2="40.491"/>
<polyline fill="#FF0000" points="48.292,78.477 70.483,63.482 35.297,69.88 "/>
<path fill="#FF0000" d="M52.89,91.672c-1.778,0-8.201-0.694-9.596-1c-5.969-1.307-15.308-6.309-20.992-15.994
	c-5.474-9.326-7.192-19.941-7.397-21.791c-0.199-1.797-0.934-43.636-1-45.383l-0.024-0.631l0.62,0.122
	c0.142,0.028,14.294,2.798,25.72,3.39c4.572,0.237,9.72,0.362,14.889,0.362c6.668,0,12.875-0.204,17.029-0.56
	c6.863-0.588,11.66-1.057,11.74-1.083l5.598-1.399l2.799-0.8c-0.018,0.364-1.01,40.251-2,47.782
	c-0.951,7.215-3.581,14.062-6.397,18.393c-2.557,3.933-7.33,9.197-9.796,11.196C66.685,90.272,58.638,91.672,52.89,91.672z
	 M16.904,14.901c0.199,5.304,1.417,35.744,1.599,37.385c0.171,1.546,1.558,10.123,6.998,19.393
	c5.492,9.356,15.189,12.417,20.999,13.688c1.325,0.29,2.861,0.437,4.567,0.437c5.375,0,11.475-1.507,13.482-2.588
	C67,81.896,75.481,73.479,77.48,68.48c1.862-4.657,2.869-7.328,3.799-14.395c0.908-6.905,1.941-32.863,2.199-37.986
	c-2.127,0.632-1.795-0.097-7.598,0.4c-4.182,0.358-8.299,0.6-14.994,0.6c-5.184,0-15.804,0.037-20.392-0.2
	C30.364,16.375,19.771,15.441,16.904,14.901z"/>
</svg>
