<?xml version="1.0" encoding="utf-8"?>
<!-- Generator: Adobe Illustrator 15.0.0, SVG Export Plug-In . SVG Version: 6.00 Build 0)  -->
<!DOCTYPE svg PUBLIC "-//W3C//DTD SVG 1.1//EN" "http://www.w3.org/Graphics/SVG/1.1/DTD/svg11.dtd">
<svg version="1.1" id="Ebene_1" xmlns="http://www.w3.org/2000/svg" xmlns:xlink="http://www.w3.org/1999/xlink" x="0px" y="0px"
	 width="100px" height="100px" viewBox="0 0 100 100" enable-background="new 0 0 100 100" xml:space="preserve">
<rect x="-0.001" fill-rule="evenodd" clip-rule="evenodd" fill="#FF0000" width="100.002" height="100"/>
<polygon fill="#FFFFF0" points="5,5 95,5 95,95 5,95 5,5 "/>
<path fill-rule="evenodd" clip-rule="evenodd" fill="#FF0000" d="M26.748,74.42c0,1.526-1.677-1.064-2.133-2.892
	c-0.457-1.83-1.22-4.266-1.22-4.266s-0.762-1.981-0.455-3.657c0.304-1.674,2.283-5.178,3.808-5.789
	c1.522-0.609,7.567-0.302,8.328-0.302c0.762,0,0-2.59-1.98-3.962c-1.979-1.372-7.312-3.199-9.291-6.55
	c-1.981-3.351-7.721-9.517-6.808-10.583c0.914-1.067,4.217,0.074,4.217,0.074s-1.37-9.901-0.761-13.254
	c0.609-3.35,2.483-10.839,3.352-11.987c0.872-1.15,1.879-1.87,3.199-1.522c0.836,0.221-0.224,9.032,0.624,9.366
	c1.188,0.467,3.039-5.609,4.534-5.685c1.38-0.067-0.006,4.7,5.351,4.041c0.783-0.097-0.52,5.424,0.353,6.565
	c0.584,0.765,3.282-4.082,4.006-3.199c0.912,1.113-1.644,6.545,3.598,5.181c1.701,2.358-0.91,11.109-0.714,11.798
	c0.609,2.133,4.641,8.662,4.641,8.662s2.287,2.438,2.435,0.305c0.153-2.132,2.178-12.212,3.697-15.411
	c1.525-3.198,3.66-7.993,4.78-10.092c1.575-2.953,3.254-9.292,3.254-9.292s0-1.981,2.283-1.372c0.8,0.212-0.843,6.127,0.129,6.478
	c1.827,0.655,4.036-6.889,5.327-5.103c0.456,0.63,0.622,3.974,4.239,2.369c0.701,0.812-1.163,3.973-0.72,5.326
	c0.252,0.772,2.683-1.706,3.023-1.008c0.538,1.092-3.62,5.994-3.559,7.524c0.052,1.286,3.931-2.384,4.564-1.621
	c0.428,0.508-0.439,2.956-0.511,3.249c-0.916,3.656-2.135,7.464-2.743,8.988c-0.609,1.522-2.135,2.893-2.437,5.94
	c-0.308,3.046,0.153,5.635-1.218,7.92c-1.372,2.285-5.026,6.247-9.598,7.921c-4.571,1.676,2.282,2.743,3.809,2.743
	c1.522,0,7.77-2.438,9.748-2.743c1.98-0.305,9.901-2.282,13.101-1.219c3.199,1.067,4.112,2.286,2.743,5.331
	c-1.371,3.049-5.942,7.312-7.924,8.226c-1.98,0.913-9.139,5.638-11.729,5.789c-2.59,0.153-5.484-1.827-6.703-3.046
	c-1.218-1.221-5.33-3.962-8.68-1.676c-3.354,2.285-3.809,4.417-5.334,6.552c-1.522,2.132-1.37,2.74-3.504,3.654
	c-2.132,0.913-2.589,0-3.352,1.218c-0.761,1.218,1.677,2.59,1.372,3.808c-0.305,1.219-2.285,1.219-2.59-0.455
	c-0.305-1.676-1.102-3.66-2.018-3.98c-1.026-0.354-0.888,0.117-1.599,1.28c-0.99,1.621,0.318,4.466-0.442,4.921
	c-0.654,0.395-1.388-5.001-4.435-3.937c-3.045,1.067-5.311,1.919-4.867,0.246c0.333-1.259,2.264-3.347,3.611-3.328
	c0.541,0.006,1.219,0.228,1.828-0.535c0.609-0.76,3.656-4.113,3.961-5.636c0.304-1.522,0.255-3.833-1.066-5.484
	c-2.133-2.664-7.719-1.369-9.091-0.305C27.813,71.07,26.748,72.897,26.748,74.42z"/>
</svg>
