<?xml version="1.0" encoding="utf-8"?>
<!-- Generator: Adobe Illustrator 15.0.0, SVG Export Plug-In . SVG Version: 6.00 Build 0)  -->
<!DOCTYPE svg PUBLIC "-//W3C//DTD SVG 1.1//EN" "http://www.w3.org/Graphics/SVG/1.1/DTD/svg11.dtd">
<svg version="1.1" id="Ebene_3" xmlns="http://www.w3.org/2000/svg" xmlns:xlink="http://www.w3.org/1999/xlink" x="0px" y="0px"
	 width="100px" height="100px" viewBox="0 0 100 100" enable-background="new 0 0 100 100" xml:space="preserve">
<rect fill-rule="evenodd" clip-rule="evenodd" fill="#FF0000" width="100" height="100"/>
<rect x="5" y="5" fill-rule="evenodd" clip-rule="evenodd" fill="#FFFFF0" width="90" height="90"/>
<path fill-rule="evenodd" clip-rule="evenodd" fill="#FF0000" d="M84.99,33.612c8.858,19.489,0.886,42.52-18.603,51.378
	s-42.52,0.886-51.378-18.603c-8.858-19.488-0.886-42.52,18.602-51.378C53.101,6.151,76.132,14.124,84.99,33.612L84.99,33.612z"/>
<path fill-rule="evenodd" clip-rule="evenodd" fill="#FFFFF0" d="M80.561,50.442c0,15.945-13.287,29.232-31.004,29.232
	c-16.831,0-30.118-13.287-30.118-29.232c0-16.831,13.288-30.118,30.118-30.118C67.273,20.325,80.561,33.612,80.561,50.442
	L80.561,50.442z"/>
<polygon fill="#FF0000" points="34.498,7.923 72.588,88.533 65.502,92.076 27.411,11.466 "/>
<polygon fill="#FF0000" points="7.923,65.502 88.533,27.411 92.076,34.498 11.466,72.588 "/>
<polygon fill="#FF0000" points="7.923,31.84 94.734,61.072 92.076,68.159 5.266,38.927 "/>
<polygon fill="#FF0000" points="70.816,8.809 36.27,93.849 29.183,91.19 63.73,6.151 "/>
</svg>
