<?xml version="1.0" encoding="utf-8"?>
<!-- Generator: Adobe Illustrator 15.0.0, SVG Export Plug-In . SVG Version: 6.00 Build 0)  -->
<!DOCTYPE svg PUBLIC "-//W3C//DTD SVG 1.1//EN" "http://www.w3.org/Graphics/SVG/1.1/DTD/svg11.dtd">
<svg version="1.1" id="Ebene_1" xmlns="http://www.w3.org/2000/svg" xmlns:xlink="http://www.w3.org/1999/xlink" x="0px" y="0px"
	 width="100px" height="100px" viewBox="0 0 100 100" enable-background="new 0 0 100 100" xml:space="preserve">
<rect fill-rule="evenodd" clip-rule="evenodd" fill="#FF0000" width="100" height="100"/>
<g>
	<polygon fill="#FFFFF0" points="5,5 95,5 95,95 5,95 5,5 	"/>
	<path fill="#FFFFF0" d="M50,50.001"/>
</g>
<g>
	<circle fill="#FF0000" cx="58.133" cy="17.479" r="10.631"/>
	<path fill="#FF0000" d="M58.133,17.479"/>
</g>
<path fill-rule="evenodd" clip-rule="evenodd" fill="#FF0000" d="M55.802,29.68c0,0-3.089,5.071-3.19,6.263
	c-0.396,4.783,0.283,15.742,0.283,15.742s-1.297,4.083-2.892,6.87c-1.064,1.863-6.075,2.694-8.865,3.094
	c-2.789,0.4-9.166,1-9.963,8.77c-0.798,7.771-0.399,12.554,0.797,14.547c1.195,1.993-1.493-2.584-6.872-2.584
	c-5.378,0-8.072,0.591-10.862,1.388c-2.792,0.796,0.449,7.858,19.728,5.183c1.58-0.222,10.166,4.383,15.545,3.983
	c5.378-0.396,13.597,3.393,8.168-1.594c-7.581-6.964-13.35-4.383-19.728-4.783c-6.377-0.399,16.141-2.593,18.134-7.173
	c1.993-4.583-1.122,1.507,1.193,3.587c4.51,4.042,18.336,2.79,18.336,2.79l-13.152-8.755l0.797-11.372
	c0,0,1.196-12.159,0.399-16.342c-0.8-4.183-4.783-12.155-3.986-14.546s-1.993-6.263-1.993-6.263L55.802,29.68z"/>
</svg>
