<?xml version="1.0" encoding="utf-8"?>
<!-- Generator: Adobe Illustrator 15.0.0, SVG Export Plug-In . SVG Version: 6.00 Build 0)  -->
<!DOCTYPE svg PUBLIC "-//W3C//DTD SVG 1.1//EN" "http://www.w3.org/Graphics/SVG/1.1/DTD/svg11.dtd">
<svg version="1.1" id="Ebene_1" xmlns="http://www.w3.org/2000/svg" xmlns:xlink="http://www.w3.org/1999/xlink" x="0px" y="0px"
	 width="100px" height="100px" viewBox="0 0 100 100" enable-background="new 0 0 100 100" xml:space="preserve">
<rect fill-rule="evenodd" clip-rule="evenodd" fill="#FF0000" width="100" height="100"/>
<path fill-rule="evenodd" clip-rule="evenodd" fill="#FFFFF0" d="M88.771,23.318c-4.331-2.756-14.174-6.786-20.08-8.36
	c-5.905-1.575-15.749-1.575-21.852,0.196c-5.76,1.671-23.624,11.024-23.624,11.024L9.042,17.123l5.512,12.205L9.83,43.502
	c0,0,12.993-11.418,12.993-11.812s19.079,7.896,24.017,9.449c10.631,3.347,20.08,1.575,25.593,0
	c5.511-1.575,16.535-8.951,16.535-8.951l-5.512-4.238L88.771,23.318z"/>
<path fill="#FF0000" d="M70.171,24.699c0-2.221,1.8-4.018,4.021-4.018c2.214,0,4.017,1.797,4.017,4.018
	c0,2.218-1.803,4.017-4.017,4.017C71.971,28.716,70.171,26.917,70.171,24.699z"/>
<path fill-rule="evenodd" clip-rule="evenodd" fill="#FFFFF0" d="M9.25,61.708c4.331-2.756,14.174-6.785,20.08-8.36
	c5.906-1.575,15.75-1.575,21.853,0.197c5.759,1.673,23.624,11.023,23.624,11.023l14.174-9.056l-5.513,12.205l4.725,14.174
	c0,0-12.993-11.417-12.993-11.812c0-0.394-19.079,7.896-24.017,9.449c-10.632,3.347-20.081,1.575-25.593,0
	c-5.512-1.574-16.536-8.95-16.536-8.95l5.512-4.239L9.25,61.708z"/>
<circle fill="#FF0000" cx="23.832" cy="63.092" r="4.018"/>
</svg>
