<?xml version="1.0" encoding="utf-8"?>
<!-- Generator: Adobe Illustrator 15.0.0, SVG Export Plug-In . SVG Version: 6.00 Build 0)  -->
<!DOCTYPE svg PUBLIC "-//W3C//DTD SVG 1.1//EN" "http://www.w3.org/Graphics/SVG/1.1/DTD/svg11.dtd">
<svg version="1.1" id="Ebene_1" xmlns="http://www.w3.org/2000/svg" xmlns:xlink="http://www.w3.org/1999/xlink" x="0px" y="0px"
	 width="100px" height="100px" viewBox="0 0 100 100" enable-background="new 0 0 100 100" xml:space="preserve">
<g id="Ebene_2">
	<rect fill="#FF0000" width="100" height="100"/>
</g>
<rect x="5" y="5" fill="#FFFFF0" width="90" height="90"/>
<path fill="none" stroke="#FF0000" stroke-width="6" d="M13,90V40l37-30l37,30v50"/>
<path fill="#FF0000" d="M20.227,53.766l17.636-4.055l4.409,16.224L20.227,53.766z"/>
<path fill="#FF0000" d="M69.804,40.105L66.67,57.927L50.01,55.67L69.804,40.105z"/>
<path fill="#FF0000" d="M57.858,86.912L46.132,73.13l12.366-11.391L57.858,86.912z"/>
<polyline fill="none" stroke="#FF0000" stroke-width="8" stroke-linejoin="bevel" points="59.906,49.016 49.5,35.407 41.717,46.886 
	"/>
<polyline fill="none" stroke="#FF0000" stroke-width="8" stroke-linejoin="bevel" points="32.72,57.488 24.227,75 41.717,75 "/>
<polyline fill="none" stroke="#FF0000" stroke-width="8" stroke-linejoin="bevel" points="54.512,75 77.178,75 69.488,62.459 "/>
</svg>
