<?xml version="1.0" encoding="utf-8"?>
<!-- Generator: Adobe Illustrator 15.0.0, SVG Export Plug-In . SVG Version: 6.00 Build 0)  -->
<!DOCTYPE svg PUBLIC "-//W3C//DTD SVG 1.1//EN" "http://www.w3.org/Graphics/SVG/1.1/DTD/svg11.dtd">
<svg version="1.1" id="Ebene_1" xmlns="http://www.w3.org/2000/svg" xmlns:xlink="http://www.w3.org/1999/xlink" x="0px" y="0px"
	 width="100px" height="100px" viewBox="0 0 100 100" enable-background="new 0 0 100 100" xml:space="preserve">
<g id="Ebene_2">
	<rect fill="#FF0000" width="100" height="100"/>
</g>
<rect x="5" y="5" fill="#FFFFF0" width="90" height="90"/>
<path fill="none" stroke="#FF0000" stroke-width="6" d="M13,90V30l37-20l37,20v60"/>
<path fill="#FF0000" d="M81.207,36.608l-3.736,18.684l-18.685-3.735L81.207,36.608z"/>
<path fill="#FF0000" d="M18.86,73.998l3.737-18.684l18.683,3.737L18.86,73.998z"/>
<path fill="none" stroke="#FF0000" stroke-width="7.4849" d="M69.604,47.172c-2.903-8.229-8.762-14.43-19.569-14.43
	c-10.809,0-16.948,6.583-19.57,14.43"/>
<path fill="none" stroke="#FF0000" stroke-width="7.4849" d="M69.209,64.266c-2.902,8.229-8.762,14.43-19.569,14.43
	c-10.808,0-16.948-6.584-19.57-14.43"/>
</svg>
