<?xml version="1.0" encoding="utf-8"?>
<!-- Generator: Adobe Illustrator 15.0.0, SVG Export Plug-In . SVG Version: 6.00 Build 0)  -->
<!DOCTYPE svg PUBLIC "-//W3C//DTD SVG 1.1//EN" "http://www.w3.org/Graphics/SVG/1.1/DTD/svg11.dtd">
<svg version="1.1" id="Ebene_1" xmlns="http://www.w3.org/2000/svg" xmlns:xlink="http://www.w3.org/1999/xlink" x="0px" y="0px"
	 width="100px" height="100px" viewBox="0 0 100 100" enable-background="new 0 0 100 100" xml:space="preserve">
<rect fill-rule="evenodd" clip-rule="evenodd" fill="#FF0000" width="100" height="100"/>
<rect x="5" y="5" fill-rule="evenodd" clip-rule="evenodd" fill="#FFFFF0" width="90" height="90"/>
<polygon fill="#FF0000" points="71.813,84.436 65.513,91.035 65.513,60.738 71.813,55.938 "/>
<g>
	<rect x="19.5" y="60.203" fill="#FF0000" width="44.742" height="33.297"/>
	<path fill="#FFFFF0" d="M62.742,61.703V92H21V61.703H62.742 M65.742,58.703h-3H21h-3v3V92v3h3h41.742h3v-3V61.703V58.703
		L65.742,58.703z"/>
</g>
<polygon fill="#FF0000" points="72.295,51.504 32.695,51.504 21,58.703 62.742,58.703 "/>
<line fill="#FF0000" stroke="#FFFFF0" stroke-width="3" x1="33.449" y1="55.104" x2="59.696" y2="55.104"/>
<g>
	<polygon fill="#FFFFF0" stroke="#FF0000" stroke-width="3" points="78.172,30.253 51.143,57.198 43.273,57.088 27.723,41.489 
		58.643,10.665 	"/>
	<polygon fill="none" stroke="#FF0000" stroke-width="3" points="56.751,12.462 54.539,37.541 29.602,39.677 	"/>
	<line fill="none" stroke="#FF0000" stroke-width="3" x1="46.957" y1="57.359" x2="46.957" y2="37.264"/>
	<line fill="none" stroke="#FF0000" stroke-width="3" x1="77.707" y1="31.054" x2="54.283" y2="31.019"/>
</g>
</svg>
