<?xml version="1.0" encoding="utf-8"?>
<!-- Generator: Adobe Illustrator 15.0.0, SVG Export Plug-In . SVG Version: 6.00 Build 0)  -->
<!DOCTYPE svg PUBLIC "-//W3C//DTD SVG 1.1//EN" "http://www.w3.org/Graphics/SVG/1.1/DTD/svg11.dtd">
<svg version="1.1" id="Ebene_1" xmlns="http://www.w3.org/2000/svg" xmlns:xlink="http://www.w3.org/1999/xlink" x="0px" y="0px"
	 width="100px" height="100px" viewBox="0 0 100 100" enable-background="new 0 0 100 100" xml:space="preserve">
<rect fill-rule="evenodd" clip-rule="evenodd" fill="#FF0000" width="100" height="100"/>
<polygon fill="#FFFFF0" points="5,5 95,5 95,95 5,95 5,5 "/>
<path fill-rule="evenodd" clip-rule="evenodd" fill="#FF0000" stroke="#FF0000" stroke-width="0.216" stroke-miterlimit="10" d="
	M60.332,54.201c0,21.445-4.983,39.088-10.332,39.088c-5.35,0-10.332-17.455-10.332-38.9c0-7.665,0.321-14.596,1.276-20.614
	C42.663,22.949,46.562,5.797,50,5.797c3.436,0,7.452,17.623,9.068,27.977C60.009,39.8,60.332,46.53,60.332,54.201z"/>
<line fill="none" stroke="#FF0000" stroke-width="5" stroke-miterlimit="10" x1="30.107" y1="72.734" x2="69.301" y2="29.735"/>
<path fill-rule="evenodd" clip-rule="evenodd" fill="#FF0000" stroke="#E2001A" stroke-width="0.216" stroke-miterlimit="10" d="
	M66.683,32.667c2,2.089,7.559-1.313,13.665-7.502c3.095-4.31-2.766-10.267-7.008-6.404C67.665,25.412,64.68,30.578,66.683,32.667z"
	/>
<path fill-rule="evenodd" clip-rule="evenodd" fill="#FF0000" stroke="#E2001A" stroke-width="0.216" stroke-miterlimit="10" d="
	M33.205,69.152c-2.022-2.068-7.544,1.393-13.581,7.65c-3.049,4.344,2.876,10.236,7.076,6.328
	C32.302,76.418,35.231,71.219,33.205,69.152z"/>
<path fill-rule="evenodd" clip-rule="evenodd" fill="#FFFFF0" d="M56.019,55.879c0,5.504-2.901,10.031-6.018,10.031
	c-3.118,0-6.02-4.48-6.02-9.982c0-1.967,0.186-3.744,0.742-5.29c1.002-2.777,3.272-7.179,5.277-7.179
	c2.001,0,4.34,4.522,5.281,7.179C55.83,52.184,56.019,53.912,56.019,55.879z"/>
<path fill="#FF0000" d="M14.021,24.286L14.021,24.286v-4.432l-7.435,6.647l7.435,8.866v-4.434l0,0V24.286z M14.021,24.286
	 M14.021,22.068 M10.305,24.286 M10.305,30.933 M14.021,33.149 M14.021,30.933 M14.021,26.501"/>
<rect x="14.021" y="24.286" fill-rule="evenodd" clip-rule="evenodd" fill="#FF0000" width="20.442" height="6.647"/>
<path fill="#FF0000" d="M86.095,79.063L86.095,79.063v4.432l7.435-6.646l-7.435-8.866v4.435l0,0V79.063z M86.095,79.063
	 M86.095,81.281 M89.812,79.063 M89.812,72.417 M86.095,70.2 M86.095,72.417 M86.095,76.849"/>
<rect x="65.652" y="72.417" fill-rule="evenodd" clip-rule="evenodd" fill="#FF0000" width="20.442" height="6.646"/>
</svg>
