<?xml version="1.0" encoding="utf-8"?>
<!-- Generator: Adobe Illustrator 15.0.0, SVG Export Plug-In . SVG Version: 6.00 Build 0)  -->
<!DOCTYPE svg PUBLIC "-//W3C//DTD SVG 1.1//EN" "http://www.w3.org/Graphics/SVG/1.1/DTD/svg11.dtd">
<svg version="1.1" id="Ebene_1" xmlns="http://www.w3.org/2000/svg" xmlns:xlink="http://www.w3.org/1999/xlink" x="0px" y="0px"
	 width="100px" height="100px" viewBox="0 0 100 100" enable-background="new 0 0 100 100" xml:space="preserve">
<rect fill="#FF0000" width="100" height="100"/>
<rect x="20" y="10" fill="#FFFFF0" width="60" height="70"/>
<path fill="#FF0000" d="M54,10v70h11V10H54z"/>
<path fill="#FFFFF0" d="M54,80c-1.334,8,2,13,10,15l-2-9c4,4,7.334,5.334,10,4c-4-2.666-6.334-6-7-10H54z"/>
<g>
	<circle fill="#FF0000" cx="60" cy="55" r="5"/>
	<circle fill="#FF0000" cx="52" cy="59" r="5"/>
	<circle fill="#FF0000" cx="68" cy="59" r="5"/>
	<circle fill="#FF0000" cx="50" cy="65" r="5"/>
	<circle fill="#FF0000" cx="70" cy="65" r="5"/>
	<circle fill="#FF0000" cx="52" cy="71" r="5"/>
	<circle fill="#FF0000" cx="68" cy="71" r="5"/>
	<circle fill="#FF0000" cx="60" cy="75" r="5"/>
	<circle fill="#FFFFF0" cx="60" cy="65" r="8"/>
</g>
</svg>
