<?xml version="1.0" encoding="utf-8"?>
<!-- Generator: Adobe Illustrator 15.0.0, SVG Export Plug-In . SVG Version: 6.00 Build 0)  -->
<!DOCTYPE svg PUBLIC "-//W3C//DTD SVG 1.1//EN" "http://www.w3.org/Graphics/SVG/1.1/DTD/svg11.dtd">
<svg version="1.1" id="Ebene_1" xmlns="http://www.w3.org/2000/svg" xmlns:xlink="http://www.w3.org/1999/xlink" x="0px" y="0px"
	 width="100px" height="100px" viewBox="0 0 100 100" enable-background="new 0 0 100 100" xml:space="preserve">
<rect fill-rule="evenodd" clip-rule="evenodd" fill="#FF0000" width="100" height="100"/>
<polygon fill="#FFFFF0" points="5,5 95,5 95,95 5,95 5,5 "/>
<path fill-rule="evenodd" clip-rule="evenodd" fill="#FFFFF0" stroke="#FF0000" stroke-width="10" stroke-miterlimit="10" d="
	M49.687,35.313c6.249,0,11.251-5.313,11.251-11.563c0-6.563-5.002-11.563-11.251-11.563c-6.25,0-11.563,5-11.563,11.563
	C38.123,30,43.437,35.313,49.687,35.313z"/>
<rect x="41.561" y="37.5" fill-rule="evenodd" clip-rule="evenodd" fill="#FF0000" width="16.251" height="56.25"/>
<path fill-rule="evenodd" clip-rule="evenodd" fill="#FF0000" stroke="#FF0000" stroke-width="0.9375" stroke-miterlimit="10" d="
	M58.126,93.751c0,0,9.687-5,13.749-8.126c3.749-3.124,12.811-13.436,15.001-16.874c2.187-3.438,3.123-5.313,4.06-8.75
	c1.25-3.438,1.564-5,1.564-5s-1.564,1.563-4.377,3.75c-2.812,2.187-8.437,7.188-13.124,10.313
	c-4.688,2.812-9.688,6.249-12.813,7.188c-3.124,0.937-4.06,0.937-4.06,0.937V93.751z"/>
<path fill-rule="evenodd" clip-rule="evenodd" fill="#FF0000" stroke="#FF0000" stroke-width="0.9375" stroke-miterlimit="10" d="
	M41.249,93.439c0,0-10.001-5.003-13.75-8.126c-3.751-3.126-12.813-13.438-15-16.563c-2.187-3.438-3.126-5.627-4.063-9.064
	c-1.25-3.123-1.562-4.998-1.562-4.998s1.562,1.561,4.374,3.75c2.813,2.188,8.437,7.5,13.124,10.313
	c4.377,3.124,9.376,6.25,12.813,7.188c3.127,1.25,4.063,1.25,4.063,1.25V93.439z"/>
</svg>
