<?xml version="1.0" encoding="utf-8"?>
<!-- Generator: Adobe Illustrator 15.0.0, SVG Export Plug-In . SVG Version: 6.00 Build 0)  -->
<!DOCTYPE svg PUBLIC "-//W3C//DTD SVG 1.1//EN" "http://www.w3.org/Graphics/SVG/1.1/DTD/svg11.dtd">
<svg version="1.1" id="Ebene_1" xmlns="http://www.w3.org/2000/svg" xmlns:xlink="http://www.w3.org/1999/xlink" x="0px" y="0px"
	 width="100px" height="100px" viewBox="0 0 100 100" enable-background="new 0 0 100 100" xml:space="preserve">
<rect fill-rule="evenodd" clip-rule="evenodd" fill="#FF0000" width="100" height="100"/>
<polygon fill-rule="evenodd" clip-rule="evenodd" fill="#FFFFF0" points="50.001,9.94 95.182,40.059 87.049,40.059 87.049,90.061 
	12.952,90.061 12.952,40.059 4.818,40.059 "/>
<path fill-rule="evenodd" clip-rule="evenodd" fill="#FF0000" stroke="#FF0000" stroke-width="0.9036" stroke-miterlimit="10" d="
	M45.181,84.336c0,0-7.229-3.613-9.94-6.022c-2.71-2.108-9.337-9.639-10.843-11.748c-1.505-2.408-2.107-4.217-3.013-6.324
	c-0.603-2.41-0.903-3.615-0.903-3.615s1.205,0.904,3.013,2.409c2.108,1.809,6.024,5.422,9.338,7.53
	c3.313,2.109,6.927,4.519,9.337,5.121c2.108,0.904,3.012,0.904,3.012,0.904V84.336z"/>
<path fill-rule="evenodd" clip-rule="evenodd" fill="#FFFFF0" stroke="#FF0000" stroke-width="7" stroke-miterlimit="10" d="
	M50.903,42.47c4.519,0,8.132-3.616,8.132-8.132c0-4.519-3.613-8.435-8.132-8.435c-4.216,0-7.831,3.916-7.831,8.435
	C43.072,38.854,46.688,42.47,50.903,42.47z"/>
<rect x="45.181" y="44.277" fill-rule="evenodd" clip-rule="evenodd" fill="#FF0000" stroke="#FF0000" stroke-width="0.9036" stroke-miterlimit="10" width="11.747" height="40.362"/>
<path fill-rule="evenodd" clip-rule="evenodd" fill="#FF0000" stroke="#FF0000" stroke-width="0.9036" stroke-miterlimit="10" d="
	M57.23,84.336c0,0,6.926-3.613,9.637-5.721c2.711-2.41,9.338-9.64,10.845-12.05c1.506-2.408,2.408-3.916,3.011-6.324
	c0.604-2.41,0.905-3.615,0.905-3.615s-0.905,1.205-3.014,2.71c-2.107,1.508-6.023,5.121-9.337,7.229
	c-3.313,2.109-6.929,4.519-9.037,5.423c-2.408,0.603-3.313,0.603-3.313,0.603L57.23,84.336z"/>
</svg>
