<?xml version="1.0" encoding="utf-8"?>
<!-- Generator: Adobe Illustrator 15.0.0, SVG Export Plug-In . SVG Version: 6.00 Build 0)  -->
<!DOCTYPE svg PUBLIC "-//W3C//DTD SVG 1.1//EN" "http://www.w3.org/Graphics/SVG/1.1/DTD/svg11.dtd">
<svg version="1.1" id="Ebene_1" xmlns="http://www.w3.org/2000/svg" xmlns:xlink="http://www.w3.org/1999/xlink" x="0px" y="0px"
	 width="100px" height="100px" viewBox="0 0 100 100" enable-background="new 0 0 100 100" xml:space="preserve">
<rect fill-rule="evenodd" clip-rule="evenodd" fill="#FF0000" width="100" height="100"/>
<polygon fill="#FFFFF0" points="5,5 95,5 95,95 5,95 5,5 "/>
<path fill-rule="evenodd" clip-rule="evenodd" fill="none" stroke="#FF0000" stroke-width="6.25" stroke-miterlimit="10" d="
	M98.436,44.064c-5.311,0-10.313-6.563-15.312-6.563c-6.25,0-11.563,6.563-17.188,6.563c-5.313,0-9.376-6.563-14.686-6.563
	c-5.628,0-10.627,6.563-16.251,6.563c-4.999,0-10.001-6.563-15.001-6.563c-6.249,0-11.562,6.563-17.187,6.563"/>
<path fill-rule="evenodd" clip-rule="evenodd" fill="#FF0000" d="M1.25,80.001l0.312,18.748h48.75h49.063L100,79.689
	c-12.502,0-25.938-19.063-39.376-19.063c-3.749,0.312-6.562,0-10.313,0c-3.124,0-5.625,0-8.751,0
	C28.437,60.938,13.75,80.001,1.25,80.001z"/>
</svg>
