<?xml version="1.0" encoding="utf-8"?>
<!-- Generator: Adobe Illustrator 15.0.0, SVG Export Plug-In . SVG Version: 6.00 Build 0)  -->
<!DOCTYPE svg PUBLIC "-//W3C//DTD SVG 1.1//EN" "http://www.w3.org/Graphics/SVG/1.1/DTD/svg11.dtd">
<svg version="1.1" id="Ebene_1" xmlns="http://www.w3.org/2000/svg" xmlns:xlink="http://www.w3.org/1999/xlink" x="0px" y="0px"
	 width="100px" height="100px" viewBox="0 0 100 100" enable-background="new 0 0 100 100" xml:space="preserve">
<rect fill-rule="evenodd" clip-rule="evenodd" fill="#FF0000" width="100" height="100"/>
<polygon fill="#FFFFF0" points="5,5 95,5 95,95 5,95 5,5 "/>
<line fill-rule="evenodd" clip-rule="evenodd" fill="none" stroke="#FF0000" stroke-width="5.2079" stroke-miterlimit="10" x1="5" y1="5" x2="96.607" y2="96.607"/>
<line fill-rule="evenodd" clip-rule="evenodd" fill="none" stroke="#FF0000" stroke-width="5.2079" stroke-miterlimit="10" x1="95" y1="5" x2="5" y2="95"/>
<path fill-rule="evenodd" clip-rule="evenodd" fill="none" stroke="#FF0000" stroke-width="6.25" stroke-miterlimit="10" d="
	M97.811,88.751c-5.311,0-9.999-6.563-15.312-6.563c-6.25,0-11.563,6.563-17.188,6.563c-5.313,0-9.376-6.563-14.687-6.563
	c-5.627,0.313-10.626,6.563-16.251,6.563c-4.999,0-10.001-6.563-15-6.563c-6.25,0-11.563,6.563-17.187,6.563"/>
<path fill-rule="evenodd" clip-rule="evenodd" fill="none" stroke="#FF0000" stroke-width="6.25" stroke-miterlimit="10" d="
	M97.499,73.439c-5.313,0-10.001-6.563-15.312-6.563c-5.938,0-11.251,6.563-17.188,6.563c-5.002,0-9.376-6.563-14.375-6.563
	c-5.938,0-10.626,6.563-16.251,6.563c-5.313,0-10.001-6.563-15.311-6.563c-5.939,0-11.563,6.563-17.19,6.563"/>
</svg>
