<?xml version="1.0" encoding="utf-8"?>
<!-- Generator: Adobe Illustrator 15.0.0, SVG Export Plug-In . SVG Version: 6.00 Build 0)  -->
<!DOCTYPE svg PUBLIC "-//W3C//DTD SVG 1.1//EN" "http://www.w3.org/Graphics/SVG/1.1/DTD/svg11.dtd">
<svg version="1.1" id="Ebene_1" xmlns="http://www.w3.org/2000/svg" xmlns:xlink="http://www.w3.org/1999/xlink" x="0px" y="0px"
	 width="100px" height="100px" viewBox="0 0 100 100" enable-background="new 0 0 100 100" xml:space="preserve">
<rect fill-rule="evenodd" clip-rule="evenodd" fill="#FF0000" width="100" height="100"/>
<polygon fill="#FFFFF0" points="5,5 95,5 95,95 5,95 5,5 "/>
<rect x="2.499" y="38.751" fill-rule="evenodd" clip-rule="evenodd" fill="#FF0000" width="12.876" height="44.688"/>
<polygon fill-rule="evenodd" clip-rule="evenodd" fill="#FF0000" stroke="#FF0000" stroke-width="0.9375" stroke-miterlimit="10" points="
	92.5,49.375 88.437,66.251 37.498,66.251 24.373,49.063 "/>
<path fill-rule="evenodd" clip-rule="evenodd" fill="#FF0000" stroke="#FF0000" stroke-width="0.9375" stroke-miterlimit="10" d="
	M58.437,24.688c3.749,0,6.875-2.813,6.875-6.562c0-3.438-3.126-6.563-6.875-6.563c-3.438,0-6.563,3.125-6.563,6.563
	C51.873,21.875,54.999,24.688,58.437,24.688z"/>
<path fill-rule="evenodd" clip-rule="evenodd" fill="#FF0000" stroke="#FF0000" stroke-width="0.9375" stroke-miterlimit="10" d="
	M37.187,45.312c0,0,4.374-10.935,5.625-12.811c1.25-1.564,1.562-2.5,2.5-3.126c1.251-0.625,1.251-0.937,3.124-1.25
	c1.876,0,28.75,0,28.75,0s4.688-0.312,5.938,0c0.937,0,1.25,0,1.876,0.625c0.312,0.313,0.625,1.564,0.625,1.875
	c0,0.625,0,1.25-0.625,2.187c-0.939,0.939-1.876,1.876-5.002,2.188C76.874,35,57.5,35,57.5,35l-5.313,10.312H37.187z"/>
<polygon fill-rule="evenodd" clip-rule="evenodd" fill="#FF0000" stroke="#FF0000" stroke-width="0.9375" stroke-miterlimit="10" points="
	76.561,35 62.186,49.063 65.312,49.063 79.375,35 "/>
<path fill-rule="evenodd" clip-rule="evenodd" fill="#FF0000" stroke="#FF0000" stroke-width="0.9375" stroke-miterlimit="10" d="
	M43.437,65.626l-6.561,6.563l4.998,4.063l5.939-6.253c0,0,1.247-0.936,1.562-1.873c0.312-0.938,0.312-1.564,0-2.188
	C49.375,65.313,43.437,65.626,43.437,65.626z"/>
<path fill-rule="evenodd" clip-rule="evenodd" fill="#FF0000" stroke="#FF0000" stroke-width="4" stroke-miterlimit="10" d="
	M5,84.572c6.173,0,6.334-3.01,12.814-3.01c5.248,0,10.187,6.055,15.742,6.055c5.559,0,10.804-6.055,16.67-6.055
	c5.248,0,9.569,6.055,14.816,6.055c6.175,0,11.729-6.055,17.903-6.055c5.249,0,7.719,5.478,12.967,5.478l0.925,9.804L5,96.282
	V84.572z"/>
</svg>
