<?xml version="1.0" encoding="utf-8"?>
<!-- Generator: Adobe Illustrator 15.0.0, SVG Export Plug-In . SVG Version: 6.00 Build 0)  -->
<!DOCTYPE svg PUBLIC "-//W3C//DTD SVG 1.1//EN" "http://www.w3.org/Graphics/SVG/1.1/DTD/svg11.dtd">
<svg version="1.1" id="Ebene_1" xmlns="http://www.w3.org/2000/svg" xmlns:xlink="http://www.w3.org/1999/xlink" x="0px" y="0px"
	 width="100px" height="100px" viewBox="0 0 100 100" enable-background="new 0 0 100 100" xml:space="preserve">
<rect fill-rule="evenodd" clip-rule="evenodd" fill="#FF0000" width="100" height="100"/>
<polygon fill="#FFFFF0" points="5,5 95,5 95,95 5,95 5,5 "/>
<path fill-rule="evenodd" clip-rule="evenodd" fill="#FF0000" stroke="#FF0000" stroke-width="0.6154" stroke-miterlimit="10" d="
	M14.278,91.936l-2.711-2.11c-1.205-1.203-0.603-2.711,0.603-4.216l45.18-49.698l-2.411-9.337c0.303-3.013,1.509-4.218,2.713-5.723
	c2.108-2.411,4.819-4.519,8.734-7.832c1.506-1.206,6.024-5.722,7.229-5.121l1.206,0.603c1.505,1.205,0.601,2.11-0.604,3.313
	c-3.013,2.11-5.423,4.218-7.832,6.326c-2.107,2.108-4.218,3.916-5.723,6.326c-0.301,0.903,3.916,3.313,4.216,4.216L77.23,16.935
	c1.807-1.505,3.916-2.41,4.518-1.808c0.604,0.302-0.3,1.808-1.808,4.218L68.195,31.393c0,0.3,3.914,4.518,4.818,4.518l6.023-5.421
	l5.724-6.326c1.204-1.205,2.108-2.71,2.712-2.41l1.505,1.507c0.903,1.806-3.916,7.529-5.421,8.734
	c-2.108,2.71-6.627,8.734-9.94,9.037l-9.639-0.905L48.615,56.693L18.494,89.825C16.688,91.936,16.086,92.538,14.278,91.936z"/>
<path fill-rule="evenodd" clip-rule="evenodd" fill="#FF0000" stroke="#FF0000" stroke-width="0.6154" stroke-miterlimit="10" d="
	M82.455,90.299l5.422-5.118L15.888,11.083c-3.011-2.71-4.216-1.505-3.613,4.218c0.603,5.724,2.408,11.748,8.432,17.771l9.942,11.145
	l7.228,0.603L82.455,90.299z"/>
</svg>
