<?xml version="1.0" encoding="utf-8"?>
<!-- Generator: Adobe Illustrator 15.0.0, SVG Export Plug-In . SVG Version: 6.00 Build 0)  -->
<!DOCTYPE svg PUBLIC "-//W3C//DTD SVG 1.1//EN" "http://www.w3.org/Graphics/SVG/1.1/DTD/svg11.dtd">
<svg version="1.1" id="Ebene_1" xmlns="http://www.w3.org/2000/svg" xmlns:xlink="http://www.w3.org/1999/xlink" x="0px" y="0px"
	 width="100px" height="100px" viewBox="0 0 100 100" enable-background="new 0 0 100 100" xml:space="preserve">
<rect fill-rule="evenodd" clip-rule="evenodd" fill="#FF0000" width="100" height="100"/>
<rect x="5" y="5" fill-rule="evenodd" clip-rule="evenodd" fill="#FFFFF0" width="90" height="90"/>
<polygon fill-rule="evenodd" clip-rule="evenodd" fill="#FF0000" stroke="#FF0000" points="41.276,50.882 7.252,56.165 
	7.252,43.836 41.276,48.239 41.276,50.882 "/>
<polygon fill-rule="evenodd" clip-rule="evenodd" fill="#FF0000" stroke="#FF0000" points="12.05,69.813 42.149,53.082 
	43.458,54.845 18.593,79.499 12.05,69.813 "/>
<polygon fill-rule="evenodd" clip-rule="evenodd" fill="#FF0000" stroke="#FF0000" points="31.244,88.305 43.458,92.267 
	48.256,57.486 46.074,56.604 31.244,88.305 "/>
<polygon fill-rule="evenodd" clip-rule="evenodd" fill="#FF0000" stroke="#FF0000" points="57.417,91.827 69.63,87.865 
	53.053,56.604 50.873,57.045 57.417,91.827 "/>
<polygon fill-rule="evenodd" clip-rule="evenodd" fill="#FF0000" stroke="#FF0000" points="80.534,79.94 88.824,68.052 
	56.979,53.082 55.671,54.845 80.534,79.94 "/>
<polygon fill-rule="evenodd" clip-rule="evenodd" fill="#FF0000" stroke="#FF0000" points="92.751,55.724 92.751,42.516 
	57.417,47.798 57.417,50.882 92.751,55.724 "/>
<polygon fill-rule="evenodd" clip-rule="evenodd" fill="#FF0000" stroke="#FF0000" points="88.824,30.188 81.409,19.181 
	55.671,44.277 56.979,46.038 88.824,30.188 "/>
<polygon fill-rule="evenodd" clip-rule="evenodd" fill="#FF0000" stroke="#FF0000" points="42.585,45.598 12.486,29.308 
	19.466,19.181 43.895,43.836 42.585,45.598 "/>
<polygon fill-rule="evenodd" clip-rule="evenodd" fill="#FF0000" stroke="#FF0000" points="50.873,42.075 56.544,7.733 
	67.886,11.256 53.053,42.955 50.873,42.075 "/>
<polygon fill-rule="evenodd" clip-rule="evenodd" fill="#FF0000" stroke="#FF0000" points="46.074,42.516 29.935,11.696 
	41.276,7.733 48.256,41.635 46.074,42.516 "/>
</svg>
