<?xml version="1.0" encoding="utf-8"?>
<!-- Generator: Adobe Illustrator 15.0.0, SVG Export Plug-In . SVG Version: 6.00 Build 0)  -->
<!DOCTYPE svg PUBLIC "-//W3C//DTD SVG 1.1//EN" "http://www.w3.org/Graphics/SVG/1.1/DTD/svg11.dtd">
<svg version="1.1" id="Ebene_1" xmlns="http://www.w3.org/2000/svg" xmlns:xlink="http://www.w3.org/1999/xlink" x="0px" y="0px"
	 width="100px" height="100px" viewBox="0 0 100 100" enable-background="new 0 0 100 100" xml:space="preserve">
<rect fill-rule="evenodd" clip-rule="evenodd" fill="#FF0000" width="100" height="100"/>
<polygon fill="#FFFFF0" points="5,5 95,5 95,95 5,95 5,5 "/>
<rect x="2.813" y="16.953" fill-rule="evenodd" clip-rule="evenodd" fill="#FF0000" stroke="#FF0000" stroke-width="4.0313" stroke-miterlimit="10" width="94.687" height="65.084"/>
<path fill="#FFFFF0" d="M7.734,73.561V23.289h10.711c4.06,0,6.705,0.251,7.938,0.754c1.895,0.754,3.48,2.395,4.759,4.921
	c1.277,2.526,1.916,5.79,1.916,9.79c0,3.086-0.368,5.682-1.104,7.785c-0.737,2.104-1.672,3.755-2.808,4.955
	c-1.135,1.2-2.289,1.995-3.461,2.383c-1.594,0.48-3.901,0.721-6.924,0.721h-4.352v18.963H7.734z M14.409,31.793v14.265h3.653
	c2.631,0,4.39-0.262,5.276-0.789c0.888-0.525,1.582-1.349,2.086-2.469c0.503-1.12,0.756-2.423,0.756-3.91
	c0-1.829-0.354-3.337-1.061-4.526c-0.706-1.188-1.601-1.932-2.684-2.229c-0.797-0.228-2.397-0.343-4.803-0.343H14.409z"/>
<path fill="#FFFFF0" d="M45.754,66.325V53.26h-8.659v-9.019h8.659V31.176h5.772v13.065h8.682v9.019h-8.682v13.065H45.754z"/>
<path fill="#FFFFF0" d="M65.53,73.561V23.289h14.048c3.533,0,6.1,0.452,7.701,1.354c1.602,0.903,2.883,2.509,3.845,4.818
	c0.962,2.31,1.443,4.95,1.443,7.921c0,3.772-0.729,6.888-2.188,9.345c-1.458,2.458-3.638,4.007-6.54,4.646
	c1.444,1.281,2.635,2.687,3.575,4.218c0.938,1.532,2.205,4.253,3.8,8.162l4.036,9.807h-7.982l-4.826-10.938
	c-1.714-3.91-2.886-6.373-3.518-7.391c-0.631-1.017-1.301-1.714-2.007-2.091c-0.707-0.378-1.827-0.566-3.36-0.566h-1.353v20.986
	H65.53z M72.205,44.55h4.938c3.201,0,5.201-0.206,5.998-0.617s1.42-1.12,1.872-2.126c0.451-1.006,0.676-2.263,0.676-3.772
	c0-1.692-0.297-3.058-0.891-4.098c-0.594-1.04-1.432-1.697-2.514-1.972c-0.541-0.114-2.166-0.171-4.871-0.171h-5.209V44.55z"/>
</svg>
