<?xml version="1.0" encoding="utf-8"?>
<!-- Generator: Adobe Illustrator 15.0.0, SVG Export Plug-In . SVG Version: 6.00 Build 0)  -->
<!DOCTYPE svg PUBLIC "-//W3C//DTD SVG 1.1//EN" "http://www.w3.org/Graphics/SVG/1.1/DTD/svg11.dtd">
<svg version="1.1" id="Ebene_1" xmlns="http://www.w3.org/2000/svg" xmlns:xlink="http://www.w3.org/1999/xlink" x="0px" y="0px"
	 width="100px" height="100px" viewBox="0 0 100 100" enable-background="new 0 0 100 100" xml:space="preserve">
<rect fill-rule="evenodd" clip-rule="evenodd" fill="#FF0000" width="100" height="100"/>
<polygon fill="#FFFFF0" points="5,5 95,5 95,95 5,95 5,5 "/>
<path fill-rule="evenodd" clip-rule="evenodd" fill="#FF0000" stroke="#FFFFF0" stroke-width="0.9036" stroke-miterlimit="10" d="
	M14.39,31.927c0,0,7.532-15.963,8.435-18.072c0.904-1.808,1.205-2.41,2.411-3.013c0.902-0.603,3.313-0.603,3.313-0.603h29.819
	c0,0,12.65-0.3,14.458,0c2.107,0,2.711,0.903,3.313,1.205c0.603,0.3,1.205,1.205,1.505,2.108c0.604,0.603,9.338,19.277,9.338,19.277
	s1.205,2.11,1.205,3.013c0.303,1.205,0,12.951,0,12.951s0.303,1.205-0.603,2.41c-0.603,1.205-1.506,1.809-6.023,2.107
	c-4.52,0.304-59.639,0.304-61.747,0.304c-2.411,0-2.411-0.304-4.519-0.603c-1.808-0.604-3.313-1.507-3.616-3.314
	c0-1.808,0-9.037,0-10.542c0.302-1.505,0-0.903,0.603-3.313C13.79,33.132,14.39,31.927,14.39,31.927z"/>
<path fill-rule="evenodd" clip-rule="evenodd" fill="#FFFFF0" stroke="#FFFFF0" stroke-width="0.9036" stroke-miterlimit="10" d="
	M21.922,45.48c3.01,0,5.421-2.408,5.421-5.421c0-2.71-2.411-5.119-5.421-5.119c-2.711,0-5.121,2.408-5.121,5.119
	C16.801,43.072,19.211,45.48,21.922,45.48z"/>
<path fill-rule="evenodd" clip-rule="evenodd" fill="#FFFFF0" stroke="#FFFFF0" stroke-width="0.9036" stroke-miterlimit="10" d="
	M78.849,45.48c3.014,0,5.422-2.408,5.422-5.421c0-2.71-2.408-5.119-5.422-5.119c-2.71,0-5.121,2.408-5.121,5.119
	C73.728,43.072,76.139,45.48,78.849,45.48z"/>
<polygon fill-rule="evenodd" clip-rule="evenodd" fill="#FFFFF0" stroke="#FFFFF0" stroke-width="0.9036" stroke-miterlimit="10" points="
	20.716,30.422 27.644,14.758 72.522,14.758 80.055,30.12 "/>
<path fill-rule="evenodd" clip-rule="evenodd" fill="#FF0000" d="M16.801,55.723h9.939c0,3.613,0,7.229,0,10.843
	c0,0.603-0.603,0.904-0.903,0.904c-2.71,0-5.421,0-8.134,0c-0.601,0-0.902-0.302-0.902-0.904V55.723z"/>
<path fill-rule="evenodd" clip-rule="evenodd" fill="#FF0000" d="M73.428,55.723h10.24c0,3.613,0,7.229,0,10.843
	c0,0.603-0.603,0.904-0.903,0.904c-2.71,0-5.421,0-8.132,0c-0.603,0-1.205-0.302-1.205-0.904V55.723z"/>
<line fill-rule="evenodd" clip-rule="evenodd" fill="none" stroke="#FF0000" stroke-width="6.0241" stroke-miterlimit="10" x1="34.789" y1="62.349" x2="65.211" y2="62.349"/>
<line fill-rule="evenodd" clip-rule="evenodd" fill="none" stroke="#FF0000" stroke-width="6.0241" stroke-miterlimit="10" x1="49.85" y1="62.349" x2="49.85" y2="88.855"/>
</svg>
