<?xml version="1.0" encoding="utf-8"?>
<!-- Generator: Adobe Illustrator 15.0.0, SVG Export Plug-In . SVG Version: 6.00 Build 0)  -->
<!DOCTYPE svg PUBLIC "-//W3C//DTD SVG 1.1//EN" "http://www.w3.org/Graphics/SVG/1.1/DTD/svg11.dtd">
<svg version="1.1" id="Ebene_1" xmlns="http://www.w3.org/2000/svg" xmlns:xlink="http://www.w3.org/1999/xlink" x="0px" y="0px"
	 width="100px" height="100px" viewBox="0 0 100 100" enable-background="new 0 0 100 100" xml:space="preserve">
<rect fill-rule="evenodd" clip-rule="evenodd" fill="#FF0000" width="100" height="100"/>
<rect x="5" y="5" fill-rule="evenodd" clip-rule="evenodd" fill="#FFFFF0" width="90" height="90"/>
<polygon fill-rule="evenodd" clip-rule="evenodd" fill="#FF0000" stroke="#FF0000" points="53.355,48.236 87.22,42.006 
	83.154,30.366 52.484,45.741 53.355,48.236 "/>
<polygon fill-rule="evenodd" clip-rule="evenodd" fill="#FF0000" stroke="#FF0000" points="87.189,56.473 53.256,50.601 
	52.603,52.697 84.206,67.774 87.189,56.473 "/>
<polygon fill-rule="evenodd" clip-rule="evenodd" fill="#FF0000" stroke="#FF0000" points="75.165,80.259 64.94,88.026 
	48.943,56.772 50.713,55.22 75.165,80.259 "/>
<polygon fill-rule="evenodd" clip-rule="evenodd" fill="#FF0000" stroke="#FF0000" points="51.617,92.213 38.78,92.5 44.124,57.521 
	46.328,57.219 51.617,92.213 "/>
<polygon fill-rule="evenodd" clip-rule="evenodd" fill="#FF0000" stroke="#FF0000" points="50.378,43.679 73.423,18.376 
	63.494,11.116 48.561,42.447 50.378,43.679 "/>
<polygon fill-rule="evenodd" clip-rule="evenodd" fill="#FF0000" stroke="#FF0000" points="46.067,41.919 51.144,7.502 39.129,7.5 
	43.718,41.807 46.067,41.919 "/>
</svg>
