<?xml version="1.0" encoding="utf-8"?>
<!-- Generator: Adobe Illustrator 15.0.0, SVG Export Plug-In . SVG Version: 6.00 Build 0)  -->
<!DOCTYPE svg PUBLIC "-//W3C//DTD SVG 1.1//EN" "http://www.w3.org/Graphics/SVG/1.1/DTD/svg11.dtd">
<svg version="1.1" id="Ebene_1" xmlns="http://www.w3.org/2000/svg" xmlns:xlink="http://www.w3.org/1999/xlink" x="0px" y="0px"
	 width="100px" height="100px" viewBox="0 0 100 100" enable-background="new 0 0 100 100" xml:space="preserve">
<rect fill-rule="evenodd" clip-rule="evenodd" fill="#FF0000" width="100" height="100"/>
<polygon fill="#FFFFF0" points="5,5 95,5 95,95 5,95 5,5 "/>
<path fill-rule="evenodd" clip-rule="evenodd" fill="#FF0000" d="M8.734,69.879c0-5.422,0-10.844,0-16.264l7.831-3.014
	c3.616-1.205,4.819-5.421,8.133-9.94c-4.517-0.903-9.338-1.505-13.856-2.408c-0.601-3.013-1.505-5.724-2.108-8.434
	c4.519-2.711,9.639-6.326,14.76-6.326c22.892,0,45.182-0.3,67.771-0.3v46.686h-5.421H32.229
	C23.192,69.879,18.977,69.879,8.734,69.879z"/>
<path fill-rule="evenodd" clip-rule="evenodd" fill="#FF0000" d="M43.978,65.06c0-9.638,0-18.977,0-28.916c5.42,0,10.541,0,15.963,0
	c0,9.639,0,19.278,0,28.916C54.519,65.06,49.397,65.06,43.978,65.06z"/>
<polygon fill-rule="evenodd" clip-rule="evenodd" fill="#FFFFF0" points="20.782,53.615 29.519,40.059 40.664,40.059 40.361,53.915 
	"/>
<path fill-rule="evenodd" clip-rule="evenodd" fill="#FFFFF0" d="M51.807,49.096c0-4.216,0-8.435,0-12.953
	c9.037,0,18.074,0,27.108,0c0,4.218,0,8.736,0,12.953C69.881,49.096,60.844,49.096,51.807,49.096z"/>
<path fill-rule="evenodd" clip-rule="evenodd" fill="#FFFFF0" d="M14.801,69.035c0,4.368,4.812,8.115,10.904,8.115
	c5.771,0,10.579-3.747,10.579-8.115c0-4.683-4.809-8.427-10.579-8.427C19.612,60.608,14.801,64.353,14.801,69.035z"/>
<path fill-rule="evenodd" clip-rule="evenodd" fill="#FFFFF0" d="M65.36,69.035c0,4.368,4.812,8.115,10.904,8.115
	c5.771,0,10.579-3.747,10.579-8.115c0-4.683-4.809-8.427-10.579-8.427C70.172,60.608,65.36,64.353,65.36,69.035z"/>
<path fill-rule="evenodd" clip-rule="evenodd" fill="#FF0000" d="M18.373,72.53c0,3.91,3.258,7.17,7.171,7.17
	c3.909,0,7.168-3.26,7.168-7.17c0-3.911-3.259-7.168-7.168-7.168C21.631,65.362,18.373,68.619,18.373,72.53z"/>
<path fill-rule="evenodd" clip-rule="evenodd" fill="#FF0000" d="M69.337,72.964c0,3.91,3.258,7.17,7.171,7.17
	c3.909,0,7.168-3.26,7.168-7.17c0-3.911-3.259-7.168-7.168-7.168C72.595,65.796,69.337,69.053,69.337,72.964z"/>
</svg>
