<?xml version="1.0" encoding="utf-8"?>
<!-- Generator: Adobe Illustrator 15.0.0, SVG Export Plug-In . SVG Version: 6.00 Build 0)  -->
<!DOCTYPE svg PUBLIC "-//W3C//DTD SVG 1.1//EN" "http://www.w3.org/Graphics/SVG/1.1/DTD/svg11.dtd">
<svg version="1.1" id="Ebene_1" xmlns="http://www.w3.org/2000/svg" xmlns:xlink="http://www.w3.org/1999/xlink" x="0px" y="0px"
	 width="100px" height="100px" viewBox="0 0 100 100" enable-background="new 0 0 100 100" xml:space="preserve">
<rect fill-rule="evenodd" clip-rule="evenodd" fill="#FF0000" width="100" height="100"/>
<polygon fill="#FFFFF0" points="5,5 95,5 95,95 5,95 5,5 "/>
<path fill-rule="evenodd" clip-rule="evenodd" fill="#FF0000" stroke="#FF0000" stroke-width="0.9036" stroke-miterlimit="10" d="
	M73.193,14.458c0,0,11.747,37.951,15.361,43.072c3.915,5.421,5.422,7.529,5.422,7.529h-4.52c0,0,0,2.11,3.013,4.519
	c3.014,2.108,4.52,3.013,4.52,3.013v3.313H84.94v9.638h-7.229v-6.927h-2.109c-3.012,0.902-5.12,1.808-8.434,2.107
	c-3.614,0.303-3.915,0.303-3.915,0.303l3.613-2.713c0,0,0.302-0.3,2.41-2.711c2.411-3.313,1.205-3.011,1.205-3.011l-4.82-2.41
	c1.808-1.808,2.713-3.313,3.313-6.024c1.205-3.915,3.615-15.061,3.915-24.095C73.193,31.024,73.193,14.458,73.193,14.458z"/>
<path fill-rule="evenodd" clip-rule="evenodd" fill="#FF0000" d="M16.565,59.639c0-4.519,0-9.035,0-13.253c-2.107,0-4.215,0-6.023,0
	c0-2.108,0-4.216,0-6.024c16.266,0,32.832,0,49.097,0c0,1.809,0,3.916,0,6.024c-2.408,0-4.217,0-6.324,0c0,4.218,0,8.734,0,13.253
	c-2.108,0-3.917,0-5.725,0c0-4.519,0-9.035,0-13.253c-8.434,0-16.866,0-24.697,0c0,4.218,0,8.734,0,13.253
	C20.481,59.639,18.674,59.639,16.565,59.639z"/>
</svg>
