<?xml version="1.0" encoding="utf-8"?>
<!-- Generator: Adobe Illustrator 15.0.0, SVG Export Plug-In . SVG Version: 6.00 Build 0)  -->
<!DOCTYPE svg PUBLIC "-//W3C//DTD SVG 1.1//EN" "http://www.w3.org/Graphics/SVG/1.1/DTD/svg11.dtd">
<svg version="1.1" id="Ebene_1" xmlns="http://www.w3.org/2000/svg" xmlns:xlink="http://www.w3.org/1999/xlink" x="0px" y="0px"
	 width="100px" height="100px" viewBox="0 0 100 100" enable-background="new 0 0 100 100" xml:space="preserve">
<path fill="#0000FF" d="M0,0h100v100H0V0z"/>
<path fill="#FFFFF0" d="M5,5h90v90H5V5z"/>
<path id="path2832" fill="#0000FF" stroke="#0000FF" stroke-width="2.2" d="M17.412,67.725h65.472c0,0-4.7,7.955-11.575,14.104
	C64.65,87.787,60.82,90.51,51.053,90.51c-10.856,0-16.259-2.734-23.513-9.041C19.623,74.585,17.542,68.184,17.412,67.725z"/>
<path id="path2848" fill="none" stroke="#0000FF" stroke-width="6.1749" d="M55.107,68.215c0,0,0.479-16.722,0.479-36.111
	c0-24.479,26.9-23.991,26.9,0.485"/>
<path id="path2848-1" fill="none" stroke="#0000FF" stroke-width="6.1749" d="M45.532,68.184c0,0-0.485-16.721-0.485-36.107
	c0-24.476-26.898-23.991-26.898,0.485"/>
</svg>
