<?xml version="1.0" encoding="utf-8"?>
<!-- Generator: Adobe Illustrator 15.0.0, SVG Export Plug-In . SVG Version: 6.00 Build 0)  -->
<!DOCTYPE svg PUBLIC "-//W3C//DTD SVG 1.1//EN" "http://www.w3.org/Graphics/SVG/1.1/DTD/svg11.dtd">
<svg version="1.1" id="Ebene_1" xmlns="http://www.w3.org/2000/svg" xmlns:xlink="http://www.w3.org/1999/xlink" x="0px" y="0px"
	 width="100px" height="100px" viewBox="0 0 100 100" enable-background="new 0 0 100 100" xml:space="preserve">
<path fill="#0000FF" d="M0,0h100v100H0V0z"/>
<path fill="#FFFFF0" d="M5,5h90v90H5V5z"/>
<path id="path3608" fill="#0000FF" stroke="#0000FF" stroke-width="1.6128" d="M20.595,99.211l-0.014-15.585H49.6V62.573h49.376
	v4.528H55.779l0.254,20.841l-30.1,0.174l0.015,11.095H20.595L20.595,99.211z"/>
<path id="path3624" fill="#0000FF" stroke="#0000FF" stroke-width="3.4999" stroke-linecap="round" stroke-linejoin="round" d="
	M22.657,42.826c0,2.999-2.431,5.429-5.429,5.432c-2.999,0-5.429-2.431-5.429-5.43c0,0,0,0,0-0.002
	c-0.003-2.999,2.428-5.43,5.426-5.432c2.999,0,5.429,2.431,5.432,5.429V42.826z"/>
<path id="path3628" fill="#FFFFFF" stroke="#0000FF" stroke-width="3.9999" stroke-linecap="round" stroke-linejoin="round" d="
	M19.912,10.269c0,1.483-1.199,2.687-2.681,2.687c-1.483,0.003-2.688-1.199-2.688-2.682c0,0,0-0.002,0-0.005
	c-0.002-1.483,1.199-2.685,2.679-2.687c1.482-0.003,2.688,1.199,2.689,2.682C19.912,10.266,19.912,10.266,19.912,10.269z"/>
<path id="path3634" fill="none" stroke="#0000FF" stroke-width="1.8432" d="M19.851,11.043v33.251"/>
<path id="path3636" fill="none" stroke="#0000FF" stroke-width="1.8432" d="M14.543,10.183v32.728"/>
<path id="path3660" fill="none" stroke="#FFFFF0" stroke-width="3.4559" d="M17.203,10.07v32.535"/>
<path id="path3662" fill="#0000FF" stroke="#0000FF" stroke-width="0.6912" d="M14.56,20.761h5.057v23.687l-2.414,2.414
	l-3.734-3.737l1.091-6.725V20.761z"/>
<path id="path3666" fill="#0000FF" stroke="#0000FF" d="M12.322,41.111l3.955-3.054l4.406,1.356l1.246,2.263l-0.113,3.39
	l-2.375,2.599l-4.52-0.678l-2.712-1.921L12.322,41.111z"/>
<path id="path2858" fill="none" stroke="#0000FF" stroke-width="7.9999" stroke-linecap="round" stroke-linejoin="round" d="
	M39.56,77.844l5.2-28.709"/>
<path id="path3632" fill="none" stroke="#0000FF" stroke-width="6.9999" stroke-linecap="round" stroke-linejoin="round" d="
	M33.232,51.172l21.249-6.558l4.521-21.927"/>
<path id="path3637" fill="#0000FF" stroke="#0000FF" stroke-width="6.9999" stroke-linecap="round" stroke-linejoin="round" d="
	M55.611,13.176c0.002,2.31-1.868,4.184-4.178,4.184c-2.313,0.003-4.186-1.869-4.188-4.178c0-0.003,0-0.005,0-0.005
	c0-2.31,1.869-4.184,4.183-4.187c2.309,0,4.18,1.869,4.184,4.181C55.611,13.17,55.611,13.173,55.611,13.176z"/>
<path id="path3641" fill="none" stroke="#0000FF" stroke-width="11.4998" stroke-linecap="round" d="M72.613,54.131
	c1.563-6.717,1.797-13.932-1.459-20.326c-3.606-7.086-10.139-10.01-10.139-10.01"/>
<path id="path3643" fill="none" stroke="#0000FF" stroke-width="10.4998" stroke-linecap="round" d="M45.89,52.075l25.771,2.485"/>
</svg>
