<?xml version="1.0" encoding="utf-8"?>
<!-- Generator: Adobe Illustrator 15.0.0, SVG Export Plug-In . SVG Version: 6.00 Build 0)  -->
<!DOCTYPE svg PUBLIC "-//W3C//DTD SVG 1.1//EN" "http://www.w3.org/Graphics/SVG/1.1/DTD/svg11.dtd">
<svg version="1.1" id="Ebene_1" xmlns="http://www.w3.org/2000/svg" xmlns:xlink="http://www.w3.org/1999/xlink" x="0px" y="0px"
	 width="100px" height="100px" viewBox="0 0 100 100" enable-background="new 0 0 100 100" xml:space="preserve">
<path fill="#0000FF" d="M0,0h100v100H0V0z"/>
<path fill="#FFFFF0" d="M5,5h90v90H5V5z"/>
<path id="path3645" fill="#0000FF" stroke="#0000FF" stroke-width="1.815" stroke-linecap="round" d="M10.619,38.7
	c0,0,9.5-6.193,15.899-6.399c6.402-0.209,12.691,4.581,15.902,6.606c3.922,2.478,7.783,4.518,14.866-0.207
	c6.815-4.544,8.467-6.195,13.422-6.402c4.955-0.209,18.584,7.02,18.584,7.02v9.5c0,0-12.39-7.02-18.791-7.02
	c-6.399,0-10.117,7.847-21.268,8.053c-11.151,0.207-11.358-8.26-22.51-8.466c-3.511-0.066-8.678,0.708-16.105,6.399
	C10.387,47.963,10.619,38.7,10.619,38.7L10.619,38.7z"/>
<path id="path3645-0" fill="#0000FF" stroke="#0000FF" stroke-width="1.815" stroke-linecap="round" d="M10.566,58.629
	c0,0,9.5-6.193,15.902-6.4c6.4-0.205,12.689,4.582,15.9,6.606c3.922,2.478,7.782,4.519,14.864-0.206
	c6.813-4.546,8.468-6.195,13.422-6.402c4.959-0.207,18.588,7.021,18.588,7.021v9.5c0,0-12.391-7.021-18.791-7.021
	c-6.402,0-10.12,7.849-21.271,8.056c-11.15,0.202-11.357-8.263-22.509-8.47c-3.511-0.063-8.679,0.709-16.106,6.4
	C10.335,67.893,10.566,58.629,10.566,58.629L10.566,58.629z"/>
</svg>
