<?xml version="1.0" encoding="utf-8"?>
<!-- Generator: Adobe Illustrator 15.0.0, SVG Export Plug-In . SVG Version: 6.00 Build 0)  -->
<!DOCTYPE svg PUBLIC "-//W3C//DTD SVG 1.1//EN" "http://www.w3.org/Graphics/SVG/1.1/DTD/svg11.dtd">
<svg version="1.1" id="Ebene_1" xmlns="http://www.w3.org/2000/svg" xmlns:xlink="http://www.w3.org/1999/xlink" x="0px" y="0px"
	 width="100px" height="100px" viewBox="0 0 100 100" enable-background="new 0 0 100 100" xml:space="preserve">
<rect fill="#FF0000" width="100" height="100"/>
<path fill="#FFFFF0" d="M50,10l45,30h-8v50H13V40H5L50,10z"/>
<path fill="#FF0000" d="M33.297,31.129c-5.184,2.591-6.479,7.775-3.888,15.55l15.55,38.873c-5.184-5.183-5.184-10.366,0-15.549
	h38.874L60.508,31.129H33.297z"/>
<path fill="#FF0000" stroke="#FFFFF0" stroke-width="5" d="M44.959,70.003c-5.184,5.183-5.184,10.366,0,15.549h38.874
	c-7.775-5.183-7.775-10.366,0-15.549H44.959z"/>
<line fill="none" stroke="#FFFFF0" stroke-width="5" x1="37.184" y1="40.935" x2="61.366" y2="40.935"/>
<rect x="87.013" y="65.348" fill="#FF0000" width="6.441" height="6.094"/>
<rect x="87.013" y="83.301" fill="#FF0000" width="6.441" height="6.165"/>
</svg>
