<?xml version="1.0" encoding="utf-8"?>
<!-- Generator: Adobe Illustrator 15.0.0, SVG Export Plug-In . SVG Version: 6.00 Build 0)  -->
<!DOCTYPE svg PUBLIC "-//W3C//DTD SVG 1.1//EN" "http://www.w3.org/Graphics/SVG/1.1/DTD/svg11.dtd">
<svg version="1.1" id="Ebene_1" xmlns="http://www.w3.org/2000/svg" xmlns:xlink="http://www.w3.org/1999/xlink" x="0px" y="0px"
	 width="100px" height="100px" viewBox="0 0 100 100" enable-background="new 0 0 100 100" xml:space="preserve">
<path fill="#0000FF" d="M0,0h100v100H0V0z"/>
<path fill="#FFFFF0" d="M5,5h90v90H5V5z"/>
<path id="path3610" fill="#0000FF" stroke="#0000FF" stroke-width="1.9844" d="M1.517,74.424c0,0,0.934-1.263,9.017-3.474
	c8.081-2.21,11.19-2.21,18.028,0.317c6.838,2.521,13.057,4.104,24.247,0.943c11.188-3.154,19.271-3.787,29.53,0.947
	c10.257,4.732,15.853,3.473,15.853,3.473L97.88,88.316c0,0-7.461,0.314-14.299-1.58s-14.922-6.313-26.11-3.155
	c-11.19,3.155-7.771,2.843-15.229,3.155c-7.462,0.314-15.233-5.053-21.759-5.053c-6.529,0-8.393,1.264-11.814,2.211
	C5.25,84.843,1.21,86.421,1.21,86.421L1.517,74.424L1.517,74.424z"/>
<path id="path2852" fill="#0000FF" stroke="#0000FF" stroke-width="2.7528" d="M56.077,55.87L74.67,37.562h23.195v7.105H77.893
	L60.926,60.76L56.077,55.87L56.077,55.87z"/>
<path id="path3626" fill="#0000FF" stroke="#0000FF" stroke-width="0.5" stroke-linecap="round" stroke-linejoin="round" d="
	M48.054,13.198c0.656,3.478-1.634,6.827-5.11,7.482c-3.478,0.656-6.829-1.631-7.485-5.109c-0.656-3.479,1.634-6.827,5.11-7.483
	C44.046,7.433,47.398,9.72,48.054,13.198z"/>
<path id="path2846" fill="none" stroke="#0000FF" stroke-width="7.1999" stroke-linecap="round" stroke-linejoin="round" d="
	M42.043,63.26l8.742-14.438l11.266-10.513"/>
<path id="path3620" fill="none" stroke="#0000FF" stroke-width="10.3453" stroke-linecap="round" d="M60.688,36.729l-9.864-12.336"
	/>
<path id="path3622" fill="none" stroke="#0000FF" stroke-width="5.4449" stroke-linecap="round" stroke-linejoin="round" d="
	M48.34,23.71l-4.718,10.784l-10.784,2.922"/>
<path id="path3624" fill="none" stroke="#0000FF" stroke-width="5.4449" stroke-linecap="round" stroke-linejoin="round" d="
	M50.586,21.91l10.111-2.021l6.742,4.942"/>
</svg>
