<?xml version="1.0" encoding="utf-8"?>
<!-- Generator: Adobe Illustrator 15.0.0, SVG Export Plug-In . SVG Version: 6.00 Build 0)  -->
<!DOCTYPE svg PUBLIC "-//W3C//DTD SVG 1.1//EN" "http://www.w3.org/Graphics/SVG/1.1/DTD/svg11.dtd">
<svg version="1.1" id="Ebene_1" xmlns="http://www.w3.org/2000/svg" xmlns:xlink="http://www.w3.org/1999/xlink" x="0px" y="0px"
	 width="100px" height="100px" viewBox="0 0 100 100" enable-background="new 0 0 100 100" xml:space="preserve">
<path fill="#0000FF" d="M0,0h100v100H0V0z"/>
<path fill="#FFFFF0" d="M5,5h90v90H5V5z"/>
<path id="path2830" fill="#0000FF" stroke="#0000FF" stroke-width="2.0001" d="M13.573,61.793c0,0,2.53-4.734,8.842-8.21
	c6.313-3.47,9.472-4.104,9.472-4.104L28.729,28.96l27.153-15.155c0,0,4.106-0.948,5.999,2.53c1.895,3.47,0.633,7.257,0.633,7.257
	L43.885,34.329c0,0-0.317,4.104,5.051,10.735c5.367,6.631,6.632,8.84,7.894,15.788c1.263,6.946,0.316,3.789,0.316,3.789
	s-6.633,2.842-12.944,2.842c-6.316,0-10.104-1.896-19.578-4.734C15.15,59.904,13.573,61.793,13.573,61.793L13.573,61.793z"/>
<path id="path3608" fill="#0000FF" stroke="#0000FF" stroke-width="2.0001" stroke-linecap="round" stroke-linejoin="round" d="
	M83.036,51.689c0,5.932-4.804,10.734-10.733,10.734c-5.931,0-10.738-4.806-10.738-10.734c0-5.93,4.81-10.735,10.738-10.735
	C78.23,40.958,83.036,45.764,83.036,51.689z"/>
<path id="path3610" fill="#0000FF" stroke="#0000FF" stroke-width="1.9861" d="M1.458,74.424c0,0,0.937-1.262,9.031-3.473
	c8.093-2.21,11.207-2.21,18.056,0.316c6.849,2.522,13.077,4.104,24.288,0.943c11.205-3.152,19.304-3.787,29.578,0.948
	c10.271,4.731,15.877,3.474,15.877,3.474l-0.312,11.684c0,0-7.475,0.314-14.322-1.582c-6.848-1.895-14.946-6.313-26.149-3.152
	c-11.208,3.152-7.785,2.842-15.256,3.152c-7.472,0.314-15.253-5.051-21.792-5.051s-8.406,1.262-11.833,2.209
	c-3.422,0.947-7.471,2.529-7.471,2.529L1.458,74.424L1.458,74.424z"/>
</svg>
