<?xml version="1.0" encoding="utf-8"?>
<!-- Generator: Adobe Illustrator 15.0.0, SVG Export Plug-In . SVG Version: 6.00 Build 0)  -->
<!DOCTYPE svg PUBLIC "-//W3C//DTD SVG 1.1//EN" "http://www.w3.org/Graphics/SVG/1.1/DTD/svg11.dtd">
<svg version="1.1" id="Ebene_1" xmlns="http://www.w3.org/2000/svg" xmlns:xlink="http://www.w3.org/1999/xlink" x="0px" y="0px"
	 width="100px" height="100px" viewBox="0 0 100 100" enable-background="new 0 0 100 100" xml:space="preserve">
<rect fill-rule="evenodd" clip-rule="evenodd" fill="#FF0000" width="100" height="100"/>
<rect x="5" y="5" fill-rule="evenodd" clip-rule="evenodd" fill="#FFFFF0" width="90" height="90"/>
<path id="path2838" fill="none" stroke="#FF0000" stroke-width="5.2793" d="M32.721,93.119L70.85,54.988"/>
<path id="path3616" fill="#FF0000" d="M85.973,61.502c-8.227,8.227-19.738,10.053-25.713,4.079
	c-5.976-5.976-4.146-17.488,4.078-25.714c8.225-8.226,19.739-10.053,25.713-4.079C96.025,41.763,94.199,53.273,85.973,61.502z"/>
<path id="path3620" fill="#FF0000" d="M79.403,82.863c0,3.872-3.139,7.014-7.013,7.014c-3.872,0-7.014-3.142-7.014-7.014
	c0-3.874,3.142-7.013,7.014-7.013C76.265,75.851,79.403,78.989,79.403,82.863z"/>
<path id="path3612" fill="#FF0000" d="M5,4.865v0.095h58.449v5.097H32.788l-0.767,3.115l26.542,12.174l-2.779,5.663L29.05,18.833
	l-2.3,3.682l20.603,19.913l-4.121,3.869L22.344,26.289l-3.93,2.926l12.936,25.67l-5.271,2.644L13.432,31.952l-2.396,1.038v29.918H5
	V4.959V4.865z"/>
</svg>
