<?xml version="1.0" encoding="utf-8"?>
<!-- Generator: Adobe Illustrator 15.0.0, SVG Export Plug-In . SVG Version: 6.00 Build 0)  -->
<!DOCTYPE svg PUBLIC "-//W3C//DTD SVG 1.1//EN" "http://www.w3.org/Graphics/SVG/1.1/DTD/svg11.dtd">
<svg version="1.1" id="Ebene_1" xmlns="http://www.w3.org/2000/svg" xmlns:xlink="http://www.w3.org/1999/xlink" x="0px" y="0px"
	 width="100px" height="100px" viewBox="0 0 100 100" enable-background="new 0 0 100 100" xml:space="preserve">
<path fill="#FF0000" d="M0,0h100v100H0V0z"/>
<path fill="#FFFFF0" d="M5,5h90v90H5V5z"/>
<path id="path2834" fill="#FF0000" stroke="#FF0000" stroke-width="0.7937" d="M35.704,41.577c0,0-4.768,0.185-9.721-2.199
	c-4.953-2.387-8.07-5.319-8.987-14.673c-0.915-9.354,2.75-11.187,4.401-12.656c1.651-1.466,5.137-4.217,12.474-4.035
	c7.336,0.185,10.636,5.87,11.738,7.888c1.1,2.018,4.95,10.636-0.185,17.424c-5.134,6.785-5.134,6.785-5.134,6.785l2.199,2.199
	l-6.601,2.569L35.704,41.577L35.704,41.577z"/>
<path id="path2836" fill="#FF0000" stroke="#FF0000" stroke-width="0.7937" d="M60.575,48.426c0,0-4.22-3.85-5.138-9.721
	c-0.916-5.867-0.916-13.022,1.836-16.506c2.75-3.483,9.721-6.97,14.488-6.604c4.768,0.367,10.271,4.22,11.922,7.888
	c1.649,3.668,2.385,10.82-1.283,16.324c-3.67,5.501-7.703,8.985-12.473,10.087c-4.771,1.1-6.052,0-6.052,0l0.183,2.933l-6.054-1.833
	L60.575,48.426L60.575,48.426z"/>
<path id="path2844" fill="none" stroke="#FF0000" stroke-width="3" stroke-linecap="round" d="M39.86,45.83
	c0,0,5.408,9.371,3.214,16.273c-2.467,7.768,5.429,11.59,5.429,11.59l0.441,2.645"/>
<path id="path2848" fill="none" stroke="#FF0000" stroke-width="3" stroke-linecap="round" d="M59.01,54.055
	c-9.102,7.85-5.519,17.881-10.211,22.281c-4.696,4.4-6.628,10.893-7.802,16.321"/>
<path id="path2850" fill="none" stroke="#FF0000" stroke-width="3" stroke-linecap="round" d="M48.649,76.188
	c0,0,0.254,4.832,2.015,7.768c1.762,2.934,0.225,4.406-0.656,8.955"/>
<path id="path2852" fill="#FF0000" stroke="#FF0000" stroke-width="6.4999" d="M51.127,75.625c0,1.191-0.961,2.152-2.152,2.152
	c-1.188,0-2.149-0.961-2.149-2.152c0-1.188,0.962-2.148,2.149-2.148C50.165,73.477,51.127,74.438,51.127,75.625z"/>
</svg>
