<?xml version="1.0" encoding="utf-8"?>
<!-- Generator: Adobe Illustrator 15.0.0, SVG Export Plug-In . SVG Version: 6.00 Build 0)  -->
<!DOCTYPE svg PUBLIC "-//W3C//DTD SVG 1.1//EN" "http://www.w3.org/Graphics/SVG/1.1/DTD/svg11.dtd">
<svg version="1.1" id="Ebene_1" xmlns="http://www.w3.org/2000/svg" xmlns:xlink="http://www.w3.org/1999/xlink" x="0px" y="0px"
	 width="100px" height="100px" viewBox="0 0 100 100" enable-background="new 0 0 100 100" xml:space="preserve">
<rect fill="#FF0000" width="100" height="100"/>
<rect x="4.874" y="4.499" fill="#FFFFF0" width="90" height="90"/>
<path fill="#FF0000" d="M76.319,34.297c0,0-16.396,16.159-18.093,18.915c-1.696,2.754-5.656,11.017-4.524,16.525
	s3.015,9.549,5.654,11.752s3.771,4.407,8.859,4.407c5.09,0,8.104,0.368,12.25-2.938c4.147-3.306,7.354-6.427,6.977-11.202
	c-0.377-4.773,0-5.141-3.017-9.549c-3.017-4.406-4.713-4.59-6.22-10.099c-1.51-5.509-1.507-4.958-1.697-11.385
	C76.319,34.297,76.319,34.297,76.319,34.297z"/>
<path fill="#FF0000" d="M32.511,13.375c0,0-16.396,16.159-18.093,18.915c-1.696,2.754-5.656,11.017-4.524,16.525
	s3.015,9.549,5.654,11.752s3.771,4.407,8.859,4.407c5.09,0,8.104,0.368,12.25-2.938c4.147-3.306,7.354-6.427,6.977-11.202
	c-0.377-4.773,0-5.141-3.017-9.549c-3.017-4.406-4.713-4.59-6.22-10.099c-1.51-5.509-1.507-4.958-1.697-11.385
	C32.511,13.375,32.511,13.375,32.511,13.375z"/>
</svg>
