<?xml version="1.0" encoding="utf-8"?>
<!-- Generator: Adobe Illustrator 15.0.0, SVG Export Plug-In . SVG Version: 6.00 Build 0)  -->
<!DOCTYPE svg PUBLIC "-//W3C//DTD SVG 1.1//EN" "http://www.w3.org/Graphics/SVG/1.1/DTD/svg11.dtd">
<svg version="1.1" id="Ebene_1" xmlns="http://www.w3.org/2000/svg" xmlns:xlink="http://www.w3.org/1999/xlink" x="0px" y="0px"
	 width="100px" height="100px" viewBox="0 0 100 100" enable-background="new 0 0 100 100" xml:space="preserve">
<rect fill-rule="evenodd" clip-rule="evenodd" fill="#FF0000" width="100" height="100"/>
<rect x="5" y="5" fill-rule="evenodd" clip-rule="evenodd" fill="#FFFFF0" width="90" height="90"/>
<path fill="#FF0000" d="M49.126,30.396c0,2.195-1.685,4.346-4.781,6.54c-3.096,2.195-4.645,3.292-4.645,4.389v51.573h-9.289V41.325
	c0-1.097-1.547-2.194-4.644-4.389c-3.097-2.194-4.876-4.345-4.876-6.54c0-7.681,0-14.581,0-22.352h6.546l0.018,18.518h5.237
	L32.7,8.044h4.85l-0.036,18.518h5.201L42.678,8.044h6.448C49.126,15.639,49.126,30.396,49.126,30.396z"/>
<path fill="#FF0000" d="M60.306,27.523c0,3.292-0.176,10.644-0.176,24.301l5.727-0.004v40.445h9.252V51.664L75.036,7.647
	c-2.893,0.689-3.628,1.222-5.479,2.319C64.005,13.258,60.306,19.842,60.306,27.523L60.306,27.523z"/>
</svg>
