<?xml version="1.0" encoding="utf-8"?>
<!-- Generator: Adobe Illustrator 15.0.0, SVG Export Plug-In . SVG Version: 6.00 Build 0)  -->
<!DOCTYPE svg PUBLIC "-//W3C//DTD SVG 1.1//EN" "http://www.w3.org/Graphics/SVG/1.1/DTD/svg11.dtd">
<svg version="1.1" id="Ebene_1" xmlns="http://www.w3.org/2000/svg" xmlns:xlink="http://www.w3.org/1999/xlink" x="0px" y="0px"
	 width="100px" height="100px" viewBox="0 0 100 100" enable-background="new 0 0 100 100" xml:space="preserve">
<rect fill-rule="evenodd" clip-rule="evenodd" fill="#FF0000" width="100" height="100"/>
<rect x="5" y="5" fill-rule="evenodd" clip-rule="evenodd" fill="#FFFFF0" width="90" height="90"/>
<polyline fill="#FF0000" points="6.125,68 94.25,68 87.875,77.5 12.25,77.5 "/>
<path fill="#FF0000" d="M89.248,39.582c0,0-0.017-6.738,0-8.686c0.019-2.226-2.178-4.833-4.066-6.653
	c-1.891-1.823-6.098-2.772-7.576-2.957s-17.249-0.215-17.249-0.215H25.501c0,0,0,30.427,0,33.576c0,1.325,0.971,2.637,2.242,3.442
	c1.48,0.939,3.292,1.267,3.292,1.267h36.591c0,0,2.032-0.186,3.326-0.925s2.915-1.739,3.326-3.695
	c0.238-1.133,0.302-3.052,0.302-3.052l3.579-0.09c0,0,5.118-1.33,6.51-2.313c1.36-0.96,3.824-4.073,4.322-6.245
	C89.287,41.749,89.248,39.582,89.248,39.582z M82.507,44.158C80.665,47.121,74.5,46,74.5,46V27.344c0,0,6.337-0.832,8.167,2.162
	c0.881,1.441,0.48,7.366,0.48,7.366S83.541,42.495,82.507,44.158z"/>
</svg>
