<?xml version="1.0" encoding="utf-8"?>
<!-- Generator: Adobe Illustrator 15.0.0, SVG Export Plug-In . SVG Version: 6.00 Build 0)  -->
<!DOCTYPE svg PUBLIC "-//W3C//DTD SVG 1.1//EN" "http://www.w3.org/Graphics/SVG/1.1/DTD/svg11.dtd">
<svg version="1.1" id="Ebene_1" xmlns="http://www.w3.org/2000/svg" xmlns:xlink="http://www.w3.org/1999/xlink" x="0px" y="0px"
	 width="100px" height="100px" viewBox="0 0 100 100" enable-background="new 0 0 100 100" xml:space="preserve">
<rect fill-rule="evenodd" clip-rule="evenodd" fill="#FF0000" width="100" height="100"/>
<rect x="5" y="5" fill-rule="evenodd" clip-rule="evenodd" fill="#FFFFF0" width="90" height="90"/>
<rect x="32.663" y="74.965" fill="#FF0000" width="34.474" height="16.608"/>
<path fill="#FF0000" d="M67.609,65.641c-17.559,0-28.135-12.211-28.135-27.428c0-14.863,9.922-27.097,26.914-27.654
	c-3.742-1.154-7.771-1.788-11.971-1.788c-19.726,0-35.716,13.857-35.716,30.952c0,17.093,15.99,30.951,35.716,30.951
	c7.799,0,15.008-2.173,20.881-5.85C72.836,65.354,70.262,65.641,67.609,65.641z"/>
<polygon fill="#FF0000" points="78.556,53.367 69.259,46.603 58.405,50.392 61.979,39.5 54.997,30.382 66.502,30.415 73.041,20.991 
	76.577,31.902 87.602,35.196 78.281,41.907 "/>
</svg>
