<?xml version="1.0" encoding="utf-8"?>
<!-- Generator: Adobe Illustrator 15.0.0, SVG Export Plug-In . SVG Version: 6.00 Build 0)  -->
<!DOCTYPE svg PUBLIC "-//W3C//DTD SVG 1.1//EN" "http://www.w3.org/Graphics/SVG/1.1/DTD/svg11.dtd">
<svg version="1.1" id="Ebene_4" xmlns="http://www.w3.org/2000/svg" xmlns:xlink="http://www.w3.org/1999/xlink" x="0px" y="0px"
	 width="100px" height="100px" viewBox="0 0 100 100" enable-background="new 0 0 100 100" xml:space="preserve">
<rect fill-rule="evenodd" clip-rule="evenodd" fill="#FF0000" width="100" height="100"/>
<polygon fill="#FFFFF0" points="5,5 95,5 95,95 5,95 5,5 "/>
<ellipse fill="#FFFFF0" stroke="#FF0000" stroke-width="5" cx="49.608" cy="49.871" rx="46.327" ry="46.59"/>
<path fill="#FF0000" stroke="#FF0000" d="M55,51.411l2.113-16.27l13.404-5.325l13.365-8.26l-3.087-4.242L66.343,25.62l-12.805,2.113
	l-0.747,0.271c2.414-1.267,4.069-3.826,4.069-6.785c0-4.215-3.352-7.632-7.485-7.632c-4.133,0-7.485,3.417-7.485,7.632
	c0,2.958,1.654,5.517,4.066,6.784l-0.743-0.27L32.409,25.62l-14.454-8.305l-3.087,4.242l13.365,8.26l13.405,5.325l2.113,16.27
	l-6.358,15.448L25.551,87.232l4.916,3.706l18.768-26.627l0.142-0.585l0.142,0.585l18.767,26.627l4.915-3.706L61.357,66.859
	L55,51.411z"/>
</svg>
