<?xml version="1.0" encoding="utf-8"?>
<!-- Generator: Adobe Illustrator 15.0.0, SVG Export Plug-In . SVG Version: 6.00 Build 0)  -->
<!DOCTYPE svg PUBLIC "-//W3C//DTD SVG 1.1//EN" "http://www.w3.org/Graphics/SVG/1.1/DTD/svg11.dtd">
<svg version="1.1" id="Ebene_3" xmlns="http://www.w3.org/2000/svg" xmlns:xlink="http://www.w3.org/1999/xlink" x="0px" y="0px"
	 width="100px" height="100px" viewBox="0 0 100 100" enable-background="new 0 0 100 100" xml:space="preserve">
<rect fill-rule="evenodd" clip-rule="evenodd" fill="#FF0000" width="100" height="100"/>
<rect x="5" y="5" fill-rule="evenodd" clip-rule="evenodd" fill="#FFFFF0" width="90" height="90"/>
<path fill="#FF0000" d="M24.182,24.24c0,0,18.188-8.911,22.205-9.624c4.018-0.713,5.287-1.426,7.824-0.535
	c2.54,0.891,22.208,10.515,25.382,12.12c3.168,1.604,4.226,2.139,5.071,3.921c0.847,1.782,1.271,28.336,1.271,31.367
	c0,3.031-0.424,3.211-1.904,6.062c-1.479,2.853-1.479,3.028-5.076,5.348c-3.594,2.316-17.976,9.444-21.781,11.583
	c-3.806,2.14-6.769,2.14-9.729,1.428c-2.96-0.714-26.646-13.725-28.126-15.328c-1.481-1.605-3.173-5.347-3.385-7.842
	c-0.21-2.497-1.056-24.953-0.632-28.518c0.422-3.564,0.422-4.278,2.113-5.882S24.182,24.24,24.182,24.24z"/>
<path fill="none" stroke="#FFFFF0" stroke-width="2" stroke-miterlimit="10" d="M49.361,49.468l0.197-1.783
	c0,0,1.059-2.315,2.537-3.029c1.48-0.714,2.115-1.427,5.287-2.674c3.173-1.247,18.919-9.019,18.919-9.019s2.865-1.727,4.769-1.675
	c3.271,0.089,5.322,2.252,5.322,2.252"/>
<ellipse fill="#FFFFF0" cx="50.088" cy="28.79" rx="8.143" ry="4.099"/>
<ellipse fill="#FFFFF0" cx="23.335" cy="43.404" rx="4.653" ry="6.239"/>
<ellipse fill="#FFFFF0" cx="39.122" cy="68.858" rx="4.653" ry="6.238"/>
<path fill="#FFFFF0" d="M81.143,63.851c0,3.446-2.081,6.238-4.653,6.238c-2.569,0-4.65-2.792-4.65-6.238
	c0-3.444,2.081-6.236,4.65-6.236C79.062,57.614,81.143,60.406,81.143,63.851z"/>
<ellipse fill="#FFFFF0" cx="75.435" cy="44.065" rx="4.654" ry="6.237"/>
<ellipse fill="#FFFFF0" cx="61.265" cy="71.871" rx="4.653" ry="6.239"/>
<ellipse fill="#FFFFF0" cx="60.63" cy="51.91" rx="4.654" ry="6.238"/>
<path fill="none" stroke="#FFFFF0" stroke-width="2" stroke-miterlimit="10" d="M13.607,33.605c0,0,2.538-2.495,4.863-2.495
	c2.327,0,3.596,1.247,8.672,3.921c5.211,2.746,17.975,7.842,20.301,11.051c2.327,3.208,2.115,4.455,2.115,6.771
	c0,2.317,0.635,25.131,0.212,26.735s-1.479,3.387-2.75,4.099c-1.267,0.713-3.171,2.14-3.171,2.14"/>
<path fill="none" stroke="#FFFFF0" stroke-width="2" d="M49.798,79.756c0.349,0.777,2.312,3.053,2.853,3.531
	c0.611,0.543,0.68,0.408,1.563,0.883c0.937,0.503,3.735,1.087,3.735,1.087"/>
</svg>
