<?xml version="1.0" encoding="utf-8"?>
<!-- Generator: Adobe Illustrator 15.0.0, SVG Export Plug-In . SVG Version: 6.00 Build 0)  -->
<!DOCTYPE svg PUBLIC "-//W3C//DTD SVG 1.1//EN" "http://www.w3.org/Graphics/SVG/1.1/DTD/svg11.dtd">
<svg version="1.1" id="Ebene_1" xmlns="http://www.w3.org/2000/svg" xmlns:xlink="http://www.w3.org/1999/xlink" x="0px" y="0px"
	 width="100px" height="100px" viewBox="0 0 100 100" enable-background="new 0 0 100 100" xml:space="preserve">
<rect fill-rule="evenodd" clip-rule="evenodd" fill="#FF0000" width="100" height="100"/>
<rect x="5" y="5" fill-rule="evenodd" clip-rule="evenodd" fill="#FFFFF0" width="90" height="90"/>
<path fill="#FF0000" d="M34.378,65.402c0,0,3.342-11.934,8.354-17.423c2.254-2.469,6.026-7.436,10.163-11.3
	c5.06-4.728,10.532-8.352,12.8-10.513c4.453-4.245,23.577-15.419,23.577-15.419s-2.703,11.174-12.41,23.628
	c-7.067,9.067-10.339,13.284-16.691,19.349c-6.414,6.124-9.952,10.027-16.837,12.68c-3.739,1.44-4.938,0.761-6.028,2.494
	c-0.705,1.12,0.252,6.311-0.208,7.691c-1.193,3.58-1.765,4.326-5.345,5.997s-8.114,3.579-13.604,4.296s-6.921,0-6.921,0
	s-0.955-2.624,0-2.863s4.295-2.863,6.205-3.58s2.864-1.91,2.864-3.819s-1.194-3.58,0.477-5.967s2.932-3.228,3.819-3.58
	C28.367,65.572,34.378,65.402,34.378,65.402z"/>
</svg>
