<?xml version="1.0" encoding="utf-8"?>
<!-- Generator: Adobe Illustrator 15.0.0, SVG Export Plug-In . SVG Version: 6.00 Build 0)  -->
<!DOCTYPE svg PUBLIC "-//W3C//DTD SVG 1.1//EN" "http://www.w3.org/Graphics/SVG/1.1/DTD/svg11.dtd">
<svg version="1.1" id="Ebene_1" xmlns="http://www.w3.org/2000/svg" xmlns:xlink="http://www.w3.org/1999/xlink" x="0px" y="0px"
	 width="100px" height="100px" viewBox="0 0 100 100" enable-background="new 0 0 100 100" xml:space="preserve">
<rect fill-rule="evenodd" clip-rule="evenodd" fill="#FF0000" width="100" height="100"/>
<polygon fill="#FFFFF0" points="5,5 95,5 95,95 5,95 5,5 "/>
<polygon fill-rule="evenodd" clip-rule="evenodd" fill="#FF0000" stroke="#FF0000" stroke-width="0.9036" stroke-miterlimit="10" points="
	44.277,8.432 91.265,35.843 85.241,46.385 38.253,18.975 "/>
<rect x="14.156" y="48.193" fill-rule="evenodd" clip-rule="evenodd" fill="#FF0000" width="71.688" height="6.324"/>
<path fill-rule="evenodd" clip-rule="evenodd" fill="none" stroke="#FF0000" stroke-width="6.0241" stroke-miterlimit="10" d="
	M98.193,73.794c-5.12,0-10.241-6.324-15.362-6.324c-6.024,0-11.445,6.324-17.47,6.627c-5.121,0-9.337-6.326-14.458-6.326
	c-5.723,0-10.843,6.326-16.266,6.326c-5.422,0-10.24-6.326-15.36-6.326c-6.325,0-11.748,6.326-17.47,6.326"/>
</svg>
