<?xml version="1.0" encoding="utf-8"?>
<!-- Generator: Adobe Illustrator 15.0.0, SVG Export Plug-In . SVG Version: 6.00 Build 0)  -->
<!DOCTYPE svg PUBLIC "-//W3C//DTD SVG 1.1//EN" "http://www.w3.org/Graphics/SVG/1.1/DTD/svg11.dtd">
<svg version="1.1" id="Layer_1" xmlns="http://www.w3.org/2000/svg" xmlns:xlink="http://www.w3.org/1999/xlink" x="0px" y="0px"
	 width="100px" height="100px" viewBox="0 0 100 100" enable-background="new 0 0 100 100" xml:space="preserve">
<rect fill-rule="evenodd" clip-rule="evenodd" fill="#FF0000" width="100" height="100"/>
<polygon fill="#FFFFF0" points="5,5 95,5 95,95 5,95 5,5 "/>
<polygon fill-rule="evenodd" clip-rule="evenodd" fill="#FF0000" points="75.624,44.064 24.999,44.064 28.125,37.189 72.501,37.189 
	75.624,44.064 "/>
<polygon fill-rule="evenodd" clip-rule="evenodd" fill="#FF0000" points="54.374,33.751 45.623,33.751 41.874,26.563 50.625,26.563 
	54.374,33.751 "/>
<polygon fill-rule="evenodd" clip-rule="evenodd" fill="#FF0000" points="80.312,68.126 14.375,68.126 14.375,47.501 94.998,47.501 
	80.312,68.126 "/>
<rect x="1" y="43.75" fill-rule="evenodd" clip-rule="evenodd" fill="#FF0000" width="9.062" height="39.688"/>
<path fill-rule="evenodd" clip-rule="evenodd" fill="#FF0000" stroke="#FF0000" stroke-width="4" stroke-miterlimit="10" d="
	M97.811,84c-5.311,0-9.999-6.562-15.312-6.562C76.561,77.438,71.25,84,65.312,84c-4.999,0-9.376-6.562-14.375-6.562
	C44.998,77.438,40.313,84,34.686,84c-5.311,0-9.998-6.562-15.312-6.562C13.436,77.438,7.812,84,2.187,84v13.438l95.312-0.625
	L97.811,84z"/>
</svg>
