<?xml version="1.0" encoding="utf-8"?>
<!-- Generator: Adobe Illustrator 15.0.0, SVG Export Plug-In . SVG Version: 6.00 Build 0)  -->
<!DOCTYPE svg PUBLIC "-//W3C//DTD SVG 1.1//EN" "http://www.w3.org/Graphics/SVG/1.1/DTD/svg11.dtd">
<svg version="1.1" id="Ebene_1" xmlns="http://www.w3.org/2000/svg" xmlns:xlink="http://www.w3.org/1999/xlink" x="0px" y="0px"
	 width="100px" height="100px" viewBox="0 0 100 100" enable-background="new 0 0 100 100" xml:space="preserve">
<rect fill-rule="evenodd" clip-rule="evenodd" fill="#FF0000" width="100" height="100"/>
<polygon fill="#FFFFF0" points="5,5 95,5 95,95 5,95 5,5 "/>
<polygon fill-rule="evenodd" clip-rule="evenodd" fill="#FF0000" points="92.771,58.434 32.832,58.434 32.53,30.422 17.169,30.422 
	7.229,45.783 7.229,64.457 25.001,64.76 92.771,64.457 "/>
<path fill-rule="evenodd" clip-rule="evenodd" fill="#FFFFF0" d="M11.747,64.457c0,4.519,4.519,8.134,9.939,8.134
	c5.723,0,10.24-3.615,10.24-8.134s-4.518-8.132-10.24-8.132C16.266,56.325,11.747,59.938,11.747,64.457z"/>
<polygon fill-rule="evenodd" clip-rule="evenodd" fill="#FFFFF0" points="25.301,45.48 25.301,33.433 18.373,33.433 10.842,45.48 
	"/>
<path fill-rule="evenodd" clip-rule="evenodd" fill="#FF0000" d="M15.061,67.168c0,3.615,3.313,6.626,6.927,6.626
	c3.615,0,6.627-3.011,6.627-6.626c0-3.916-3.012-6.927-6.627-6.927C18.373,60.241,15.061,63.252,15.061,67.168z"/>
<rect x="37.048" y="25.601" fill-rule="evenodd" clip-rule="evenodd" fill="#FF0000" stroke="#E2001A" stroke-width="0.9036" stroke-miterlimit="10" width="55.723" height="28.617"/>
<path fill-rule="evenodd" clip-rule="evenodd" fill="#FFFFF0" d="M68.072,64.457c0,4.519,4.519,8.134,9.939,8.134
	c5.422,0,9.94-3.615,9.94-8.134s-4.519-8.132-9.94-8.132C72.591,56.325,68.072,59.938,68.072,64.457z"/>
<path fill-rule="evenodd" clip-rule="evenodd" fill="#FF0000" d="M71.688,67.168c0,3.615,3.01,6.626,6.626,6.626
	c3.914,0,6.927-3.011,6.927-6.626c0-3.916-3.013-6.927-6.927-6.927C74.698,60.241,71.688,63.252,71.688,67.168z"/>
</svg>
