<?xml version="1.0" encoding="utf-8"?>
<!-- Generator: Adobe Illustrator 15.0.0, SVG Export Plug-In . SVG Version: 6.00 Build 0)  -->
<!DOCTYPE svg PUBLIC "-//W3C//DTD SVG 1.1//EN" "http://www.w3.org/Graphics/SVG/1.1/DTD/svg11.dtd">
<svg version="1.1" id="Ebene_1" xmlns="http://www.w3.org/2000/svg" xmlns:xlink="http://www.w3.org/1999/xlink" x="0px" y="0px"
	 width="100px" height="100px" viewBox="0 0 100 100" enable-background="new 0 0 100 100" xml:space="preserve">
<rect fill="#FF0000" width="100" height="100"/>
<polygon fill="#FFFFF0" points="5,5 95,5 95,95 5,95 "/>
<line fill="none" stroke="#FF0000" stroke-width="6" stroke-linecap="round" x1="56" y1="32" x2="90" y2="32"/>
<path fill="#FF0000" stroke="#FF0000" d="M20,22v16l10,4h25V30L20,22z"/>
<path fill="#FF0000" d="M10,40v17h80L70,45H30L10,40z"/>
<path fill="none" stroke="#FF0000" stroke-width="5" d="M10,60v10l10,10h60l10-10V60"/>
<circle fill="#FF0000" cx="22" cy="68" r="5"/>
<circle fill="#FF0000" cx="36" cy="68" r="5"/>
<circle fill="#FF0000" cx="50" cy="68" r="5"/>
<circle fill="#FF0000" cx="64" cy="68" r="5"/>
<circle fill="#FF0000" cx="78" cy="68" r="5"/>
</svg>
