<?xml version="1.0" encoding="utf-8"?>
<!-- Generator: Adobe Illustrator 15.0.0, SVG Export Plug-In . SVG Version: 6.00 Build 0)  -->
<!DOCTYPE svg PUBLIC "-//W3C//DTD SVG 1.1//EN" "http://www.w3.org/Graphics/SVG/1.1/DTD/svg11.dtd">
<svg version="1.1" id="Ebene_1" xmlns="http://www.w3.org/2000/svg" xmlns:xlink="http://www.w3.org/1999/xlink" x="0px" y="0px"
	 width="100px" height="100px" viewBox="0 0 100 100" enable-background="new 0 0 100 100" xml:space="preserve">
<rect fill-rule="evenodd" clip-rule="evenodd" fill="#FF0000" width="100" height="100"/>
<rect x="5" y="5" fill-rule="evenodd" clip-rule="evenodd" fill="#FFFFF0" width="90" height="90"/>
<polyline fill-rule="evenodd" clip-rule="evenodd" fill="#FF0000" points="6.3,39.356 18.09,26.02 33.398,11.942 41.963,22.029 
	30.913,31.93 48.296,48.024 65.518,31.623 55.525,21.534 64.064,13.117 74.812,23.013 76.119,21.534 81.143,26.484 80.139,27.474 
	81.645,28.96 93.197,48.762 73.309,39.414 70.594,36.881 54.583,54.175 83.654,81.437 77.625,87.873 48.493,60.148 21.098,87.388 
	14.839,80.942 42.465,53.714 25.89,36.881 16.848,47.772 6.3,39.852 "/>
</svg>
