<?xml version="1.0" encoding="utf-8"?>
<!-- Generator: Adobe Illustrator 15.0.0, SVG Export Plug-In . SVG Version: 6.00 Build 0)  -->
<!DOCTYPE svg PUBLIC "-//W3C//DTD SVG 1.1//EN" "http://www.w3.org/Graphics/SVG/1.1/DTD/svg11.dtd">
<svg version="1.1" id="Ebene_1" xmlns="http://www.w3.org/2000/svg" xmlns:xlink="http://www.w3.org/1999/xlink" x="0px" y="0px"
	 width="100px" height="100px" viewBox="0 0 100 100" enable-background="new 0 0 100 100" xml:space="preserve">
<rect fill-rule="evenodd" clip-rule="evenodd" fill="#FF0000" width="100" height="100"/>
<rect x="5" y="5" fill-rule="evenodd" clip-rule="evenodd" fill="#FFFFF0" width="90" height="90"/>
<line fill-rule="evenodd" clip-rule="evenodd" fill="none" stroke="#FF0000" stroke-width="4.4642" stroke-miterlimit="3.8637" x1="13.244" y1="86.254" x2="87.004" y2="86.254"/>
<line fill-rule="evenodd" clip-rule="evenodd" fill="none" stroke="#FF0000" stroke-width="7.1428" stroke-miterlimit="3.8637" x1="36.103" y1="84.075" x2="36.103" y2="68.327"/>
<line fill-rule="evenodd" clip-rule="evenodd" fill="none" stroke="#FF0000" stroke-width="7.1428" stroke-miterlimit="3.8637" x1="68.182" y1="84.47" x2="68.182" y2="70.689"/>
<path fill-rule="evenodd" clip-rule="evenodd" fill="#FFFFF0" stroke="#FF0000" stroke-width="5.3572" stroke-miterlimit="3.8637" d="
	M35.315,69.508c0,0-16.06,7.875-18.699,6.284c-2.151-1.298,13.353-25.183,17.207-58.649c1-8.684,17.847,51.289,22.178,56.801
	S35.315,69.508,35.315,69.508z"/>
<path fill-rule="evenodd" clip-rule="evenodd" fill="#FF0000" d="M72.332,69.585c8.268-1.286,11.812-2.073,12.205-6.798
	s-7.875,0.027-7.875-6.272c0-6.299,11.523-4.725,12.311-13.78s-6.404-11.812-11.522-5.512c-5.118,6.3-0.68-22.31-10.631-13.78
	c-5.512,4.725-1.969,16.537-9.449,14.568c-11.41-3.002-6.3,11.418-6.3,11.418s8.739,3.544,9.526,7.087
	c0.787,3.544-4.014,2.335-3.62,5.879C57.37,65.937,64.063,70.874,72.332,69.585z"/>
<path fill-rule="evenodd" clip-rule="evenodd" fill="none" stroke="#FF0000" stroke-width="4.7323" stroke-miterlimit="3.8637" d="
	M72.332,69.585c8.268-1.286,11.812-2.073,12.205-6.798s-7.875,0.027-7.875-6.272c0-6.299,11.523-4.725,12.311-13.78
	s-6.404-11.812-11.522-5.512c-5.118,6.3-0.68-22.31-10.631-13.78c-5.512,4.725-1.969,16.537-9.449,14.568
	c-11.41-3.002-6.3,11.418-6.3,11.418s8.739,3.544,9.526,7.087c0.787,3.544-4.014,2.335-3.62,5.879
	C57.37,65.937,64.063,70.874,72.332,69.585z"/>
</svg>
