<?xml version="1.0" encoding="utf-8"?>
<!-- Generator: Adobe Illustrator 15.0.0, SVG Export Plug-In . SVG Version: 6.00 Build 0)  -->
<!DOCTYPE svg PUBLIC "-//W3C//DTD SVG 1.1//EN" "http://www.w3.org/Graphics/SVG/1.1/DTD/svg11.dtd">
<svg version="1.1" id="Ebene_1" xmlns="http://www.w3.org/2000/svg" xmlns:xlink="http://www.w3.org/1999/xlink" x="0px" y="0px"
	 width="100px" height="100px" viewBox="0 0 100 100" enable-background="new 0 0 100 100" xml:space="preserve">
<rect fill-rule="evenodd" clip-rule="evenodd" fill="#FF0000" width="100" height="100"/>
<polygon fill="#FFFFF0" points="5.006,4.791 95.509,4.791 95.509,94.992 5.006,94.992 5.006,4.791 "/>
<path fill-rule="evenodd" clip-rule="evenodd" fill="#FF0000" d="M56.466,35.042c-8.662,1.181-18.505-7.875-29.136,4.486
	c-6.655,6.034-16.143,14.806-12.599,19.531c14.174,27.561,41.498,12.242,40.948,12.178c-9.809-1.178,22.048,5.3,27.954-6.118
	c0,0.394,10.631-26.139-5.118-35.195C74.971,16.537,64.666,33.923,56.466,35.042z"/>
<path fill-rule="evenodd" clip-rule="evenodd" fill="none" stroke="#FF0000" stroke-width="4.7323" stroke-miterlimit="3.8637" d="
	M56.466,35.042c-8.662,1.181-18.505-7.875-29.136,4.486c-6.655,6.034-16.143,14.806-12.599,19.531
	c14.174,27.561,41.498,12.242,40.948,12.178c-9.809-1.178,22.048,5.3,27.954-6.118c0,0.394,10.631-26.139-5.118-35.195
	C74.971,16.537,64.666,33.923,56.466,35.042z"/>
<line fill-rule="evenodd" clip-rule="evenodd" fill="none" stroke="#FF0000" stroke-width="4.4642" stroke-miterlimit="3.8637" x1="10.205" y1="75.533" x2="97.02" y2="75.174"/>
</svg>
