<?xml version="1.0" encoding="utf-8"?>
<!-- Generator: Adobe Illustrator 15.0.0, SVG Export Plug-In . SVG Version: 6.00 Build 0)  -->
<!DOCTYPE svg PUBLIC "-//W3C//DTD SVG 1.1//EN" "http://www.w3.org/Graphics/SVG/1.1/DTD/svg11.dtd">
<svg version="1.1" id="Ebene_1" xmlns="http://www.w3.org/2000/svg" xmlns:xlink="http://www.w3.org/1999/xlink" x="0px" y="0px"
	 width="100px" height="100px" viewBox="0 0 100 100" enable-background="new 0 0 100 100" xml:space="preserve">
<rect fill-rule="evenodd" clip-rule="evenodd" fill="#0000FF" width="100" height="100"/>
<polygon fill="#FFFFF0" points="5,5 95,5 95,95 5,95 5,5 "/>
<circle fill="#0000FF" cx="37.46" cy="36.504" r="19.286"/>
<path fill-rule="evenodd" clip-rule="evenodd" fill="#0000FF" d="M64.059,57.737c3.348,1.532,16.156,6.733,19.096,10.04
	c3.15,3.544,4.725,6.104,4.135,10.04c-0.592,3.94-2.953,8.662-7.48,10.828c-4.529,2.165,4.473,7.794,1.715,7.991
	C78.768,96.833,5,95,5,95s50.988-12.458,53.152-13.245c2.166-0.787,8.967-2.82,11.207-5.438c1.787-2.085,2.563-4.527,1-5.979
	c-2.166-2.012-9.549-5.497-12.699-7.13c-1.578-0.815-12.46-8.619-12.795-9.898c-0.692-2.649,5.906-4.725,5.906-4.725
	S62.09,56.837,64.059,57.737z"/>
</svg>
