<?xml version="1.0" encoding="utf-8"?>
<!-- Generator: Adobe Illustrator 15.0.0, SVG Export Plug-In . SVG Version: 6.00 Build 0)  -->
<!DOCTYPE svg PUBLIC "-//W3C//DTD SVG 1.1//EN" "http://www.w3.org/Graphics/SVG/1.1/DTD/svg11.dtd">
<svg version="1.1" id="Ebene_1" xmlns="http://www.w3.org/2000/svg" xmlns:xlink="http://www.w3.org/1999/xlink" x="0px" y="0px"
	 width="100px" height="100px" viewBox="0 0 100 100" enable-background="new 0 0 100 100" xml:space="preserve">
<rect fill-rule="evenodd" clip-rule="evenodd" fill="#0000FF" width="100" height="100"/>
<polygon fill="#FFFFF0" points="5,5 95,5 95,95 5,95 5,5 "/>
<path fill-rule="evenodd" clip-rule="evenodd" fill="none" stroke="#0000FF" stroke-width="7.1428" stroke-miterlimit="3.8637" d="
	M46.822,19.08c0,0,6.276,4.583,0.392,10.468c-5.233,5.234,1.537,14.171-0.424,18.094s-4.315,5.584,0,9.116s3.139,5.882,0.392,9.413
	c-2.745,3.53-1.568,4.318,1.963,7.847c3.529,3.531-0.562,8.108-2.522,10.854"/>
<path fill-rule="evenodd" clip-rule="evenodd" fill="none" stroke="#0000FF" stroke-width="7.1428" stroke-miterlimit="3.8637" d="
	M31.774,19.022c0,0,6.276,5.475,0.393,11.359c-5.234,5.234,1.536,14.171-0.425,18.095c-1.963,3.923-4.315,5.582,0,9.113
	s3.138,5.887,0.392,9.418c-2.746,3.528-1.57,4.313,1.961,7.844s0.785,8.047-1.176,10.791"/>
<path fill-rule="evenodd" clip-rule="evenodd" fill="none" stroke="#0000FF" stroke-width="7.1428" stroke-miterlimit="3.8637" d="
	M61.287,18.737c0,0,6.277,4.582,0.394,10.466c-5.235,5.235,1.538,14.173-0.425,18.096c-1.962,3.923-4.315,5.583,0,9.114
	s3.138,5.885,0.394,9.416c-2.75,3.531-1.571,4.315,1.96,7.847s-0.754,9.85-2.713,12.593"/>
<path fill-rule="evenodd" clip-rule="evenodd" fill="none" stroke="#0000FF" stroke-width="7.1428" stroke-miterlimit="3.8637" d="
	M15.702,19.022c0,0,6.276,5.475,0.393,11.359c-5.234,5.234,1.538,14.171-0.425,18.095c-1.961,3.923-4.315,5.582,0,9.113
	s3.14,5.887,0.393,9.418c-2.746,3.528-1.569,4.313,1.962,7.844c3.53,3.531,0.785,8.047-1.178,10.791"/>
<rect x="2.315" y="83.172" fill-rule="evenodd" clip-rule="evenodd" fill="#0000FF" width="96.121" height="14.103"/>
<rect x="3.077" y="16.056" fill-rule="evenodd" clip-rule="evenodd" fill="#0000FF" width="60.537" height="10.506"/>
</svg>
