<?xml version="1.0" encoding="utf-8"?>
<!-- Generator: Adobe Illustrator 15.0.0, SVG Export Plug-In . SVG Version: 6.00 Build 0)  -->
<!DOCTYPE svg PUBLIC "-//W3C//DTD SVG 1.1//EN" "http://www.w3.org/Graphics/SVG/1.1/DTD/svg11.dtd">
<svg version="1.1" id="Ebene_1" xmlns="http://www.w3.org/2000/svg" xmlns:xlink="http://www.w3.org/1999/xlink" x="0px" y="0px"
	 width="100px" height="100px" viewBox="0 0 100 100" enable-background="new 0 0 100 100" xml:space="preserve">
<rect fill-rule="evenodd" clip-rule="evenodd" fill="#FF0000" width="100" height="100"/>
<polygon fill="#FFFFF0" points="5,5 95,5 95,95 5,95 5,5 "/>
<path fill-rule="evenodd" clip-rule="evenodd" fill="#FF0000" d="M85.401,76.776l-71.264-0.394V61.421l9.055-16.143
	c0,0,43.704,12.975,43.704,31.104C66.896,76.776,85.401,76.776,85.401,76.776z"/>
<path fill-rule="evenodd" clip-rule="evenodd" fill="none" stroke="#FF0000" stroke-width="4.4642" stroke-miterlimit="3.8637" d="
	M85.401,76.776l-71.264-0.394V61.421l9.055-16.143c0,0,43.704,12.975,43.704,31.104C66.896,76.776,85.401,76.776,85.401,76.776z"/>
<path fill-rule="evenodd" clip-rule="evenodd" fill="#FFFFF0" d="M33.036,49.216c0,0,8.088-14.233,14.146-25.592
	c6.3-11.812,4.184,8.771,19.714,16.537c0.787,0.394-15.355,20.08-15.355,20.08L33.036,49.216z"/>
<path fill-rule="evenodd" clip-rule="evenodd" fill="none" stroke="#FF0000" stroke-width="6.2501" stroke-miterlimit="3.8637" d="
	M33.036,49.216c0,0,8.088-14.233,14.146-25.592c6.3-11.812,4.184,8.771,19.714,16.537c0.787,0.394-15.355,20.08-15.355,20.08
	L33.036,49.216z"/>
<path fill-rule="evenodd" clip-rule="evenodd" fill="#FF0000" d="M85.217,77.17l-0.603-23.623
	c-6.693-3.15-12.206-26.38-12.206-26.38c-7.48,19.687-22.048,33.86-22.048,33.86l17.721,14.586L85.217,77.17z"/>
<path fill-rule="evenodd" clip-rule="evenodd" fill="none" stroke="#FF0000" stroke-width="3.1501" stroke-miterlimit="3.8637" d="
	M85.217,77.17l-0.603-23.623c-6.693-3.15-12.206-26.38-12.206-26.38c-7.48,19.687-22.048,33.86-22.048,33.86l17.721,14.586
	L85.217,77.17z"/>
</svg>
