<?xml version="1.0" encoding="utf-8"?>
<!-- Generator: Adobe Illustrator 15.0.0, SVG Export Plug-In . SVG Version: 6.00 Build 0)  -->
<!DOCTYPE svg PUBLIC "-//W3C//DTD SVG 1.1//EN" "http://www.w3.org/Graphics/SVG/1.1/DTD/svg11.dtd">
<svg version="1.1" id="Ebene_1" xmlns="http://www.w3.org/2000/svg" xmlns:xlink="http://www.w3.org/1999/xlink" x="0px" y="0px"
	 width="100px" height="100px" viewBox="0 0 100 100" enable-background="new 0 0 100 100" xml:space="preserve">
<rect fill-rule="evenodd" clip-rule="evenodd" fill="#FF0000" width="100" height="100"/>
<polygon fill="#FFFFF0" points="5.006,4.791 95.509,4.791 95.509,94.992 5.006,94.992 5.006,4.791 "/>
<polygon fill="#FFFFF0" points="5.005,5 95.006,5 95.006,95 5.005,95 5.005,5 "/>
<ellipse fill="#FF0000" cx="75.093" cy="53.056" rx="15.717" ry="13.091"/>
<path fill="#FF0000" d="M12.062,52.018c0-7.148,7.156-12.945,15.986-12.945c8.828,0,15.986,5.796,15.986,12.945
	c0,7.152-7.158,12.947-15.986,12.947C19.218,64.965,12.062,59.17,12.062,52.018z"/>
<ellipse fill="#FF0000" cx="50.8" cy="58.074" rx="16.988" ry="30.514"/>
<path fill-rule="evenodd" clip-rule="evenodd" fill="none" stroke="#FF0000" stroke-width="3.1501" stroke-miterlimit="3.8637" d="
	M37.261,16.537c3.543,1.575,8.268,1.968,9.843,14.961"/>
<ellipse fill="#FF0000" cx="35.882" cy="16.537" rx="4.528" ry="3.543"/>
<path fill-rule="evenodd" clip-rule="evenodd" fill="none" stroke="#FF0000" stroke-width="3.1501" stroke-miterlimit="3.8637" d="
	M64.414,16.537c-3.544,1.575-8.269,1.968-9.844,14.961"/>
<ellipse fill="#FF0000" cx="65.792" cy="16.537" rx="4.528" ry="3.543"/>
</svg>
