<?xml version="1.0" encoding="utf-8"?>
<!-- Generator: Adobe Illustrator 15.0.0, SVG Export Plug-In . SVG Version: 6.00 Build 0)  -->
<!DOCTYPE svg PUBLIC "-//W3C//DTD SVG 1.1//EN" "http://www.w3.org/Graphics/SVG/1.1/DTD/svg11.dtd">
<svg version="1.1" id="Ebene_1" xmlns="http://www.w3.org/2000/svg" xmlns:xlink="http://www.w3.org/1999/xlink" x="0px" y="0px"
	 width="100px" height="100px" viewBox="0 0 100 100" enable-background="new 0 0 100 100" xml:space="preserve">
<rect fill-rule="evenodd" clip-rule="evenodd" fill="#FF0000" width="100" height="100"/>
<polygon fill="#FFFFF0" points="5.005,4.792 95.51,4.792 95.51,94.992 5.005,94.992 5.005,4.792 "/>
<path fill-rule="evenodd" clip-rule="evenodd" fill="#FF0000" d="M16.385,40.268c5.792,11.138,25.536,19.597,25.536,19.597
	l-4.066,11.23c0,0-33.238-2.869-34.415,5.371c-0.564,3.952-1.447,13.666,0,18.526c1.569,5.272,22.137,3.095,24.022,0.394
	c-4.799-9.114-1.08-12.826,14.122-12.537c10.158,0.196,20.394,4.18,29.48,3.567c15.426,2.603,29.638-20.15,26.021-28.48
	c-2.378-5.463-6.673,13.821-20.887,16.636c-8.237,2.285-15.466-0.336-16.549-0.336c-3.162,0-10.372-7.143-12.182-10.305
	C45.661,60.766,81.686,51.52,86.49,33.991C98.26-8.951,3.718,15.915,16.385,40.268z"/>
</svg>
