<?xml version="1.0" encoding="utf-8"?>
<!-- Generator: Adobe Illustrator 15.0.0, SVG Export Plug-In . SVG Version: 6.00 Build 0)  -->
<!DOCTYPE svg PUBLIC "-//W3C//DTD SVG 1.1//EN" "http://www.w3.org/Graphics/SVG/1.1/DTD/svg11.dtd">
<svg version="1.1" id="Ebene_1" xmlns="http://www.w3.org/2000/svg" xmlns:xlink="http://www.w3.org/1999/xlink" x="0px" y="0px"
	 width="100px" height="100px" viewBox="0 0 100 100" enable-background="new 0 0 100 100" xml:space="preserve">
<rect fill-rule="evenodd" clip-rule="evenodd" fill="#FF0000" width="100" height="100"/>
<polygon fill="#FFFFF0" points="5,5 95,5 95,95 5,95 5,5 "/>
<polygon fill-rule="evenodd" clip-rule="evenodd" fill="#FF0000" points="26.537,40.034 35.674,35.672 29.651,22.175 20.724,26.537 
	"/>
<polygon fill-rule="evenodd" clip-rule="evenodd" fill="#FF0000" points="45.018,34.842 56.107,33.39 54.031,16.57 43.979,17.816 
	"/>
<polygon fill-rule="evenodd" clip-rule="evenodd" fill="#FF0000" points="61.318,35.521 71.235,40.526 77.846,24.921 68.648,20.331 
	"/>
<path fill-rule="evenodd" clip-rule="evenodd" fill="none" stroke="#FF0000" stroke-width="4.9565" stroke-miterlimit="3.8637" d="
	M45.171,87.127C40.662,57.176,27.64,25.685,21.347,16.57"/>
<path fill-rule="evenodd" clip-rule="evenodd" fill="none" stroke="#FF0000" stroke-width="4.9565" stroke-miterlimit="3.8637" d="
	M52.022,86.503c-0.482-31.56,0.556-46.884-3.891-76.163"/>
<path fill-rule="evenodd" clip-rule="evenodd" fill="none" stroke="#FF0000" stroke-width="4.9565" stroke-miterlimit="3.8637" d="
	M60.66,86.297c-0.482-31.563,2.507-48.754,15.795-69.936"/>
<path fill-rule="evenodd" clip-rule="evenodd" fill="none" stroke="#FF0000" stroke-width="4.9565" stroke-linecap="round" stroke-miterlimit="3.8637" d="
	M60.264,88.622C59.978,70.021,73.078,58.695,78.535,50c5.887-9.382,7.059,12.461,7.059,12.461"/>
<path fill-rule="evenodd" clip-rule="evenodd" fill="none" stroke="#FF0000" stroke-width="4.9565" stroke-linecap="round" stroke-miterlimit="3.8637" d="
	M44.804,89.246c0.284-18.601-18.208-30.132-23.665-38.831c-5.888-9.381-6.852,14.743-6.852,14.743"/>
<path fill-rule="evenodd" clip-rule="evenodd" fill="#FF0000" d="M25.548,76.908c3.403-2.384,5.96,9.407,14.81,7.533
	c8.85-1.876,16.268-1.021,23.074,0c6.811,1.021,13.983-9.406,16.875-7.533c2.895,1.874,4.583,13.255,4.583,13.255l-63.479,0.169
	C21.411,90.332,22.145,79.293,25.548,76.908z"/>
<path fill-rule="evenodd" clip-rule="evenodd" fill="none" stroke="#FF0000" stroke-width="3.5719" stroke-miterlimit="3.8637" d="
	M25.548,76.908c3.403-2.384,5.96,9.407,14.81,7.533c8.85-1.876,16.268-1.021,23.074,0c6.811,1.021,13.983-9.406,16.875-7.533
	c2.895,1.874,4.583,13.255,4.583,13.255l-63.479,0.169C21.411,90.332,22.145,79.293,25.548,76.908z"/>
</svg>
