<?xml version="1.0" encoding="utf-8"?>
<!-- Generator: Adobe Illustrator 15.0.0, SVG Export Plug-In . SVG Version: 6.00 Build 0)  -->
<!DOCTYPE svg PUBLIC "-//W3C//DTD SVG 1.1//EN" "http://www.w3.org/Graphics/SVG/1.1/DTD/svg11.dtd">
<svg version="1.1" id="Layer_1" xmlns="http://www.w3.org/2000/svg" xmlns:xlink="http://www.w3.org/1999/xlink" x="0px" y="0px"
	 width="100px" height="100px" viewBox="0 0 100 100" enable-background="new 0 0 100 100" xml:space="preserve">
<rect fill-rule="evenodd" clip-rule="evenodd" fill="#FF0000" width="100" height="100"/>
<polygon fill="#FFFFF0" points="5,5 95,5 95,95 5,95 5,5 "/>
<polygon fill-rule="evenodd" clip-rule="evenodd" fill="#FF0000" points="46.125,47.75 46.125,35.563 16.124,45.875 16.124,40.25 
	83.623,17.125 83.623,23.063 51.436,33.689 51.436,47.75 "/>
<path fill-rule="evenodd" clip-rule="evenodd" fill="#FF0000" d="M54.873,24.625c3.751,0,6.563-3.124,6.563-6.561
	c0-3.751-2.813-6.563-6.563-6.563c-3.438,0-6.25,2.813-6.25,6.563C48.623,21.501,51.436,24.625,54.873,24.625z"/>
<path fill-rule="evenodd" clip-rule="evenodd" fill="#FF0000" d="M40.498,29.938c3.438,0,6.563-2.813,6.563-6.562
	c0-3.438-3.126-6.563-6.563-6.563c-3.749,0-6.562,3.126-6.562,6.563C33.937,27.125,36.749,29.938,40.498,29.938z"/>
<path fill="#FF0000" d="M78.852,74.292c0,7.433-5.373,13.458-12,13.458H30.396c-6.627,0-12-6.025-12-13.458V61.208
	c0-7.433,5.373-13.458,12-13.458h36.456c6.627,0,12,6.025,12,13.458V74.292z"/>
<rect x="28.769" y="55.067" fill="#FFFFF0" width="41.424" height="13.999"/>
</svg>
