<?xml version="1.0" encoding="utf-8"?>
<!-- Generator: Adobe Illustrator 15.0.0, SVG Export Plug-In . SVG Version: 6.00 Build 0)  -->
<!DOCTYPE svg PUBLIC "-//W3C//DTD SVG 1.1//EN" "http://www.w3.org/Graphics/SVG/1.1/DTD/svg11.dtd">
<svg version="1.1" id="Ebene_1" xmlns="http://www.w3.org/2000/svg" xmlns:xlink="http://www.w3.org/1999/xlink" x="0px" y="0px"
	 width="100px" height="100px" viewBox="0 0 100 100" enable-background="new 0 0 100 100" xml:space="preserve">
<rect fill-rule="evenodd" clip-rule="evenodd" fill="#FF0000" width="100" height="100"/>
<polygon fill="#FFFFF0" points="5,5 95,5 95,95 5,95 5,5 "/>
<path fill-rule="evenodd" clip-rule="evenodd" fill="#FF0000" d="M92.812,66.876c0,5.313,0,9.063-6.25,9.376
	c-73.751,0-72.812,0.625-75.313-0.313c-3.438,0-4.688-3.749-4.688-9.063C35.312,66.876,64.062,66.876,92.812,66.876z"/>
<path fill-rule="evenodd" clip-rule="evenodd" fill="#FF0000" d="M6.561,54.376c-0.312-8.125,6.25-8.75,13.438-8.75
	c0.312-0.937-0.313-7.812,0-8.75H6.561v-5h86.25v5h-13.75v8.75c10.938,0,13.75,0,13.75,8.75
	C64.062,54.376,35.312,54.376,6.561,54.376z"/>
<polygon fill-rule="evenodd" clip-rule="evenodd" fill="#FFFFF0" points="25.313,45.626 25.313,36.875 73.437,36.875 73.123,45.626 
	"/>
<path fill-rule="evenodd" clip-rule="evenodd" fill="#FF0000" d="M6.561,25.938v-5h86.25v5C65,25.938,34.374,25.938,6.561,25.938z"
	/>
<rect x="6.561" y="58.438" fill-rule="evenodd" clip-rule="evenodd" fill="#FF0000" width="13.438" height="5"/>
<rect x="24.688" y="58.438" fill-rule="evenodd" clip-rule="evenodd" fill="#FF0000" width="13.436" height="5"/>
<rect x="43.125" y="58.438" fill-rule="evenodd" clip-rule="evenodd" fill="#FF0000" width="13.124" height="5"/>
<rect x="79.375" y="58.438" fill-rule="evenodd" clip-rule="evenodd" fill="#FF0000" width="13.437" height="5"/>
<rect x="61.874" y="58.438" fill-rule="evenodd" clip-rule="evenodd" fill="#FF0000" width="13.438" height="5"/>
</svg>
