<?xml version="1.0" encoding="utf-8"?>
<!-- Generator: Adobe Illustrator 15.0.0, SVG Export Plug-In . SVG Version: 6.00 Build 0)  -->
<!DOCTYPE svg PUBLIC "-//W3C//DTD SVG 1.1//EN" "http://www.w3.org/Graphics/SVG/1.1/DTD/svg11.dtd">
<svg version="1.1" id="Ebene_1" xmlns="http://www.w3.org/2000/svg" xmlns:xlink="http://www.w3.org/1999/xlink" x="0px" y="0px"
	 width="100px" height="100px" viewBox="0 0 100 100" enable-background="new 0 0 100 100" xml:space="preserve">
<rect fill-rule="evenodd" clip-rule="evenodd" fill="#FF0000" width="100" height="100"/>
<path fill-rule="evenodd" clip-rule="evenodd" fill="#FFFFF0" stroke="#FFFFF0" stroke-width="7.3646" stroke-miterlimit="10" d="
	M50,89.688c21.875,0,39.688-17.813,39.688-39.688S71.875,10.313,50,10.313S10.313,28.125,10.313,50S28.125,89.688,50,89.688z"/>
<path fill-rule="evenodd" clip-rule="evenodd" fill="#FF0000" d="M68.749,33.438v-9.062c-15.312-7.812-31.251-5.625-37.187,3.438
	c-4.688,7.187-5.002,23.126,15,28.75l7.187,1.875c4.063,1.248,6.875,2.813,6.249,8.123c-1.872,4.688-5.936,6.253-12.185,4.688
	c-6.878-1.251-13.128-4.999-18.752-8.126v10.627c10.313,7.5,26.249,10.623,36.25,4.374c11.874-7.501,11.249-27.5-2.813-32.188
	l-14.375-5.936c-7.5-4.376-4.999-13.125,5.313-11.251L68.749,33.438z"/>
</svg>
