<?xml version="1.0" encoding="utf-8"?>
<!-- Generator: Adobe Illustrator 15.0.0, SVG Export Plug-In . SVG Version: 6.00 Build 0)  -->
<!DOCTYPE svg PUBLIC "-//W3C//DTD SVG 1.1//EN" "http://www.w3.org/Graphics/SVG/1.1/DTD/svg11.dtd">
<svg version="1.1" id="Ebene_1" xmlns="http://www.w3.org/2000/svg" xmlns:xlink="http://www.w3.org/1999/xlink" x="0px" y="0px"
	 width="100px" height="100px" viewBox="0 0 100 100" enable-background="new 0 0 100 100" xml:space="preserve">
<rect fill-rule="evenodd" clip-rule="evenodd" fill="#FF0000" width="100" height="100"/>
<polygon fill="#FFFFF0" points="5,5 95,5 95,95 5,95 5,5 "/>
<path fill="#FF0000" d="M24.218,18.466c0-3.082,2.501-5.58,5.58-5.58c3.082,0,5.583,2.498,5.583,5.58s-2.501,5.58-5.583,5.58
	C26.719,24.046,24.218,21.548,24.218,18.466z"/>
<path fill-rule="evenodd" clip-rule="evenodd" fill="#FF0000" d="M33.262,47.154l9.478-2.573l-0.984-10.328l25.789,3.451
	l1.182-4.436c0,0-41.207-7.207-42.563-5.997c-1.704,1.52,0.313,4.421,1.298,7.571S33.262,47.154,33.262,47.154z"/>
<path fill-rule="evenodd" clip-rule="evenodd" fill="#FF0000" d="M44.588,85.424l6.813-0.59l0.196-20.277l-5.315-15.355
	c0,0-2.756-3.15-5.709-1.969s-7.01,4.332-5.436,7.087c1.575,2.756,8.072,11.812,8.072,11.812L44.588,85.424z"/>
<path fill-rule="evenodd" clip-rule="evenodd" fill="none" stroke="#FF0000" stroke-width="5.3573" stroke-miterlimit="3.8637" d="
	M25.747,85.474l41.403-4.802c0,0,10.963-2.455,12.932-10.92"/>
<line fill-rule="evenodd" clip-rule="evenodd" fill="none" stroke="#FF0000" stroke-width="2.6786" stroke-miterlimit="3.8637" x1="67.286" y1="34.907" x2="96.423" y2="34.907"/>
<path fill="#FF0000" d="M63.336,34.914c0-1.793,1.452-3.247,3.249-3.247c1.79,0,3.248,1.453,3.248,3.247
	c0,1.795-1.458,3.248-3.248,3.248C64.788,38.162,63.336,36.708,63.336,34.914z"/>
</svg>
