<?xml version="1.0" encoding="utf-8"?>
<!-- Generator: Adobe Illustrator 15.0.0, SVG Export Plug-In . SVG Version: 6.00 Build 0)  -->
<!DOCTYPE svg PUBLIC "-//W3C//DTD SVG 1.1//EN" "http://www.w3.org/Graphics/SVG/1.1/DTD/svg11.dtd">
<svg version="1.1" id="Layer_1" xmlns="http://www.w3.org/2000/svg" xmlns:xlink="http://www.w3.org/1999/xlink" x="0px" y="0px"
	 width="100px" height="100px" viewBox="0 0 100 100" enable-background="new 0 0 100 100" xml:space="preserve">
<rect fill-rule="evenodd" clip-rule="evenodd" fill="#FF0000" width="100" height="100"/>
<polygon fill="#FFFFF0" points="5,5 95,5 95,95 5,95 5,5 "/>
<path fill="#FFFFF0" stroke="#000000" stroke-width="2.6575" stroke-linecap="round" stroke-linejoin="round" stroke-miterlimit="10" d="
	M2.93,83.072"/>
<line fill="#FFFFF0" stroke="#FF0000" stroke-width="5" stroke-linecap="round" stroke-linejoin="round" stroke-miterlimit="10" x1="2.93" y1="87.088" x2="96.908" y2="61.073"/>
<path fill="#FF0000" d="M88.416,44.515c0.206,11.073,1.753,11.76-7.591,15.072l-62.477,16.88c-6.38,1.789-5.69-3.896-5.741-10.626
	l-0.131-15.428c0.373-6.733-1.759-10.07,4.621-11.861l65.634-16.775c5.789-1.562,5.215,1.741,5.456,2.088L88.416,44.515z"/>
<polygon fill="#FFFFF0" points="31.426,52.378 17.04,56.045 17.04,43.757 31.426,40.15 "/>
<polygon fill="#FFFFF0" points="49.176,47.969 34.79,51.637 34.79,39.348 49.176,35.741 "/>
<polygon fill="#FFFFF0" points="66.578,43.561 52.192,47.228 52.192,34.939 66.578,31.333 "/>
<polygon fill="#FFFFF0" points="84.328,39.269 69.942,42.936 69.942,30.647 84.328,27.041 "/>
</svg>
