<?xml version="1.0" encoding="utf-8"?>
<!-- Generator: Adobe Illustrator 15.0.0, SVG Export Plug-In . SVG Version: 6.00 Build 0)  -->
<!DOCTYPE svg PUBLIC "-//W3C//DTD SVG 1.1//EN" "http://www.w3.org/Graphics/SVG/1.1/DTD/svg11.dtd">
<svg version="1.1" id="Ebene_1" xmlns="http://www.w3.org/2000/svg" xmlns:xlink="http://www.w3.org/1999/xlink" x="0px" y="0px"
	 width="100px" height="100px" viewBox="0 0 100 100" enable-background="new 0 0 100 100" xml:space="preserve">
<rect fill-rule="evenodd" clip-rule="evenodd" fill="#FF0000" width="100" height="100"/>
<rect x="5" y="5" fill-rule="evenodd" clip-rule="evenodd" fill="#FFFFF0" width="90" height="90"/>
<path fill-rule="evenodd" clip-rule="evenodd" fill="#FF0000" d="M45.684,6.049c0,0,1.609,5.294,1.75,7.749
	c0.104,1.802,0.354,2.799-1.295,5.778c-2.519,4.549-4.253,6.571-6.485,9.845c-2.099,3.078-5.635,7.835-6.068,10.868
	c-0.432,3.034-0.191,7.921,1.067,10.476c1.308,2.655,7.603,10.306,8.71,12.013c1.125,1.733,9.499,10.058,9.499,10.058
	s-0.298-3.072,0.279-7.403c0.519-3.89,2.184-4.521,3.771-7.264c1.583-2.746,7.666-8.664,8.963-12.851
	c1.297-4.189,1.354-6.179,0.625-11.174c-0.728-4.99-7.25-11.245-11.718-16.589C50.316,12.209,45.684,6.049,45.684,6.049z"/>
<line fill="none" stroke="#FF0000" stroke-width="10" stroke-miterlimit="10" x1="10.957" y1="63.198" x2="90.018" y2="88.202"/>
<line fill="none" stroke="#FF0000" stroke-width="10" stroke-miterlimit="10" x1="90.018" y1="63.198" x2="10.957" y2="88.202"/>
</svg>
