<?xml version="1.0" encoding="utf-8"?>
<!-- Generator: Adobe Illustrator 15.0.0, SVG Export Plug-In . SVG Version: 6.00 Build 0)  -->
<!DOCTYPE svg PUBLIC "-//W3C//DTD SVG 1.1//EN" "http://www.w3.org/Graphics/SVG/1.1/DTD/svg11.dtd">
<svg version="1.1" id="Ebene_1" xmlns="http://www.w3.org/2000/svg" xmlns:xlink="http://www.w3.org/1999/xlink" x="0px" y="0px"
	 width="100px" height="100px" viewBox="0 0 100 100" enable-background="new 0 0 100 100" xml:space="preserve">
<rect fill-rule="evenodd" clip-rule="evenodd" fill="#FF0000" width="100" height="100"/>
<polygon fill="#FFFFF0" points="5,5 95,5 95,95 5,95 5,5 "/>
<path fill-rule="evenodd" clip-rule="evenodd" fill="#FF0000" stroke="#FF001A" stroke-width="0.9288" stroke-miterlimit="10" d="
	M27.607,76.252c10.736,0,19.632-9.064,19.632-20.003c0-10.937-8.896-19.999-19.632-19.999c-11.044,0-19.939,9.062-19.939,19.999
	C7.668,67.188,16.563,76.252,27.607,76.252z"/>
<path fill-rule="evenodd" clip-rule="evenodd" fill="#FFFFF0" d="M27.607,70.313c7.669,0,13.803-6.25,13.803-14.064
	c0-7.5-6.134-14.061-13.803-14.061c-7.67,0-14.11,6.561-14.11,14.061C13.497,64.063,19.938,70.313,27.607,70.313z"/>
<path fill-rule="evenodd" clip-rule="evenodd" fill="#FF0000" stroke="#FF001A" stroke-width="0.9288" stroke-miterlimit="10" d="
	M70.553,76.252c11.043,0,19.938-9.064,19.938-20.003c0-10.937-8.895-19.999-19.938-19.999c-10.735,0-19.634,9.062-19.634,19.999
	C50.919,67.188,59.817,76.252,70.553,76.252z"/>
<path fill-rule="evenodd" clip-rule="evenodd" fill="#FFFFF0" d="M70.553,70.313c7.669,0,14.111-6.25,14.111-14.064
	c0-7.5-6.442-14.061-14.111-14.061c-7.67,0-13.805,6.561-13.805,14.061C56.748,64.063,62.883,70.313,70.553,70.313z"/>
<line fill-rule="evenodd" clip-rule="evenodd" fill="none" stroke="#FF0000" stroke-width="6.25" stroke-miterlimit="10" x1="30.061" y1="23.75" x2="65.338" y2="26.563"/>
<line fill-rule="evenodd" clip-rule="evenodd" fill="none" stroke="#FF0000" stroke-width="6.1923" stroke-miterlimit="10" x1="27.914" y1="56.249" x2="44.479" y2="25.313"/>
<line fill-rule="evenodd" clip-rule="evenodd" fill="none" stroke="#FF0000" stroke-width="6.1923" stroke-miterlimit="10" x1="73.006" y1="56.875" x2="44.171" y2="56.875"/>
<rect x="1.839" y="2.5" fill-rule="evenodd" clip-rule="evenodd" fill="#FF0000" width="96.322" height="12.813"/>
<rect x="1.839" y="84.688" fill-rule="evenodd" clip-rule="evenodd" fill="#FF0000" width="96.322" height="12.813"/>
</svg>
