<?xml version="1.0" encoding="utf-8"?>
<!-- Generator: Adobe Illustrator 15.0.0, SVG Export Plug-In . SVG Version: 6.00 Build 0)  -->
<!DOCTYPE svg PUBLIC "-//W3C//DTD SVG 1.1//EN" "http://www.w3.org/Graphics/SVG/1.1/DTD/svg11.dtd">
<svg version="1.1" id="Ebene_1" xmlns="http://www.w3.org/2000/svg" xmlns:xlink="http://www.w3.org/1999/xlink" x="0px" y="0px"
	 width="100px" height="100px" viewBox="0 0 100 100" enable-background="new 0 0 100 100" xml:space="preserve">
<rect fill-rule="evenodd" clip-rule="evenodd" fill="#FF0000" width="100" height="100"/>
<polygon fill-rule="evenodd" clip-rule="evenodd" fill="#FFFFF0" points="42.271,76.438 59.387,76.438 59.387,58.718 76.78,58.718 
	76.78,41.281 59.387,41.281 59.387,23.562 42.271,23.562 42.271,41.281 25.152,41.281 25.152,58.718 42.271,58.718 42.271,76.438 
	"/>
<polygon fill-rule="evenodd" clip-rule="evenodd" fill="#FFFFF0" points="67.944,66.313 86.442,66.313 95,75.312 82.853,75.312 
	95,87.687 88.927,93.874 76.78,81.499 76.78,93.874 67.944,85.156 "/>
<polygon fill-rule="evenodd" clip-rule="evenodd" fill="#FFFFF0" points="32.056,67.438 13.835,67.438 5,76.438 17.424,76.438 
	5,88.813 11.074,95 23.498,82.625 23.498,95 32.056,86.281 "/>
<polygon fill-rule="evenodd" clip-rule="evenodd" fill="#FFFFF0" points="32.056,32.563 32.056,13.719 23.498,5 23.498,17.375 
	11.074,5 5,11.188 17.424,23.562 5,23.562 13.835,32.563 "/>
<polygon fill-rule="evenodd" clip-rule="evenodd" fill="#FFFFF0" points="67.944,32.563 67.944,13.719 76.78,5 76.78,17.375 
	88.927,5 95,11.188 82.853,23.562 95,23.562 86.442,32.563 "/>
</svg>
