<?xml version="1.0" encoding="utf-8"?>
<!-- Generator: Adobe Illustrator 15.0.0, SVG Export Plug-In . SVG Version: 6.00 Build 0)  -->
<!DOCTYPE svg PUBLIC "-//W3C//DTD SVG 1.1//EN" "http://www.w3.org/Graphics/SVG/1.1/DTD/svg11.dtd">
<svg version="1.1" id="Ebene_1" xmlns="http://www.w3.org/2000/svg" xmlns:xlink="http://www.w3.org/1999/xlink" x="0px" y="0px"
	 width="100px" height="100px" viewBox="0 0 100 100" enable-background="new 0 0 100 100" xml:space="preserve">
<rect fill-rule="evenodd" clip-rule="evenodd" fill="#FF0000" width="100" height="100"/>
<rect x="5" y="5" fill-rule="evenodd" clip-rule="evenodd" fill="#FFFFF0" width="90" height="90"/>
<path fill="#FF0000" d="M26.382,91.661c8.453,0,15.779-0.707,16.343-2.471c0.564-2.118-9.581-2.823-11.271-2.823
	c-1.127-0.706-1.691-1.765-2.254-2.824c-1.691-3.529-1.127-6.001-0.563-9.531c1.127-2.116,1.69-4.588,5.635-7.06
	c11.834-6.353,9.018-12.707,7.889-21.178c0-0.706-5.635-1.765-15.779-1.765c-10.143,0-15.778,1.059-15.778,1.765
	C9.477,54.245,6.658,60.6,18.492,66.952c3.946,2.472,4.509,4.943,5.073,7.06c1.127,3.53,1.69,6.002,0,9.531
	c-0.564,1.06-1.691,2.118-2.254,2.824c-1.69,0-11.834,0.705-11.271,2.823C10.604,90.954,17.93,91.661,26.382,91.661L26.382,91.661z"
	/>
<polygon fill-rule="evenodd" clip-rule="evenodd" fill="#FF0000" stroke="#FF0000" points="62.202,10.469 62.202,12.037 
	61.407,15.175 58.623,20.665 55.839,28.116 55.441,32.822 55.839,39.489 57.827,44.195 61.01,47.725 64.589,48.902 70.952,48.902 
	75.328,48.509 79.305,45.372 81.294,42.627 82.487,40.273 82.487,32.431 82.487,29.685 80.498,23.018 78.907,17.527 76.521,12.821 
	76.521,11.253 78.112,9.291 79.702,8.508 81.294,8.508 83.68,10.469 86.066,14.782 88.452,19.488 90.441,24.586 92.032,32.038 
	91.635,37.529 90.441,43.411 88.851,47.333 85.669,52.039 81.294,55.961 77.316,57.921 73.339,59.098 69.362,59.49 63.396,59.098 
	60.612,57.921 57.43,55.961 53.851,53.216 49.476,48.509 48.68,44.98 46.691,39.882 46.691,35.96 46.691,30.862 46.691,27.332 
	48.282,21.842 53.851,11.645 55.839,8.899 58.225,8.115 59.418,8.508 "/>
</svg>
