<?xml version="1.0" encoding="utf-8"?>
<!-- Generator: Adobe Illustrator 15.0.0, SVG Export Plug-In . SVG Version: 6.00 Build 0)  -->
<!DOCTYPE svg PUBLIC "-//W3C//DTD SVG 1.1//EN" "http://www.w3.org/Graphics/SVG/1.1/DTD/svg11.dtd">
<svg version="1.1" id="Ebene_1" xmlns="http://www.w3.org/2000/svg" xmlns:xlink="http://www.w3.org/1999/xlink" x="0px" y="0px"
	 width="100px" height="100px" viewBox="0 0 100 100" enable-background="new 0 0 100 100" xml:space="preserve">
<rect fill-rule="evenodd" clip-rule="evenodd" fill="#FF0000" width="100" height="100"/>
<polygon fill="#FFFFF0" points="5,5 95,5 95,95 5,95 5,5 "/>
<path fill="#FF0000" d="M85.474,11.802c-2.224,0-4.171,0.557-5.563,1.668c-0.833,0.835-1.667,1.669-2.503,2.783
	c-0.834,1.113-1.113,2.503-1.391,3.616h13.91l-0.558,2.503H75.738c0,0.277,0,0.557,0,0.834c0,1.113,0,1.669,0,1.949h13.075
	l-0.557,2.781H76.294c0.557,3.06,1.67,5.007,3.896,6.399c1.668,0.834,3.338,1.391,5.008,1.391c2.502,0,4.449-0.556,5.843-1.947
	v4.173c-1.671,0.834-3.341,1.111-5.566,1.111c-5.841,0-10.014-2.503-12.239-7.51c-0.278-1.113-0.834-2.226-1.111-3.617h-3.06
	l0.555-2.781h2.226c0-0.557-0.277-1.113-0.277-1.949c0-0.277,0-0.557,0.277-0.834h-2.78l0.555-2.503h2.226
	c0.834-4.45,3.06-7.51,6.677-9.459c2.226-1.391,4.449-1.947,7.232-1.947c2.504,0,4.45,0.556,6.12,1.669l-0.833,3.894
	C89.369,12.636,87.699,11.802,85.474,11.802z"/>
<path fill-rule="evenodd" clip-rule="evenodd" fill="#FF0000" stroke="#FF0000" stroke-width="0.9375" stroke-miterlimit="10" d="
	M28.125,90.313c10.938,0,19.999-9.063,19.999-20.314C48.124,59.063,39.063,50,28.125,50C16.873,50,7.812,59.063,7.812,69.999
	C7.812,81.251,16.873,90.313,28.125,90.313z"/>
<path fill-rule="evenodd" clip-rule="evenodd" fill="#FFFFF0" d="M28.125,84.374c7.812,0,14.061-6.561,14.061-14.375
	c0-7.812-6.249-14.061-14.061-14.061c-7.814,0-14.375,6.249-14.375,14.061C13.75,77.813,20.311,84.374,28.125,84.374z"/>
<path fill-rule="evenodd" clip-rule="evenodd" fill="#FF0000" stroke="#FF0000" stroke-width="0.9375" stroke-miterlimit="10" d="
	M71.875,90.313c11.249,0,20.311-9.063,20.311-20.314C92.186,59.063,83.124,50,71.875,50c-10.938,0-20.002,9.063-20.002,19.999
	C51.873,81.251,60.938,90.313,71.875,90.313z"/>
<path fill-rule="evenodd" clip-rule="evenodd" fill="#FFFFF0" d="M71.875,84.374c7.812,0,14.375-6.561,14.375-14.375
	c0-7.812-6.563-14.061-14.375-14.061c-7.813,0-14.063,6.249-14.063,14.061C57.812,77.813,64.062,84.374,71.875,84.374z"/>
<line fill-rule="evenodd" clip-rule="evenodd" fill="none" stroke="#FF0000" stroke-width="6.25" stroke-miterlimit="10" x1="30.623" y1="37.5" x2="66.562" y2="40.313"/>
<line fill-rule="evenodd" clip-rule="evenodd" fill="none" stroke="#FF0000" stroke-width="6.25" stroke-miterlimit="10" x1="28.437" y1="69.999" x2="45.312" y2="39.063"/>
<line fill-rule="evenodd" clip-rule="evenodd" fill="none" stroke="#FF0000" stroke-width="6.25" stroke-miterlimit="10" x1="74.373" y1="70.624" x2="44.998" y2="70.624"/>
</svg>
