<?xml version="1.0" encoding="utf-8"?>
<!-- Generator: Adobe Illustrator 15.0.0, SVG Export Plug-In . SVG Version: 6.00 Build 0)  -->
<!DOCTYPE svg PUBLIC "-//W3C//DTD SVG 1.1//EN" "http://www.w3.org/Graphics/SVG/1.1/DTD/svg11.dtd">
<svg version="1.1" id="Ebene_1" xmlns="http://www.w3.org/2000/svg" xmlns:xlink="http://www.w3.org/1999/xlink" x="0px" y="0px"
	 width="100px" height="100px" viewBox="0 0 100 100" enable-background="new 0 0 100 100" xml:space="preserve">
<rect fill-rule="evenodd" clip-rule="evenodd" fill="#FF0000" width="100" height="100"/>
<rect x="5" y="5" fill-rule="evenodd" clip-rule="evenodd" fill="#FFFDF1" width="90" height="90"/>
<circle fill="#FF0000" cx="50" cy="48" r="10.751"/>
<path fill="#FF0000" d="M50.067,30.555c0,0-8.594-0.486-13.332,0.242c-1.576,0.242-5.696,0.97-7.03,2.485
	c-1.737,1.973-3.143,3.708-3.333,6.181s-3.062,5.696-5.521,5.964c-2.495,0.272-7.254,0.735-9.394-1.151
	c-1.498-1.321-1.696-1.697-2.061-3.515c-0.602-3.008-0.265-7.153-0.074-8.675c0.189-1.522,1.332-3.806,3.425-5.328
	c2.094-1.522,7.231-3.044,10.086-3.806s4.45-1.098,7.114-1.669s3.302-0.606,6.727-0.606s13.453,0.182,13.453,0.182l-0.256,0.03
	c0,0,10.028-0.182,13.453-0.182s4.063,0.035,6.727,0.606s4.26,0.908,7.114,1.669s7.992,2.283,10.086,3.806
	c2.093,1.522,3.235,3.806,3.425,5.328c0.19,1.522,0.527,5.667-0.074,8.675c-0.364,1.818-0.563,2.193-2.061,3.515
	c-2.14,1.887-6.898,1.423-9.394,1.151c-2.459-0.268-5.33-3.49-5.521-5.964s-1.596-4.208-3.333-6.181
	c-1.334-1.515-5.454-2.243-7.03-2.485c-4.738-0.728-13.332-0.242-13.332-0.242L50.067,30.555z"/>
<path fill="#FF0000" d="M43.448,67.75c0,0-2.125-1.125-3.125-1.75c-2.837-1.773-3.267-2.716-4.937-5.887
	c-0.966-1.836-1.527-2.797-3.247-3.758c-1.993-1.115-3.464-0.316-5.327,0.801s-5.199,4.537-6.24,7.781
	c-0.997,3.104-0.743,4.211-0.743,8.217s-0.334,5.547,2.181,7.596s4.916,1.75,4.916,1.75l20.188,0.125l2.688-0.063l23.382,0.187
	c0,0,2.29,0.05,4.806-1.999c2.515-2.049,2.181-3.59,2.181-7.596s0.253-5.113-0.743-8.217c-1.041-3.244-4.378-6.664-6.24-7.781
	c-1.863-1.117-3.334-1.916-5.326-0.801c-1.721,0.961-2.28,1.922-3.247,3.758c-1.67,3.171-2.099,4.113-4.937,5.887
	c-1,0.625-3.125,1.75-3.125,1.75H43.448z"/>
</svg>
