<?xml version="1.0" encoding="utf-8"?>
<!-- Generator: Adobe Illustrator 15.0.0, SVG Export Plug-In . SVG Version: 6.00 Build 0)  -->
<!DOCTYPE svg PUBLIC "-//W3C//DTD SVG 1.1//EN" "http://www.w3.org/Graphics/SVG/1.1/DTD/svg11.dtd">
<svg version="1.1" id="Ebene_1" xmlns="http://www.w3.org/2000/svg" xmlns:xlink="http://www.w3.org/1999/xlink" x="0px" y="0px"
	 width="100px" height="100px" viewBox="0 0 100 100" enable-background="new 0 0 100 100" xml:space="preserve">
<rect fill-rule="evenodd" clip-rule="evenodd" fill="#FF0000" width="100" height="100"/>
<path fill="#FFFFF0" d="M66.257,13.39c0-2.821,2.288-5.107,5.105-5.107c2.824,0,5.109,2.287,5.109,5.107s-2.285,5.108-5.109,5.108
	C68.545,18.498,66.257,16.21,66.257,13.39z"/>
<circle fill="#FFFFF0" cx="75.869" cy="31.56" r="5.109"/>
<circle fill="#FFFFF0" cx="84.878" cy="25.254" r="5.106"/>
<circle fill="#FFFFF0" cx="82.326" cy="14.14" r="5.106"/>
<circle fill="#FFFFF0" cx="67.459" cy="24.162" r="5.109"/>
<ellipse fill="#FFFFF0" cx="75.952" cy="21.646" rx="6.982" ry="7.131"/>
<path fill="#FF0000" d="M72.227,21.792c0-2.032,1.708-3.679,3.812-3.679c2.11,0,3.814,1.647,3.814,3.679
	c0,2.03-1.704,3.677-3.814,3.677C73.935,25.469,72.227,23.822,72.227,21.792z"/>
<path fill-rule="evenodd" clip-rule="evenodd" fill="none" stroke="#FFFFF0" stroke-width="7.8748" stroke-miterlimit="3.8637" d="
	M10.158,83.202c0,0,72.469,0.474,73.28,0c4.408-2.55,5.626-8.644,5.626-8.644"/>
<ellipse fill="#FFFFF0" cx="27.774" cy="16.497" rx="7.871" ry="8.462"/>
<polyline fill-rule="evenodd" clip-rule="evenodd" fill="none" stroke="#FFFFF0" stroke-width="9.2538" stroke-miterlimit="3.8637" points="
	70.354,68.05 45.142,52.596 28.256,61.405 28.761,32.671 "/>
<line fill-rule="evenodd" clip-rule="evenodd" fill="none" stroke="#FFFFF0" stroke-width="6.1692" stroke-miterlimit="3.8637" x1="67.327" y1="48.388" x2="27.063" y2="33.079"/>
<path fill-rule="evenodd" clip-rule="evenodd" fill="#FFFFF0" d="M43.175,55.447c0,0-1.781,13.464-8.335,16.275
	c-4.802,2.061-9.572,2.79-13.354-1.083c-0.333-0.345-10.549-32.258-1.512-38.511c4.05-2.8,8.247-2.524,12.348,0
	c6.756,4.162-0.505,20.338-0.505,20.338L43.175,55.447z"/>
<polygon fill-rule="evenodd" clip-rule="evenodd" fill="#FFFFF0" points="33.446,40.998 22.644,38.622 28.045,30.967 65.118,45.222 
	"/>
<polygon fill-rule="evenodd" clip-rule="evenodd" fill="#FFFFF0" points="78.874,75.604 71.984,72.258 76.905,63.399 87.549,60.053 
	"/>
</svg>
