<?xml version="1.0" encoding="utf-8"?>
<!-- Generator: Adobe Illustrator 15.0.0, SVG Export Plug-In . SVG Version: 6.00 Build 0)  -->
<!DOCTYPE svg PUBLIC "-//W3C//DTD SVG 1.1//EN" "http://www.w3.org/Graphics/SVG/1.1/DTD/svg11.dtd">
<svg version="1.1" id="Ebene_1" xmlns="http://www.w3.org/2000/svg" xmlns:xlink="http://www.w3.org/1999/xlink" x="0px" y="0px"
	 width="100px" height="100px" viewBox="0 0 100 100" enable-background="new 0 0 100 100" xml:space="preserve">
<rect fill-rule="evenodd" clip-rule="evenodd" fill="#FF0000" width="100" height="100"/>
<polygon fill="#FFFFF0" points="5,5 95,5 95,95 5,95 5,5 "/>
<path fill-rule="evenodd" clip-rule="evenodd" fill="#FF0000" d="M54.381,9.55c3.333,0,28.561,12.934,35.255,16.505
	c-3.855,1.581-27.359,12.403-27.359,12.403v49.227h-9.252V11.658C53.024,11.658,53.454,9.55,54.381,9.55z"/>
<path fill="#FF0000" d="M17.384,77.571c0-5.756,4.668-10.428,10.429-10.428c5.759,0,10.43,4.672,10.43,10.428
	c0,5.763-4.671,10.429-10.43,10.429C22.052,88,17.384,83.334,17.384,77.571z"/>
</svg>
