<?xml version="1.0" encoding="utf-8"?>
<!-- Generator: Adobe Illustrator 15.0.0, SVG Export Plug-In . SVG Version: 6.00 Build 0)  -->
<!DOCTYPE svg PUBLIC "-//W3C//DTD SVG 1.1//EN" "http://www.w3.org/Graphics/SVG/1.1/DTD/svg11.dtd">
<svg version="1.1" id="Ebene_1" xmlns="http://www.w3.org/2000/svg" xmlns:xlink="http://www.w3.org/1999/xlink" x="0px" y="0px"
	 width="100px" height="100px" viewBox="0 0 100 100" enable-background="new 0 0 100 100" xml:space="preserve">
<rect fill-rule="evenodd" clip-rule="evenodd" fill="#FF0000" width="100" height="100"/>
<polygon fill="#FFFFF0" points="5,5 95,5 95,95 5,95 5,5 "/>
<polygon fill="#FF0000" points="3.241,4.331 32.069,4.331 32.069,96.979 3.241,96.979 3.241,4.331 "/>
<path fill-rule="evenodd" clip-rule="evenodd" fill="#FFFFF0" d="M10.023,92.433c0,0-13.042-32.734-1.39-50.701
	c0.605-0.932,5.441-5.635,1.098-17.601c-3.454-9.512,3.045-13.09,7.023-13.09h-0.892c3.979,0,10.227,3.49,7.025,13.09
	c-3.989,11.966,0.503,16.661,1.097,17.601c12.09,19.178-1.391,50.701-1.391,50.701H10.023z"/>
<circle fill="#FF0000" cx="63.618" cy="65.915" r="27.171"/>
<circle fill="#FFFFF0" cx="73.457" cy="61" r="5.841"/>
<ellipse fill="#FFFFF0" cx="84.027" cy="48.071" rx="3.969" ry="4.172"/>
<path fill="#FFFFF0" d="M81.593,66.964c0-2.682,1.335-4.86,2.986-4.86c1.648,0,2.986,2.179,2.986,4.86
	c0,2.688-1.338,4.863-2.986,4.863C82.928,71.827,81.593,69.652,81.593,66.964z"/>
</svg>
