<?xml version="1.0" encoding="utf-8"?>
<!-- Generator: Adobe Illustrator 15.0.0, SVG Export Plug-In . SVG Version: 6.00 Build 0)  -->
<!DOCTYPE svg PUBLIC "-//W3C//DTD SVG 1.1//EN" "http://www.w3.org/Graphics/SVG/1.1/DTD/svg11.dtd">
<svg version="1.1" id="Ebene_1" xmlns="http://www.w3.org/2000/svg" xmlns:xlink="http://www.w3.org/1999/xlink" x="0px" y="0px"
	 width="100px" height="100px" viewBox="0 0 100 100" enable-background="new 0 0 100 100" xml:space="preserve">
<rect fill="#FF0000" width="100" height="100"/>
<path fill="#FFFFF0" d="M50,10l45,30h-8v50H13V40H5L50,10z"/>
<path fill="#FF0000" d="M35,40L20,60v5l10-10l-5,15h20l-5-15l10,10v-5L35,40z"/>
<path fill="#FF0000" d="M30,70l5,18l5-18H30z"/>
<line fill="none" stroke="#FF0000" stroke-width="6" stroke-linecap="round" x1="32" y1="88" x2="38" y2="88"/>
<circle fill="#FF0000" cx="35" cy="35" r="7"/>
<path fill="#FF0000" d="M65,40L50,60v5l10-10l-5,15h20l-5-15l10,10v-5L65,40z"/>
<path fill="#FF0000" d="M60,70l5,18l5-18H60z"/>
<line fill="none" stroke="#FF0000" stroke-width="6" stroke-linecap="round" x1="62" y1="88" x2="68" y2="88"/>
<circle fill="#FF0000" cx="65" cy="35" r="7"/>
</svg>
