<?xml version="1.0" encoding="utf-8"?>
<!-- Generator: Adobe Illustrator 15.0.0, SVG Export Plug-In . SVG Version: 6.00 Build 0)  -->
<!DOCTYPE svg PUBLIC "-//W3C//DTD SVG 1.1//EN" "http://www.w3.org/Graphics/SVG/1.1/DTD/svg11.dtd">
<svg version="1.1" id="Ebene_1" xmlns="http://www.w3.org/2000/svg" xmlns:xlink="http://www.w3.org/1999/xlink" x="0px" y="0px"
	 width="100px" height="100px" viewBox="0 0 100 100" enable-background="new 0 0 100 100" xml:space="preserve">
<rect fill-rule="evenodd" clip-rule="evenodd" fill="#FF0000" width="100" height="100"/>
<polygon fill="#FFFFF0" points="5,5 95,5 95,95 5,95 5,5 "/>
<path fill-rule="evenodd" clip-rule="evenodd" fill="none" stroke="#FF0000" stroke-width="3.5716" stroke-miterlimit="3.8637" d="
	M5.02,25.035c14.755,0.003,38-0.193,43.513-0.784c8.81-0.944,15.854-2.756,23.137-5.315"/>
<path fill-rule="evenodd" clip-rule="evenodd" fill="none" stroke="#FF0000" stroke-width="3.5716" stroke-miterlimit="3.8637" d="
	M5.02,36.644c14.755,0.003,38-0.194,43.513-0.784c8.81-0.944,15.854-2.756,23.137-5.315"/>
<path fill-rule="evenodd" clip-rule="evenodd" fill="none" stroke="#FF0000" stroke-width="3.5716" stroke-miterlimit="3.8637" d="
	M5.02,47.358c14.755,0.003,38-0.194,43.513-0.785c8.81-0.944,15.854-2.756,23.137-5.315"/>
<path fill-rule="evenodd" clip-rule="evenodd" fill="none" stroke="#FF0000" stroke-width="3.5716" stroke-miterlimit="3.8637" d="
	M5.02,58.964c14.755,0.003,38-0.194,43.513-0.785c8.81-0.944,15.854-2.756,23.137-5.315"/>
<polygon fill="#FF0000" points="70.385,9.29 78.456,9.29 78.456,87.247 70.385,87.247 70.385,9.29 "/>
<path fill-rule="evenodd" clip-rule="evenodd" fill="none" stroke="#FF0000" stroke-width="3.5716" stroke-miterlimit="3.8637" d="
	M17.518,25.039c0,5.512,0.683,29.148,0.486,33.873"/>
<path fill-rule="evenodd" clip-rule="evenodd" fill="none" stroke="#FF0000" stroke-width="3.5716" stroke-miterlimit="3.8637" d="
	M28.345,25.235c0,5.512,1.465,28.951,1.268,33.676"/>
<path fill-rule="evenodd" clip-rule="evenodd" fill="none" stroke="#FF0000" stroke-width="3.5716" stroke-miterlimit="3.8637" d="
	M39.173,24.842c0,5.512,1.35,28.452,1.153,33.178"/>
<path fill-rule="evenodd" clip-rule="evenodd" fill="none" stroke="#FF0000" stroke-width="3.5716" stroke-miterlimit="3.8637" d="
	M50,24.054c0,5.512,1.239,29.24,1.043,33.965"/>
<path fill-rule="evenodd" clip-rule="evenodd" fill="none" stroke="#FF0000" stroke-width="3.5716" stroke-miterlimit="3.8637" d="
	M60.936,22.282c0,5.512,1.018,29.229,0.821,33.953"/>
<path fill-rule="evenodd" clip-rule="evenodd" fill="#FF0000" d="M96.37,96.894L5.026,95.516c0,0,0.154-9.226,1.547-9.226
	c3.347,0,6.497-2.783,9.056-2.783c2.56,0,6.3,3.374,8.859,3.374c2.559,0,4.527-2.756,7.087-2.756c2.559,0,6.496,2.756,9.449,2.756
	s4.527-2.362,7.284-2.56c2.756-0.196,3.347,2.953,7.283,2.56c3.938-0.394,4.528-2.953,7.284-2.953s4.949,5.288,11.037,5.029
	c6.908-0.298,8.797-4.438,11.553-4.438s4.331,3.149,6.103,3.149c1.772,0,3.938-3.543,5.906-3.347L96.37,96.894z"/>
<path fill-rule="evenodd" clip-rule="evenodd" fill="none" stroke="#FF0000" stroke-width="4.4642" stroke-miterlimit="3.8637" d="
	M96.37,96.894L5.026,95.516c0,0,0.154-9.226,1.547-9.226c3.347,0,6.497-2.783,9.056-2.783c2.56,0,6.3,3.374,8.859,3.374
	c2.559,0,4.527-2.756,7.087-2.756c2.559,0,6.496,2.756,9.449,2.756s4.527-2.362,7.284-2.56c2.756-0.196,3.347,2.953,7.283,2.56
	c3.938-0.394,4.528-2.953,7.284-2.953s4.949,5.288,11.037,5.029c6.908-0.298,8.797-4.438,11.553-4.438s4.331,3.149,6.103,3.149
	c1.772,0,3.938-3.543,5.906-3.347L96.37,96.894z"/>
</svg>
