<?xml version="1.0" encoding="utf-8"?>
<!-- Generator: Adobe Illustrator 15.0.0, SVG Export Plug-In . SVG Version: 6.00 Build 0)  -->
<!DOCTYPE svg PUBLIC "-//W3C//DTD SVG 1.1//EN" "http://www.w3.org/Graphics/SVG/1.1/DTD/svg11.dtd">
<svg version="1.1" id="Ebene_1" xmlns="http://www.w3.org/2000/svg" xmlns:xlink="http://www.w3.org/1999/xlink" x="0px" y="0px"
	 width="100px" height="100px" viewBox="0 0 100 100" enable-background="new 0 0 100 100" xml:space="preserve">
<rect fill-rule="evenodd" clip-rule="evenodd" fill="#FF0000" width="100" height="100"/>
<rect x="5" y="5" fill-rule="evenodd" clip-rule="evenodd" fill="#FFFFF0" width="90" height="90"/>
<polygon fill-rule="evenodd" clip-rule="evenodd" fill="#FF0000" points="63.848,29.11 49.849,29.239 46.998,43.109 57.105,51.403 
	68.381,43.627 "/>
<path fill-rule="evenodd" clip-rule="evenodd" fill="#FF0000" d="M25.494,42.903l-7,9.072c0,0,2.191,12.568,5.056,13.998
	c0.258,0.133,8.684-1.553,8.684-1.553s0.648-10.76,1.555-13.353C34.365,49.423,25.494,42.903,25.494,42.903z"/>
<path fill-rule="evenodd" clip-rule="evenodd" fill="#FF0000" d="M54.127,64.769c0,0-8.812,5.57-10.626,5.702
	c-1.815,0.13,1.036,8.426,1.036,8.426l14.26,0.388l6.869-8.426L54.127,64.769z"/>
<polygon fill-rule="evenodd" clip-rule="evenodd" fill="#FF0000" points="81.67,65.267 75.5,64.876 76.404,52.434 84.908,43.49 
	85.168,50.36 83.873,59.822 "/>
<polygon fill-rule="evenodd" clip-rule="evenodd" fill="#FF0000" points="47.519,14.587 41.556,23.142 29.761,28.326 25.224,24.437 
	29.761,20.29 37.279,16.531 43.242,14.975 "/>
<path fill-rule="evenodd" clip-rule="evenodd" fill="none" stroke="#FF0000" stroke-width="3.1249" stroke-miterlimit="3.8637" d="
	M25.494,44.718c0,0,1.78-14.89,5.669-18.777"/>
<line fill-rule="evenodd" clip-rule="evenodd" fill="none" stroke="#FF0000" stroke-width="3.1249" stroke-miterlimit="3.8637" x1="32.362" y1="51.976" x2="49.2" y2="42.072"/>
<path fill-rule="evenodd" clip-rule="evenodd" fill="none" stroke="#FF0000" stroke-width="3.1249" stroke-miterlimit="3.8637" d="
	M31.196,62.993c0,0,3.892,3.766,6.856,5.47c2.964,1.704,6.103,3.347,8.17,3.174"/>
<path fill-rule="evenodd" clip-rule="evenodd" fill="none" stroke="#FF0000" stroke-width="3.1249" stroke-miterlimit="3.8637" d="
	M63.33,71.637c0,0,9.705-3.894,14.5-8.948"/>
<line fill-rule="evenodd" clip-rule="evenodd" fill="none" stroke="#FF0000" stroke-width="3.1249" stroke-miterlimit="3.8637" x1="66.18" y1="41.941" x2="78.348" y2="53.729"/>
<line fill-rule="evenodd" clip-rule="evenodd" fill="none" stroke="#FF0000" stroke-width="3.1249" stroke-miterlimit="3.8637" x1="52.701" y1="32.091" x2="39.352" y2="21.326"/>
<line fill-rule="evenodd" clip-rule="evenodd" fill="none" stroke="#FF0000" stroke-width="3.1249" stroke-miterlimit="3.8637" x1="46.351" y1="76.952" x2="39.871" y2="83.932"/>
<line fill-rule="evenodd" clip-rule="evenodd" fill="none" stroke="#FF0000" stroke-width="3.1249" stroke-miterlimit="3.8637" x1="56.854" y1="77.081" x2="59.701" y2="83.402"/>
<line fill-rule="evenodd" clip-rule="evenodd" fill="none" stroke="#FF0000" stroke-width="3.1249" stroke-miterlimit="3.8637" x1="24.197" y1="63.123" x2="22.762" y2="73.043"/>
<line fill-rule="evenodd" clip-rule="evenodd" fill="none" stroke="#FF0000" stroke-width="3.1249" stroke-miterlimit="3.8637" x1="57.105" y1="47.516" x2="54.518" y2="68.887"/>
<line fill-rule="evenodd" clip-rule="evenodd" fill="none" stroke="#FF0000" stroke-width="3.1249" stroke-miterlimit="3.8637" x1="61.904" y1="32.351" x2="70.848" y2="20.548"/>
<line fill-rule="evenodd" clip-rule="evenodd" fill="none" stroke="#FF0000" stroke-width="3.1249" stroke-miterlimit="3.8637" x1="22.124" y1="52.754" x2="14.993" y2="51.717"/>
<circle fill-rule="evenodd" clip-rule="evenodd" fill="none" stroke="#FF0000" stroke-width="3.1249" stroke-miterlimit="3.8637" cx="50" cy="49.999" r="35.859"/>
</svg>
