<?xml version="1.0" encoding="utf-8"?>
<!-- Generator: Adobe Illustrator 15.0.0, SVG Export Plug-In . SVG Version: 6.00 Build 0)  -->
<!DOCTYPE svg PUBLIC "-//W3C//DTD SVG 1.1//EN" "http://www.w3.org/Graphics/SVG/1.1/DTD/svg11.dtd">
<svg version="1.1" id="Ebene_1" xmlns="http://www.w3.org/2000/svg" xmlns:xlink="http://www.w3.org/1999/xlink" x="0px" y="0px"
	 width="100px" height="100px" viewBox="0 0 100 100" enable-background="new 0 0 100 100" xml:space="preserve">
<rect fill-rule="evenodd" clip-rule="evenodd" fill="#0000FF" width="100" height="100"/>
<rect x="5" y="5" fill-rule="evenodd" clip-rule="evenodd" fill="#FFFFF0" width="90" height="90"/>
<path fill-rule="evenodd" clip-rule="evenodd" fill="#0000FF" d="M2.032,33.762c0,0,60.221,13.246,63.42,14.53
	c9.652,3.873,13.786,6.826,16.739,10.172s7.689,11.405,7.493,13.571c-0.197,2.165-18.111-0.394-23.427-1.771
	S2.369,55.516,2.369,55.516L2.032,33.762z"/>
<path fill-rule="evenodd" clip-rule="evenodd" fill="none" stroke="#0000FF" stroke-width="6.2502" stroke-linecap="round" stroke-miterlimit="3.8637" d="
	M80.905,80.136c0,0-16.536-2.182-28.348-5.71"/>
<path fill="#0000FF" d="M56.734,39.341c0-3.479,2.817-6.299,6.3-6.299c3.476,0,6.3,2.821,6.3,6.299c0,3.479-2.824,6.3-6.3,6.3
	C59.552,45.641,56.734,42.82,56.734,39.341z"/>
<circle fill="#0000FF" cx="47.284" cy="35.207" r="6.301"/>
<line fill-rule="evenodd" clip-rule="evenodd" fill="none" stroke="#0000FF" stroke-width="6.2502" stroke-linecap="round" stroke-miterlimit="3.8637" x1="20.847" y1="67.521" x2="4.55" y2="63.583"/>
<circle fill="#0000FF" cx="31.782" cy="31.805" r="6.3"/>
<circle fill="#0000FF" cx="16.033" cy="28.064" r="6.3"/>
</svg>
