<?xml version="1.0" encoding="utf-8"?>
<!-- Generator: Adobe Illustrator 15.0.0, SVG Export Plug-In . SVG Version: 6.00 Build 0)  -->
<!DOCTYPE svg PUBLIC "-//W3C//DTD SVG 1.1//EN" "http://www.w3.org/Graphics/SVG/1.1/DTD/svg11.dtd">
<svg version="1.1" id="Ebene_1" xmlns="http://www.w3.org/2000/svg" xmlns:xlink="http://www.w3.org/1999/xlink" x="0px" y="0px"
	 width="100px" height="100px" viewBox="0 0 100 100" enable-background="new 0 0 100 100" xml:space="preserve">
<rect fill-rule="evenodd" clip-rule="evenodd" fill="#FF0000" width="100" height="100"/>
<polygon fill="#FFFFF0" points="5,5 95,5 95,95 5,95 5,5 "/>
<rect x="68.509" y="7.927" fill="none" width="21.168" height="40.948"/>
<text transform="matrix(0.9999 0 0 1 68.5098 45.9463)" fill="#FF0000" font-family="'ArialMT'" font-size="37.7976">€</text>
<path fill="#FF0000" d="M18.477,28.68c0-3.577,2.904-6.478,6.481-6.478c3.58,0,6.478,2.9,6.478,6.478
	c0,3.581-2.897,6.481-6.478,6.481C21.381,35.162,18.477,32.261,18.477,28.68z"/>
<path fill-rule="evenodd" clip-rule="evenodd" fill="none" stroke="#FF0000" stroke-width="4.8213" stroke-linecap="round" stroke-miterlimit="3.8637" d="
	M80.475,55.266L32.638,83.968c-5.108,2.073-8.062,1.482-12.401,1.064"/>
<polyline fill-rule="evenodd" clip-rule="evenodd" fill="none" stroke="#FF0000" stroke-width="6.428" stroke-linecap="round" stroke-miterlimit="3.8637" points="
	36.987,27.01 34.505,43.313 18.561,53.943 "/>
<polyline fill-rule="evenodd" clip-rule="evenodd" fill="none" stroke="#FF0000" stroke-width="8.035" stroke-linecap="round" stroke-miterlimit="3.8637" points="
	63.207,38.351 44.074,50.753 54.349,68.472 "/>
<polygon fill-rule="evenodd" clip-rule="evenodd" fill="#FF0000" points="37.861,23.986 64.622,34.808 52.059,44.731 36.821,39.059 
	"/>
</svg>
