<?xml version="1.0" encoding="utf-8"?>
<!-- Generator: Adobe Illustrator 15.0.0, SVG Export Plug-In . SVG Version: 6.00 Build 0)  -->
<!DOCTYPE svg PUBLIC "-//W3C//DTD SVG 1.1//EN" "http://www.w3.org/Graphics/SVG/1.1/DTD/svg11.dtd">
<svg version="1.1" id="Ebene_1" xmlns="http://www.w3.org/2000/svg" xmlns:xlink="http://www.w3.org/1999/xlink" x="0px" y="0px"
	 width="100px" height="100px" viewBox="0 0 100 100" enable-background="new 0 0 100 100" xml:space="preserve">
<rect fill="#FF0000" width="100" height="100"/>
<polygon fill="#FFFFF0" stroke="#FF0000" points="5,5 95,5 95,95 5,95 "/>
<path fill="#FF0000" stroke="#FFFFF0" stroke-width="2" d="M94.471,33.088c-15.234,7.534-30.098,6.159-39.988-4.995l-6.123-3.536
	c-7.302-1.494-9.66,2.588-7.071,12.248l6.124,3.536l-28.978,7.765c-5.577,4.945-4.714,8.166,2.588,9.66L50,50L11.363,60.354
	c-5.577,4.944-4.714,8.164,2.588,9.658l38.637-10.353l-33.807,9.059c-5.577,4.945-4.714,8.165,2.588,9.659l33.807-9.059
	l-19.318,5.177c-5.577,4.944-4.714,8.165,2.588,9.659l19.318-5.178c12.879-3.449,21.676-9.259,26.391-17.424
	c1.494-7.302,5.893-10.205,13.195-8.712L96.959,51.3"/>
<rect x="94.471" y="38.095" fill="#FF0000" width="4.977" height="16.518"/>
<rect x="94.471" y="32.393" fill="#FF0000" width="1.288" height="2.739"/>
</svg>
