<?xml version="1.0" encoding="utf-8"?>
<!-- Generator: Adobe Illustrator 15.0.0, SVG Export Plug-In . SVG Version: 6.00 Build 0)  -->
<!DOCTYPE svg PUBLIC "-//W3C//DTD SVG 1.1//EN" "http://www.w3.org/Graphics/SVG/1.1/DTD/svg11.dtd">
<svg version="1.1" id="Ebene_1" xmlns="http://www.w3.org/2000/svg" xmlns:xlink="http://www.w3.org/1999/xlink" x="0px" y="0px"
	 width="100px" height="100px" viewBox="0 0 100 100" enable-background="new 0 0 100 100" xml:space="preserve">
<rect fill-rule="evenodd" clip-rule="evenodd" fill="#FF0000" width="100" height="100"/>
<rect x="5" y="5" fill-rule="evenodd" clip-rule="evenodd" fill="#FFFFF0" width="90" height="90"/>
<path fill="none" stroke="#FF0000" stroke-width="6" d="M40.536,32.43c0,0,15.303-1.132,25.352,0
	c4.979,0.561,7.847,1.336,10.73,1.981c3.496,0.782,6.139,1.002,7.972,3.421c2.307,3.045,2.494,6.441,1.455,8.52
	s-2.703,5.195-11.638,7.065s-20.987,2.494-30.338,2.078S18.093,54.895,15.392,50c-2.701-4.894-0.95-9.101-0.013-10.623
	c1.663-2.701,8.473-4.361,11.026-5.077C31.417,32.896,40.536,32.43,40.536,32.43z"/>
<path fill="none" stroke="#FF0000" stroke-width="6" d="M37.834,31.691c0,0-0.831-5.704,2.286-10.898s3.948-5.818,6.234-6.649
	s4.779-1.454,8.104-0.623s4.779,0.831,6.649,4.156s3.117,4.779,3.948,9.767s0,27.394,0,27.394"/>
<path fill="none" stroke="#FF0000" stroke-width="6" d="M15.392,50c0,0-0.334,18.404,6.593,26.147
	c3.743,4.184,12.08,6.557,18.101,7.606c5.974,1.042,13.372,1.125,25.34-0.56c10.978-1.545,15.915-8.548,17.771-12.551
	c2.187-4.714,2.696-8,3.082-11.67c0.338-3.212-0.234-12.621-0.234-12.621"/>
<path fill="#FF0000" d="M18.462,52.368c0,0,10.569,3.963,24,3.963s26.643-0.659,34.57-3.522c7.927-2.863,9.246-6.166,8.366,5.504
	s-3.303,15.413-7.046,18.716s-20.036,7.266-26.862,7.046c-6.826-0.22-23.56-3.082-27.083-6.385s-7.486-11.01-8.147-16.734
	S18.462,52.368,18.462,52.368z"/>
</svg>
