<?xml version="1.0" encoding="utf-8"?>
<!-- Generator: Adobe Illustrator 15.0.0, SVG Export Plug-In . SVG Version: 6.00 Build 0)  -->
<!DOCTYPE svg PUBLIC "-//W3C//DTD SVG 1.1//EN" "http://www.w3.org/Graphics/SVG/1.1/DTD/svg11.dtd">
<svg version="1.1" id="Ebene_1" xmlns="http://www.w3.org/2000/svg" xmlns:xlink="http://www.w3.org/1999/xlink" x="0px" y="0px"
	 width="100px" height="100px" viewBox="0 0 100 100" enable-background="new 0 0 100 100" xml:space="preserve">
<rect fill-rule="evenodd" clip-rule="evenodd" fill="#0000FF" width="100" height="100"/>
<polygon fill="#FFFFF0" points="5,5 95,5 95,95 5,95 5,5 "/>
<path fill-rule="evenodd" clip-rule="evenodd" fill="#0000FF" stroke="#0000FF" d="M67.62,10.088
	c6.726,3.92,11.185,11.926,7.301,18.719c-1.794,3.127-4.239,4.515-7.762,4.998c-3.725,0.518-7.357-0.044-9.532,3.223
	c-0.964,1.444-1.244,2.955,0.145,4.411c2.003,2.096,4.551-0.409,7.436-0.364c5.198,0.062,8.416,0.702,12.917,3.323
	c13.048,7.603,17.166,24.592,9.639,37.758c-4.469,7.815-12.269,13.282-20.008,8.775c-4.664-2.719-9.505-8.435-5.748-16.857
	c1.701-3.805,2.987-8.644-0.595-10.732c-1.195-0.696-2.907-0.121-3.629,1.063c-1.712,2.8-1.093,4.821-2.634,7.527
	c-6.888,12.09-21.105,13.223-33.614,7.297c-14.665-6.945-14.881-19.17-10.7-24.36c11.198-13.909,26.012,1.577,27.367,2.367
	c2.48,1.445,5.859,1.428,7.292-1.076c1.021-1.784-1.615-3.87-3.016-5.333c-11.427-11.936-8.891-24.284-5.365-30.449
	C43.385,9.411,56.755,3.758,67.62,10.088z"/>
<path fill="#FFFFF0" d="M50.363,51.294c1.665-2.914,5.357-3.908,8.242-2.224c2.885,1.686,3.874,5.41,2.208,8.324
	c-1.666,2.912-5.354,3.907-8.238,2.224C49.688,57.933,48.698,54.206,50.363,51.294z"/>
</svg>
