<?xml version="1.0" encoding="utf-8"?>
<!-- Generator: Adobe Illustrator 15.0.0, SVG Export Plug-In . SVG Version: 6.00 Build 0)  -->
<!DOCTYPE svg PUBLIC "-//W3C//DTD SVG 1.1//EN" "http://www.w3.org/Graphics/SVG/1.1/DTD/svg11.dtd">
<svg version="1.1" xmlns="http://www.w3.org/2000/svg" xmlns:xlink="http://www.w3.org/1999/xlink" x="0px" y="0px" width="100px"
	 height="100px" viewBox="0 0 100 100" enable-background="new 0 0 100 100" xml:space="preserve">
<g id="Ebene_3">
	<rect fill-rule="evenodd" clip-rule="evenodd" fill="#FF0000" width="100" height="100"/>
	<rect x="5" y="5" fill-rule="evenodd" clip-rule="evenodd" fill="#FFFFF0" width="90" height="90"/>
	<path fill-rule="evenodd" clip-rule="evenodd" fill="#FF0000" d="M70.289,33.473l-9.777,28.738h11.895v20.285h5.1V62.211h10.195
		l-8.516-28.738H70.289z"/>
	<ellipse fill-rule="evenodd" clip-rule="evenodd" fill="#FF0000" cx="74.956" cy="21.888" rx="6.261" ry="6.224"/>
	<line fill="none" stroke="#FF0000" stroke-width="5" x1="50.482" y1="17.254" x2="50.306" y2="82.548"/>
</g>
<g id="Ebene_5">
	<ellipse fill-rule="evenodd" clip-rule="evenodd" fill="#FF0000" cx="26" cy="22.011" rx="6.664" ry="6.625"/>
	<path fill="#FF0000" d="M39.669,33.448h-3.714v0.04h-19.91v-0.04h-3.714v23.256h3.296l0.09,26.042h7.309l0.254-26.319h5.711
		c0,0,0,19.716,0,26.319h7.224l-0.09-26.042h3.545V33.448z"/>
</g>
</svg>
