<?xml version="1.0" encoding="utf-8"?>
<!-- Generator: Adobe Illustrator 15.0.0, SVG Export Plug-In . SVG Version: 6.00 Build 0)  -->
<!DOCTYPE svg PUBLIC "-//W3C//DTD SVG 1.1//EN" "http://www.w3.org/Graphics/SVG/1.1/DTD/svg11.dtd">
<svg version="1.1" id="Ebene_1" xmlns="http://www.w3.org/2000/svg" xmlns:xlink="http://www.w3.org/1999/xlink" x="0px" y="0px"
	 width="100px" height="100px" viewBox="0 0 100 100" enable-background="new 0 0 100 100" xml:space="preserve">
<polygon fill="#FF0000" points="0,0 100,0 100,100 0,100 0,0 "/>
<path fill-rule="evenodd" clip-rule="evenodd" fill="#FFFFF0" d="M18.894,23.769c-2.679-6.172-0.791-7.656,4.924-4.975
	L18.894,23.769z"/>
<path fill-rule="evenodd" clip-rule="evenodd" fill="#FFFFF0" d="M26.751,32.037l-0.759-1.283l5.2-5.31l1.527,0.981
	c4.49,2.988,17.016,11.921,17.016,11.921s1.729,1.281,2.981,0c1.257-1.282,19.314-21.538,19.314-21.538l9.477-9.836
	c0,0,1.257-0.859,2.041,0.962c0.788,1.821,2.829,2.943,0.316,7.592c-2.51,4.648-18.585,30.994-18.585,30.994
	s-2.672,4.169-0.628,7.053c2.041,2.885,10.893,15.606,10.893,15.606s2.354,2.246,4.71,1.282c2.354-0.96,5.182-1.761,5.967-1.921
	c0.784-0.162,3.434-0.098,4.658,1.413c1.515,1.872,0.514,2.415-0.421,3.284l-3.201,2.966c0,0-1.244,1.348-0.408,3.555
	c0.408,1.081,1.084,2.722,1.712,4.486c0.992,2.793-0.437,4.876-3.756,3.528c-1.531-0.618-3.263-1.36-4.576-2.204
	c-1.25-0.804-2.644-0.039-3.587,1.244l-3.354,4.547c0,0-1.885,2.302-3.298-0.641c-1.412-2.946-0.784-7.113,0.156-10.798
	c0.944-3.688-0.156-3.685-1.568-5.131c-1.413-1.441-12.877-9.938-14.761-10.898c-1.885-0.963-2.456-1.927-5.495-0.162
	c-3.042,1.764-26.023,14.424-33.44,18.672c-3.973,2.278-5.708,0.3-6.932-0.325c-1.04-0.531-1.333-1.569-0.102-2.709
	c2.203-2.285,6.601-6.019,6.601-6.019L38.37,51.972l-0.469-3.206C37.901,48.766,28.135,34.303,26.751,32.037z"/>
<line fill-rule="evenodd" clip-rule="evenodd" fill="none" stroke="#FFFFF0" stroke-width="4.6759" stroke-linecap="round" stroke-miterlimit="3.8637" x1="31.93" y1="18.117" x2="18.256" y2="32.076"/>
<path fill-rule="evenodd" clip-rule="evenodd" fill="#FF0000" d="M40.708,40.272c2.012-2.051,8.052,0.788,13.488,6.341
	c5.44,5.554,3.715,7.481,1.703,9.532c-2.009,2.051-3.543,3.457-8.983-2.1C41.479,48.492,38.699,42.325,40.708,40.272z"/>
</svg>
