<?xml version="1.0" encoding="utf-8"?>
<!-- Generator: Adobe Illustrator 15.0.0, SVG Export Plug-In . SVG Version: 6.00 Build 0)  -->
<!DOCTYPE svg PUBLIC "-//W3C//DTD SVG 1.1//EN" "http://www.w3.org/Graphics/SVG/1.1/DTD/svg11.dtd">
<svg version="1.1" id="Ebene_1" xmlns="http://www.w3.org/2000/svg" xmlns:xlink="http://www.w3.org/1999/xlink" x="0px" y="0px"
	 width="100px" height="100px" viewBox="0 0 100 100" enable-background="new 0 0 100 100" xml:space="preserve">
<rect fill-rule="evenodd" clip-rule="evenodd" fill="#FF0000" width="100" height="100"/>
<polygon fill="#FFFFF0" points="5,5 95,5 95,95 5,95 5,5 "/>
<path fill-rule="evenodd" clip-rule="evenodd" fill="#FF0000" stroke="#FF0000" stroke-width="3.1498" stroke-miterlimit="3.8637" d="
	M22.316,43.833c-0.886,0.197,7.48-12.599,12.993-16.143c5.512-3.543,14.961-5.512,19.686-5.119
	c4.725,0.394,11.813,2.363,13.485,3.052s8.269,4.625,9.056,5.414c2.43,2.439,5.217,6.595,5.808,7.776s2.066,4.036,2.264,5.217
	c0.197,1.182,0.591,8.17,0.394,9.253c-0.196,1.083-1.969,8.071-2.559,9.449c-0.591,1.378-6.693,12.205-7.186,12.796
	s-3.938-1.279-3.938-1.279s-5.512,2.067-6.595,2.657c-1.083,0.591-9.253,1.969-10.532,1.969s-4.823-0.787-6.595-2.165
	c-1.772-1.378-3.636-4.823-3.734-5.808s-0.394-7.973,0.295-8.957c0.689-0.984,1.766-3.249,2.258-5.021s0.099-6.004,0.099-6.89
	c0-0.886-1.674-5.512-3.052-6.201s-5.02-1.279-6.89-1.477C35.703,42.159,23.202,43.636,22.316,43.833z"/>
<path fill-rule="evenodd" clip-rule="evenodd" fill="none" stroke="#FF0000" stroke-width="4.4642" stroke-miterlimit="3.8637" d="
	M50.067,56.653c0,0-8.422,4.633-12.018,9.36c-3.272,4.307-3.128,11.608-5.589,12.691s-5.519,2.568-7.29,2.86
	c-1.771,0.299-11.532,0.495-11.532,0.495l3.544-23.063l29.212-0.84"/>
<line fill-rule="evenodd" clip-rule="evenodd" fill="none" stroke="#FF0000" stroke-width="4.4642" stroke-miterlimit="3.8637" x1="25.647" y1="59.791" x2="21.71" y2="81.265"/>
<polygon fill-rule="evenodd" clip-rule="evenodd" fill="#FFFFF0" stroke="#FFFFF0" stroke-width="1.2902" stroke-miterlimit="3.8637" points="
	58.428,29.019 58.794,31.401 57.223,33.145 59.545,32.691 60.104,35.012 61.286,32.913 63.35,32.639 61.608,31.461 62.249,29.525 
	60.313,30.415 "/>
<polygon fill-rule="evenodd" clip-rule="evenodd" fill="#FFFFF0" stroke="#FFFFF0" stroke-width="1.2902" stroke-miterlimit="3.8637" points="
	68.644,32.852 69.01,35.232 67.438,36.978 69.76,36.524 70.32,38.845 71.501,36.746 73.562,36.472 71.824,35.294 72.464,33.357 
	70.529,34.247 "/>
<polygon fill-rule="evenodd" clip-rule="evenodd" fill="#FFFFF0" stroke="#FFFFF0" stroke-width="1.2902" stroke-miterlimit="3.8637" points="
	74.288,41.858 74.654,44.239 73.085,45.984 75.404,45.531 75.961,47.85 77.146,45.75 79.206,45.477 77.469,44.3 78.111,42.362 
	76.174,43.253 "/>
<ellipse fill="#FFFFF0" stroke="#FFFFF0" stroke-width="0.893" stroke-miterlimit="3.8637" cx="55.896" cy="57.263" rx="4.983" ry="2.584"/>
</svg>
