<?xml version="1.0" encoding="utf-8"?>
<!-- Generator: Adobe Illustrator 15.0.0, SVG Export Plug-In . SVG Version: 6.00 Build 0)  -->
<!DOCTYPE svg PUBLIC "-//W3C//DTD SVG 1.1//EN" "http://www.w3.org/Graphics/SVG/1.1/DTD/svg11.dtd">
<svg version="1.1" id="Ebene_1" xmlns="http://www.w3.org/2000/svg" xmlns:xlink="http://www.w3.org/1999/xlink" x="0px" y="0px"
	 width="100px" height="100px" viewBox="0 0 100 100" enable-background="new 0 0 100 100" xml:space="preserve">
<rect fill-rule="evenodd" clip-rule="evenodd" fill="#FF0000" width="100" height="100"/>
<rect x="5" y="5" fill-rule="evenodd" clip-rule="evenodd" fill="#FFFFF0" width="90" height="90"/>
<path fill="#FF0000" d="M38.383,21.439c0.204-2.858,2.667-5.015,5.495-4.821c2.833,0.196,4.963,2.669,4.759,5.527
	c-0.204,2.855-2.664,5.013-5.495,4.817C40.312,26.771,38.182,24.294,38.383,21.439z"/>
<path fill-rule="evenodd" clip-rule="evenodd" fill="none" stroke="#FF0000" stroke-width="5.2403" stroke-miterlimit="3.8637" d="
	M13.615,42.649c0,0,9.188-19.458,9.567-19.448c11.861,0.354,12.896,25.398,18.306,26.978c0.384,0.112,12.001,1.882,19.7-0.486"/>
<path fill-rule="evenodd" clip-rule="evenodd" fill="none" stroke="#FF0000" stroke-width="5.2403" stroke-linecap="round" stroke-miterlimit="3.8637" d="
	M25.534,54.249c0,0-5.92,3.69-7.094,8.06c-1.076,3.995,7.147,21.946,7.147,21.946"/>
<polyline fill-rule="evenodd" clip-rule="evenodd" fill="none" stroke="#FF0000" stroke-width="6.3825" stroke-linecap="round" stroke-miterlimit="3.8637" points="
	51.273,27.875 40.68,40.049 26.421,39.964 "/>
<polyline fill-rule="evenodd" clip-rule="evenodd" fill="none" stroke="#FF0000" stroke-width="6.987" stroke-linecap="round" stroke-miterlimit="3.8637" points="
	62.566,47.747 47.398,58.024 56.504,72.548 "/>
<path fill-rule="evenodd" clip-rule="evenodd" fill="#FF0000" d="M47.438,35.965c0.88-6.633,2.663-12.023,4.881-10.904
	c1.716,0.863,11.414,16.665,10.286,16.9c-6.069,1.267-3.869,3.389-8.222,3.943C52.504,46.145,47.387,36.351,47.438,35.965z"/>
<path fill-rule="evenodd" clip-rule="evenodd" fill="none" stroke="#FF0000" stroke-width="5.2403" stroke-linecap="round" stroke-miterlimit="3.8637" d="
	M26.168,54.257c0,0,4.664,4.425,3.486,8.793c-1.075,3.996,7.794,21.205,7.794,21.205"/>
<path fill-rule="evenodd" clip-rule="evenodd" fill="none" stroke="#FF0000" stroke-width="5.2403" stroke-linecap="round" stroke-miterlimit="3.8637" d="
	M70.45,49.332c0,0,6.909,0.198,9.765,5.276c3.077,5.474-9.066,29.548-9.066,29.548"/>
<path fill="#FF0000" d="M85.474,11.802c-2.224,0-4.171,0.557-5.563,1.668c-0.833,0.835-1.667,1.669-2.503,2.783
	c-0.834,1.113-1.113,2.503-1.391,3.616h13.91l-0.558,2.503H75.738c0,0.277,0,0.557,0,0.834c0,1.113,0,1.669,0,1.949h13.075
	l-0.557,2.781H76.294c0.557,3.06,1.67,5.007,3.896,6.399c1.668,0.834,3.338,1.391,5.008,1.391c2.502,0,4.449-0.556,5.843-1.947
	v4.173c-1.671,0.834-3.341,1.111-5.566,1.111c-5.841,0-10.014-2.503-12.239-7.51c-0.278-1.113-0.834-2.226-1.111-3.617h-3.06
	l0.555-2.781h2.226c0-0.557-0.277-1.113-0.277-1.949c0-0.277,0-0.557,0.277-0.834h-2.78l0.555-2.503h2.226
	c0.834-4.45,3.06-7.51,6.677-9.459c2.226-1.391,4.449-1.947,7.232-1.947c2.504,0,4.45,0.556,6.12,1.669l-0.833,3.894
	C89.369,12.636,87.699,11.802,85.474,11.802z"/>
</svg>
