<?xml version="1.0" encoding="utf-8"?>
<!-- Generator: Adobe Illustrator 15.0.0, SVG Export Plug-In . SVG Version: 6.00 Build 0)  -->
<!DOCTYPE svg PUBLIC "-//W3C//DTD SVG 1.1//EN" "http://www.w3.org/Graphics/SVG/1.1/DTD/svg11.dtd">
<svg version="1.1" id="Ebene_1" xmlns="http://www.w3.org/2000/svg" xmlns:xlink="http://www.w3.org/1999/xlink" x="0px" y="0px"
	 width="100px" height="100px" viewBox="0 0 100 100" enable-background="new 0 0 100 100" xml:space="preserve">
<rect fill-rule="evenodd" clip-rule="evenodd" fill="#FF0000" width="100" height="100"/>
<rect x="5" y="5" fill-rule="evenodd" clip-rule="evenodd" fill="#FFFFF0" width="90" height="90"/>
<text transform="matrix(0.8832 0 0 1 45.6553 35.0249)" fill="#FF0000" font-family="'MyriadPro-Bold'" font-size="35.4151">WC</text>
<path fill-rule="evenodd" clip-rule="evenodd" fill="#FF0000" d="M34.451,62.894h16.593l8.974,21.739l16.088-5.25l-1.965-6.017
	l-10.539,3.61l-8.495-20.152l-20.656,0.026V62.894L34.451,62.894z M34.451,50.193l13.62-0.025v-6.069h-13.62V50.193L34.451,50.193z
	 M34.451,90.343v-5.915c1.115-0.205,2.257-0.538,3.425-1.023c5.814-1.793,8.469-7.708,9.85-11.907l3.477,8.321
	c-2.654,5.225-5.309,6.606-11.017,8.963C38.274,89.549,36.362,90.086,34.451,90.343z M25.345,38.594
	c3.69-0.154,6.425-2.842,7.008-5.735c0.345-1.844-0.106-4.763-2.602-6.76c-1.434-1.587-6-2.816-9.504,0.103
	c-1.965,1.511-3.266,4.813-2.204,7.502l4.779,29.19h11.628v-6.043h-6.133l-0.982-6.632l7.115-0.026v-6.094h-8.204L25.345,38.594
	L25.345,38.594z M34.451,84.428v5.915c-3.823,0.538-7.699,0.051-11.628-1.562c-5.602-2.279-9.531-6.043-11.947-11.523
	c-0.929-2.099-1.328-4.608-1.407-7.093v-1.894c0.106-3.304,0.69-6.3,1.274-7.76c1.115-2.765,1.912-4.608,4.221-6.58l1.54,8.885
	c-1.513,1.408,0.77-2.202-0.558,0.769s-1.274,7.349,0.504,11.395c1.779,4.021,4.62,6.734,8.735,8.425
	C28.318,84.684,31.371,85.017,34.451,84.428z"/>
</svg>
