<?xml version="1.0" encoding="utf-8"?>
<!-- Generator: Adobe Illustrator 15.0.0, SVG Export Plug-In . SVG Version: 6.00 Build 0)  -->
<!DOCTYPE svg PUBLIC "-//W3C//DTD SVG 1.1//EN" "http://www.w3.org/Graphics/SVG/1.1/DTD/svg11.dtd">
<svg version="1.1" id="Ebene_1" xmlns="http://www.w3.org/2000/svg" xmlns:xlink="http://www.w3.org/1999/xlink" x="0px" y="0px"
	 width="100px" height="100px" viewBox="0 0 100 100" enable-background="new 0 0 100 100" xml:space="preserve">
<rect fill-rule="evenodd" clip-rule="evenodd" fill="#FF0000" width="100" height="100"/>
<rect x="5" y="5" fill-rule="evenodd" clip-rule="evenodd" fill="#FFFFF0" width="90" height="90"/>
<path fill-rule="evenodd" clip-rule="evenodd" fill="#FF0000" d="M49.139,7.717c6.321,0,12.069,5.177,12.069,12.082
	c0,6.327-5.748,11.504-12.069,11.504c-6.324,0-12.072-5.177-12.072-11.504C37.066,12.894,42.815,7.717,49.139,7.717L49.139,7.717z"
	/>
<path fill-rule="evenodd" clip-rule="evenodd" fill="#FF0000" d="M24.421,39.357H60.06v40.27c0,2.301,1.148,4.026,3.448,4.603
	h12.646v8.054H23.846v-8.054h9.772c2.298-0.576,4.023-2.302,4.598-4.603V51.438c-1.149-2.876-2.874-4.025-4.598-4.025h-9.197V39.357
	z"/>
</svg>
