<?xml version="1.0" encoding="utf-8"?>
<!-- Generator: Adobe Illustrator 15.0.0, SVG Export Plug-In . SVG Version: 6.00 Build 0)  -->
<!DOCTYPE svg PUBLIC "-//W3C//DTD SVG 1.1//EN" "http://www.w3.org/Graphics/SVG/1.1/DTD/svg11.dtd">
<svg version="1.1" id="Ebene_1" xmlns="http://www.w3.org/2000/svg" xmlns:xlink="http://www.w3.org/1999/xlink" x="0px" y="0px"
	 width="100px" height="100px" viewBox="0 0 100 100" enable-background="new 0 0 100 100" xml:space="preserve">
<rect fill-rule="evenodd" clip-rule="evenodd" fill="#0000FF" width="100" height="100"/>
<rect x="5" y="5" fill-rule="evenodd" clip-rule="evenodd" fill="#FFFFF0" width="90" height="90"/>
<path fill-rule="evenodd" clip-rule="evenodd" fill="#0000FF" d="M14.906,49.19c0,0,1.064-1.955,2.741-3.393
	c1.6-1.375,2.58-2.296,4.896-2.736c3.682-0.701,12.946-1.512,15.42-2.297C47.239,37.82,49.55,35.865,52.13,29.58
	c1.434-3.491,3.355-10.625,3.355-14.167c0-0.56,18.625,1.112,24.232,3.914c0.372,0.188,0.188,5.22,0,6.898s-0.56,9.878,0.188,12.302
	c0.744,2.424,2.975,5.78,3.353,7.642c0.846,4.175-0.87,8.707-2.172,10.571c-1.307,1.863-1.51,1.6-7.521,3.408
	c-4.475,1.35-19.759,1.307-22.183,1.307c-2.421,0-27.96-1.119-30.384-1.676c-2.421-0.561-5.217-1.12-6.708-4.104
	S14.906,49.19,14.906,49.19z"/>
<path fill-rule="evenodd" clip-rule="evenodd" fill="#0000FF" d="M12.242,66.958c1.731-0.621,2.79-0.769,4.604-0.71
	c1.347,0.043,2.679,0.264,5.343,0.886c2.664,0.624,9.858,2.31,11.458,2.666c1.599,0.354,7.997,1.422,10.039,1.6
	c2.043,0.176,7.105,0.265,8.349,0.176c1.245-0.089,7.538-0.514,9.153-0.8c3.974-0.698,13.768-2.218,15.1-2.488
	c1.461-0.289,4.663-1.2,6.216-0.976c1.695,0.243,3.688,0.754,4.088,2.575c0.409,1.876-0.737,5.306-1.688,6.309
	c-1.688,1.774-5.552,3.817-11.189,4.709c-2.036,0.32-12.095,2.067-20.461,2.362c-2.932,0.104-15.696-0.763-18.185-1.209
	c-2.485-0.445-12.624-2.236-16.167-3.516c-3.5-1.264-7.638-3.5-8.616-4.922C9.311,72.199,8.446,68.317,12.242,66.958z"/>
</svg>
