<?xml version="1.0" encoding="utf-8"?>
<!-- Generator: Adobe Illustrator 15.0.0, SVG Export Plug-In . SVG Version: 6.00 Build 0)  -->
<!DOCTYPE svg PUBLIC "-//W3C//DTD SVG 1.1//EN" "http://www.w3.org/Graphics/SVG/1.1/DTD/svg11.dtd">
<svg version="1.1" id="Ebene_1" xmlns="http://www.w3.org/2000/svg" xmlns:xlink="http://www.w3.org/1999/xlink" x="0px" y="0px"
	 width="100px" height="100px" viewBox="0 0 100 100" enable-background="new 0 0 100 100" xml:space="preserve">
<rect fill="#FF0000" width="100" height="100"/>
<path fill="#FFFFF0" d="M50,10l45,30h-8v50H13V40H5L50,10z"/>
<g enable-background="new    ">
	<path fill="#FF0000" d="M30.969,65.094l9-0.875c0.542,3.021,1.641,5.24,3.297,6.656C44.922,72.292,47.157,73,49.969,73
		c2.979,0,5.224-0.63,6.734-1.891c1.511-1.26,2.266-2.734,2.266-4.422c0-1.083-0.317-2.005-0.953-2.766
		c-0.635-0.76-1.744-1.422-3.328-1.984c-1.083-0.375-3.552-1.041-7.406-2c-4.958-1.229-8.438-2.739-10.438-4.531
		c-2.813-2.521-4.219-5.594-4.219-9.219c0-2.333,0.661-4.516,1.984-6.547c1.323-2.031,3.229-3.578,5.719-4.641
		c2.489-1.063,5.495-1.594,9.016-1.594c5.75,0,10.078,1.261,12.984,3.781c2.906,2.521,4.433,5.886,4.578,10.094l-9.25,0.406
		c-0.396-2.354-1.244-4.047-2.547-5.078c-1.302-1.031-3.255-1.547-5.859-1.547c-2.688,0-4.792,0.553-6.313,1.656
		c-0.979,0.709-1.469,1.656-1.469,2.844c0,1.084,0.458,2.011,1.375,2.781c1.167,0.979,4,2,8.5,3.063
		c4.5,1.063,7.828,2.162,9.984,3.297c2.156,1.136,3.844,2.688,5.063,4.656s1.828,4.401,1.828,7.297c0,2.625-0.729,5.084-2.188,7.375
		c-1.458,2.292-3.521,3.995-6.188,5.109c-2.666,1.114-5.989,1.672-9.968,1.672c-5.792,0-10.24-1.338-13.344-4.016
		C33.427,74.12,31.573,70.219,30.969,65.094z"/>
</g>
</svg>
