<?xml version="1.0" encoding="utf-8"?>
<!-- Generator: Adobe Illustrator 15.0.0, SVG Export Plug-In . SVG Version: 6.00 Build 0)  -->
<!DOCTYPE svg PUBLIC "-//W3C//DTD SVG 1.1//EN" "http://www.w3.org/Graphics/SVG/1.1/DTD/svg11.dtd">
<svg version="1.1" id="Ebene_1" xmlns="http://www.w3.org/2000/svg" xmlns:xlink="http://www.w3.org/1999/xlink" x="0px" y="0px"
	 width="100px" height="100px" viewBox="0 0 100 100" enable-background="new 0 0 100 100" xml:space="preserve">
<rect fill-rule="evenodd" clip-rule="evenodd" fill="#FF0000" width="100" height="100"/>
<polygon fill="#FFFFF0" points="5,5 95,5 95,95 5,95 5,5 "/>
<path fill-rule="evenodd" clip-rule="evenodd" fill="#FF0000" d="M17.21,81.701c-0.723,0.089-6.389,0.522-6.232-0.182
	c0.726-3.261-1.206-12.796-1.206-12.796l4.503-6.306c0,0,2.344-4.141,2.525-7.204s-2.153-8.83-2.153-8.83s-0.182-5.946,3.064-8.107
	c3.241-2.162,8.468-5.226,14.054-6.125c5.586-0.901,9.474-0.542,12.895,0c3.424,0.54,7.748,1.261,9.911,1.081
	c2.162-0.182,5.044-1.263,7.388-3.244c2.341-1.982,4.863-4.865,4.863-4.865l0.538-1.802l-3.589-2.601c0,0,4.072-1.452,4.974-1.812
	c0.901-0.361,3.842,0.99,4.564,1.17c0.717,0.18,2.79,0.089,3.873,0.451c1.079,0.36,3.331,0.811,4.232,2.251s0.541,1.441,1.624,2.522
	c1.08,1.081,5.583,3.604,5.583,3.604l1.172,0.63c0,0,0.179,1.352-0.541,1.892c-0.72,0.54-0.991,1.621-3.424,1.352
	c-2.434-0.271-4.863-0.542-5.494-0.721c-0.63-0.18-2.522-0.54-3.242-0.36c-0.723,0.18-1.983,0.269-3.245,2.251
	c-1.261,1.982-2.159,5.044-2.971,6.126c-0.813,1.081-2.073,2.431-2.522,3.153c-0.452,0.721-0.813,2.071-1.172,2.882
	c-0.36,0.813-1.262,3.334-1.621,3.694c-0.36,0.36-1.172,2.793-1.532,3.153c-0.359,0.358-1.531,1.533-1.803,2.253
	c-0.268,0.72-1.35,5.223-1.261,9.64c0.093,4.411-0.182,9.727-0.182,9.727l0.914,1.981l1.261,2.885c0,0,0.618-0.363,1.431,0.271
	c0.812,0.628,2.614,1.618,2.614,1.618s-0.273,0.182-1.261,0.723c-0.994,0.538-2.344,0.72-2.975,0.72s-2.162-0.72-2.162-0.72
	s-1.363-1.079-1.452-1.621c-0.093-0.541-0.449-1.98-0.449-1.98s-0.981,0.271-1.793,0.089c-0.81-0.182-2.156-3.872-2.156-4.506
	c0-0.628-0.813-3.784-0.631-4.325c0.182-0.538,1.261-8.558,1.079-9.818c-0.178-1.262-0.356-1.8-0.538-2.522
	c-0.182-0.72,0.896-2.522,0.535-2.611c-0.359-0.089-4.266,0.351-5.315,0.182c-0.731-0.12-3.479-0.677-4.278-1.474
	c-0.901-0.901-1.514-3.288-2.042-4.022c-0.486-0.675-3.113-1.975-3.873-2.253c-0.594-0.215-1.904-0.789-2.793-0.811
	c-0.809-0.02-3.783,0.542-3.783,0.542l-0.271,2.611c0,0-0.901,0.901-1.621,0.542c-0.72-0.362-3.242-1.261-3.242-1.261H27.26
	c0,0,1.399,2.44,1.563,3.229c0.185,0.889,0.482,1.813,0.123,2.715c-0.357,0.901-1.169,2.433-1.981,3.602
	c-0.809,1.176-2.43,2.793-3.152,3.427c-0.72,0.628-3.691,3.331-4.144,3.691c-0.449,0.363-1.96,1.354-2.322,2.073
	c-0.36,0.72-0.984,2.793-0.896,3.691c0.089,0.904,0.452,2.344,0.452,2.344s1.608,0.092,2.15,0.901
	c0.538,0.809,0.594,1.006,0.541,1.694c-0.132,1.772-4.438,1.003-4.438,1.003s1.362,1.086,1.907,1.538
	C17.601,79.176,18.739,81.511,17.21,81.701z"/>
</svg>
