<?xml version="1.0" encoding="utf-8"?>
<!-- Generator: Adobe Illustrator 15.0.0, SVG Export Plug-In . SVG Version: 6.00 Build 0)  -->
<!DOCTYPE svg PUBLIC "-//W3C//DTD SVG 1.1//EN" "http://www.w3.org/Graphics/SVG/1.1/DTD/svg11.dtd">
<svg version="1.1" id="Ebene_1" xmlns="http://www.w3.org/2000/svg" xmlns:xlink="http://www.w3.org/1999/xlink" x="0px" y="0px"
	 width="100px" height="100px" viewBox="0 0 100 100" enable-background="new 0 0 100 100" xml:space="preserve">
<rect fill-rule="evenodd" clip-rule="evenodd" fill="#FF0000" width="100" height="100"/>
<polygon fill="#FFFFF0" points="5,5 95,5 95,95 5,95 5,5 "/>
<circle fill="#FF0000" cx="68.056" cy="30.566" r="7.841"/>
<path fill-rule="evenodd" clip-rule="evenodd" fill="#FF0000" d="M53.882,36.69c-0.855,0.431-12.627,17.573-11.021,17.884
	c5.108,0.987,6.646,4.719,8.148,8.145c0.701,1.612,15.737-17.453,15.737-17.453S62.737,32.267,53.882,36.69z"/>
<path fill-rule="evenodd" clip-rule="evenodd" fill="none" stroke="#FF0000" stroke-width="7.7778" stroke-linecap="round" stroke-miterlimit="3.8637" d="
	M30.412,80.302c0,0-5.709-23.624-4.725-24.411s15.87,5.241,15.87,5.241"/>
<polyline fill-rule="evenodd" clip-rule="evenodd" fill="none" stroke="#FF0000" stroke-width="7.7778" stroke-linecap="round" stroke-miterlimit="3.8637" points="
	45.522,68.526 46.595,78.625 65.091,85.912 "/>
<line fill-rule="evenodd" clip-rule="evenodd" fill="none" stroke="#FF0000" stroke-width="6.8058" stroke-linecap="round" stroke-miterlimit="3.8637" x1="57.49" y1="44.325" x2="42.338" y2="13.541"/>
<line fill-rule="evenodd" clip-rule="evenodd" fill="none" stroke="#FF0000" stroke-width="5.3572" stroke-miterlimit="3.8637" x1="0.635" y1="5.193" x2="99.452" y2="20.609"/>
<line fill-rule="evenodd" clip-rule="evenodd" fill="none" stroke="#FF0000" stroke-width="5.3572" stroke-miterlimit="3.8637" x1="1.189" y1="78.956" x2="66.063" y2="97.396"/>
</svg>
