<?xml version="1.0" encoding="utf-8"?>
<!-- Generator: Adobe Illustrator 15.0.0, SVG Export Plug-In . SVG Version: 6.00 Build 0)  -->
<!DOCTYPE svg PUBLIC "-//W3C//DTD SVG 1.1//EN" "http://www.w3.org/Graphics/SVG/1.1/DTD/svg11.dtd">
<svg version="1.1" id="Ebene_1" xmlns="http://www.w3.org/2000/svg" xmlns:xlink="http://www.w3.org/1999/xlink" x="0px" y="0px"
	 width="100px" height="100px" viewBox="0 0 100 100" enable-background="new 0 0 100 100" xml:space="preserve">
<rect id="rect1874_2_" fill="#FF0000" width="100" height="100"/>
<path id="path1876" fill="#FFFFF0" d="M50,10l45,30h-8v50H13V40H5L50,10z"/>
<path fill="#FF0000" d="M39.568,36.307c1.809,5.169,0.348,10.779-3.26,12.53c-3.608,1.749-8-1.023-9.808-6.193
	c-1.808-5.169-0.348-10.778,3.26-12.529C33.37,28.365,37.761,31.138,39.568,36.307z"/>
<path fill="none" stroke="#FF0000" stroke-width="5" d="M50.785,32.853c0,9.842-4.277,18.949-13.852,22.308
	c-10.583,0-19.148-3.657-19.148-13.5"/>
<rect x="31.43" y="54.462" transform="matrix(0.9947 -0.1025 0.1025 0.9947 -6.3597 4.2473)" fill="#FF0000" width="13.445" height="19.104"/>
<polyline fill="none" stroke="#FF0000" stroke-width="5" points="34.937,69.484 38.153,77.66 33.035,85.91 "/>
<polyline fill="none" stroke="#FF0000" stroke-width="5" points="42.819,70.697 48.82,78.856 45.819,84.697 "/>
<path fill="#FF0000" d="M64.707,46.628c-1.466,4.191-0.282,8.739,2.644,10.158c2.925,1.418,6.485-0.829,7.951-5.021
	c1.466-4.19,0.282-8.738-2.644-10.157C69.732,40.189,66.173,42.437,64.707,46.628z"/>
<path fill="none" stroke="#FF0000" stroke-width="5" d="M55.614,43.827c0,7.979,3.468,15.362,11.229,18.085
	c8.581,0,15.524-2.965,15.524-10.944"/>
<rect x="60.405" y="61.347" transform="matrix(-0.9947 -0.1025 0.1025 -0.9947 124.2818 144.5674)" fill="#FF0000" width="10.9" height="15.488"/>
<polyline fill="none" stroke="#FF0000" stroke-width="5" points="68.463,73.525 65.854,80.154 70.005,86.843 "/>
<polyline fill="none" stroke="#FF0000" stroke-width="5" points="62.071,74.509 57.207,81.124 59.64,85.859 "/>
</svg>
