<?xml version="1.0" encoding="utf-8"?>
<!-- Generator: Adobe Illustrator 15.0.0, SVG Export Plug-In . SVG Version: 6.00 Build 0)  -->
<!DOCTYPE svg PUBLIC "-//W3C//DTD SVG 1.1//EN" "http://www.w3.org/Graphics/SVG/1.1/DTD/svg11.dtd">
<svg version="1.1" id="Ebene_1" xmlns="http://www.w3.org/2000/svg" xmlns:xlink="http://www.w3.org/1999/xlink" x="0px" y="0px"
	 width="100px" height="100px" viewBox="0 0 100 100" enable-background="new 0 0 100 100" xml:space="preserve">
<rect fill-rule="evenodd" clip-rule="evenodd" fill="#0000FF" width="100" height="100"/>
<polygon fill="#FFFFF0" points="5,5 95,5 95,95 5,95 5,5 "/>
<path fill-rule="evenodd" clip-rule="evenodd" fill="#0000FF" d="M34.419,53.807l-7.731-8.746l-3.864-4.463L20.46,37.62
	c0,0-4.081-2.79-6.012-1.116c-1.932,1.675-6.442,4.465-3.225,7.814c3.225,3.348,12.891,9.86,12.891,9.86l10.952,8.742l16.536,13.952
	l7.734,7.257c0,0,3.649,2.978,7.084-1.116c2.592-3.086,3.867-2.975,0.217-5.952c-3.651-2.979-14.603-9.49-14.603-9.49l-7.518-5.768
	l-6.229-4.647L34.419,53.807z"/>
<path fill-rule="evenodd" clip-rule="evenodd" fill="none" stroke="#0000FF" stroke-width="2.7197" stroke-miterlimit="3.8637" d="
	M34.419,53.807l-7.731-8.746l-3.864-4.463L20.46,37.62c0,0-4.081-2.79-6.012-1.116c-1.932,1.675-6.442,4.465-3.225,7.814
	c3.225,3.348,12.891,9.86,12.891,9.86l10.952,8.742l16.536,13.952l7.734,7.257c0,0,3.649,2.978,7.084-1.116
	c2.592-3.086,3.867-2.975,0.217-5.952c-3.651-2.979-14.603-9.49-14.603-9.49l-7.518-5.768l-6.229-4.647L34.419,53.807z"/>
<line fill-rule="evenodd" clip-rule="evenodd" fill="none" stroke="#0000FF" stroke-width="6.3458" stroke-linecap="round" stroke-miterlimit="3.8637" x1="33.159" y1="27.279" x2="54.979" y2="27.279"/>
<polyline fill-rule="evenodd" clip-rule="evenodd" fill="none" stroke="#0000FF" stroke-width="6.3458" stroke-linecap="round" stroke-miterlimit="3.8637" points="
	79.525,30.366 94.525,38.303 96.798,19.995 "/>
<polyline fill-rule="evenodd" clip-rule="evenodd" fill="none" stroke="#0000FF" stroke-width="7.2522" stroke-linecap="round" stroke-miterlimit="3.8637" points="
	29.91,47.107 53.839,37.062 60.709,53.246 "/>
<path fill-rule="evenodd" clip-rule="evenodd" fill="none" stroke="#0000FF" stroke-width="7.2522" stroke-linecap="round" stroke-miterlimit="3.8637" d="
	M51.389,64.037c0,0,13.419-12.694,21.999-20.813"/>
<path fill="#0000FF" d="M63.707,20.081c0-3.382,3.164-6.124,7.071-6.124c3.901,0,7.066,2.742,7.066,6.124
	c0,3.381-3.165,6.123-7.066,6.123C66.871,26.204,63.707,23.461,63.707,20.081z"/>
<path fill-rule="evenodd" clip-rule="evenodd" fill="#0000FF" d="M61.115,39.484l5.305-11.166l7.734,0.931
	c0,0,3.769,13.187,3.324,14.173c-1.595,3.546-12.986,10.385-12.986,10.385l-9.06-15.897L61.115,39.484z"/>
</svg>
