<?xml version="1.0" encoding="utf-8"?>
<!-- Generator: Adobe Illustrator 15.0.0, SVG Export Plug-In . SVG Version: 6.00 Build 0)  -->
<!DOCTYPE svg PUBLIC "-//W3C//DTD SVG 1.1//EN" "http://www.w3.org/Graphics/SVG/1.1/DTD/svg11.dtd">
<svg version="1.1" id="Ebene_1" xmlns="http://www.w3.org/2000/svg" xmlns:xlink="http://www.w3.org/1999/xlink" x="0px" y="0px"
	 width="100px" height="100px" viewBox="0 0 100 100" enable-background="new 0 0 100 100" xml:space="preserve">
<rect fill="#FF0000" width="100" height="100"/>
<polygon fill="#FFFFF0" points="5,5 95,5 95,95 5,95 "/>
<path fill="#FF0000" d="M14.746,60.001c1.569-8.897,7.709-15.249,13.716-14.19c6.005,1.06,9.601,9.127,8.034,18.022
	c-1.568,8.896-7.708,15.251-13.716,14.187C16.776,76.961,13.177,68.896,14.746,60.001z"/>
<path fill="none" stroke="#FF0000" stroke-width="5.062" stroke-miterlimit="3.8637" d="M14.746,60.001
	c1.569-8.897,7.709-15.249,13.716-14.19c6.005,1.06,9.601,9.127,8.034,18.022c-1.568,8.896-7.708,15.251-13.716,14.187
	C16.776,76.961,13.177,68.896,14.746,60.001z"/>
<path fill-rule="evenodd" clip-rule="evenodd" fill="none" stroke="#FF0000" stroke-width="4.8213" stroke-linecap="round" stroke-miterlimit="3.8637" d="
	M52.513,27.612c3.181,7.09,16.069,11.814,16.069,11.814"/>
<path fill="#FFFFF0" stroke="#FF0000" stroke-width="5.062" stroke-miterlimit="3.8637" d="M61.947,59.847
	c1.578-8.964,8.163-15.294,14.706-14.141c6.539,1.153,10.563,9.354,8.981,18.318c-1.581,8.957-8.163,15.287-14.703,14.137
	C64.387,77.004,60.366,68.804,61.947,59.847z"/>
<path fill-rule="evenodd" clip-rule="evenodd" fill="#FF0000" d="M52.021,15.405c0,0,10.785-2.684,17.275-1.063
	c3.187,0.798,6.729,2.215,7.88,6.733c0.81,3.165-3.187,9.921-7.794,8.149c-4.608-1.772-3.544-4.783-5.669-6.555
	C61.587,20.898,52.021,15.405,52.021,15.405z"/>
<path fill-rule="evenodd" clip-rule="evenodd" fill="#FF0000" d="M28.976,36.736c-2.236-0.418,3.62-8.846,7.844-7.868
	c5.433,1.26,12.181,9.545,13.577,13.178c1.396,3.634,2.233,12.197,1.538,16.393c-0.701,4.189-0.701,10.759-3.636,10.199
	c-1.07-0.203-0.095-18.768-2.233-22.54C43.928,42.325,31.212,37.156,28.976,36.736z"/>
<path fill-rule="evenodd" clip-rule="evenodd" fill="#FF0000" d="M56.025,27.054c0,0-3.494-4.192-4.752-4.192
	s-5.072,0.42-4.792,4.751c0.064,0.985,7.727,6.75,10.661,8.146C58.855,36.576,56.025,27.054,56.025,27.054z"/>
</svg>
