<?xml version="1.0" encoding="utf-8"?>
<!-- Generator: Adobe Illustrator 15.0.0, SVG Export Plug-In . SVG Version: 6.00 Build 0)  -->
<!DOCTYPE svg PUBLIC "-//W3C//DTD SVG 1.1//EN" "http://www.w3.org/Graphics/SVG/1.1/DTD/svg11.dtd">
<svg version="1.1" id="Ebene_1" xmlns="http://www.w3.org/2000/svg" xmlns:xlink="http://www.w3.org/1999/xlink" x="0px" y="0px"
	 width="100px" height="100px" viewBox="0 0 100 100" enable-background="new 0 0 100 100" xml:space="preserve">
<rect fill-rule="evenodd" clip-rule="evenodd" fill="#FF0000" width="100" height="100"/>
<rect x="5" y="5" fill-rule="evenodd" clip-rule="evenodd" fill="#FFFCF0" width="90" height="90"/>
<polygon fill="#FF0000" points="36.803,23.227 54.131,20.64 50.027,35.852 32.701,38.439 36.803,23.227 "/>
<polygon fill="#FF0000" points="49.542,36.646 66.869,34.057 62.769,49.271 45.438,51.857 49.542,36.646 "/>
<polygon fill="#FF0000" points="70.735,17.548 88.065,14.961 83.962,30.174 66.635,32.761 70.735,17.548 "/>
<polygon fill="#FF0000" points="28.251,55.589 45.58,52.999 41.477,68.213 24.149,70.803 28.251,55.589 "/>
<polygon fill="#FF0000" points="62.547,49.709 79.874,47.123 75.773,62.335 58.443,64.922 62.547,49.709 "/>
<line fill-rule="evenodd" clip-rule="evenodd" fill="none" stroke="#FF0000" stroke-width="7.6329" stroke-miterlimit="3.8637" x1="15.541" y1="86.961" x2="33.555" y2="23.101"/>
</svg>
