<?xml version="1.0" encoding="utf-8"?>
<!-- Generator: Adobe Illustrator 15.0.0, SVG Export Plug-In . SVG Version: 6.00 Build 0)  -->
<!DOCTYPE svg PUBLIC "-//W3C//DTD SVG 1.1//EN" "http://www.w3.org/Graphics/SVG/1.1/DTD/svg11.dtd">
<svg version="1.1" id="Ebene_3" xmlns="http://www.w3.org/2000/svg" xmlns:xlink="http://www.w3.org/1999/xlink" x="0px" y="0px"
	 width="100px" height="100px" viewBox="0 0 100 100" enable-background="new 0 0 100 100" xml:space="preserve">
<rect fill-rule="evenodd" clip-rule="evenodd" fill="#FF0000" width="100" height="100"/>
<rect x="5" y="5" fill-rule="evenodd" clip-rule="evenodd" fill="#FFFFF0" width="90" height="90"/>
<path fill="#FF0000" d="M9.125,27.563v44.875h8.725c0-5.297,0-10.975,0-16.139c0-12.031,8.388-18.474,13.951-18.474
	c5.433,0,14.011,6.232,14.011,17.849c0,4.566-0.059,11.123-0.06,16.75l9.097,0.014c0-5.297,0-10.975,0-16.139
	c0-12.031,8.389-18.474,13.951-18.474c5.434,0,14.012,6.232,14.012,17.849c0,4.566-0.059,11.123-0.061,16.75l8.123,0.014V27.563
	H9.125z"/>
</svg>
