<?xml version="1.0" encoding="utf-8"?>
<!-- Generator: Adobe Illustrator 15.0.0, SVG Export Plug-In . SVG Version: 6.00 Build 0)  -->
<!DOCTYPE svg PUBLIC "-//W3C//DTD SVG 1.1//EN" "http://www.w3.org/Graphics/SVG/1.1/DTD/svg11.dtd">
<svg version="1.1" id="Ebene_1" xmlns="http://www.w3.org/2000/svg" xmlns:xlink="http://www.w3.org/1999/xlink" x="0px" y="0px"
	 width="100px" height="100px" viewBox="0 0 100 100" enable-background="new 0 0 100 100" xml:space="preserve">
<rect fill-rule="evenodd" clip-rule="evenodd" fill="#FF0000" width="100" height="100"/>
<rect x="5" y="5" fill-rule="evenodd" clip-rule="evenodd" fill="#FFFFF0" width="90" height="90"/>
<path fill-rule="evenodd" clip-rule="evenodd" fill="#FF0000" d="M38.023,12.381c-0.308-0.154-6.469,13.028-6.469,13.028
	l-4.757,5.827c0,0-1.382,2.609-1.842,3.377c-0.459,0.766-2.914,0.46-4.754,1.226c-1.841,0.768-6.292,4.448-7.058,5.368
	c-0.766,0.921-2.147,4.137-1.073,6.135c1.073,1.998,3.837,5.064,5.83,5.83c1.993,0.769,6.901,2.454,7.669,2.454
	c0.766,0,1.839,1.225,1.839,1.225s-0.766,2.608-0.306,4.144c0.46,1.531,3.069,4.45,3.837,4.909c0.767,0.461,2.147,1.842,2.147,1.842
	s0.487,0.917-0.126,1.993c-0.614,1.071-3.378,3.067-4.604,3.372c-1.228,0.308-5.549,2.297-5.549,3.835
	c0,1.535,10.738,0.459,10.738,0.459s1.073-3.525,2.606-4.141c1.533-0.612,7.055-2.301,7.821-2.913s2.917-2.913,4.297-1.993
	c1.381,0.92,9.661,2.913,10.123,4.294c0.461,1.382-4.602,2.147-5.521,2.147s-7.978,0-7.978,0l-2.761,0.766
	c0,0-4.754,3.221-1.073,3.839c3.68,0.615,14.112,0.153,14.112,0.153s20.711-0.307,21.477-0.461c0.766-0.153,3.528-0.465,2.913-2.762
	c-0.615-2.301-1.378-3.99-1.378-3.99s5.979,0.154,7.665-0.611c1.686-0.77,4.141-2.452,3.374-5.676
	c-0.766-3.224-1.381-5.678-3.374-5.524c-1.993,0.154-5.672,5.066-5.06,0c0.239-1.983,0.458-5.675-0.154-7.668
	s-3.989-7.67-6.905-9.511c-2.913-1.839-7.816-2.913-10.735-3.066c-2.916-0.154-6.287,1.073-8.13,1.381
	c-1.84,0.307-5.824,0.92-7.667,1.073c-1.844,0.152-4.604,0.92-5.984-0.308c-1.381-1.227-4.602-5.06-6.135-5.673
	c-1.533-0.614-2.301-0.922,0.46-1.995s4.602-2.61,5.215-4.144c0.612-1.533,0.794-9.037,0.641-12.104
	c-0.154-3.066-0.767-5.064-1.074-5.832C40.017,11.921,38.329,12.534,38.023,12.381z"/>
<ellipse fill="#FFFFF0" cx="22.39" cy="39.83" rx="2.684" ry="1.918"/>
</svg>
