<?xml version="1.0" encoding="utf-8"?>
<!-- Generator: Adobe Illustrator 15.0.0, SVG Export Plug-In . SVG Version: 6.00 Build 0)  -->
<!DOCTYPE svg PUBLIC "-//W3C//DTD SVG 1.1//EN" "http://www.w3.org/Graphics/SVG/1.1/DTD/svg11.dtd">
<svg version="1.1" id="Ebene_1" xmlns="http://www.w3.org/2000/svg" xmlns:xlink="http://www.w3.org/1999/xlink" x="0px" y="0px"
	 width="100px" height="100px" viewBox="0 0 100 100" enable-background="new 0 0 100 100" xml:space="preserve">
<rect fill-rule="evenodd" clip-rule="evenodd" fill="#FF0000" width="100" height="100"/>
<rect x="5" y="5" fill-rule="evenodd" clip-rule="evenodd" fill="#FFFFF0" width="90" height="90"/>
<path fill-rule="evenodd" clip-rule="evenodd" fill="#FF0000" d="M69.894,14.001c-2.999-1.242-9.554-2.055-13.092-2.264
	c-1.563-0.092-6.696-0.655-12.205-0.492c-6.273,0.185-13.036,1.142-15.553,1.771c-5.193,1.298-13.09,11.221-14.664,15.158
	c-1.575,3.938-5.709,28.938-4.922,31.693s5.315-6.103,5.709-3.74S15.561,89.2,15.561,89.2h14.962c0,0-0.487-28.637,0.773-27.941
	c7.782,4.291,13.098,3.897,20.093,0.403c0.897-0.452,1.181,28.719,1.181,28.719h14.962l0.787-30.709c0,0-2.362-5.906-2.362-8.662
	s3.149-5.905,4.725-2.362c1.575,3.544,2.362,7.48,3.938,12.205s6.3,11.024,8.269,13.387c1.968,2.362,4.331,5.118,5.905,5.512
	c1.575,0.394,5.906-2.756,3.938-5.512s-7.48-9.843-9.449-14.174s-3.15-14.961-4.331-20.079c-1.182-5.118-1.575-13.78-2.362-16.536
	C75.799,20.694,72.748,15.183,69.894,14.001z"/>
<circle fill="#FFFFF0" cx="62.314" cy="29.651" r="5.217"/>
<path fill-rule="evenodd" clip-rule="evenodd" fill="#FFFFF0" d="M51.191,22.663c0.394-0.984-3.936-7.874-6.298-3.15
	c-2.362,4.725-2.463,6.497-2.659,9.844c-0.145,2.457,0.1,7.283,1.478,11.023s3.74,8.268,5.906,10.63
	c2.164,2.362,5.313,5.709,7.282,6.693s4.922,1.575,0.197-4.725c-4.725-6.299-4.725-6.103-6.299-10.63s-2.068-10.04-1.771-11.812
	C49.458,27.947,50.571,24.213,51.191,22.663z"/>
</svg>
