<?xml version="1.0" encoding="utf-8"?>
<!-- Generator: Adobe Illustrator 15.0.0, SVG Export Plug-In . SVG Version: 6.00 Build 0)  -->
<!DOCTYPE svg PUBLIC "-//W3C//DTD SVG 1.1//EN" "http://www.w3.org/Graphics/SVG/1.1/DTD/svg11.dtd">
<svg version="1.1" id="Ebene_1" xmlns="http://www.w3.org/2000/svg" xmlns:xlink="http://www.w3.org/1999/xlink" x="0px" y="0px"
	 width="100px" height="100px" viewBox="0 0 100 100" enable-background="new 0 0 100 100" xml:space="preserve">
<rect fill-rule="evenodd" clip-rule="evenodd" fill="#FF0000" width="100" height="100"/>
<rect x="5" y="5" fill-rule="evenodd" clip-rule="evenodd" fill="#FFFFF0" width="90" height="90"/>
<path fill-rule="evenodd" clip-rule="evenodd" fill="#FF0000" d="M63.63,79.668c4.183-2.325,4.417-2.753,5.58-3.686
	c1.162-0.929,4.73-5.198,7.29-5.659c2.559-0.468,8.379-0.932,10.704-0.698c2.325,0.23,3.021,0.465,3.021,0.465l-2.092-3.488
	c0,0-0.879-2.996-1.433-4.381c-1.452-3.629-14.236-1.664-15.633-1.199c-1.394,0.468-4.184,0-2.787-2.79
	c1.394-2.79,2.787-5.346,5.112-7.206c2.326-1.859,6.743-6.741,8.14-8.368c1.394-1.629,2.787-6.276,3.021-7.439
	s1.163-15.344,0-17.668c-1.163-2.325-1.396-5.813-2.79-5.813s-8.604,4.883-9.997,6.278c-1.394,1.395-6.509,5.812-7.44,7.206
	c-0.93,1.396-2.787,5.114-3.255,7.439c-0.465,2.324-0.929,7.903-1.394,9.066c-0.464,1.163-2.095,7.439-3.488,8.136
	c-1.394,0.698-8.602-5.811-11.856-7.205c-3.254-1.396-13.948-5.115-16.506-5.58c-2.558-0.466-16.508-3.256-18.135-2.79
	s2.325,4.417,3.254,5.114c0.931,0.698,6.278,6.742,7.906,7.905c1.627,1.162,6.509,2.091,7.671,3.254
	c1.163,1.162,3.953,4.417,5.348,6.044c1.396,1.627,6.976,8.139,9.997,9.302c3.022,1.159-17.419,1.159-18.814,1.394
	c-1.395,0.23-12.638,1.86-13.336,2.79c-0.696,0.929,15.196,4.964,17.521,5.432c2.324,0.461,16.953,1.126,17.884,2.75
	C48.053,79.901,59.446,81.993,63.63,79.668z"/>
</svg>
