<?xml version="1.0" encoding="utf-8"?>
<!-- Generator: Adobe Illustrator 15.0.0, SVG Export Plug-In . SVG Version: 6.00 Build 0)  -->
<!DOCTYPE svg PUBLIC "-//W3C//DTD SVG 1.1//EN" "http://www.w3.org/Graphics/SVG/1.1/DTD/svg11.dtd">
<svg version="1.1" id="Ebene_3" xmlns="http://www.w3.org/2000/svg" xmlns:xlink="http://www.w3.org/1999/xlink" x="0px" y="0px"
	 width="100px" height="100px" viewBox="0 0 100 100" enable-background="new 0 0 100 100" xml:space="preserve">
<rect fill-rule="evenodd" clip-rule="evenodd" fill="#FF0000" width="100" height="100"/>
<rect x="5" y="5" fill-rule="evenodd" clip-rule="evenodd" fill="#FFFFF0" width="90" height="90"/>
<path fill="none" stroke="#FF0000" stroke-width="13" d="M13.518,23.404c0,0,17.685-7.157,36.386-7.157
	c19.714,0,38.045,7.157,38.045,7.157"/>
<path fill="none" stroke="#FF0000" stroke-width="11" d="M23.792,42.673c0,0,14.973,4.537,26.942,4.537
	c11.776,0,24.935-4.688,24.935-4.688"/>
<path fill="none" stroke="#FF0000" stroke-width="11" d="M15.591,61.135c0,0,19.6,4.537,35.268,4.537
	c15.416,0,32.641-4.688,32.641-4.688"/>
<path fill="none" stroke="#FF0000" stroke-width="11" d="M7.273,79.215c0,0,24.664,4.537,44.379,4.537
	c19.399,0,41.074-4.688,41.074-4.688"/>
</svg>
