<?xml version="1.0" encoding="utf-8"?>
<!-- Generator: Adobe Illustrator 15.0.0, SVG Export Plug-In . SVG Version: 6.00 Build 0)  -->
<!DOCTYPE svg PUBLIC "-//W3C//DTD SVG 1.1//EN" "http://www.w3.org/Graphics/SVG/1.1/DTD/svg11.dtd">
<svg version="1.1" id="Ebene_5" xmlns="http://www.w3.org/2000/svg" xmlns:xlink="http://www.w3.org/1999/xlink" x="0px" y="0px"
	 width="100px" height="100px" viewBox="0 0 100 100" enable-background="new 0 0 100 100" xml:space="preserve">
<rect fill-rule="evenodd" clip-rule="evenodd" fill="#FF0000" width="100" height="100"/>
<rect x="5" y="5" fill-rule="evenodd" clip-rule="evenodd" fill="#FFFFF0" width="90" height="90"/>
<polygon fill="#FF0000" points="62.762,83.576 62.762,17.913 70.444,17.725 86.635,83.576 "/>
<path fill="none" stroke="#FF0000" stroke-width="5" stroke-linecap="square" stroke-miterlimit="10" d="M54.687,29.573
	c-1.998,0-3.995-2.289-5.994-2.289c-1.998,0-3.996,2.289-5.994,2.289c-1.999,0-5.135-2.293-6.456-2.322
	c-2.792-0.061-3.734,2.322-7.53,2.322c-1.998,0-3.995-2.289-5.994-2.289c-1.998,0-3.995,2.289-5.995,2.289"/>
<path fill="none" stroke="#FF0000" stroke-width="5" stroke-linecap="square" stroke-miterlimit="10" d="M54.687,53.402
	c-1.998,0-3.995-2.289-5.994-2.289c-1.998,0-3.996,2.289-5.994,2.289c-1.999,0-5.135-2.293-6.456-2.322
	c-2.792-0.061-3.734,2.322-7.53,2.322c-1.998,0-3.995-2.289-5.994-2.289c-1.998,0-3.995,2.289-5.995,2.289"/>
<path fill="none" stroke="#FF0000" stroke-width="5" stroke-linecap="square" stroke-miterlimit="10" d="M54.687,76.817
	c-1.998,0-3.995-2.289-5.994-2.289c-1.998,0-3.996,2.289-5.994,2.289c-1.999,0-5.135-2.293-6.456-2.322
	c-2.792-0.061-3.734,2.322-7.53,2.322c-1.998,0-3.995-2.289-5.994-2.289c-1.998,0-3.995,2.289-5.995,2.289"/>
</svg>
