<?xml version="1.0" encoding="utf-8"?>
<!-- Generator: Adobe Illustrator 15.0.0, SVG Export Plug-In . SVG Version: 6.00 Build 0)  -->
<!DOCTYPE svg PUBLIC "-//W3C//DTD SVG 1.1//EN" "http://www.w3.org/Graphics/SVG/1.1/DTD/svg11.dtd">
<svg version="1.1" id="Ebene_1" xmlns="http://www.w3.org/2000/svg" xmlns:xlink="http://www.w3.org/1999/xlink" x="0px" y="0px"
	 width="100px" height="100px" viewBox="0 0 100 100" enable-background="new 0 0 100 100" xml:space="preserve">
<rect fill-rule="evenodd" clip-rule="evenodd" fill="#FF0000" width="100" height="100"/>
<g id="Ebene_2">
	<rect x="5" y="5" fill-rule="evenodd" clip-rule="evenodd" fill="#FFFFF0" width="90" height="90"/>
</g>
<polygon fill-rule="evenodd" clip-rule="evenodd" fill="#FF0000" points="49.998,12.57 82.725,40.643 82.725,87.43 17.275,87.43 
	17.275,40.643 "/>
<path fill-rule="evenodd" clip-rule="evenodd" fill="#FFFFF0" d="M49.415,23.688c4.302,0,8.213,3.523,8.213,8.222
	c0,4.305-3.911,7.828-8.213,7.828c-4.304,0-8.215-3.523-8.215-7.828C41.2,27.211,45.111,23.688,49.415,23.688L49.415,23.688z"/>
<path fill-rule="evenodd" clip-rule="evenodd" fill="#FFFFF0" d="M32.595,45.219h24.252v27.402c0,1.566,0.781,2.741,2.346,3.133
	h8.604v5.48H32.203v-5.48h6.65c1.563-0.392,2.737-1.566,3.128-3.133V53.44c-0.781-1.958-1.955-2.739-3.128-2.739h-6.259V45.219z"/>
</svg>
