<?xml version="1.0" encoding="utf-8"?>
<!-- Generator: Adobe Illustrator 15.0.0, SVG Export Plug-In . SVG Version: 6.00 Build 0)  -->
<!DOCTYPE svg PUBLIC "-//W3C//DTD SVG 1.1//EN" "http://www.w3.org/Graphics/SVG/1.1/DTD/svg11.dtd">
<svg version="1.1" id="Ebene_1" xmlns="http://www.w3.org/2000/svg" xmlns:xlink="http://www.w3.org/1999/xlink" x="0px" y="0px"
	 width="100px" height="100px" viewBox="0 0 100 100" enable-background="new 0 0 100 100" xml:space="preserve">
<rect fill-rule="evenodd" clip-rule="evenodd" fill="#FF0000" width="100" height="100"/>
<rect x="5" y="5" fill-rule="evenodd" clip-rule="evenodd" fill="#FFFFF0" width="90" height="90"/>
<line fill="none" stroke="#FF0000" stroke-width="8" x1="15.316" y1="57.035" x2="84.684" y2="57.035"/>
<line fill="none" stroke="#FF0000" stroke-width="8.8971" x1="15.316" y1="26.638" x2="15.316" y2="73.362"/>
<line fill="none" stroke="#FF0000" stroke-width="9.4041" x1="84.684" y1="35.585" x2="84.684" y2="73.362"/>
<ellipse transform="matrix(0.8765 0.4814 -0.4814 0.8765 23.7518 -9.2734)" fill="#FF0000" cx="29.948" cy="41.652" rx="8.326" ry="6.835"/>
<path fill="#FF0000" d="M77.033,43.329c0,3.055-2.477,5.531-5.531,5.531H46.776c-3.055,0-5.531-2.477-5.531-5.531l0,0
	c0-3.055,2.476-5.531,5.531-5.531h24.726C74.557,37.798,77.033,40.274,77.033,43.329L77.033,43.329z"/>
</svg>
