<?xml version="1.0" encoding="utf-8"?>
<!-- Generator: Adobe Illustrator 15.0.0, SVG Export Plug-In . SVG Version: 6.00 Build 0)  -->
<!DOCTYPE svg PUBLIC "-//W3C//DTD SVG 1.1//EN" "http://www.w3.org/Graphics/SVG/1.1/DTD/svg11.dtd">
<svg version="1.1" id="Ebene_1" xmlns="http://www.w3.org/2000/svg" xmlns:xlink="http://www.w3.org/1999/xlink" x="0px" y="0px"
	 width="100px" height="100px" viewBox="0 0 100 100" enable-background="new 0 0 100 100" xml:space="preserve">
<rect fill-rule="evenodd" clip-rule="evenodd" fill="#FF0000" width="100" height="100"/>
<rect x="5" y="5" fill-rule="evenodd" clip-rule="evenodd" fill="#FFFFF0" width="90" height="90"/>
<polygon fill-rule="evenodd" clip-rule="evenodd" fill="#FF0000" stroke="#FFFFFF" stroke-width="0" stroke-linecap="square" stroke-miterlimit="10" points="
	29.525,61.852 72.943,61.852 51.234,23.828 "/>
<path fill="#FF0000" d="M88.73,59.877L88.73,59.877l-11.84-2.965l0,0L88.73,59.877z M88.73,59.877L88.73,59.877l-5.92-1.482
	L88.73,59.877z M88.73,59.877c-0.492,2.467-1.479,4.936-2.465,6.912L75.41,61.852c0.494-1.482,0.986-3.457,1.48-4.939L88.73,59.877z
	 M86.266,66.789c-0.988,2.469-2.467,4.443-3.455,6.418l-9.867-7.406c0.986-0.988,1.48-2.469,2.467-3.949L86.266,66.789z
	 M82.811,73.207c-7.4,9.877-19.242,16.297-32.07,16.297V77.158c8.88,0,17.269-4.445,22.203-11.357L82.811,73.207z M50.741,89.504
	L50.741,89.504V77.158l0,0V89.504z M50.741,89.504c-10.855,0-20.723-4.445-28.124-11.359l8.881-8.887
	c4.934,4.938,11.842,7.9,19.243,7.9V89.504z M22.617,78.145c-6.908-7.406-11.348-17.281-11.348-28.146h12.335
	c0,7.408,2.96,14.32,7.893,19.259L22.617,78.145z M11.269,49.999L11.269,49.999h12.335l0,0H11.269z M11.269,49.999L11.269,49.999
	h12.335l0,0H11.269z M11.269,49.999c0-10.863,4.44-20.738,11.348-28.146l8.881,8.888c-4.933,4.938-7.893,11.852-7.893,19.258H11.269
	z M22.617,21.853c7.401-6.913,17.269-11.357,28.124-11.357V22.84c-7.401,0-14.309,2.963-19.243,7.9L22.617,21.853z M50.741,10.496
	L50.741,10.496V22.84l0,0V10.496z M50.741,10.496L50.741,10.496V22.84l0,0V10.496z M50.741,10.496
	c5.921,0,11.841,1.481,16.775,3.951L62.582,25.31c-3.947-1.482-7.895-2.469-11.841-2.469V10.496z M67.516,14.447
	c0.986,0.493,1.975,0.987,2.467,1.48l-5.92,10.37c-0.494-0.493-0.988-0.493-1.48-0.987L67.516,14.447z M69.982,15.927
	c4.441,1.976,7.895,5.433,10.855,8.888l-9.375,7.901c-1.973-2.469-4.441-4.938-7.4-6.42L69.982,15.927z"/>
</svg>
