<?xml version="1.0" encoding="utf-8"?>
<!-- Generator: Adobe Illustrator 15.0.0, SVG Export Plug-In . SVG Version: 6.00 Build 0)  -->
<!DOCTYPE svg PUBLIC "-//W3C//DTD SVG 1.1//EN" "http://www.w3.org/Graphics/SVG/1.1/DTD/svg11.dtd">
<svg version="1.1" id="Ebene_1" xmlns="http://www.w3.org/2000/svg" xmlns:xlink="http://www.w3.org/1999/xlink" x="0px" y="0px"
	 width="100px" height="100px" viewBox="0 0 100 100" enable-background="new 0 0 100 100" xml:space="preserve">
<g id="Ebene_2">
	<rect fill="#FF0000" width="100" height="100"/>
</g>
<rect x="5" y="5" fill="#FFFFF0" width="90" height="90"/>
<path fill-rule="evenodd" clip-rule="evenodd" fill="#FF0000" d="M12.401,77.197c-2.458,0-4.943,0-7.401,0
	c0-13.699,0-28.102,0-42.505c2.458,0,4.943,0.059,7.401,0.059c0,4.919-0.173,9.454-0.023,14.345c8.078,0,16.51,0,24.941,0v-21.78
	c-2.459,0-4.918,0-7.026,0c0-2.108,0-4.567,0-7.028c8.082,0,16.159,0,24.591,0c0,2.461,0,4.92,0,7.028c-2.46,0-4.567,0-7.026,0
	v21.78c6.323,0,12.295,0,18.619,0c2.811,0.35,4.916,1.053,7.378,2.458c1.053,0.703,1.755,1.756,2.809,2.458
	c1.758,2.812,2.811,5.271,3.513,8.432c0,3.514,0,7.378,0,11.242c-4.918,0-9.836,0-14.402,0c0-3.514,0-7.024,0-10.188
	c0-0.352,0-0.352,0-0.352c-17.916,0-35.48,0-53.396,0"/>
</svg>
