<?xml version="1.0" encoding="utf-8"?>
<!-- Generator: Adobe Illustrator 15.0.0, SVG Export Plug-In . SVG Version: 6.00 Build 0)  -->
<!DOCTYPE svg PUBLIC "-//W3C//DTD SVG 1.1//EN" "http://www.w3.org/Graphics/SVG/1.1/DTD/svg11.dtd">
<svg version="1.1" id="Ebene_1" xmlns="http://www.w3.org/2000/svg" xmlns:xlink="http://www.w3.org/1999/xlink" x="0px" y="0px"
	 width="100px" height="100px" viewBox="0 0 100 100" enable-background="new 0 0 100 100" xml:space="preserve">
<rect fill-rule="evenodd" clip-rule="evenodd" fill="#FF0000" width="100" height="100"/>
<rect x="5" y="5" fill-rule="evenodd" clip-rule="evenodd" fill="#FFFFF0" width="90" height="90"/>
<line fill="none" stroke="#FF0000" stroke-width="4.8104" x1="33.791" y1="67.836" x2="57.217" y2="72.594"/>
<line fill="none" stroke="#FF0000" stroke-width="4.8104" x1="49.912" y1="42.978" x2="45.503" y2="69.467"/>
<path fill="#FF0000" d="M40.138,13.404c2.929,17.935,9.151,35.514,9.151,35.514l21.072-30.642L40.138,13.404z"/>
<polygon fill="#FFFFF0" points="50.281,38.666 47.078,23.881 61.984,23.266 "/>
<path fill-rule="evenodd" clip-rule="evenodd" fill="none" stroke="#FF0000" stroke-width="6.2501" stroke-miterlimit="3.8637" d="
	M67.333,57.933c6.57,3.285,10.981,8.127,10.981,13.528c0,9.893-14.278,17.915-31.892,17.915s-31.892-8.022-31.892-17.915
	c0-9.043,11.93-16.524,27.433-17.742"/>
</svg>
