<?xml version="1.0" encoding="utf-8"?>
<!-- Generator: Adobe Illustrator 15.0.0, SVG Export Plug-In . SVG Version: 6.00 Build 0)  -->
<!DOCTYPE svg PUBLIC "-//W3C//DTD SVG 1.1//EN" "http://www.w3.org/Graphics/SVG/1.1/DTD/svg11.dtd">
<svg version="1.1" id="Ebene_1" xmlns="http://www.w3.org/2000/svg" xmlns:xlink="http://www.w3.org/1999/xlink" x="0px" y="0px"
	 width="100px" height="100px" viewBox="0 0 100 100" enable-background="new 0 0 100 100" xml:space="preserve">
<rect fill="#FF0000" width="100" height="100"/>
<rect x="5" y="5" fill="#FFFFF0" width="90" height="90"/>
<path fill="#FF0000" d="M10,25v15l40-20l40,20V25L50,10L10,25z"/>
<path fill="#FF0000" d="M10,100c5-40,15-40,20,0H10z"/>
<path fill="#FF0000" d="M35,90c10-40,20-40,30,0H35z"/>
<path fill="#FF0000" d="M70,100c5-40,15-40,20,0H70z"/>
<path fill="#FF0000" d="M0,100c33.333-20,66.666-20,100,0H0z"/>
<circle fill="#FF0000" cx="20" cy="60" r="8"/>
<circle fill="#FF0000" cx="50" cy="50" r="8"/>
<circle fill="#FF0000" cx="80" cy="60" r="8"/>
</svg>
