<?xml version="1.0" encoding="utf-8"?>
<!-- Generator: Adobe Illustrator 15.0.0, SVG Export Plug-In . SVG Version: 6.00 Build 0)  -->
<!DOCTYPE svg PUBLIC "-//W3C//DTD SVG 1.1//EN" "http://www.w3.org/Graphics/SVG/1.1/DTD/svg11.dtd">
<svg version="1.1" id="Ebene_1" xmlns="http://www.w3.org/2000/svg" xmlns:xlink="http://www.w3.org/1999/xlink" x="0px" y="0px"
	 width="100px" height="100px" viewBox="0 0 100 100" enable-background="new 0 0 100 100" xml:space="preserve">
<g id="Ebene_2">
	<rect fill="#FF0000" width="100" height="100"/>
</g>
<rect x="5" y="5" fill="#FFFFF0" width="90" height="90"/>
<circle fill="#FF0000" cx="51.194" cy="40.173" r="4.818"/>
<path fill="#FF0000" d="M73.459,0.961c2.992,1.689-1.951,17.53-5.933,24.586c-3.982,7.055-9.638,11.407-12.628,9.718
	c-2.992-1.688-2.19-8.778,1.796-15.834C60.676,12.375,70.469-0.728,73.459,0.961z"/>
<path fill="#FF0000" d="M4.968,37.397c0.25-3.429,17.204-5.685,25.546-5.078c8.341,0.607,14.9,3.878,14.652,7.304
	c-0.25,3.426-7.214,5.711-15.556,5.104C21.269,44.12,4.718,40.822,4.968,37.397z"/>
<path fill="#FF0000" d="M82.003,74.39c-2.595,2.255-16.073-7.979-21.49-14.225c-5.417-6.249-7.704-13.139-5.108-15.391
	c2.596-2.249,9.091,0.991,14.509,7.24C75.33,58.261,84.602,72.141,82.003,74.39z"/>
<polygon fill="#FF0000" points="45.048,94.927 48.379,45.996 53.374,45.985 57.398,94.927 "/>
</svg>
