<?xml version="1.0" encoding="utf-8"?>
<!-- Generator: Adobe Illustrator 15.0.0, SVG Export Plug-In . SVG Version: 6.00 Build 0)  -->
<!DOCTYPE svg PUBLIC "-//W3C//DTD SVG 1.1//EN" "http://www.w3.org/Graphics/SVG/1.1/DTD/svg11.dtd">
<svg version="1.1" id="Ebene_1" xmlns="http://www.w3.org/2000/svg" xmlns:xlink="http://www.w3.org/1999/xlink" x="0px" y="0px"
	 width="100px" height="100px" viewBox="0 0 100 100" enable-background="new 0 0 100 100" xml:space="preserve">
<rect fill-rule="evenodd" clip-rule="evenodd" fill="#FF0000" width="100" height="100"/>
<polygon fill="#FFFFF0" points="5,5 95,5 95,95 5,95 5,5 "/>
<path fill-rule="evenodd" clip-rule="evenodd" fill="#FF0000" stroke="#FFFFFF" stroke-width="0.9036" stroke-miterlimit="10" d="
	M14.758,43.675c0,0,7.532-15.963,8.435-17.771c0.902-2.108,1.506-2.71,2.41-3.313c0.903-0.603,3.313-0.303,3.313-0.303l29.819-0.3
	c0,0,12.65-0.303,14.759,0c1.808,0,2.41,0.903,3.013,1.205c0.603,0.603,1.205,1.505,1.505,2.108
	c0.603,0.903,9.641,19.277,9.641,19.277s0.902,2.108,1.204,3.313c0,0.903,0,12.35,0,12.35s0,1.505-0.603,2.71
	c-0.905,1.506-1.808,2.108-6.326,2.108c-4.216,0.303-59.638,0.604-61.746,0.303c-2.11-0.303-3.616-0.603-4.218-0.905
	c-0.604,0-3.614-1.506-3.614-3.313c0-1.809-0.303-9.038,0-10.543c0-1.205-0.303-0.603,0.3-3.011
	C14.156,44.88,14.758,43.675,14.758,43.675z"/>
<path fill-rule="evenodd" clip-rule="evenodd" fill="#FFFFF0" stroke="#FFFFF0" stroke-width="0.9036" stroke-miterlimit="10" d="
	M22.59,56.928c2.711,0,5.121-2.41,5.121-5.121c0-2.71-2.41-5.121-5.121-5.121c-3.011,0-5.421,2.411-5.421,5.121
	C17.169,54.518,19.579,56.928,22.59,56.928z"/>
<path fill-rule="evenodd" clip-rule="evenodd" fill="#FFFFF0" stroke="#FFFFF0" stroke-width="0.9036" stroke-miterlimit="10" d="
	M79.518,56.928c2.711,0,5.121-2.41,5.121-5.121c0-2.71-2.41-5.121-5.121-5.121c-3.011,0-5.421,2.411-5.421,5.121
	C74.097,54.518,76.507,56.928,79.518,56.928z"/>
<polygon fill-rule="evenodd" clip-rule="evenodd" fill="#FFFFF0" stroke="#FFFFF0" stroke-width="0.9036" stroke-miterlimit="10" points="
	21.085,42.167 28.011,26.506 72.891,26.506 80.723,42.167 "/>
<path fill-rule="evenodd" clip-rule="evenodd" fill="#FF0000" d="M17.169,67.47h10.24c0,3.614,0,7.529,0,11.146
	c0,0.3-0.602,0.903-1.203,0.903c-2.712,0-5.424,0-8.135,0c-0.3,0-0.902-0.604-0.902-0.903V67.47z"/>
<path fill-rule="evenodd" clip-rule="evenodd" fill="#FF0000" d="M74.097,67.47h9.939c0,3.614,0,7.529,0,11.146
	c0,0.3-0.301,0.903-0.903,0.903c-2.71,0-5.421,0-8.131,0c-0.604,0-0.905-0.604-0.905-0.903V67.47z"/>
</svg>
