<?xml version="1.0" encoding="utf-8"?>
<!-- Generator: Adobe Illustrator 15.0.0, SVG Export Plug-In . SVG Version: 6.00 Build 0)  -->
<!DOCTYPE svg PUBLIC "-//W3C//DTD SVG 1.1//EN" "http://www.w3.org/Graphics/SVG/1.1/DTD/svg11.dtd">
<svg version="1.1" id="Ebene_1" xmlns="http://www.w3.org/2000/svg" xmlns:xlink="http://www.w3.org/1999/xlink" x="0px" y="0px"
	 width="100px" height="100px" viewBox="0 0 100 100" enable-background="new 0 0 100 100" xml:space="preserve">
<rect fill-rule="evenodd" clip-rule="evenodd" fill="#FF0000" width="100" height="100"/>
<polygon fill="#FFFFF0" points="5,5 95,5 95,95 5,95 5,5 "/>
<path fill-rule="evenodd" clip-rule="evenodd" fill="#FF0000" stroke="#FF0000" stroke-width="0.8969" stroke-miterlimit="10" d="
	M29.818,25.267c0,0,2.108-3.264,9.642-5.935c7.529-2.375,9.638-3.56,21.383-3.264l29.218,0.889v15.431l-31.326,1.188
	c0,0-13.555-0.298-20.182-3.264C31.927,28.235,29.818,25.267,29.818,25.267z"/>
<rect x="17.17" y="5" fill-rule="evenodd" clip-rule="evenodd" fill="#FF0000" stroke="#FF0000" stroke-width="0.8969" stroke-miterlimit="10" width="9.638" height="90"/>
<rect x="26.207" y="47.291" fill-rule="evenodd" clip-rule="evenodd" fill="#FF0000" stroke="#FF0000" stroke-width="0.8969" stroke-miterlimit="10" width="53.914" height="4.154"/>
<path fill-rule="evenodd" clip-rule="evenodd" fill="#FF0000" stroke="#FF0000" stroke-width="0.8969" stroke-miterlimit="10" d="
	M29.818,74.547c0,0,2.108-3.265,9.642-5.936c7.529-2.374,9.638-3.562,21.383-3.264l29.218,0.89v15.431l-31.326,1.188
	c0,0-13.555-0.594-20.182-3.265C31.927,77.515,29.818,74.547,29.818,74.547z"/>
</svg>
