<?xml version="1.0" encoding="utf-8"?>
<!-- Generator: Adobe Illustrator 15.0.0, SVG Export Plug-In . SVG Version: 6.00 Build 0)  -->
<!DOCTYPE svg PUBLIC "-//W3C//DTD SVG 1.1//EN" "http://www.w3.org/Graphics/SVG/1.1/DTD/svg11.dtd">
<svg version="1.1" id="Ebene_1" xmlns="http://www.w3.org/2000/svg" xmlns:xlink="http://www.w3.org/1999/xlink" x="0px" y="0px"
	 width="100px" height="100px" viewBox="0 0 100 100" enable-background="new 0 0 100 100" xml:space="preserve">
<rect fill-rule="evenodd" clip-rule="evenodd" fill="#FF0000" width="100" height="100"/>
<polygon fill="#FFFFF0" points="5,5 95,5 95,95 5,95 5,5 "/>
<path fill-rule="evenodd" clip-rule="evenodd" fill="#FF0000" stroke="#FF0000" stroke-width="0.9375" stroke-miterlimit="10" d="
	M18.438,67.501h67.499L84.686,57.5L9.687,50c0,0-0.625,1.876,1.25,5.626c1.873,3.75,2.813,6.251,4.374,7.813
	C16.562,65,18.438,67.501,18.438,67.501z"/>
<polygon fill-rule="evenodd" clip-rule="evenodd" fill="#FF0000" stroke="#FF0000" stroke-width="3.125" stroke-miterlimit="10" points="
	27.186,51.876 35.625,42.188 38.749,42.188 30.001,52.501 "/>
<path fill-rule="evenodd" clip-rule="evenodd" fill="#FF0000" stroke="#FF0000" stroke-width="0.9375" stroke-miterlimit="10" d="
	M84.374,52.501l-1.25-9.688l-12.499-1.25c0,0-1.251,0-1.562,0.625c-0.314,0.625-0.626,2.5-0.626,2.5l-0.313,6.25L84.374,52.501z"/>
<path fill-rule="evenodd" clip-rule="evenodd" fill="#FF0000" stroke="#FF0000" stroke-width="4" stroke-miterlimit="10" d="
	M95.083,83.966c-5.003,0-9.42-5.527-14.425-5.527c-5.594,0-10.597,5.527-16.191,5.527c-4.709,0-8.833-5.527-13.542-5.527
	c-5.595,0-10.008,5.527-15.309,5.527c-5.003,0-9.419-5.527-14.425-5.527c-5.595,0-10.893,5.527-16.191,5.527v11.321l89.789-0.527
	L95.083,83.966z"/>
<polygon fill-rule="evenodd" clip-rule="evenodd" fill="#FF0000" points="35,15.625 30.937,18.751 35,21.563 67.499,21.563 
	68.438,21.563 69.374,21.563 69.999,22.189 70.937,22.5 71.875,23.125 72.187,23.439 72.812,24.688 74.062,25.938 75.313,26.876 
	76.561,27.5 77.811,28.438 79.375,28.75 80.937,29.063 82.813,28.75 84.374,28.75 85.937,28.125 87.187,27.5 88.123,26.876 
	89.374,25.938 89.999,25.001 90.936,24.062 91.561,22.814 81.248,23.125 80.623,23.125 80.312,22.814 79.998,22.5 79.998,22.5 
	79.998,13.75 80.312,13.125 80.623,12.813 80.937,12.813 91.249,12.501 90.624,12.188 89.688,10.626 88.749,9.687 87.187,8.75 
	85.312,7.814 83.436,7.188 81.874,7.188 80.312,7.188 78.75,7.5 77.186,8.125 75.938,8.75 74.999,9.375 74.062,10.313 
	73.123,11.251 72.501,12.188 72.187,13.125 70.937,14.063 69.686,14.688 67.813,15.314 67.188,15.625 "/>
</svg>
