<?xml version="1.0" encoding="utf-8"?>
<!-- Generator: Adobe Illustrator 15.0.0, SVG Export Plug-In . SVG Version: 6.00 Build 0)  -->
<!DOCTYPE svg PUBLIC "-//W3C//DTD SVG 1.1//EN" "http://www.w3.org/Graphics/SVG/1.1/DTD/svg11.dtd">
<svg version="1.1" id="Ebene_1" xmlns="http://www.w3.org/2000/svg" xmlns:xlink="http://www.w3.org/1999/xlink" x="0px" y="0px"
	 width="100px" height="100px" viewBox="0 0 100 100" enable-background="new 0 0 100 100" xml:space="preserve">
<rect fill-rule="evenodd" clip-rule="evenodd" fill="#FF0000" width="100" height="100"/>
<polygon fill="#FFFFF0" points="5,5 95,5 95,95 5,95 5,5 "/>
<polyline fill-rule="evenodd" clip-rule="evenodd" fill="none" stroke="#FF0000" stroke-width="7.1875" stroke-linejoin="round" stroke-miterlimit="10" points="
	59.373,58.751 63.75,88.126 84.686,88.437 89.688,58.751 "/>
<path fill-rule="evenodd" clip-rule="evenodd" fill="#FF0000" d="M14.062,60.313c0-12.186,0-24.999,0-37.812
	c2.187,0,4.063,0,6.249,0c0,4.376,0,8.437,0.314,12.813c7.186,0,14.687,0,22.187,0V15.939c-2.188,0-4.375,0-6.25,0
	c0-1.875,0-4.063,0-6.252c7.189,0,14.375,0,21.875,0c0,2.189,0,4.376,0,6.252c-2.188,0-4.063,0-6.25,0v19.375
	c5.625,0,10.938,0,16.563,0c2.501,0.312,4.374,0.937,6.563,2.187c0.937,0.625,1.562,1.562,2.498,2.187
	c1.564,2.501,2.501,4.688,3.126,7.5c0,3.126,0,6.563,0,10.001c-4.376,0-8.75,0-12.813,0c0-3.126,0-6.249,0-9.062
	c0-0.313,0-0.313,0-0.313c-15.938,0-31.563,0-47.499,0c0,0,0,0,0,0.313c-0.314,3.75-0.314,8.123-0.314,12.186
	C18.124,60.313,16.248,60.313,14.062,60.313z"/>
</svg>
