<?xml version="1.0" encoding="utf-8"?>
<!-- Generator: Adobe Illustrator 15.0.0, SVG Export Plug-In . SVG Version: 6.00 Build 0)  -->
<!DOCTYPE svg PUBLIC "-//W3C//DTD SVG 1.1//EN" "http://www.w3.org/Graphics/SVG/1.1/DTD/svg11.dtd">
<svg version="1.1" id="Ebene_1" xmlns="http://www.w3.org/2000/svg" xmlns:xlink="http://www.w3.org/1999/xlink" x="0px" y="0px"
	 width="100px" height="100px" viewBox="0 0 100 100" enable-background="new 0 0 100 100" xml:space="preserve">
<rect fill-rule="evenodd" clip-rule="evenodd" fill="#FF0000" width="100" height="100"/>
<polygon fill="#FFFFF0" points="5,5 95,5 95,95 5,95 5,5 "/>
<polygon fill-rule="evenodd" clip-rule="evenodd" fill="#FF0000" points="0,68.615 98.436,83.999 98.436,98.46 0,100 "/>
<path fill-rule="evenodd" clip-rule="evenodd" fill="#FF0000" d="M20.625,49.23l66.251,12.922l0.622-10.153L15.626,30.461
	c0,0-1.251,1.847,0,5.847c0.936,4,1.562,6.769,2.498,8.307C19.063,46.461,20.625,49.23,20.625,49.23z"/>
<polygon fill-rule="evenodd" clip-rule="evenodd" fill="#FF0000" stroke="#FF0000" stroke-width="3.1008" stroke-miterlimit="10" points="
	32.188,36.001 42.5,27.692 45.312,28.307 35,36.923 "/>
<path fill-rule="evenodd" clip-rule="evenodd" fill="#FF0000" d="M87.812,47.385l0.625-9.847l-11.876-3.691c0,0-1.248,0-1.562,0.307
	c-0.626,0.615-1.251,2.462-1.251,2.462l-1.873,6.154L87.812,47.385z"/>
<path fill-rule="evenodd" clip-rule="evenodd" fill="#FF0000" d="M51.251,73.23c4.06,0,7.186-3.078,7.186-7.078
	s-3.126-7.076-7.186-7.076c-3.752,0-6.878,3.076-6.878,7.076S47.499,73.23,51.251,73.23z"/>
</svg>
