<?xml version="1.0" encoding="utf-8"?>
<!-- Generator: Adobe Illustrator 15.0.0, SVG Export Plug-In . SVG Version: 6.00 Build 0)  -->
<!DOCTYPE svg PUBLIC "-//W3C//DTD SVG 1.1//EN" "http://www.w3.org/Graphics/SVG/1.1/DTD/svg11.dtd">
<svg version="1.1" id="Ebene_1" xmlns="http://www.w3.org/2000/svg" xmlns:xlink="http://www.w3.org/1999/xlink" x="0px" y="0px"
	 width="100px" height="100px" viewBox="0 0 100 100" enable-background="new 0 0 100 100" xml:space="preserve">
<rect fill-rule="evenodd" clip-rule="evenodd" fill="#FF0000" width="100" height="100"/>
<polygon fill="#FFFFF0" points="5,5 95,5 95,95 5,95 5,5 "/>
<path fill-rule="evenodd" clip-rule="evenodd" fill="#FF0000" d="M71.499,54.633c0,21.445-4.983,39.088-10.332,39.088
	c-5.35,0-10.332-17.455-10.332-38.9c0-7.664,0.321-14.595,1.276-20.614c1.719-10.826,5.617-27.977,9.056-27.977
	c3.436,0,7.452,17.623,9.068,27.977C71.176,40.232,71.499,46.962,71.499,54.633z"/>
<line fill="none" stroke="#FF0000" stroke-width="5" stroke-miterlimit="10" x1="41.57" y1="73.167" x2="80.764" y2="30.167"/>
<path fill-rule="evenodd" clip-rule="evenodd" fill="#FF0000" d="M78.146,33.1c2,2.089,7.559-1.313,13.665-7.502
	c3.095-4.31-2.766-10.267-7.008-6.404C79.128,25.844,76.143,31.01,78.146,33.1z"/>
<path fill-rule="evenodd" clip-rule="evenodd" fill="#FF0000" d="M44.668,69.585c-2.022-2.068-7.543,1.393-13.582,7.649
	c-3.048,4.344,2.876,10.236,7.077,6.328C43.765,76.85,46.694,71.651,44.668,69.585z"/>
<path fill-rule="evenodd" clip-rule="evenodd" fill="#FFFFF0" d="M67.186,56.312c0,5.503-2.901,10.03-6.018,10.03
	c-3.118,0-6.02-4.479-6.02-9.982c0-1.966,0.186-3.744,0.742-5.289c1.002-2.777,3.272-7.179,5.277-7.179
	c2.001,0,4.34,4.522,5.281,7.179C66.997,52.616,67.186,54.344,67.186,56.312z"/>
<path fill="#FF0000" d="M32.71,45.113L32.71,45.113v3.5l9.349-5.249l-9.349-6.998v3.499l0,0V45.113z M32.71,45.113 M32.71,46.863
	 M37.383,45.113 M37.383,39.865 M32.71,38.115 M32.71,39.865 M32.71,43.364"/>
<rect x="9.333" y="39.865" fill-rule="evenodd" clip-rule="evenodd" fill="#FF0000" width="25.713" height="5.249"/>
<path fill="#FF0000" d="M17.515,20.426L17.515,20.426v-3.499l-9.35,5.248l9.35,6.999v-3.5l0,0V20.426z M17.515,20.426
	 M17.515,18.675 M12.839,20.426 M12.839,25.674 M17.515,27.424 M17.515,25.674 M17.515,22.175"/>
<rect x="17.515" y="20.426" fill-rule="evenodd" clip-rule="evenodd" fill="#FF0000" width="25.712" height="5.248"/>
</svg>
